<svg width="250" height="250" viewBox="0 0 250 250" fill="none" xmlns="http://www.w3.org/2000/svg">
<path d="M224.95 199.247H208.389V199.372H224.95V199.247Z" fill="#EBEBEB"/>
<path d="M165.61 200.604H161.263V200.729H165.61V200.604Z" fill="#EBEBEB"/>
<path d="M207.889 194.604H198.293V194.729H207.889V194.604Z" fill="#EBEBEB"/>
<path d="M47.826 195.444H26.2295V195.569H47.826V195.444Z" fill="#EBEBEB"/>
<path d="M55.4446 195.444H52.2781V195.569H55.4446V195.444Z" fill="#EBEBEB"/>
<path d="M112.574 197.556H65.7356V197.681H112.574V197.556Z" fill="#EBEBEB"/>
<path d="M119.2 168.9H22.6509C21.0774 168.9 19.7969 167.62 19.7969 166.046V30.3301C19.7969 28.7566 21.0774 27.4761 22.6509 27.4761H119.2C120.773 27.4761 122.054 28.7566 122.054 30.3301V166.046C122.054 167.62 120.773 168.9 119.2 168.9ZM22.6509 27.6016C21.1459 27.6016 19.9219 28.8256 19.9219 30.3306V166.047C19.9219 167.552 21.1459 168.776 22.6509 168.776H119.2C120.705 168.776 121.929 167.552 121.929 166.047V30.3301C121.929 28.8256 120.705 27.6011 119.2 27.6011L22.6509 27.6016Z" fill="#EBEBEB"/>
<path d="M227.349 168.9H130.799C129.226 168.9 127.946 167.62 127.946 166.046V30.3301C127.946 28.7566 129.226 27.4761 130.799 27.4761H227.349C228.923 27.4761 230.203 28.7566 230.203 30.3301V166.046C230.203 167.62 228.922 168.9 227.349 168.9ZM130.799 27.6016C129.295 27.6016 128.071 28.8256 128.071 30.3306V166.047C128.071 167.552 129.295 168.776 130.799 168.776H227.349C228.854 168.776 230.078 167.552 230.078 166.047V30.3301C230.078 28.8256 228.854 27.6011 227.349 27.6011L130.799 27.6016Z" fill="#EBEBEB"/>
<path d="M250 191.199H0V191.324H250V191.199Z" fill="#EBEBEB"/>
<path d="M175.036 188.296H222.625V124.973H175.036V188.296Z" fill="#F5F5F5"/>
<path d="M165.958 188.296H175.036V124.973H165.958V188.296Z" fill="#E6E6E6"/>
<path d="M178.125 145.05H219.292V129.672H178.125V145.05Z" fill="#FAFAFA"/>
<path d="M204.076 129.672L203.896 131.722C203.837 132.398 203.271 132.917 202.592 132.917H194.824C194.145 132.917 193.579 132.399 193.519 131.722L193.339 129.672H204.076Z" fill="#EBEBEB"/>
<path d="M178.125 162.107H219.292V146.73H178.125V162.107Z" fill="#FAFAFA"/>
<path d="M204.076 146.729L203.896 148.779C203.837 149.455 203.271 149.974 202.592 149.974H194.824C194.145 149.974 193.579 149.455 193.519 148.779L193.339 146.729H204.076Z" fill="#EBEBEB"/>
<path d="M178.125 179.164H219.292V163.787H178.125V179.164Z" fill="#FAFAFA"/>
<path d="M204.076 163.787L203.896 165.837C203.837 166.513 203.271 167.032 202.592 167.032H194.824C194.145 167.032 193.579 166.513 193.519 165.837L193.339 163.787H204.076Z" fill="#EBEBEB"/>
<path d="M178.125 191.457H218.791L219.291 188.291H178.125V191.457Z" fill="#E6E6E6"/>
<path d="M169.625 191.457H178.125V188.291H169.125L169.625 191.457Z" fill="#E0E0E0"/>
<path d="M197.241 125.042H213.491L211.688 104.434H195.438L197.241 125.042Z" fill="#FAFAFA"/>
<path d="M197.241 125.042H196.465L194.662 104.434H195.438L197.241 125.042Z" fill="#EBEBEB"/>
<path d="M198.713 122.941H211.65L210.215 106.535H197.278L198.713 122.941Z" fill="#F0F0F0"/>
<path d="M199.66 121.59H210.467L209.268 107.885H198.461L199.66 121.59Z" fill="#E6E6E6"/>
<path d="M192.675 125.042L193.791 112.286H177.614L176.498 125.042H192.675Z" fill="#F0F0F0"/>
<path d="M192.675 125.042L193.791 112.286H194.662L193.546 125.042H192.675Z" fill="#E0E0E0"/>
<path d="M191.139 123.741L192.028 113.587H179.15L178.261 123.741H191.139Z" fill="#EBEBEB"/>
<path d="M190.152 122.905L190.894 114.423H180.137L179.394 122.905H190.152Z" fill="#F5F5F5"/>
<path d="M155.322 182.885C155.322 186.265 154.791 188.451 153.898 189.854C153.226 190.909 152.02 191.502 150.768 191.502H145.874C144.623 191.502 143.417 190.909 142.745 189.854C141.851 188.451 141.321 186.265 141.321 182.885C141.321 177.982 143.458 174.057 144.156 170.923C144.408 169.795 143.571 166.336 143.571 166.336H153.071C153.071 166.336 152.234 169.795 152.485 170.923C153.184 174.057 155.322 177.982 155.322 182.885Z" fill="#EBEBEB"/>
<path d="M171.5 163.043C171.5 158.787 164.827 160.554 163.145 153.95C162.507 151.448 167.935 145.784 167.935 145.784H151.012C151.012 145.784 156.44 151.448 155.802 153.95C154.12 160.554 147.447 158.787 147.447 163.043C147.447 167.731 156.861 177.495 157.314 188.484C157.355 189.467 155.544 191.503 155.544 191.503H163.403C163.403 191.503 161.592 189.467 161.632 188.484C162.086 177.495 171.5 167.731 171.5 163.043Z" fill="#F5F5F5"/>
<path d="M166.385 174.105C167.369 172.036 165.335 165.002 165.335 165.002H172.669C172.669 165.002 170.635 172.036 171.618 174.105C172.313 175.565 173.892 176.498 173.892 178.226V188.612C173.892 191.301 171.692 191.502 169.002 191.502C166.312 191.502 164.111 191.302 164.111 188.612V178.226C164.111 176.498 165.691 175.565 166.385 174.105Z" fill="#F0F0F0"/>
<path d="M82.5759 112.764C78.3629 110.939 75.9589 107.089 77.2184 104.181C78.4774 101.273 82.9304 100.392 87.1434 102.216C91.3574 104.04 93.7609 107.891 92.5019 110.799C91.2424 113.707 86.7899 114.588 82.5759 112.764ZM85.9299 105.018C83.9554 104.163 81.8694 104.577 81.2794 105.939C80.6894 107.302 81.8154 109.106 83.7899 109.961C85.7644 110.816 87.8509 110.403 88.4409 109.04C89.0309 107.678 87.9039 105.873 85.9299 105.018Z" fill="#E6E6E6"/>
<path d="M87.533 105.18L85.531 104.313L97.6295 76.3453C97.869 75.7923 98.511 75.5378 99.064 75.7773C99.6165 76.0168 99.871 76.6584 99.6315 77.2114L87.533 105.18Z" fill="#E6E6E6"/>
<path d="M100.559 79.9154L96.717 78.2369L97.5835 76.2349L101.426 77.9134L100.559 79.9154Z" fill="#E6E6E6"/>
<path d="M98.6651 82.1538L95.9141 80.9588L96.7811 78.9568L99.5316 80.1518L98.6651 82.1538Z" fill="#E6E6E6"/>
<path d="M95.6716 82.7822L94.8047 84.7842L97.8895 86.12L98.7565 84.1181L95.6716 82.7822Z" fill="#E6E6E6"/>
<path d="M88.3115 102.194L87.2115 101.718C86.6635 101.481 86.4115 100.844 86.649 100.296L86.6565 100.279C86.894 99.7313 87.5305 99.4793 88.0785 99.7168L89.1785 100.193C89.7265 100.43 89.9785 101.067 89.741 101.615L89.7335 101.632C89.496 102.179 88.8595 102.431 88.3115 102.194Z" fill="#E6E6E6"/>
<path d="M174.234 92.5801C177.572 94.8041 178.434 99.3976 176.153 102.82C173.873 106.242 169.302 107.217 165.964 104.993C162.625 102.769 161.764 98.1746 164.044 94.7526C166.325 91.3301 170.896 90.3561 174.234 92.5801ZM168.162 101.695C169.726 102.737 171.868 102.28 172.936 100.677C174.005 99.0731 173.601 96.9206 172.037 95.8786C170.472 94.8361 168.33 95.2926 167.262 96.8961C166.194 98.4996 166.597 100.653 168.162 101.695Z" fill="#E6E6E6"/>
<path d="M167.353 100.807L169.423 102.186L154.616 124.846C154.235 125.418 153.463 125.573 152.891 125.192C152.32 124.811 152.165 124.039 152.546 123.468L167.353 100.807Z" fill="#E6E6E6"/>
<path d="M152.639 118.527L156.994 121.452L154.82 124.715L150.456 121.785C149.83 121.364 149.662 120.516 150.08 119.888L150.735 118.905C151.156 118.274 152.009 118.105 152.639 118.527Z" fill="#E6E6E6"/>
<path d="M113.769 49.278L111.47 55.232C111.263 55.7685 110.66 56.0355 110.124 55.8285C109.587 55.6215 109.32 55.0185 109.527 54.4815L111.826 48.5275C112.568 46.605 111.608 44.4355 109.685 43.693L107.555 42.8705C105.633 42.128 103.464 43.0895 102.722 45.0125L101.783 47.4435L99.8401 46.6935L100.779 44.2625C101.935 41.2675 105.312 39.772 108.306 40.9275L110.436 41.75C113.429 42.906 114.925 46.283 113.769 49.278Z" fill="#F0F0F0"/>
<path d="M113.405 50.216C113.252 50.0185 113.044 49.8575 112.795 49.761L101.194 45.2825C100.936 45.1825 100.664 45.162 100.411 45.213C99.9475 45.304 99.537 45.6245 99.3545 46.097L94.876 57.6975C94.5925 58.4315 94.9565 59.2535 95.691 59.537L107.292 64.0155C108.026 64.299 108.848 63.935 109.131 63.2005L113.61 51.6C113.796 51.119 113.703 50.5975 113.405 50.216ZM104.597 59.18L100.918 57.7595L102.863 54.364C102.618 53.8715 102.573 53.2805 102.787 52.7255C103.193 51.6745 104.374 51.1485 105.426 51.5545C106.477 51.9605 107.001 53.1445 106.596 54.1955C106.382 54.7505 105.951 55.1575 105.436 55.357L104.597 59.18Z" fill="#E6E6E6"/>
<path d="M34.5783 184.728H127.143V134.912H34.5783V184.728Z" fill="#E6E6E6"/>
<path d="M119.722 191.192H125.54V186.796H119.722V191.192Z" fill="#E6E6E6"/>
<path d="M27.5126 191.192H33.3301L33.3301 131.206H27.5126L27.5126 191.192Z" fill="#E6E6E6"/>
<path d="M33.2605 131.206V191.192H36.363V187.831H125.54V191.192H128.643V131.206H127.091H125.54H36.3635H34.812H33.2605ZM36.3635 136.636H79.4005V157.471H36.3635V136.636ZM125.54 182.401H82.503V136.636H125.54V182.401ZM36.3635 182.401V160.573H79.4005V182.401H36.3635Z" fill="#F0F0F0"/>
<path d="M82.5033 182.401H122.631V138.877H82.5033V182.401Z" fill="#F5F5F5"/>
<path d="M84.3201 159.334C84.3201 160.364 85.1546 161.199 86.1846 161.199C87.2141 161.199 88.0491 160.364 88.0491 159.334C88.0491 158.304 87.2146 157.47 86.1846 157.47C85.1551 157.47 84.3201 158.305 84.3201 159.334Z" fill="#FAFAFA"/>
<path d="M86.1846 161.199C86.9366 161.199 87.5806 160.752 87.8751 160.111C87.9841 160.348 88.0486 160.609 88.0486 160.886C88.0486 161.916 87.2141 162.751 86.1841 162.751C85.1546 162.751 84.3196 161.916 84.3196 160.886C84.3196 160.609 84.3846 160.347 84.4931 160.111C84.7886 160.752 85.4326 161.199 86.1846 161.199Z" fill="#E0E0E0"/>
<path d="M107.068 182.401H97.4949L92.9204 138.877H102.494L107.068 182.401Z" fill="#FAFAFA"/>
<path d="M95.043 182.401H93.1375L88.563 138.877H90.4685L95.043 182.401Z" fill="#FAFAFA"/>
<path d="M69.7017 157.45H73.4937V138.834H69.7017V157.45Z" fill="#FAFAFA"/>
<path d="M53.978 157.45H57.77V138.834H53.978V157.45Z" fill="#F5F5F5"/>
<path d="M65.9092 157.45H69.7012V140.142H65.9092V157.45Z" fill="#F5F5F5"/>
<path d="M57.7705 157.45H61.5625V140.142H57.7705V157.45Z" fill="#FAFAFA"/>
<path d="M61.5622 157.45H64.0127V138.834H61.5622V157.45Z" fill="#EBEBEB"/>
<path d="M64.0129 157.45H65.9089V140.142H64.0129V157.45Z" fill="#FAFAFA"/>
<path d="M50.186 157.45H53.978V138.834H50.186V157.45Z" fill="#EBEBEB"/>
<path d="M46.3938 157.45H50.1858V140.142H46.3938V157.45Z" fill="#E6E6E6"/>
<path d="M38.2549 157.45H42.0469V140.142H38.2549V157.45Z" fill="#E6E6E6"/>
<path d="M42.0466 157.45H44.4971V138.834H42.0466V157.45Z" fill="#FAFAFA"/>
<path d="M44.4973 157.45H46.3933V140.142H44.4973V157.45Z" fill="#EBEBEB"/>
<path d="M36.3586 157.45H38.2546V139.275H36.3586V157.45Z" fill="#EBEBEB"/>
<path d="M40.1504 163.785H36.3584V182.401H40.1504V163.785Z" fill="#EBEBEB"/>
<path d="M55.874 163.785H52.082V182.401H55.874V163.785Z" fill="#FAFAFA"/>
<path d="M43.9424 165.093H40.1504V182.401H43.9424V165.093Z" fill="#FAFAFA"/>
<path d="M52.0816 165.093H48.2896V182.401H52.0816V165.093Z" fill="#EBEBEB"/>
<path d="M48.2896 163.785H45.8391V182.401H48.2896V163.785Z" fill="#FAFAFA"/>
<path d="M45.8389 165.093H43.9429V182.401H45.8389V165.093Z" fill="#F5F5F5"/>
<path d="M59.666 163.785H55.874V182.401H59.666V163.785Z" fill="#EBEBEB"/>
<path d="M63.458 165.093H59.666V182.401H63.458V165.093Z" fill="#F5F5F5"/>
<path d="M71.5969 165.093H67.8049V182.401H71.5969V165.093Z" fill="#E6E6E6"/>
<path d="M67.805 163.785H65.3545V182.401H67.805V163.785Z" fill="#FAFAFA"/>
<path d="M75.9439 163.785H73.4934V182.401H75.9439V163.785Z" fill="#FAFAFA"/>
<path d="M65.3545 165.093H63.4585V182.401H65.3545V165.093Z" fill="#EBEBEB"/>
<path d="M73.4934 164.226H71.5974V182.401H73.4934V164.226Z" fill="#EBEBEB"/>
<path d="M40.59 99.144C40.59 99.144 39.9535 99.437 39.6625 100.029C39.3715 100.621 40.274 101.714 40.274 101.714C40.274 101.714 41.0315 102.242 41.7845 101.9C42.5375 101.558 42.5375 101.558 42.5375 101.558C42.5375 101.558 41.25 99.3235 40.625 99.301L40.59 99.144Z" fill="#E6E6E6"/>
<path d="M43.8141 99.1265C43.9061 100.186 43.2491 101.523 42.3031 101.605C41.3571 101.687 40.4801 100.483 40.3881 99.4235C40.2961 98.364 41.0601 98.2605 42.0061 98.1785C42.9516 98.0965 43.7221 98.067 43.8141 99.1265Z" fill="#E6E6E6"/>
<path d="M41.0426 98.8145C41.0426 98.8145 41.7656 99.3905 43.2551 99.054C43.2551 99.054 40.9056 100.621 41.0426 98.8145Z" fill="#E6E6E6"/>
<path d="M41.6802 98.6039C41.6802 98.6039 42.5142 98.4589 42.5262 98.8069C42.5262 98.8069 43.2337 98.7674 43.1357 98.4714C43.0382 98.1754 41.6802 98.6039 41.6802 98.6039Z" fill="#E6E6E6"/>
<g opacity="0.2">
<path d="M41.0426 98.8145C41.0426 98.8145 41.7656 99.3905 43.2551 99.054C43.2551 99.054 40.9056 100.621 41.0426 98.8145Z" fill="#FAFAFA"/>
</g>
<g opacity="0.2">
<path d="M41.6802 98.6039C41.6802 98.6039 42.5142 98.4589 42.5262 98.8069C42.5262 98.8069 43.2337 98.7674 43.1357 98.4714C43.0382 98.1754 41.6802 98.6039 41.6802 98.6039Z" fill="#FAFAFA"/>
</g>
<path d="M40.7146 101.94C41.0156 102.428 41.6296 102.679 42.1986 102.611C42.7681 102.543 43.2806 102.187 43.6091 101.717C43.9376 101.247 44.0941 100.673 44.1306 100.101C44.1401 99.953 44.1516 99.5825 43.9566 99.525C43.7776 99.4725 43.6671 99.723 43.5841 99.8395C43.3456 100.175 43.0926 100.49 42.7891 100.77C42.4946 101.042 42.1691 101.28 41.8206 101.477C41.7226 101.532 40.7676 102.026 40.7146 101.94Z" fill="#E6E6E6"/>
<path d="M44.7736 99.8239C44.9526 100.253 44.8876 100.776 44.6081 101.148C44.4246 101.392 44.1646 101.567 43.9026 101.725C43.7206 101.835 43.4861 101.939 43.3076 101.823C43.1151 101.699 43.1326 101.416 43.1766 101.191C43.2446 100.844 43.3221 100.499 43.4091 100.157C43.4806 99.8759 43.5236 99.4059 43.6881 99.1674C43.8431 98.9429 44.0626 99.0759 44.2966 99.2389C44.5051 99.3844 44.6756 99.5879 44.7736 99.8239Z" fill="#E6E6E6"/>
<g opacity="0.2">
<path d="M40.9566 101.353C40.5911 101.338 40.2456 101.09 40.1126 100.75C40.0146 100.498 40.0161 99.8581 40.3426 99.7771C40.4871 100.345 40.6121 100.861 40.9566 101.353Z" fill="#FAFAFA"/>
</g>
<g opacity="0.2">
<path d="M43.4221 101.328C43.7671 101.229 44.0541 100.947 44.1591 100.604C44.2171 100.415 44.1436 99.4461 43.8561 99.8531C43.7621 99.9861 43.7796 100.411 43.7306 100.583C43.6571 100.842 43.5536 101.093 43.4221 101.328Z" fill="#FAFAFA"/>
</g>
<g opacity="0.2">
<path d="M42.101 101.926C42.368 102.153 42.7945 102.164 43.0725 101.951C43.036 102.138 42.446 102.295 42.263 102.348C41.7865 102.488 41.537 102.279 41.0745 102.086C41.0745 102.086 41.807 102.197 42.101 101.926Z" fill="#FAFAFA"/>
</g>
<path d="M41.2734 121.4L41.3184 106.974L42.0584 102.587L42.3394 102.635L41.6029 107.002L41.5509 121.674L41.2734 121.4Z" fill="#E0E0E0"/>
<path d="M41.5739 106.901L41.3479 107.075C41.1214 106.78 40.9174 106.395 40.6814 105.949C40.3164 105.26 39.9024 104.478 39.2739 103.787L39.4849 103.596C40.1374 104.314 40.5604 105.112 40.9334 105.816C41.1629 106.25 41.3619 106.625 41.5739 106.901Z" fill="#E0E0E0"/>
<path d="M41.748 104.966C42.132 104.865 42.476 104.621 42.6975 104.291C42.949 103.917 43.0365 103.46 43.1185 103.017C42.6205 103.166 42.0855 102.924 41.5695 102.983C41.158 103.031 40.7745 103.281 40.5665 103.64C40.297 104.104 40.1875 104.631 40.4255 104.843C40.6215 105.018 41.2345 105.101 41.748 104.966Z" fill="#E6E6E6"/>
<path d="M39.8308 103.971C39.3708 104.262 38.7793 104.336 38.2618 104.167C37.7443 103.999 37.5933 103.221 37.3928 102.714C37.8623 102.618 39.0548 102.685 39.3248 102.712C39.5948 102.739 39.8688 102.861 40.0143 103.09C40.1593 103.319 40.1328 103.663 39.9128 103.822C39.8978 103.813 39.8308 103.971 39.8308 103.971Z" fill="#E6E6E6"/>
<path d="M37.4644 104.813C37.7809 104.43 38.5609 104.153 39.0494 104.242C39.5379 104.331 39.9549 104.667 40.1299 105.067C40.0009 105.377 39.6549 105.552 39.3199 105.576C38.9849 105.6 38.6544 105.501 38.3329 105.403C38.0119 105.305 37.6814 105.206 37.3464 105.23L37.4644 104.813Z" fill="#E6E6E6"/>
<path d="M47.0886 102.333C47.0886 102.333 47.6106 102.801 47.7146 103.452C47.8186 104.103 46.6346 104.883 46.6346 104.883C46.6346 104.883 45.7551 105.164 45.1361 104.616C44.5171 104.068 44.5171 104.068 44.5171 104.068C44.5171 104.068 46.4046 102.311 47.0081 102.473L47.0886 102.333Z" fill="#E6E6E6"/>
<path d="M44.012 101.368C43.6125 102.354 43.8475 103.825 44.728 104.181C45.608 104.538 46.8005 103.645 47.1995 102.659C47.599 101.674 46.899 101.35 46.019 100.994C45.139 100.637 44.4115 100.382 44.012 101.368Z" fill="#E6E6E6"/>
<path d="M46.7531 101.885C46.7531 101.885 45.8926 102.223 44.5676 101.463C44.5676 101.463 46.3521 103.652 46.7531 101.885Z" fill="#E6E6E6"/>
<path d="M46.2051 101.496C46.2051 101.496 45.4511 101.112 45.3366 101.441C45.3366 101.441 44.6721 101.196 44.8526 100.941C45.0336 100.688 46.2051 101.496 46.2051 101.496Z" fill="#E6E6E6"/>
<g opacity="0.2">
<path d="M46.7531 101.885C46.7531 101.885 45.8926 102.223 44.5676 101.463C44.5676 101.463 46.3521 103.652 46.7531 101.885Z" fill="#FAFAFA"/>
</g>
<g opacity="0.2">
<path d="M46.2051 101.496C46.2051 101.496 45.4511 101.112 45.3366 101.441C45.3366 101.441 44.6721 101.196 44.8526 100.941C45.0336 100.688 46.2051 101.496 46.2051 101.496Z" fill="#FAFAFA"/>
</g>
<path d="M46.1469 104.969C45.7159 105.347 45.0554 105.406 44.5309 105.174C44.0069 104.941 43.6214 104.451 43.4454 103.905C43.2694 103.359 43.2889 102.764 43.4224 102.206C43.4569 102.062 43.5549 101.704 43.7584 101.707C43.9454 101.71 43.9769 101.981 44.0219 102.117C44.1514 102.509 44.3004 102.883 44.5084 103.241C44.7099 103.587 44.9514 103.91 45.2264 104.201C45.3039 104.283 46.0709 105.036 46.1469 104.969Z" fill="#E6E6E6"/>
<path d="M42.89 101.753C42.5925 102.111 42.5015 102.629 42.659 103.067C42.7625 103.355 42.96 103.598 43.1635 103.826C43.3055 103.985 43.499 104.153 43.7035 104.095C43.9245 104.033 43.991 103.757 44.0145 103.529C44.0515 103.178 44.079 102.826 44.0965 102.473C44.111 102.183 44.208 101.721 44.1205 101.445C44.0385 101.185 43.7895 101.248 43.518 101.335C43.2755 101.412 43.053 101.556 42.89 101.753Z" fill="#E6E6E6"/>
<g opacity="0.2">
<path d="M46.0891 104.337C46.4431 104.429 46.8456 104.294 47.0731 104.007C47.2411 103.795 47.4271 103.184 47.1391 103.01C46.8336 103.51 46.5626 103.967 46.0891 104.337Z" fill="#FAFAFA"/>
</g>
<g opacity="0.2">
<path d="M43.7396 103.587C43.4386 103.392 43.2471 103.038 43.2476 102.679C43.2476 102.481 43.6031 101.576 43.7581 102.05C43.8086 102.204 43.6671 102.606 43.6631 102.784C43.6576 103.054 43.6831 103.324 43.7396 103.587Z" fill="#FAFAFA"/>
</g>
<g opacity="0.2">
<path d="M44.826 104.547C44.5045 104.685 44.0935 104.57 43.89 104.285C43.8695 104.475 44.3875 104.798 44.547 104.903C44.9615 105.177 45.261 105.05 45.76 105.002C45.76 105.002 45.0275 104.893 44.826 104.547Z" fill="#FAFAFA"/>
</g>
<path d="M40.8635 119.247L41.043 118.656L41.2855 117.86L41.566 116.931L43.809 109.545L44.0895 107.426L44.3385 105.545L44.39 105.155L44.5295 105.173L44.5315 105.175L44.673 105.193L44.669 105.227L44.619 105.595L44.3545 107.605L44.1375 109.243L44.0895 109.603L44.072 109.661L41.5645 117.91L41.2815 118.835L41.152 119.265L40.973 119.852L40.8635 119.247Z" fill="#E0E0E0"/>
<path d="M43.8669 109.459L44.0319 109.691C44.3349 109.476 44.6434 109.168 44.9999 108.811C45.5514 108.26 46.1769 107.635 46.9809 107.159L46.8359 106.914C46.0009 107.408 45.3624 108.046 44.7989 108.61C44.4509 108.957 44.1509 109.257 43.8669 109.459Z" fill="#E0E0E0"/>
<path d="M44.2695 107.558C43.9325 107.348 43.6755 107.013 43.56 106.634C43.4295 106.202 43.4805 105.739 43.5325 105.292C43.965 105.58 44.547 105.507 45.023 105.715C45.4025 105.881 45.695 106.234 45.7885 106.637C45.9095 107.16 45.8595 107.695 45.5695 107.829C45.3315 107.938 44.7205 107.838 44.2695 107.558Z" fill="#E6E6E6"/>
<path d="M46.395 107.17C46.7495 107.583 47.2926 107.828 47.8371 107.819C48.3816 107.81 48.7545 107.111 49.095 106.686C48.6745 106.456 47.515 106.169 47.249 106.116C46.983 106.062 46.685 106.098 46.479 106.274C46.273 106.451 46.1975 106.787 46.361 107.003C46.377 106.999 46.395 107.17 46.395 107.17Z" fill="#E6E6E6"/>
<path d="M48.4091 108.67C48.2191 108.211 47.5556 107.716 47.0621 107.658C46.5691 107.599 46.0716 107.798 45.7871 108.129C45.8196 108.463 46.0986 108.732 46.4116 108.854C46.7246 108.975 47.0696 108.978 47.4056 108.978C47.7416 108.979 48.0861 108.981 48.3996 109.102L48.4091 108.67Z" fill="#E6E6E6"/>
<path d="M36.9614 101.757C36.9614 101.757 36.3879 102.16 36.2079 102.794C36.0279 103.429 37.1124 104.342 37.1124 104.342C37.1124 104.342 37.9524 104.725 38.6314 104.253C39.3104 103.781 39.3104 103.781 39.3104 103.781C39.3104 103.781 37.6424 101.815 37.0239 101.905L36.9614 101.757Z" fill="#E6E6E6"/>
<path d="M40.1298 101.16C40.4103 102.186 40.0043 103.619 39.0883 103.87C38.1723 104.12 37.0933 103.094 36.8128 102.068C36.5318 101.042 37.2648 100.803 38.1808 100.552C39.0968 100.301 39.8488 100.134 40.1298 101.16Z" fill="#E6E6E6"/>
<path d="M37.3472 101.351C37.3472 101.351 38.1622 101.787 39.5672 101.189C39.5672 101.189 37.5372 103.153 37.3472 101.351Z" fill="#E6E6E6"/>
<path d="M37.9368 101.029C37.9368 101.029 38.7308 100.737 38.8053 101.077C38.8053 101.077 39.4943 100.911 39.3448 100.637C39.1953 100.364 37.9368 101.029 37.9368 101.029Z" fill="#E6E6E6"/>
<g opacity="0.2">
<path d="M37.3472 101.351C37.3472 101.351 38.1622 101.787 39.5672 101.189C39.5672 101.189 37.5372 103.153 37.3472 101.351Z" fill="#FAFAFA"/>
</g>
<g opacity="0.2">
<path d="M37.9368 101.029C37.9368 101.029 38.7308 100.737 38.8053 101.077C38.8053 101.077 39.4943 100.911 39.3448 100.637C39.1953 100.364 37.9368 101.029 37.9368 101.029Z" fill="#FAFAFA"/>
</g>
<path d="M37.5864 104.484C37.9704 104.91 38.6189 105.047 39.1669 104.878C39.7149 104.709 40.1549 104.267 40.3939 103.745C40.6324 103.224 40.6834 102.631 40.6164 102.061C40.5989 101.914 40.5439 101.547 40.3414 101.526C40.1559 101.507 40.0924 101.773 40.0314 101.903C39.8569 102.276 39.6649 102.631 39.4164 102.961C39.1754 103.281 38.8979 103.574 38.5904 103.83C38.5044 103.902 37.6544 104.559 37.5864 104.484Z" fill="#E6E6E6"/>
<path d="M41.1995 101.674C41.453 102.064 41.4825 102.59 41.2745 103.006C41.138 103.28 40.9135 103.498 40.684 103.7C40.5245 103.841 40.3125 103.986 40.116 103.904C39.904 103.816 39.8705 103.535 39.8735 103.305C39.878 102.952 39.8925 102.599 39.9165 102.246C39.936 101.957 39.894 101.487 40.013 101.223C40.125 100.974 40.365 101.066 40.6245 101.184C40.8565 101.29 41.0605 101.459 41.1995 101.674Z" fill="#E6E6E6"/>
<g opacity="0.2">
<path d="M37.7189 103.864C37.3564 103.914 36.9724 103.733 36.7804 103.422C36.6384 103.191 36.5254 102.562 36.8319 102.424C37.0759 102.956 37.2914 103.441 37.7189 103.864Z" fill="#FAFAFA"/>
</g>
<g opacity="0.2">
<path d="M40.1399 103.395C40.4619 103.236 40.6934 102.908 40.7349 102.551C40.7579 102.354 40.5114 101.414 40.3014 101.866C40.2329 102.014 40.3264 102.429 40.3094 102.607C40.2839 102.875 40.2269 103.14 40.1399 103.395Z" fill="#FAFAFA"/>
</g>
<g opacity="0.2">
<path d="M38.9478 104.221C39.2508 104.396 39.6728 104.331 39.9078 104.071C39.9058 104.262 39.3533 104.522 39.1828 104.608C38.7393 104.831 38.4563 104.67 37.9663 104.563C37.9663 104.563 38.7073 104.541 38.9478 104.221Z" fill="#FAFAFA"/>
</g>
<path d="M41.6324 123.528L39.0854 109.328L39.0244 104.88L39.3094 104.876L39.3699 109.304L41.9549 123.747L41.6324 123.528Z" fill="#E0E0E0"/>
<path d="M39.323 109.211L39.1315 109.422C38.8555 109.173 38.586 108.831 38.2735 108.434C37.7905 107.822 37.243 107.128 36.5005 106.561L36.6735 106.334C37.4445 106.923 38.004 107.632 38.4975 108.258C38.802 108.644 39.065 108.977 39.323 109.211Z" fill="#E0E0E0"/>
<path d="M39.1471 107.276C39.5066 107.108 39.8011 106.805 39.9601 106.442C40.1406 106.029 40.1441 105.563 40.1451 105.112C39.6821 105.348 39.1121 105.206 38.6151 105.357C38.2186 105.478 37.8866 105.793 37.7466 106.183C37.5651 106.688 37.5516 107.226 37.8241 107.392C38.0476 107.529 38.6661 107.502 39.1471 107.276Z" fill="#E6E6E6"/>
<path d="M37.082 106.641C36.6815 107.01 36.113 107.189 35.5735 107.117C35.034 107.044 34.7455 106.306 34.4575 105.843C34.902 105.664 36.0875 105.516 36.358 105.494C36.6285 105.472 36.92 105.543 37.104 105.742C37.288 105.942 37.3235 106.285 37.1355 106.48C37.12 106.473 37.082 106.641 37.082 106.641Z" fill="#E6E6E6"/>
<path d="M34.9055 107.895C35.148 107.462 35.8655 107.048 36.362 107.048C36.8585 107.048 37.329 107.304 37.573 107.666C37.5015 107.994 37.1925 108.228 36.8675 108.312C36.542 108.396 36.1995 108.358 35.866 108.319C35.5325 108.28 35.1895 108.242 34.864 108.326L34.9055 107.895Z" fill="#E6E6E6"/>
<path d="M42.6775 114.817H39.688C39.464 114.812 39.264 114.956 39.197 115.17C38.9515 115.946 38.429 117.985 38.429 121.198C38.429 124.727 39.3495 129.412 39.639 130.796C39.6875 131.029 39.892 131.197 40.13 131.199H42.2115C42.4495 131.197 42.654 131.029 42.7025 130.796C42.992 129.412 43.9125 124.727 43.9125 121.198C43.9125 117.985 43.3895 115.946 43.1445 115.17C43.079 114.965 42.892 114.824 42.6775 114.817Z" fill="#F0F0F0"/>
<path d="M125 213.508C178.541 213.508 221.944 210.973 221.944 207.847C221.944 204.72 178.541 202.185 125 202.185C71.459 202.185 28.0554 204.72 28.0554 207.847C28.0554 210.973 71.459 213.508 125 213.508Z" fill="#F5F5F5"/>
<path d="M60.3914 188.386C60.2214 188.375 60.0889 188.231 60.0929 188.059C60.4629 173.364 61.2209 149.258 61.2604 149.126C61.3109 148.957 61.4889 148.865 61.6574 148.911C61.8259 148.962 61.9229 149.139 61.8734 149.308C61.8639 149.341 61.0984 173.53 60.7319 188.076C60.7279 188.252 60.5809 188.391 60.4044 188.387C60.3999 188.387 60.3959 188.386 60.3914 188.386Z" fill="#263238"/>
<path d="M58.4165 139.316C58.5395 140.448 59.8945 144.371 61.0265 144.248C62.158 144.125 62.638 140.002 62.515 138.87C62.392 137.738 61.3745 136.92 60.243 137.043C59.111 137.167 58.2935 138.184 58.4165 139.316Z" fill="#8B3E00"/>
<path d="M63.9095 151.692C63.7865 150.56 62.4315 146.637 61.2995 146.76C60.1675 146.883 59.6875 151.006 59.8105 152.138C59.9335 153.27 60.951 154.088 62.0825 153.965C63.215 153.842 64.033 152.825 63.9095 151.692Z" fill="#8B3E00"/>
<path d="M54.9744 148.251C56.1064 148.128 60.0299 146.773 59.9069 145.641C59.7839 144.51 55.6604 144.03 54.5289 144.153C53.3969 144.276 52.5794 145.293 52.7024 146.425C52.8254 147.557 53.8424 148.374 54.9744 148.251Z" fill="#8B3E00"/>
<path d="M67.3513 142.758C66.2193 142.881 62.2958 144.236 62.4188 145.368C62.5423 146.5 66.6653 146.98 67.7973 146.856C68.9293 146.733 69.7468 145.716 69.6238 144.584C69.5008 143.453 68.4828 142.635 67.3513 142.758Z" fill="#8B3E00"/>
<path d="M54.8444 143.07C55.7319 143.784 59.4644 145.6 60.1779 144.713C60.8914 143.825 58.3149 140.57 57.4279 139.857C56.5404 139.144 55.2429 139.285 54.5294 140.172C53.8164 141.059 53.9574 142.357 54.8444 143.07Z" fill="#8B3E00"/>
<path d="M67.4809 147.938C66.5934 147.225 62.8609 145.409 62.1474 146.296C61.4344 147.183 64.0104 150.438 64.8979 151.152C65.7854 151.865 67.0829 151.724 67.7959 150.837C68.5099 149.949 68.3684 148.651 67.4809 147.938Z" fill="#8B3E00"/>
<path d="M58.7294 151.823C59.4424 150.935 61.2588 147.203 60.3713 146.489C59.4838 145.776 56.2293 148.352 55.5158 149.24C54.8023 150.127 54.9439 151.425 55.8314 152.138C56.7184 152.851 58.0159 152.71 58.7294 151.823Z" fill="#8B3E00"/>
<path d="M63.597 139.186C62.884 140.074 61.0675 143.806 61.955 144.52C62.8425 145.233 66.0975 142.657 66.8105 141.769C67.524 140.882 67.3825 139.584 66.495 138.871C65.608 138.158 64.31 138.299 63.597 139.186Z" fill="#8B3E00"/>
<g opacity="0.6">
<path d="M58.4165 139.316C58.5395 140.448 59.8945 144.371 61.0265 144.248C62.158 144.125 62.638 140.002 62.515 138.87C62.392 137.738 61.3745 136.92 60.243 137.043C59.111 137.167 58.2935 138.184 58.4165 139.316Z" fill="white"/>
<path d="M63.9095 151.692C63.7865 150.56 62.4315 146.637 61.2995 146.76C60.1675 146.883 59.6875 151.006 59.8105 152.138C59.9335 153.27 60.951 154.088 62.0825 153.965C63.215 153.842 64.033 152.825 63.9095 151.692Z" fill="white"/>
<path d="M54.9744 148.251C56.1064 148.128 60.0299 146.773 59.9069 145.641C59.7839 144.51 55.6604 144.03 54.5289 144.153C53.3969 144.276 52.5794 145.293 52.7024 146.425C52.8254 147.557 53.8424 148.374 54.9744 148.251Z" fill="white"/>
<path d="M67.3513 142.758C66.2193 142.881 62.2958 144.236 62.4188 145.368C62.5423 146.5 66.6653 146.98 67.7973 146.856C68.9293 146.733 69.7468 145.716 69.6238 144.584C69.5008 143.453 68.4828 142.635 67.3513 142.758Z" fill="white"/>
<path d="M54.8444 143.07C55.7319 143.784 59.4644 145.6 60.1779 144.713C60.8914 143.825 58.3149 140.57 57.4279 139.857C56.5404 139.144 55.2429 139.285 54.5294 140.172C53.8164 141.059 53.9574 142.357 54.8444 143.07Z" fill="white"/>
<path d="M67.4809 147.938C66.5934 147.225 62.8609 145.409 62.1474 146.296C61.4344 147.183 64.0104 150.438 64.8979 151.152C65.7854 151.865 67.0829 151.724 67.7959 150.837C68.5099 149.949 68.3684 148.651 67.4809 147.938Z" fill="white"/>
<path d="M58.7294 151.823C59.4424 150.935 61.2588 147.203 60.3713 146.489C59.4838 145.776 56.2293 148.352 55.5158 149.24C54.8023 150.127 54.9439 151.425 55.8314 152.138C56.7184 152.851 58.0159 152.71 58.7294 151.823Z" fill="white"/>
<path d="M63.597 139.186C62.884 140.074 61.0675 143.806 61.955 144.52C62.8425 145.233 66.0975 142.657 66.8105 141.769C67.524 140.882 67.3825 139.584 66.495 138.871C65.608 138.158 64.31 138.299 63.597 139.186Z" fill="white"/>
</g>
<path d="M58.7359 145.768C58.8814 147.109 60.0864 148.077 61.4269 147.931C62.7674 147.786 63.7359 146.581 63.5899 145.24C63.4439 143.9 62.2389 142.931 60.8989 143.077C59.5584 143.223 58.5904 144.428 58.7359 145.768Z" fill="#8B3E00"/>
<path d="M58.976 177.619C56.159 177.681 51.339 175.079 49.4425 172.539C47.518 169.961 52.915 171.548 52.3555 169.522C51.7955 167.495 45.1515 169.014 43.916 166.112C42.6805 163.211 47.4795 163.865 47.2845 162.38C47.09 160.896 42.121 161.212 40.5165 158.129C38.912 155.045 43.2885 156.762 42.5985 155.485C41.9085 154.207 36.4135 148.836 38.7035 147.707C40.993 146.577 46.146 152.172 47.8685 152.794C49.591 153.415 49.982 149.538 52.2265 151.385C54.471 153.233 52.819 161.338 55.458 162.399C57.4235 163.19 56.5775 159.483 58.8405 160.412C62.8025 162.039 60.12 177.594 58.976 177.619Z" fill="#8B3E00"/>
<g opacity="0.2">
<path d="M58.976 177.619C56.159 177.681 51.339 175.079 49.4425 172.539C47.518 169.961 52.915 171.548 52.3555 169.522C51.7955 167.495 45.1515 169.014 43.916 166.112C42.6805 163.211 47.4795 163.865 47.2845 162.38C47.09 160.896 42.121 161.212 40.5165 158.129C38.912 155.045 43.2885 156.762 42.5985 155.485C41.9085 154.207 36.4135 148.836 38.7035 147.707C40.993 146.577 46.146 152.172 47.8685 152.794C49.591 153.415 49.982 149.538 52.2265 151.385C54.471 153.233 52.819 161.338 55.458 162.399C57.4235 163.19 56.5775 159.483 58.8405 160.412C62.8025 162.039 60.12 177.594 58.976 177.619Z" fill="white"/>
</g>
<path d="M63.0244 174.045C63.0714 174.124 62.6499 174.523 64.0409 174.581C67.4664 174.722 73.5229 174.491 75.7974 171.376C79.0449 166.93 71.5549 167.338 72.2834 164.886C73.0119 162.434 81.0579 164.436 82.6284 160.936C84.1989 157.435 78.3469 158.119 78.6179 156.318C78.8894 154.517 85.0294 156.85 87.0529 153.137C89.0764 149.424 83.7129 151.411 84.5819 149.872C85.4509 148.334 92.2599 141.93 89.5014 140.502C86.7429 139.075 80.3444 145.76 78.2344 146.476C76.1244 147.191 75.6364 140.634 72.8629 142.828C70.0894 145.023 71.9094 154.921 68.6749 156.15C66.2654 157.065 67.5799 153.518 64.6069 153.654C60.5679 153.839 59.2399 167.718 63.0244 174.045Z" fill="#8B3E00"/>
<g opacity="0.3">
<path d="M63.0244 174.045C63.0714 174.124 62.6499 174.523 64.0409 174.581C67.4664 174.722 73.5229 174.491 75.7974 171.376C79.0449 166.93 71.5549 167.338 72.2834 164.886C73.0119 162.434 81.0579 164.436 82.6284 160.936C84.1989 157.435 78.3469 158.119 78.6179 156.318C78.8894 154.517 85.0294 156.85 87.0529 153.137C89.0764 149.424 83.7129 151.411 84.5819 149.872C85.4509 148.334 92.2599 141.93 89.5014 140.502C86.7429 139.075 80.3444 145.76 78.2344 146.476C76.1244 147.191 75.6364 140.634 72.8629 142.828C70.0894 145.023 71.9094 154.921 68.6749 156.15C66.2654 157.065 67.5799 153.518 64.6069 153.654C60.5679 153.839 59.2399 167.718 63.0244 174.045Z" fill="white"/>
</g>
<path d="M60.4576 186.166C60.4516 186.165 60.4456 186.165 60.4391 186.164C60.3171 186.15 60.2301 186.039 60.2451 185.916C63.0566 162.908 76.3101 153.556 76.4431 153.465C76.5446 153.396 76.6831 153.421 76.7526 153.522C76.8221 153.623 76.7966 153.762 76.6951 153.832C76.5631 153.922 63.4726 163.173 60.6871 185.97C60.6731 186.086 60.5726 186.17 60.4576 186.166Z" fill="#263238"/>
<path d="M73.4276 156.661C73.3371 156.658 73.2541 156.598 73.2246 156.508C73.1866 156.391 73.2506 156.265 73.3676 156.227C73.4501 156.2 75.4236 155.576 78.6571 156.263C78.7776 156.288 78.8546 156.407 78.8291 156.527C78.8036 156.647 78.6851 156.725 78.5651 156.699C75.4576 156.04 73.5246 156.645 73.5056 156.651C73.4796 156.659 73.4531 156.662 73.4276 156.661Z" fill="#263238"/>
<path d="M70.9775 159.456C70.8595 159.451 70.7655 159.355 70.764 159.235C70.6955 152.277 74.7236 146.84 74.7646 146.786C74.8381 146.688 74.978 146.668 75.0765 146.742C75.175 146.816 75.1946 146.956 75.121 147.054C75.081 147.107 71.143 152.429 71.21 159.231C71.211 159.354 71.1125 159.455 70.9895 159.456C70.9855 159.456 70.9815 159.456 70.9775 159.456Z" fill="#263238"/>
<path d="M67.0305 165.346C66.9745 165.343 66.919 165.32 66.8775 165.276C66.793 165.187 66.797 165.046 66.8865 164.961C66.9165 164.933 69.8985 162.176 73.8035 163.575C73.919 163.616 73.9795 163.744 73.938 163.86C73.8965 163.975 73.769 164.036 73.653 163.994C70.0025 162.685 67.22 165.258 67.1925 165.285C67.1475 165.328 67.0885 165.348 67.0305 165.346Z" fill="#263238"/>
<path d="M64.9677 169.454C64.8847 169.45 64.8067 169.4 64.7722 169.319C64.7097 169.173 63.2492 165.674 64.0542 160.69C64.0742 160.569 64.1837 160.484 64.3097 160.506C64.4312 160.525 64.5137 160.639 64.4942 160.761C63.7112 165.611 65.1672 169.109 65.1822 169.144C65.2302 169.257 65.1777 169.388 65.0647 169.436C65.0327 169.449 64.9997 169.455 64.9677 169.454Z" fill="#263238"/>
<path d="M60.547 194.385C60.4315 194.38 60.3375 194.286 60.334 194.169L60.045 188.075C59.1925 167.813 45.2935 154.031 45.153 153.895C45.065 153.809 45.063 153.668 45.149 153.58C45.2355 153.492 45.376 153.49 45.464 153.576C45.6055 153.714 59.6295 167.613 60.49 188.059L60.779 194.156C60.783 194.279 60.6865 194.381 60.5635 194.386C60.558 194.385 60.5525 194.385 60.547 194.385Z" fill="#263238"/>
<path d="M50.8856 161.506C50.8736 161.505 50.8611 161.504 50.8491 161.501C50.8296 161.497 50.8056 161.488 50.7841 161.476L50.7121 161.447C48.8926 160.691 46.8596 160.299 44.9886 160.34C44.8636 160.346 44.7636 160.246 44.7611 160.122C44.7581 159.999 44.8556 159.898 44.9786 159.895C46.9106 159.853 49.0076 160.257 50.8831 161.036L50.9571 161.066C50.9706 161.071 50.9831 161.077 50.9951 161.084C51.0826 161.129 51.1331 161.228 51.1121 161.329C51.0896 161.438 50.9921 161.51 50.8856 161.506Z" fill="#263238"/>
<path d="M52.851 164.116C52.8475 164.116 52.8435 164.115 52.84 164.115C52.7175 164.104 52.627 163.995 52.638 163.873C53.176 157.893 50.079 152.972 50.0475 152.923C49.9815 152.82 50.0115 152.682 50.115 152.616C50.2195 152.55 50.3565 152.58 50.4225 152.683C50.4545 152.733 53.634 157.777 53.0815 163.913C53.071 164.032 52.969 164.121 52.851 164.116Z" fill="#263238"/>
<path d="M54.8789 167.58C54.8249 167.578 54.7709 167.556 54.7299 167.515C54.7074 167.492 52.4504 165.264 49.1474 166.144C49.0279 166.177 48.9064 166.105 48.8749 165.986C48.8434 165.867 48.9139 165.745 49.0329 165.714C52.5934 164.764 54.9489 167.102 55.0469 167.202C55.1334 167.289 55.1324 167.43 55.0449 167.517C54.9989 167.561 54.9389 167.583 54.8789 167.58Z" fill="#263238"/>
<path d="M57.4537 173.29C57.4217 173.289 57.3897 173.281 57.3597 173.265C57.2507 173.208 57.2087 173.074 57.2657 172.965C57.2812 172.935 58.8107 169.945 58.4622 165.632C58.4522 165.51 58.5432 165.402 58.6662 165.393C58.7897 165.378 58.8962 165.474 58.9062 165.597C59.2662 170.045 57.7262 173.046 57.6607 173.172C57.6192 173.25 57.5372 173.293 57.4537 173.29Z" fill="#263238"/>
<path d="M73.0785 195.344C73.0785 202.451 69.882 208.215 60.2015 208.215C50.9625 208.215 47.3245 202.451 47.3245 195.344C47.3245 192.663 48.148 190.17 49.5495 188.108H70.8535C72.255 190.17 73.0785 192.663 73.0785 195.344Z" fill="#8B3E00"/>
<path opacity="0.7" d="M73.0785 195.344C73.0785 202.451 69.882 208.215 60.2015 208.215C50.9625 208.215 47.3245 202.451 47.3245 195.344C47.3245 192.663 48.148 190.17 49.5495 188.108H70.8535C72.255 190.17 73.0785 192.663 73.0785 195.344Z" fill="white"/>
<path d="M147.05 201.932L152.03 201.205L150.773 189.554L145.792 190.281L147.05 201.932Z" fill="#E8BFBF"/>
<path d="M155.86 201.379C156.292 201.347 156.701 201.17 157.02 200.875C157.156 200.704 157.199 200.476 157.135 200.267C157.106 200.136 157.012 200.029 156.885 199.985C156.219 199.748 154.398 201.09 154.194 201.241C154.155 201.273 154.138 201.325 154.15 201.374C154.167 201.421 154.212 201.452 154.262 201.453C154.795 201.477 155.33 201.452 155.86 201.379ZM156.56 200.211C156.635 200.193 156.714 200.195 156.787 200.217C156.84 200.234 156.879 200.277 156.89 200.331C156.931 200.469 156.904 200.619 156.816 200.733C156.56 201.052 155.747 201.232 154.613 201.232C155.204 200.78 155.867 200.432 156.575 200.204L156.56 200.211Z" fill="#8B3E00"/>
<path d="M154.289 201.458L154.33 201.439C154.883 201.075 155.879 199.807 155.692 199.259C155.635 199.136 155.531 198.979 155.197 198.998C154.955 199.002 154.726 199.109 154.568 199.291C154.028 199.91 154.135 201.274 154.137 201.33C154.135 201.372 154.154 201.412 154.187 201.437C154.216 201.46 154.254 201.468 154.289 201.458ZM155.127 199.248L155.193 199.217C155.413 199.208 155.439 199.29 155.446 199.317C155.563 199.649 154.903 200.623 154.353 201.073C154.302 200.5 154.435 199.925 154.733 199.432C154.839 199.321 154.983 199.253 155.137 199.243L155.127 199.248Z" fill="#8B3E00"/>
<path d="M151.522 199.142L147.105 200.195C146.906 200.236 146.771 200.421 146.792 200.623L146.935 207.013C146.996 207.461 147.409 207.774 147.857 207.713C147.888 207.708 147.919 207.702 147.949 207.695C149.862 207.218 150.765 206.893 153.197 206.332C154.688 205.989 159.411 205.633 161.346 204.771C163.281 203.91 162.527 201.949 161.645 202.134C158.807 202.744 155.16 201.529 153.089 199.68C152.808 199.542 151.825 199.064 151.522 199.142Z" fill="#263238"/>
<path opacity="0.2" d="M150.773 189.554L151.421 195.559L146.442 196.292L145.788 190.288L150.773 189.554Z" fill="black"/>
<path d="M153.433 193.088L144.219 194.808C144.219 194.808 139.744 188.42 138.9 183.884C138.021 179.16 138.96 163.079 138.9 162.866C136.293 154.067 129.212 131.265 125.793 122.875C123.899 118.225 122.57 115.095 122.57 115.095L123.528 114.88L131.049 111.799L136.53 112.832C136.53 112.832 153.187 146.513 154.933 159.183C156.236 168.644 153.433 193.088 153.433 193.088Z" fill="#8B3E00"/>
<path opacity="0.3" d="M153.433 193.088L144.219 194.808C144.219 194.808 139.744 188.42 138.9 183.884C138.021 179.16 138.96 163.079 138.9 162.866C136.293 154.067 129.212 131.265 125.793 122.875C123.899 118.225 122.57 115.095 122.57 115.095L123.528 114.88L131.049 111.799L136.53 112.832C136.53 112.832 153.187 146.513 154.933 159.183C156.236 168.644 153.433 193.088 153.433 193.088Z" fill="white"/>
<path opacity="0.2" d="M136.729 155.246C134.123 146.447 128.866 133.1 125.446 124.709L123.18 116.714L122.745 115.176L123.538 116.629L132.465 136.402C136.404 143.973 136.789 155.459 136.729 155.246Z" fill="black"/>
<path d="M96.2861 199.188L100.725 201.058L105.462 190.895L101.023 189.025L96.2861 199.188Z" fill="#E8BFBF"/>
<path d="M103.617 203.186C103.969 203.406 104.385 203.5 104.797 203.452C104.999 203.397 105.161 203.245 105.23 203.048C105.282 202.93 105.269 202.794 105.196 202.689C104.817 202.129 102.652 202.136 102.409 202.138C102.361 202.14 102.318 202.17 102.3 202.215C102.287 202.261 102.303 202.311 102.342 202.339C102.74 202.66 103.167 202.943 103.617 203.186ZM104.818 202.68C104.886 202.708 104.945 202.754 104.99 202.813C105.021 202.855 105.027 202.911 105.005 202.959C104.958 203.089 104.853 203.188 104.72 203.227C104.342 203.329 103.613 203.008 102.738 202.367C103.449 202.352 104.158 202.459 104.834 202.682L104.818 202.68Z" fill="#8B3E00"/>
<path d="M102.36 202.359L102.402 202.368C103.035 202.399 104.521 201.983 104.686 201.454C104.711 201.327 104.719 201.146 104.451 200.972C104.262 200.839 104.025 200.792 103.8 200.843C103.033 201.016 102.345 202.13 102.314 202.174C102.289 202.205 102.281 202.247 102.292 202.285C102.301 202.319 102.327 202.346 102.36 202.359ZM104.255 201.126L104.324 201.14C104.499 201.257 104.473 201.334 104.463 201.36C104.366 201.682 103.305 202.061 102.626 202.098C102.911 201.626 103.339 201.258 103.847 201.045C103.992 201.02 104.142 201.049 104.266 201.128L104.255 201.126Z" fill="#8B3E00"/>
<path d="M101.532 199.006L97.5266 197.323C97.3501 197.242 97.1406 197.308 97.0431 197.476L93.5416 202.491C93.3361 202.871 93.4776 203.346 93.8581 203.552C93.8846 203.567 93.9116 203.579 93.9396 203.59C95.6861 204.303 96.5666 204.563 98.7621 205.505C100.107 206.082 103.956 208.477 105.936 208.905C107.917 209.334 108.444 207.393 107.657 207.037C105.121 205.904 102.992 202.905 102.438 200.307C102.298 200.042 101.81 199.117 101.532 199.006Z" fill="#263238"/>
<path opacity="0.2" d="M105.656 191.014L103.088 196.192L98.6936 194.22L101.257 189.04L105.656 191.014Z" fill="black"/>
<path d="M106.58 196.657L97.7401 191.945C97.7401 191.945 96.0451 185.651 97.7401 181.637C101.002 173.911 109.489 162.551 109.546 162.337C111.811 153.444 115.783 129.091 117.14 120.133C117.893 115.169 118.336 114.098 118.336 114.098L119.268 114.403L132.795 114.43C132.795 114.43 135.347 134.914 125.567 166.629C123.133 174.52 119.057 181.081 112.349 189.956C109.802 193.326 106.58 196.657 106.58 196.657Z" fill="#8B3E00"/>
<path opacity="0.3" d="M106.58 196.657L97.7401 191.945C97.7401 191.945 96.0451 185.651 97.7401 181.637C101.002 173.911 109.489 162.551 109.546 162.337C111.811 153.444 115.783 129.091 117.14 120.133C117.893 115.169 118.336 114.098 118.336 114.098L119.268 114.403L132.795 114.43C132.795 114.43 135.347 134.914 125.567 166.629C123.133 174.52 119.057 181.081 112.349 189.956C109.802 193.326 106.58 196.657 106.58 196.657Z" fill="white"/>
<path d="M144.778 97.693C144.877 96.174 145.885 94.2175 146.754 93.313C147.033 93.024 148.087 92.584 148.685 92.195C151.622 90.268 157.5 87.8645 157.5 87.8645L159.314 89.446C159.314 89.446 155.733 92.907 153.603 94.5665C153.185 94.8925 152.7 95.2885 152.189 95.707C151.263 96.48 146.901 99.3565 146.069 100.077L144.778 97.693Z" fill="#E8BFBF"/>
<path d="M162.671 86.97L159.316 89.449L157.434 88.063C157.434 88.063 158.202 87.0845 158.991 86.3265C159.338 85.9935 159.525 85.535 159.529 85.0545C159.536 84.3155 159.647 83.458 160.049 82.829C160.059 82.8145 160.064 82.7995 160.073 82.7895C160.801 81.6935 162.501 82.023 162.845 83.291L163.33 85.0795C163.52 85.7855 163.259 86.536 162.671 86.97Z" fill="#E8BFBF"/>
<path d="M145.851 98.3636L144.967 99.1746C144.691 98.9536 144.254 98.5996 143.704 98.1426C139.394 94.5646 128.589 85.8856 132.896 83.4086C136.588 81.2856 140.509 87.7826 142.465 89.7336C142.863 90.1366 143.954 91.3946 144.834 92.9726C145.753 94.6281 146.436 96.6336 145.851 98.3636Z" fill="#263238"/>
<path d="M144.832 92.1956C143.302 93.3136 141.996 94.7366 141.014 96.3561C141.722 98.7046 143.507 100.748 145.757 101.724C146.99 98.8626 147.565 95.7861 147.32 92.6796C146.54 92.5116 145.612 92.3636 144.832 92.1956Z" fill="#263238"/>
<path d="M121.104 82.9026C119.562 83.3981 117.797 83.0016 116.807 84.2836C115.818 85.5656 115.52 87.2576 115.522 88.8771C115.524 91.1296 116.039 93.3461 116.551 95.5391C117.172 98.1986 117.793 100.858 118.414 103.517C118.839 105.335 118.392 113.788 118.845 113.93C118.845 113.93 132.98 113.653 136.524 113.156C136.524 113.156 136.832 104.467 137.116 101.507C137.179 100.851 138.176 98.0626 138.293 97.3621C138.845 94.0611 137.763 91.7331 136.62 88.5871C136.62 88.5871 134.117 83.5476 132.895 83.4101C130.72 83.1646 125.4 81.5221 121.104 82.9026Z" fill="#263238"/>
<path d="M120.509 87.0726C120.459 86.7791 117.951 81.7116 115.547 85.2536C112.2 90.1836 111.975 96.3736 111.975 96.3736C111.975 96.3736 109.918 102.393 111.351 103.707C112.784 105.022 114.33 105.868 115.331 105.122C116.332 104.377 116.982 102.887 116.982 102.887C116.982 102.887 121.388 92.2301 120.509 87.0726Z" fill="#263238"/>
<path d="M120.347 81.023C119.292 81.8465 119.431 83.755 120.594 84.4165C120.302 85.4385 120.644 86.6145 121.439 87.3205C122.234 88.0265 123.442 88.227 124.422 87.8155C123.998 88.575 124.476 89.5775 125.208 90.0475C125.939 90.5175 126.843 90.603 127.705 90.7185C128.567 90.834 129.477 91.0195 130.103 91.6235C130.994 90.3415 131.884 89.06 132.775 87.778C133.122 87.279 133.482 86.7435 133.509 86.1365C133.536 85.529 133.074 84.8595 132.468 84.904C133.084 84.2615 133.097 83.135 132.495 82.479C131.893 81.823 130.769 81.739 130.077 82.298C130.201 81.7845 129.9 81.239 129.466 80.937C129.032 80.635 128.492 80.532 127.966 80.4805L120.347 81.023Z" fill="#263238"/>
<path d="M121.951 74.4976C122.646 77.0491 123.49 81.7536 121.803 83.6131C121.803 83.6131 126.577 85.5246 129.97 89.3606C131.549 87.8266 131.385 86.1031 130.901 84.8426C130.526 83.8661 129.721 83.1411 128.758 82.7321C126.9 81.9426 126.884 80.1131 127.193 78.3596L121.951 74.4976Z" fill="#E8BFBF"/>
<path opacity="0.2" d="M122.991 78.8425L124.747 79.319C125.499 79.523 126.285 79.5695 127.055 79.456C127.048 79.834 126.98 80.637 127.218 81.0605C126.21 81.547 124.505 81.213 123.751 80.325C123.439 79.9785 123.161 79.277 122.991 78.8425Z" fill="black"/>
<path d="M118.544 72.3257C120.402 76.2477 121.105 77.9462 123.966 79.1947C128.277 81.0817 132.674 77.9312 132.023 73.5332C131.437 69.5777 128.495 63.8277 123.92 63.8072C120.651 63.7752 117.974 66.3987 117.942 69.6682C117.934 70.5882 118.139 71.4982 118.544 72.3257Z" fill="#E8BFBF"/>
<path d="M120.586 64.8357C119.232 64.2032 117.549 64.7192 116.421 65.7112C115.274 66.7207 114.575 68.1327 113.906 69.5062C113.542 70.2527 113.174 71.0092 113.006 71.8227C112.837 72.6362 112.886 73.5257 113.316 74.2367C113.737 74.9337 114.521 75.3912 115.331 75.4387C115.797 75.4657 116.343 75.8027 116.494 76.2447C116.634 76.6552 116.567 77.0997 116.502 77.5262C116.438 77.9392 116.378 78.3702 116.507 78.7667C116.723 79.4267 117.429 79.8272 118.12 79.8942C118.811 79.9612 119.498 79.7612 120.163 79.5632C120.585 79.4377 121.01 79.5102 121.338 79.8042C121.42 79.8777 121.487 79.9657 121.538 80.0627C121.745 80.4562 122.344 80.3942 122.517 79.9842C123.122 78.5467 122.241 76.2482 120.93 74.4942C120.234 73.5632 120.272 73.8007 119.998 72.6707C119.771 71.7307 120.115 70.7497 120.536 69.8787C121.098 68.7172 121.82 67.5842 121.597 66.1977C121.503 65.6112 121.124 65.0867 120.586 64.8357Z" fill="#263238"/>
<path d="M118.661 76.3377C119.278 76.9937 120.129 77.3782 121.029 77.4067C122.223 77.4327 122.526 76.2937 121.95 75.3222C121.429 74.4462 120.181 73.3812 119.1 73.8042C118.019 74.2277 117.909 75.5202 118.661 76.3377Z" fill="#E8BFBF"/>
<path d="M126.017 71.6272C126.155 71.9707 126.428 72.1522 126.644 72.0637C126.86 71.9752 126.913 71.6492 126.793 71.3162C126.673 70.9832 126.383 70.7947 126.166 70.8797C125.95 70.9642 125.888 71.3007 126.017 71.6272Z" fill="#263238"/>
<path d="M129.676 70.0523C129.811 70.3968 130.087 70.5773 130.3 70.4898C130.512 70.4023 130.569 70.0753 130.449 69.7423C130.33 69.4093 130.039 69.2208 129.826 69.3048C129.613 69.3883 129.543 69.7263 129.676 70.0523Z" fill="#263238"/>
<path d="M129.732 69.3638L130.427 68.8198C130.427 68.8198 130.276 69.5943 129.732 69.3638Z" fill="#263238"/>
<path d="M128.726 70.7866C129.576 71.6251 130.215 71.7786 131.135 72.3546C131.109 73.1716 130.34 73.3591 130.34 73.3591L128.726 70.7866Z" fill="#ED847E"/>
<path d="M129.952 74.9604C130.11 74.9009 130.264 74.8284 130.411 74.7434C130.459 74.7179 130.477 74.6579 130.451 74.6104C130.45 74.6089 130.449 74.6074 130.449 74.6054C130.42 74.5579 130.36 74.5394 130.31 74.5629C129.534 75.0134 128.59 75.0634 127.771 74.6969C127.72 74.6699 127.657 74.6889 127.629 74.7404C127.602 74.7914 127.621 74.8554 127.673 74.8824C128.391 75.2124 129.212 75.2404 129.952 74.9604Z" fill="#263238"/>
<path d="M125.88 68.9049C125.875 68.9984 125.811 69.0784 125.72 69.1034C124.761 69.3879 124.336 70.6049 124.334 70.6149C124.296 70.7279 124.174 70.7889 124.061 70.7509C123.948 70.7129 123.887 70.5909 123.924 70.4779C123.961 70.4319 124.426 69.0359 125.594 68.6869C125.708 68.6549 125.827 68.7194 125.862 68.8329C125.874 68.8549 125.88 68.8799 125.88 68.9049Z" fill="#263238"/>
<path d="M130.305 68.3163C130.225 68.3653 130.123 68.3578 130.051 68.2978C129.27 67.6718 128.028 68.0158 128.019 68.0198C127.904 68.0533 127.784 67.9873 127.751 67.8728C127.718 67.7583 127.784 67.6383 127.898 67.6053C127.957 67.6093 129.369 67.1953 130.322 67.9573C130.413 68.0328 130.428 68.1673 130.355 68.2608C130.342 68.2828 130.325 68.3018 130.305 68.3163Z" fill="#263238"/>
<path d="M126.079 70.9372L126.775 70.3967C126.775 70.3967 126.617 71.1697 126.079 70.9372Z" fill="#263238"/>
<path d="M120.884 64.1806C119.792 64.2681 118.756 64.8896 118.163 65.8111C117.766 66.4296 117.626 67.3696 118.214 67.8111C118.489 68.0176 118.851 68.0551 119.194 68.0851C120.716 68.2186 122.592 67.0431 122.592 67.0431C122.006 64.5581 127.219 62.6351 129.789 66.4846C130.544 67.6156 130.34 68.4371 131.596 68.9596C132.187 69.2056 132.966 69.1376 133.344 69.6541C133.972 70.5106 132.765 71.9611 133.532 72.6966C134.056 73.1996 135.245 73.0076 135.318 73.7306C135.353 74.0706 135.13 74.5626 135.457 74.6621C135.638 74.7171 135.805 74.5516 135.922 74.4031C136.204 74.0441 136.495 73.6686 136.592 73.2226C136.689 72.7761 136.53 72.2386 136.115 72.0496C135.795 71.9041 134.951 72.0666 135.008 72.4126C135.077 72.8291 134.72 70.7851 134.88 70.0126C135.019 69.3401 135.662 68.7571 135.467 68.0981C135.259 67.3951 134.424 67.1146 133.699 67.0071C132.974 66.8996 132.152 66.8116 131.706 66.2296C131.209 65.5796 131.435 64.6511 131.275 63.8481C131.072 62.8271 130.22 62.0316 129.265 61.6176C126.366 60.3601 121.882 60.5386 120.884 64.1806Z" fill="#263238"/>
<path d="M129.118 77.5222L119.12 82.5447C115.833 84.1957 114.346 88.0782 115.689 91.5032L120.511 103.8C121.854 107.224 125.585 109.065 129.119 108.045L139.87 104.945C143.899 103.783 146.056 99.4107 144.525 95.5072L138.95 81.2887C137.42 77.3857 132.864 75.6402 129.118 77.5222ZM127.466 98.6402C125.237 99.5127 122.721 98.4132 121.847 96.1847C120.973 93.9562 122.072 91.4422 124.301 90.5697C126.53 89.6972 129.045 90.7962 129.919 93.0247C130.793 95.2532 129.695 97.7677 127.466 98.6402Z" fill="#8B3E00"/>
<path d="M129.118 77.5222L119.12 82.5447C115.833 84.1957 114.346 88.0782 115.689 91.5032L120.511 103.8C121.854 107.224 125.585 109.065 129.119 108.045L139.87 104.945C143.899 103.783 146.056 99.4107 144.525 95.5072L138.95 81.2887C137.42 77.3857 132.864 75.6402 129.118 77.5222ZM127.466 98.6402C125.237 99.5127 122.721 98.4132 121.847 96.1847C120.973 93.9562 122.072 91.4422 124.301 90.5697C126.53 89.6972 129.045 90.7962 129.919 93.0247C130.793 95.2532 129.695 97.7677 127.466 98.6402Z" fill="#8B3E00"/>
<path opacity="0.1" d="M144.527 95.509L138.949 81.291C137.421 77.384 132.865 75.639 129.12 77.5215L126.215 78.981L124.264 79.959L119.124 82.544C115.836 84.1955 114.347 88.078 115.688 91.5035L120.51 103.8C121.856 107.226 125.587 109.064 129.12 108.047L139.874 104.946C140.753 104.69 141.545 104.282 142.228 103.756C142.759 103.353 143.221 102.881 143.609 102.356C145.019 100.458 145.461 97.8975 144.527 95.509ZM127.463 98.6395C125.237 99.5145 122.72 98.4135 121.846 96.182C120.971 93.9555 122.072 91.4395 124.303 90.5695C126.529 89.6945 129.046 90.7955 129.921 93.022C130.791 95.2535 129.695 97.765 127.463 98.6395Z" fill="white"/>
<path d="M129.221 78.4576L119.844 83.1676C116.762 84.7161 115.367 88.3576 116.627 91.5701L121.149 103.102C122.408 106.314 125.907 108.04 129.223 107.085L139.306 104.177C143.084 103.087 145.107 98.9866 143.672 95.3256L138.443 81.9901C137.007 78.3296 132.734 76.6921 129.221 78.4576ZM121.846 96.1846C120.972 93.9561 122.072 91.4421 124.301 90.5696C126.53 89.6971 129.045 90.7961 129.919 93.0246C130.793 95.2531 129.694 97.7676 127.465 98.6401C125.236 99.5126 122.72 98.4131 121.846 96.1846Z" fill="#8B3E00"/>
<path opacity="0.1" d="M129.221 78.4576L119.844 83.1676C116.762 84.7161 115.367 88.3576 116.627 91.5701L121.149 103.102C122.408 106.314 125.907 108.04 129.223 107.085L139.306 104.177C143.084 103.087 145.107 98.9866 143.672 95.3256L138.443 81.9901C137.007 78.3296 132.734 76.6921 129.221 78.4576ZM121.846 96.1846C120.972 93.9561 122.072 91.4421 124.301 90.5696C126.53 89.6971 129.045 90.7961 129.919 93.0246C130.793 95.2531 129.694 97.7676 127.465 98.6401C125.236 99.5126 122.72 98.4131 121.846 96.1846Z" fill="#8B3E00"/>
<path d="M175.809 74.0106L175.522 74.5341L175.363 74.8246L174.911 75.6511L175.1 77.7666C175.108 77.8571 175.098 77.9466 175.071 78.0291C175.011 78.2121 174.872 78.3646 174.685 78.4381L170.733 79.9851C170.546 80.0581 170.341 80.0416 170.172 79.9471C170.118 79.9171 170.067 79.8796 170.022 79.8331L167.789 77.5616L167.783 77.5551L164.606 78.7986L165.066 79.9726L161.889 81.2161L162.647 83.1496L160.308 84.0651C160.117 84.1401 159.905 84.1271 159.728 84.0346C159.669 84.0056 159.615 83.9666 159.566 83.9211L158.218 82.6531L155.041 83.8966L155.799 85.8301L152.459 87.1376L153.22 89.0791C153.345 89.3961 153.188 89.7541 152.871 89.8781L143.723 93.4596L139.753 83.3356L172.845 70.3816L173.363 70.6471L175.041 71.5086C175.955 71.9781 176.303 73.1096 175.809 74.0106Z" fill="#8B3E00"/>
<g opacity="0.1">
<path d="M175.809 74.0106L175.522 74.5341L175.363 74.8246L174.911 75.6511L175.1 77.7666C175.108 77.8571 175.098 77.9466 175.071 78.0291C175.011 78.2121 174.872 78.3646 174.685 78.4381L170.733 79.9851C170.546 80.0581 170.341 80.0416 170.172 79.9471C170.118 79.9171 170.067 79.8796 170.022 79.8331L167.789 77.5616L167.783 77.5551L164.606 78.7986L165.066 79.9726L161.889 81.2161L162.647 83.1496L160.308 84.0651C160.117 84.1401 159.905 84.1271 159.728 84.0346C159.669 84.0056 159.615 83.9666 159.566 83.9211L158.218 82.6531L155.041 83.8966L155.799 85.8301L152.459 87.1376L153.22 89.0791C153.345 89.3961 153.188 89.7541 152.871 89.8781L143.723 93.4596L139.753 83.3356L172.845 70.3816L173.363 70.6471L175.041 71.5086C175.955 71.9781 176.303 73.1096 175.809 74.0106Z" fill="white"/>
</g>
<path d="M175.679 72.8581L140.299 86.7076L139.268 84.1091L173.001 70.9041L174.679 71.7656C175.318 72.0936 175.685 72.3981 175.679 72.8581Z" fill="#8B3E00"/>
<path opacity="0.1" d="M175.679 72.8581L140.299 86.7076L139.268 84.1091L173.001 70.9041L174.679 71.7656C175.318 72.0936 175.685 72.3981 175.679 72.8581Z" fill="black"/>
<path d="M174.98 74.8091L174.638 75.5781C174.632 75.5906 174.63 75.6046 174.631 75.6181L174.823 77.7126C174.83 77.7891 174.823 77.8651 174.805 77.9366C174.799 77.9611 174.78 77.9806 174.757 77.9901L170.46 79.6811C170.437 79.6901 170.411 79.6891 170.389 79.6756C170.348 79.6496 170.308 79.6181 170.273 79.5821L167.816 77.1131C167.793 77.0901 167.759 77.0831 167.729 77.0951L164.241 78.4681C164.2 78.4846 164.179 78.5311 164.196 78.5726L164.611 79.6251C164.627 79.6666 164.607 79.7131 164.565 79.7296L161.591 80.9006C161.549 80.9171 161.529 80.9636 161.545 81.0051L162.262 82.8221C162.278 82.8636 162.258 82.9101 162.216 82.9266L160.034 83.7856C160.012 83.7946 159.986 83.7936 159.965 83.7816C159.919 83.7551 159.876 83.7231 159.837 83.6861L158.241 82.2156C158.218 82.1946 158.186 82.1886 158.157 82.2001L154.692 83.5641C154.651 83.5806 154.63 83.6271 154.647 83.6686L155.381 85.5306C155.397 85.5721 155.377 85.6186 155.335 85.6351L142.031 90.8706C141.99 90.8871 141.943 90.8666 141.927 90.8256L140.599 87.4931C140.583 87.4516 140.603 87.4046 140.645 87.3881L175.313 73.7431C175.38 73.7166 175.446 73.7856 175.416 73.8516L174.98 74.8091Z" fill="#8B3E00"/>
<path opacity="0.1" d="M174.98 74.8091L174.638 75.5781C174.632 75.5906 174.63 75.6046 174.631 75.6181L174.823 77.7126C174.83 77.7891 174.823 77.8651 174.805 77.9366C174.799 77.9611 174.78 77.9806 174.757 77.9901L170.46 79.6811C170.437 79.6901 170.411 79.6891 170.389 79.6756C170.348 79.6496 170.308 79.6181 170.273 79.5821L167.816 77.1131C167.793 77.0901 167.759 77.0831 167.729 77.0951L164.241 78.4681C164.2 78.4846 164.179 78.5311 164.196 78.5726L164.611 79.6251C164.627 79.6666 164.607 79.7131 164.565 79.7296L161.591 80.9006C161.549 80.9171 161.529 80.9636 161.545 81.0051L162.262 82.8221C162.278 82.8636 162.258 82.9101 162.216 82.9266L160.034 83.7856C160.012 83.7946 159.986 83.7936 159.965 83.7816C159.919 83.7551 159.876 83.7231 159.837 83.6861L158.241 82.2156C158.218 82.1946 158.186 82.1886 158.157 82.2001L154.692 83.5641C154.651 83.5806 154.63 83.6271 154.647 83.6686L155.381 85.5306C155.397 85.5721 155.377 85.6186 155.335 85.6351L142.031 90.8706C141.99 90.8871 141.943 90.8666 141.927 90.8256L140.599 87.4931C140.583 87.4516 140.603 87.4046 140.645 87.3881L175.313 73.7431C175.38 73.7166 175.446 73.7856 175.416 73.8516L174.98 74.8091Z" fill="black"/>
<path opacity="0.3" d="M124.037 89.4882C121.241 90.5827 119.862 93.7362 120.958 96.5322C122.055 99.3282 125.21 100.707 128.006 99.6122C130.802 98.5177 132.181 95.3642 131.085 92.5682C129.988 89.7722 126.833 88.3937 124.037 89.4882ZM127.466 98.6402C125.237 99.5127 122.72 98.4132 121.846 96.1847C120.972 93.9562 122.072 91.4422 124.301 90.5697C126.53 89.6972 129.045 90.7962 129.919 93.0247C130.793 95.2532 129.695 97.7677 127.466 98.6402Z" fill="white"/>
<path opacity="0.1" d="M143.607 102.351C143.218 102.877 142.756 103.348 142.226 103.751L124.263 79.9541L124.248 79.9346C124.248 79.9346 125.831 79.1386 126.189 78.9026C126.189 78.9221 126.199 78.9471 126.214 78.9761C127 80.6616 141.12 98.9936 143.607 102.351Z" fill="white"/>
<path opacity="0.1" d="M141.011 104.503C140.898 104.557 135.664 106.15 135.664 106.15L129.831 98.4237C131.339 96.9442 131.905 94.6542 131.084 92.5652C129.988 89.7687 126.833 88.3877 124.036 89.4837C123.79 89.5772 123.559 89.6902 123.338 89.8176L118.178 82.9812C118.178 82.9812 122.714 80.8187 123.215 80.5042C123.348 81.4632 141.011 104.302 141.011 104.503Z" fill="white"/>
<path d="M119.594 66.9705C119.01 67.6655 118.771 68.6385 118.968 69.525C119.165 70.4115 119.792 71.192 120.616 71.575C121.043 71.7735 121.513 71.8685 121.935 72.0765C122.358 72.2845 122.749 72.651 122.794 73.1195C122.844 73.637 122.462 74.1205 122.498 74.639C122.531 75.114 122.903 75.491 123.278 75.7845C123.653 76.078 124.072 76.355 124.278 76.784C124.485 77.213 124.351 77.8485 123.891 77.9735C123.794 78.122 123.757 78.476 123.881 78.6035C124.004 78.7305 124.218 78.7575 124.369 78.6645C125.075 78.2305 125.559 77.412 125.565 76.5835C125.57 75.755 125.05 74.9465 124.294 74.6075C124.158 74.332 124.264 73.9825 124.378 73.697C124.607 73.1245 124.835 72.552 125.064 71.9795C125.154 71.7545 125.074 71.345 124.921 71.158C124.767 70.971 124.536 70.869 124.313 70.7735L122.839 70.1415C122.283 69.903 120.632 67.69 122.592 67.044C122.336 66.4755 121.893 66.297 121.28 66.185C120.666 66.073 119.996 66.493 119.594 66.9705Z" fill="#263238"/>
<path d="M122.269 64.5901C122.22 65.1721 122.171 65.7536 122.122 66.3356C122.611 65.5336 123.516 63.9791 123.485 64.0396C123.101 64.2481 122.654 64.3811 122.269 64.5901Z" fill="#263238"/>
<path d="M122.931 65.5462C123.614 64.9147 124.296 64.2832 124.979 63.6522C124.452 63.4547 123.814 63.6017 123.427 64.0102C123.438 63.9672 123.122 64.9372 122.931 65.5462Z" fill="#263238"/>
<path d="M118.767 112.85C116.1 116.159 116.987 118.697 113.307 124.555C117.949 127.996 123.038 128.566 129.365 128.075C130.113 126.75 130.491 125.368 131.239 124.043C132.311 125.373 133.172 126.492 134.244 127.822C137.559 127.303 141.498 126.371 144.119 124.682C141.804 122.027 140.367 118.71 138.884 115.783C138.189 114.41 138.48 113.832 136.636 112.032C130.762 112.303 124.937 112.447 119.063 112.718C119.218 112.726 118.612 112.842 118.767 112.85Z" fill="#263238"/>
<path d="M119.497 112.297L119.129 113.841C119.076 113.963 119.219 114.078 119.417 114.067L135.608 113.35C135.763 113.353 135.887 113.261 135.893 113.167L135.979 111.632C135.981 111.529 135.846 111.442 135.677 111.453L119.768 112.156C119.659 112.151 119.556 112.205 119.497 112.297Z" fill="#8B3E00"/>
<path d="M119.497 112.297L119.129 113.841C119.076 113.963 119.219 114.078 119.417 114.067L135.608 113.35C135.763 113.353 135.887 113.261 135.893 113.167L135.979 111.632C135.981 111.529 135.846 111.442 135.677 111.453L119.768 112.156C119.659 112.151 119.556 112.205 119.497 112.297Z" fill="#8B3E00"/>
<path d="M123.063 114.069L122.593 114.09C122.504 114.088 122.429 114.05 122.435 113.993L122.562 111.998C122.563 111.942 122.643 111.891 122.737 111.888L123.208 111.863C123.297 111.864 123.372 111.903 123.366 111.964L123.239 113.954C123.234 114.011 123.153 114.066 123.063 114.069Z" fill="#263238"/>
<path d="M134.754 113.565L134.284 113.586C134.194 113.584 134.12 113.545 134.126 113.489L134.252 111.499C134.253 111.438 134.334 111.387 134.423 111.384L134.893 111.364C134.983 111.365 135.057 111.404 135.051 111.46L134.925 113.45C134.924 113.512 134.848 113.562 134.754 113.565Z" fill="#263238"/>
<path d="M125.155 104.359C125.185 104.507 126.443 106.507 127.428 106.369C127.436 106.368 127.445 106.366 127.453 106.365C127.74 106.325 128.027 106.441 128.204 106.671C128.6 107.187 128.839 107.482 129.106 107.821C129.54 108.37 130.294 108.546 130.929 108.251C131.117 108.164 131.303 108.068 131.488 107.97C132.098 107.646 132.41 106.946 132.244 106.275C132.062 105.54 131.779 104.829 131.403 104.172C131.274 103.947 131.127 103.72 130.903 103.59C130.68 103.459 128.51 102.804 127.668 102.83C126.79 102.858 125.958 104.006 125.155 104.359Z" fill="#E8BFBF"/>
<path d="M127.689 102.765C127.689 102.765 114.398 98.74 111.531 101.42C109.846 102.995 110.642 104.483 111.584 105.442C112.285 106.155 113.812 105.98 114.811 105.933L125.28 104.906L127.689 102.765Z" fill="#E8BFBF"/>
<path d="M120.052 100.926C119.98 100.207 119.423 99.6091 118.776 99.2866C118.129 98.9641 117.396 98.8686 116.679 98.7776C115.009 98.5661 113.339 98.3541 111.669 98.1426C110.821 99.2151 110.211 100.688 110.237 102.055C110.264 103.422 110.778 104.775 111.667 105.814C112.466 104.269 113.52 102.678 115.08 101.911C116.641 101.144 118.34 100.616 120.052 100.926Z" fill="#263238"/>
<path opacity="0.1" d="M116.625 76.6502C116.61 76.6202 116.61 76.6052 116.625 76.6002C116.73 76.5702 116.715 76.5902 116.625 76.6502Z" fill="white"/>
<path d="M149.644 55.1321L153.347 61.9981L168.456 49.168C168.589 49.055 168.435 48.8505 168.29 48.9465L154.126 58.2956L151.942 54.037L149.644 55.1321Z" fill="#8B3E00"/>
<path d="M173.482 55.1639C173.482 61.2829 167.059 66.2414 159.136 66.2414C156.094 66.2414 153.278 65.5139 150.958 64.2609L142.535 67.9224L147.852 61.9999C145.936 60.1224 144.79 57.7489 144.79 55.1634C144.79 49.0444 151.214 44.0859 159.136 44.0859C167.059 44.0864 173.482 49.0454 173.482 55.1639Z" stroke="#8B3E00" stroke-width="0.65" stroke-miterlimit="10"/>
</svg>
