<svg width="282" height="189" viewBox="0 0 282 189" fill="none" xmlns="http://www.w3.org/2000/svg">
<path d="M103.935 46.1979C141.139 27.8795 179.406 3.92566 222.627 13.7282C236.028 16.7675 248.223 24.3658 256.467 35.4122C278.511 64.9498 276.718 110.192 264.742 143.441C263.179 147.781 261.227 151.988 258.716 155.864C246.56 174.626 226.077 175.51 206.32 170.085C189.6 165.495 174.787 160.773 157.516 165.44C147.949 168.025 138.679 171.578 129.149 174.282C116.173 177.964 102.795 180.465 89.2811 180.718C53.5293 181.389 12.6903 163.151 9.52234 123.225C9.31721 120.638 9.28084 118.037 9.39709 115.445C10.1115 99.506 15.3787 83.5438 29.9793 75.2687C44.6587 66.9489 62.0748 63.6594 77.7768 57.7584C86.706 54.4029 95.3696 50.4155 103.935 46.1979Z" fill="#8B3E00"/>
<path opacity="0.7" d="M103.935 46.1979C141.139 27.8795 179.406 3.92566 222.627 13.7282C236.028 16.7675 248.223 24.3658 256.467 35.4122C278.511 64.9498 276.718 110.192 264.742 143.441C263.179 147.781 261.227 151.988 258.716 155.864C246.56 174.626 226.077 175.51 206.32 170.085C189.6 165.495 174.787 160.773 157.516 165.44C147.949 168.025 138.679 171.578 129.149 174.282C116.173 177.964 102.795 180.465 89.2811 180.718C53.5293 181.389 12.6903 163.151 9.52234 123.225C9.31721 120.638 9.28084 118.037 9.39709 115.445C10.1115 99.506 15.3787 83.5438 29.9793 75.2687C44.6587 66.9489 62.0748 63.6594 77.7768 57.7584C86.706 54.4029 95.3696 50.4155 103.935 46.1979Z" fill="white"/>
<path d="M115.329 110.264C115.329 110.264 108.52 103.146 104.807 103.146C101.093 103.146 95.8313 108.717 94.2837 109.335C92.7361 109.954 88.4033 105.931 84.6893 106.859C80.9753 107.788 77.2617 113.049 76.3332 113.359C75.4047 113.668 69.8341 111.502 67.3579 112.74C64.8822 113.977 61.2109 115.474 61.2109 115.474H127.089L125.232 111.502C125.232 111.502 124.613 107.169 120.281 106.24C115.948 105.312 115.329 110.264 115.329 110.264Z" fill="white" stroke="#263238" stroke-width="0.375" stroke-miterlimit="10" stroke-linecap="round" stroke-linejoin="round"/>
<path d="M65.811 14.9405C65.811 14.9405 59.0021 7.82227 55.2885 7.82227C51.5749 7.82227 46.3132 13.3933 44.7656 14.012C43.218 14.6311 38.8852 10.6078 35.1712 11.5363C31.4572 12.4648 27.7436 17.726 26.8151 18.0354C25.8866 18.3448 20.316 16.1784 17.8399 17.4163C15.3637 18.6541 11.6929 20.1511 11.6929 20.1511H77.5714L75.7144 16.1784C75.7144 16.1784 75.0952 11.8456 70.7625 10.9171C66.4297 9.98864 65.811 14.9405 65.811 14.9405Z" fill="white" stroke="#263238" stroke-width="0.375" stroke-miterlimit="10" stroke-linecap="round" stroke-linejoin="round"/>
<path d="M265.742 40.3194C265.742 40.3194 258.933 33.2012 255.219 33.2012C251.505 33.2012 246.244 38.7718 244.697 39.3909C243.149 40.01 238.816 35.9867 235.102 36.9148C231.388 37.8429 227.675 43.1045 226.746 43.4139C225.818 43.7233 220.247 41.5569 217.771 42.7948C215.295 44.0327 211.624 45.5297 211.624 45.5297H277.503L275.646 41.5569C275.646 41.5569 275.026 37.2242 270.694 36.2957C266.361 35.3675 265.742 40.3194 265.742 40.3194Z" fill="white" stroke="#263238" stroke-width="0.375" stroke-miterlimit="10" stroke-linecap="round" stroke-linejoin="round"/>
<path d="M89.163 44.7643C88.5203 44.7643 87.999 44.243 87.999 43.5999L88.0002 36.0331C88.0002 35.39 88.5214 34.8691 89.1645 34.8691C89.8076 34.8691 90.3285 35.3904 90.3285 36.0335L90.3274 43.6003C90.327 44.243 89.8058 44.7643 89.163 44.7643Z" fill="#263238" stroke="#263238" stroke-width="0.375" stroke-miterlimit="10" stroke-linecap="round" stroke-linejoin="round"/>
<path d="M89.1613 56.5992C88.5186 56.5992 87.9973 56.078 87.9973 55.4349L87.9984 47.8681C87.9984 47.225 88.5197 46.7041 89.1628 46.7041C89.8056 46.7041 90.3268 47.2254 90.3268 47.8685L90.3257 55.4352C90.3253 56.078 89.8041 56.5992 89.1613 56.5992Z" fill="#263238" stroke="#263238" stroke-width="0.375" stroke-miterlimit="10" stroke-linecap="round" stroke-linejoin="round"/>
<path d="M89.1589 72.8971C88.5161 72.8971 87.9949 72.3758 87.9949 71.7327L87.996 64.166C87.996 63.5228 88.5172 63.002 89.1604 63.002C89.8031 63.002 90.3244 63.5232 90.3244 64.1663L90.3232 71.7331C90.3229 72.3758 89.8016 72.8971 89.1589 72.8971Z" fill="#263238" stroke="#263238" stroke-width="0.375" stroke-miterlimit="10" stroke-linecap="round" stroke-linejoin="round"/>
<path d="M84.2783 160.308L28.6759 160.3C25.8855 160.299 23.6239 158.037 23.6243 155.246L23.6404 29.1493C23.6408 26.3589 25.9031 24.0973 28.6935 24.0977L84.2959 24.1059C87.0863 24.1063 89.3479 26.3687 89.3475 29.159L89.331 155.256C89.331 158.047 87.0686 160.309 84.2783 160.308Z" fill="#263238" stroke="#263238" stroke-width="0.375" stroke-miterlimit="10" stroke-linecap="round" stroke-linejoin="round"/>
<path d="M84.4203 33.0791H28.5513V151.328H84.4203V33.0791Z" fill="white" stroke="#263238" stroke-width="0.375" stroke-miterlimit="10" stroke-linecap="round" stroke-linejoin="round"/>
<path d="M84.4129 40.5168L28.5439 40.5086L28.5589 33.0742L84.428 33.0825L84.4129 40.5168Z" fill="#8B3E00" stroke="#263238" stroke-width="0.375" stroke-miterlimit="10" stroke-linecap="round" stroke-linejoin="round"/>
<path d="M78.9938 38.0684H66.1489C65.2804 38.0684 64.5762 37.3641 64.5762 36.4956C64.5762 35.6271 65.2804 34.9229 66.1489 34.9229H78.9938C79.8623 34.9229 80.5665 35.6271 80.5665 36.4956C80.5665 37.3641 79.8623 38.0684 78.9938 38.0684Z" fill="white" stroke="#263238" stroke-width="0.375" stroke-miterlimit="10" stroke-linecap="round" stroke-linejoin="round"/>
<path d="M60.2508 38.0684H32.8574C31.9889 38.0684 31.2847 37.3641 31.2847 36.4956C31.2847 35.6271 31.9889 34.9229 32.8574 34.9229H60.2508C61.1193 34.9229 61.8235 35.6271 61.8235 36.4956C61.8235 37.3641 61.1193 38.0684 60.2508 38.0684Z" fill="white" stroke="#263238" stroke-width="0.375" stroke-miterlimit="10" stroke-linecap="round" stroke-linejoin="round"/>
<path d="M81.3233 52.6006H56.3423V99.2183H81.3233V52.6006Z" fill="white" stroke="#263238" stroke-width="0.375" stroke-miterlimit="10" stroke-linecap="round" stroke-linejoin="round"/>
<path d="M56.3423 99.2181L63.8723 69.3748L69.7725 75.4033L76.314 60.9092L81.0597 66.5529L81.3233 99.2181H56.3423Z" fill="white" stroke="#263238" stroke-width="0.375" stroke-miterlimit="10" stroke-linecap="round" stroke-linejoin="round"/>
<path d="M65.6182 59.4974C65.9351 57.791 64.8087 56.1508 63.1023 55.8339C61.3959 55.517 59.7557 56.6434 59.4388 58.3498C59.1219 60.0561 60.2483 61.6964 61.9547 62.0133C63.6611 62.3302 65.3013 61.2038 65.6182 59.4974Z" fill="white" stroke="#263238" stroke-width="0.375" stroke-miterlimit="10" stroke-linecap="round" stroke-linejoin="round"/>
<path d="M31.2695 48.5898H81.1712" stroke="#263238" stroke-width="0.375" stroke-miterlimit="10" stroke-linecap="round" stroke-linejoin="round"/>
<path d="M37.2646 48.613V46.6408C37.2646 45.9111 37.8328 45.3193 38.5333 45.3193H46.1473C46.8478 45.3193 47.4159 45.9111 47.4159 46.6408V48.5263" stroke="#263238" stroke-width="0.375" stroke-miterlimit="10" stroke-linecap="round" stroke-linejoin="round"/>
<path d="M48.2686 48.613V46.6408C48.2686 45.9111 48.8367 45.3193 49.5372 45.3193H57.1512C57.8517 45.3193 58.4198 45.9111 58.4198 46.6408V48.5263" stroke="#263238" stroke-width="0.375" stroke-miterlimit="10" stroke-linecap="round" stroke-linejoin="round"/>
<path d="M59.2727 48.613V46.6408C59.2727 45.9111 59.8408 45.3193 60.5413 45.3193H68.1553C68.8558 45.3193 69.424 45.9111 69.424 46.6408V48.5263" stroke="#263238" stroke-width="0.375" stroke-miterlimit="10" stroke-linecap="round" stroke-linejoin="round"/>
<path d="M70.2771 48.613V46.6408C70.2771 45.9111 70.8452 45.3193 71.5457 45.3193H79.1597C79.8602 45.3193 80.4283 45.9111 80.4283 46.6408V48.5263" stroke="#263238" stroke-width="0.375" stroke-miterlimit="10" stroke-linecap="round" stroke-linejoin="round"/>
<path d="M32.0891 53.3799H53.6745" stroke="#263238" stroke-width="0.375" stroke-miterlimit="10" stroke-linecap="round" stroke-linejoin="round"/>
<path d="M32.0891 57.0176H53.6745" stroke="#263238" stroke-width="0.375" stroke-miterlimit="10" stroke-linecap="round" stroke-linejoin="round"/>
<path d="M32.0891 60.6562H53.6745" stroke="#263238" stroke-width="0.375" stroke-miterlimit="10" stroke-linecap="round" stroke-linejoin="round"/>
<path d="M32.0891 64.2939H53.6745" stroke="#263238" stroke-width="0.375" stroke-miterlimit="10" stroke-linecap="round" stroke-linejoin="round"/>
<path d="M32.0891 67.9316H53.6745" stroke="#263238" stroke-width="0.375" stroke-miterlimit="10" stroke-linecap="round" stroke-linejoin="round"/>
<path d="M32.0891 71.5693H53.6745" stroke="#263238" stroke-width="0.375" stroke-miterlimit="10" stroke-linecap="round" stroke-linejoin="round"/>
<path d="M59.02 104.909H80.605" stroke="#263238" stroke-width="0.375" stroke-miterlimit="10" stroke-linecap="round" stroke-linejoin="round"/>
<path d="M59.02 108.547H80.605" stroke="#263238" stroke-width="0.375" stroke-miterlimit="10" stroke-linecap="round" stroke-linejoin="round"/>
<path d="M59.02 112.185H80.605" stroke="#263238" stroke-width="0.375" stroke-miterlimit="10" stroke-linecap="round" stroke-linejoin="round"/>
<path d="M59.02 115.824H80.605" stroke="#263238" stroke-width="0.375" stroke-miterlimit="10" stroke-linecap="round" stroke-linejoin="round"/>
<path d="M59.02 119.461H80.605" stroke="#263238" stroke-width="0.375" stroke-miterlimit="10" stroke-linecap="round" stroke-linejoin="round"/>
<path d="M59.02 123.099H80.605" stroke="#263238" stroke-width="0.375" stroke-miterlimit="10" stroke-linecap="round" stroke-linejoin="round"/>
<path d="M30.8167 104.909H52.402" stroke="#263238" stroke-width="0.375" stroke-miterlimit="10" stroke-linecap="round" stroke-linejoin="round"/>
<path d="M30.8167 108.547H52.402" stroke="#263238" stroke-width="0.375" stroke-miterlimit="10" stroke-linecap="round" stroke-linejoin="round"/>
<path d="M30.8167 112.185H52.402" stroke="#263238" stroke-width="0.375" stroke-miterlimit="10" stroke-linecap="round" stroke-linejoin="round"/>
<path d="M30.8167 115.824H52.402" stroke="#263238" stroke-width="0.375" stroke-miterlimit="10" stroke-linecap="round" stroke-linejoin="round"/>
<path d="M30.8167 119.461H52.402" stroke="#263238" stroke-width="0.375" stroke-miterlimit="10" stroke-linecap="round" stroke-linejoin="round"/>
<path d="M30.8167 123.099H52.402" stroke="#263238" stroke-width="0.375" stroke-miterlimit="10" stroke-linecap="round" stroke-linejoin="round"/>
<path d="M5.09106 160.19H274.845" stroke="#263238" stroke-width="0.375" stroke-miterlimit="10" stroke-linecap="round" stroke-linejoin="round"/>
<path d="M207.765 39.1913C211.457 30.5674 207.458 20.5839 198.834 16.8926C190.21 13.2012 180.227 17.1997 176.535 25.8236C172.844 34.4475 176.843 44.4309 185.466 48.1223C194.09 51.8137 204.074 47.8151 207.765 39.1913Z" fill="#263238" stroke="#263238" stroke-width="0.375" stroke-miterlimit="10" stroke-linecap="round" stroke-linejoin="round"/>
<path d="M201.763 42.119C207.075 36.8071 207.075 28.1949 201.763 22.883C196.451 17.5711 187.839 17.5711 182.527 22.883C177.215 28.1949 177.215 36.8071 182.527 42.1189C187.839 47.4308 196.451 47.4308 201.763 42.119Z" fill="white" stroke="#263238" stroke-width="0.375" stroke-miterlimit="10" stroke-linecap="round" stroke-linejoin="round"/>
<path d="M198.302 38.6586C201.703 35.2578 201.703 29.7441 198.302 26.3434C194.902 22.9426 189.388 22.9426 185.987 26.3434C182.586 29.7441 182.586 35.2578 185.987 38.6586C189.388 42.0593 194.902 42.0593 198.302 38.6586Z" fill="#263238" stroke="#263238" stroke-width="0.375" stroke-miterlimit="10" stroke-linecap="round" stroke-linejoin="round"/>
<path d="M195.625 35.981C197.547 34.059 197.547 30.9429 195.625 29.021C193.703 27.099 190.587 27.099 188.665 29.021C186.743 30.9429 186.743 34.059 188.665 35.981C190.587 37.9029 193.703 37.9029 195.625 35.981Z" fill="white" stroke="#1A004F" stroke-width="0.375" stroke-miterlimit="10"/>
<path d="M191.735 32.9124H168.892V32.0889H191.735C191.962 32.0889 192.146 32.2734 192.146 32.5006C192.146 32.7279 191.962 32.9124 191.735 32.9124Z" fill="#263238"/>
<path d="M166.862 29.5723L166.989 29.7196L169.376 32.0863H162.233L159.677 29.5723H166.862Z" fill="#263238" stroke="#263238" stroke-width="0.375" stroke-miterlimit="10" stroke-linecap="round" stroke-linejoin="round"/>
<path d="M159.677 35.3341L162.233 32.9053H169.376C168.447 33.6024 167.602 34.4263 166.841 35.3341H159.677Z" fill="#263238" stroke="#263238" stroke-width="0.375" stroke-miterlimit="10" stroke-linecap="round" stroke-linejoin="round"/>
<path d="M6.14702 147.978C6.61014 148.14 7.70477 148.033 7.70552 148.033C7.71677 148.031 7.41564 147.332 7.39164 147.29C7.11302 146.805 6.28952 146.032 5.67677 146.162C5.23539 146.256 5.02089 146.721 5.15327 147.133C5.28864 147.554 5.75252 147.84 6.14702 147.978Z" fill="#263238"/>
<path d="M20.2297 143.161C19.6034 143.141 18.9296 144.048 18.7413 144.575C18.7252 144.62 18.5519 145.362 18.5636 145.36C18.5636 145.36 18.5741 145.359 18.5767 145.359C18.4691 145.502 18.3554 145.656 18.2347 145.826C18.0142 146.143 17.7682 146.503 17.5267 146.913C17.2844 147.322 17.0324 147.773 16.8101 148.272C16.5866 148.772 16.3769 149.31 16.2326 149.892C16.2311 149.898 16.2299 149.905 16.2284 149.912C16.2179 149.728 16.1711 149.217 16.1632 149.178C16.0496 148.63 15.5084 147.639 14.8856 147.571C14.4371 147.523 14.0883 147.898 14.0853 148.331C14.0827 148.773 14.4344 149.189 14.7663 149.443C15.1406 149.73 16.1362 149.96 16.2153 149.978C16.0829 150.533 15.9922 151.114 15.9326 151.706C15.8981 152.045 15.8741 152.387 15.8542 152.73C15.8399 152.572 15.8261 152.431 15.8219 152.411C15.7083 151.863 15.1672 150.871 14.5443 150.804C14.0954 150.756 13.7471 151.131 13.7441 151.564C13.7411 152.006 14.0932 152.422 14.4247 152.676C14.7614 152.934 15.6063 153.147 15.8306 153.201C15.8242 153.333 15.8167 153.464 15.8111 153.596C15.7833 154.228 15.7586 154.86 15.7154 155.478C15.7004 155.696 15.6772 155.91 15.6551 156.125C15.6423 155.985 15.6303 155.866 15.6266 155.848C15.5129 155.301 14.9718 154.309 14.3489 154.242C13.9001 154.193 13.5513 154.568 13.5487 155.001C13.5457 155.443 13.8978 155.859 14.2297 156.114C14.5507 156.36 15.3292 156.563 15.5954 156.628C15.5662 156.847 15.5373 157.066 15.4987 157.277C15.4694 157.42 15.4511 157.56 15.4136 157.702C15.3794 157.844 15.3457 157.984 15.3119 158.123C15.2373 158.388 15.1623 158.662 15.0836 158.919C15.0299 159.098 14.9756 159.268 14.9212 159.438C14.9388 159.222 14.9643 158.796 14.9624 158.761C14.9429 158.389 14.7659 157.797 14.4719 157.393C14.4693 157.338 14.4622 157.284 14.4494 157.23C14.3489 156.809 13.9244 156.523 13.4981 156.671C12.9067 156.877 12.6037 157.966 12.6172 158.525C12.6179 158.558 12.6667 158.915 12.7008 159.14C12.6603 159.011 12.6228 158.885 12.5797 158.753C12.4964 158.491 12.4053 158.231 12.3082 157.952C12.2568 157.819 12.2047 157.684 12.1518 157.548C12.1027 157.413 12.0333 157.275 11.9741 157.137C11.8301 156.82 11.6684 156.505 11.4989 156.191C11.7284 156.118 12.5396 155.844 12.8523 155.565C13.1639 155.286 13.4831 154.845 13.4467 154.404C13.4111 153.972 13.0349 153.625 12.5909 153.707C11.9748 153.822 11.5106 154.852 11.4389 155.406C11.4344 155.441 11.4281 155.845 11.4284 156.067C11.3249 155.879 11.2226 155.691 11.1119 155.505C10.7921 154.967 10.4519 154.432 10.1144 153.897C10.0109 153.733 9.91006 153.569 9.80806 153.405C9.89019 153.379 10.8611 153.075 11.2113 152.762C11.5226 152.483 11.8421 152.042 11.8057 151.601C11.7701 151.169 11.3939 150.822 10.9499 150.904C10.3338 151.018 9.86956 152.049 9.79794 152.603C9.79269 152.645 9.78406 153.226 9.78894 153.374C9.56506 153.012 9.34494 152.65 9.14281 152.283C8.86306 151.778 8.61631 151.267 8.41419 150.755C8.45244 150.743 9.46719 150.43 9.82606 150.109C10.1377 149.831 10.4568 149.389 10.4204 148.948C10.3848 148.517 10.0087 148.17 9.56469 148.252C8.94856 148.366 8.48431 149.396 8.41306 149.951C8.40744 149.994 8.39844 150.62 8.40519 150.733C8.39319 150.703 8.37744 150.672 8.36581 150.642C8.15694 150.092 8.02344 149.533 7.92406 149.003C7.86594 148.695 7.82731 148.398 7.79656 148.108C7.99156 148.069 8.88069 147.882 9.23544 147.628C9.57556 147.385 9.94156 146.982 9.95356 146.539C9.96556 146.107 9.62994 145.72 9.17956 145.753C8.55481 145.799 7.97994 146.772 7.84794 147.316C7.84081 147.345 7.80106 147.654 7.77519 147.879C7.76319 147.748 7.74856 147.613 7.73956 147.487C7.70469 147.014 7.70206 146.579 7.70281 146.194C7.70506 145.975 7.71106 145.777 7.71931 145.592C7.89069 145.454 8.57469 144.889 8.76931 144.508C8.95944 144.136 9.09781 143.609 8.90506 143.211C8.71606 142.822 8.24019 142.633 7.85581 142.87C7.32256 143.199 7.26069 144.327 7.39419 144.87C7.40581 144.917 7.67056 145.631 7.67956 145.624C7.67956 145.624 7.68781 145.617 7.68969 145.615C7.67844 145.794 7.66869 145.984 7.66231 146.193C7.65331 146.579 7.64656 147.015 7.67131 147.49C7.69494 147.965 7.73356 148.48 7.82356 149.02C7.91281 149.56 8.03431 150.124 8.23494 150.689C8.23719 150.695 8.24056 150.702 8.24281 150.708C8.13294 150.561 7.81156 150.16 7.78344 150.132C7.38669 149.738 6.38806 149.209 5.83156 149.497C5.43069 149.704 5.34669 150.21 5.58331 150.572C5.82519 150.943 6.34794 151.095 6.76456 151.124C7.23481 151.157 8.19181 150.799 8.26794 150.771C8.46369 151.307 8.70819 151.841 8.98531 152.368C9.14319 152.67 9.31231 152.968 9.48481 153.266C9.38581 153.142 9.29619 153.032 9.28194 153.018C8.88481 152.623 7.88619 152.095 7.33006 152.382C6.92881 152.589 6.84519 153.094 7.08181 153.457C7.32331 153.828 7.84644 153.981 8.26306 154.009C8.68606 154.039 9.50806 153.75 9.72481 153.671C9.79231 153.784 9.85831 153.898 9.92656 154.012C10.2524 154.555 10.5802 155.095 10.8854 155.635C10.9931 155.825 11.0921 156.016 11.1918 156.207C11.1037 156.097 11.0283 156.005 11.0156 155.992C10.6188 155.598 9.62019 155.07 9.06369 155.357C8.66281 155.564 8.57881 156.069 8.81544 156.432C9.05731 156.803 9.58006 156.955 9.99706 156.984C10.4006 157.012 11.1622 156.753 11.4198 156.66C11.5162 156.859 11.6129 157.057 11.6973 157.254C11.7517 157.39 11.8139 157.517 11.8608 157.656C11.9107 157.793 11.9594 157.929 12.0082 158.063C12.0922 158.325 12.1807 158.595 12.2564 158.853C12.3104 159.032 12.3588 159.203 12.4076 159.376C12.3026 159.185 12.0896 158.816 12.0682 158.788C11.7359 158.338 10.8288 157.664 10.2348 157.864C9.80694 158.008 9.64756 158.495 9.82644 158.889C10.0091 159.292 10.5029 159.522 10.9106 159.614C11.3594 159.715 12.3213 159.519 12.4417 159.494C12.5219 159.78 12.5969 160.059 12.6637 160.323C12.6742 160.363 12.6824 160.399 12.6926 160.439H13.0807C13.0616 160.369 13.0428 160.299 13.0226 160.227C12.9423 159.937 12.8508 159.628 12.7541 159.312C12.8249 159.277 13.2266 159.078 13.5783 158.845C13.9241 159.168 14.7742 159.511 14.8841 159.555C14.7933 159.837 14.7022 160.111 14.6122 160.368C14.6036 160.393 14.5953 160.415 14.5871 160.44H14.9793C15.0678 160.166 15.1571 159.875 15.2456 159.575C15.3648 159.591 16.3413 159.713 16.7816 159.578C17.1809 159.456 17.6561 159.189 17.8076 158.773C17.9561 158.366 17.7599 157.893 17.3223 157.782C16.7152 157.628 15.8621 158.368 15.5647 158.842C15.5471 158.87 15.3907 159.195 15.2954 159.401C15.3329 159.271 15.3708 159.146 15.4079 159.012C15.4833 158.747 15.5501 158.48 15.6236 158.194C15.6543 158.055 15.6851 157.914 15.7162 157.771C15.7499 157.63 15.7679 157.478 15.7949 157.33C15.8501 156.986 15.8891 156.634 15.9206 156.279C16.1523 156.344 16.9796 156.564 17.3951 156.503C17.8083 156.443 18.3183 156.251 18.5309 155.863C18.7394 155.483 18.6172 154.986 18.2017 154.81C17.6249 154.565 16.6691 155.168 16.3034 155.592C16.2806 155.618 16.0526 155.951 15.9307 156.137C15.9479 155.923 15.9659 155.71 15.9764 155.494C16.0064 154.869 16.0177 154.235 16.0316 153.602C16.0357 153.409 16.0421 153.216 16.0477 153.022C16.1302 153.046 17.1074 153.329 17.5728 153.261C17.9861 153.2 18.4961 153.008 18.7087 152.62C18.9172 152.241 18.7949 151.743 18.3794 151.567C17.8027 151.323 16.8472 151.926 16.4816 152.349C16.4542 152.381 16.1261 152.861 16.0488 152.987C16.0616 152.562 16.0781 152.138 16.1114 151.721C16.1568 151.145 16.2329 150.583 16.3469 150.044C16.3852 150.055 17.4041 150.354 17.8807 150.285C18.2943 150.224 18.8039 150.032 19.0169 149.644C19.2254 149.265 19.1032 148.767 18.6877 148.591C18.1109 148.347 17.1554 148.95 16.7894 149.373C16.7609 149.406 16.4084 149.923 16.3511 150.021C16.3582 149.989 16.3616 149.955 16.3687 149.923C16.4977 149.349 16.6949 148.809 16.9046 148.312C17.0257 148.024 17.1577 147.754 17.2916 147.495C17.4757 147.571 18.3206 147.905 18.7563 147.889C19.1741 147.875 19.7017 147.74 19.9559 147.378C20.2049 147.023 20.1382 146.515 19.7444 146.295C19.1977 145.988 18.1818 146.483 17.7719 146.863C17.7498 146.884 17.5462 147.12 17.4007 147.293C17.4629 147.177 17.5252 147.056 17.5871 146.946C17.8188 146.533 18.0562 146.169 18.2692 145.848C18.3918 145.666 18.5062 145.505 18.6149 145.355C18.8339 145.335 19.7159 145.241 20.0887 145.03C20.4524 144.825 20.8589 144.462 20.9174 144.023C20.9741 143.595 20.6808 143.175 20.2297 143.161Z" fill="#263238"/>
<path d="M17.2568 147.382C17.2669 147.387 17.4012 146.638 17.4042 146.59C17.4394 146.032 17.1792 144.932 16.5961 144.703C16.1761 144.537 15.7407 144.807 15.6237 145.224C15.5041 145.65 15.7336 146.144 15.9867 146.477C16.2837 146.867 17.2561 147.382 17.2568 147.382Z" fill="#263238"/>
<path d="M101.027 135.891C101.844 136.248 103.842 136.203 103.844 136.203C103.865 136.203 103.415 134.895 103.377 134.816C102.938 133.899 101.552 132.384 100.424 132.537C99.6113 132.647 99.1594 133.46 99.3428 134.225C99.5299 135.007 100.332 135.587 101.027 135.891Z" fill="#263238"/>
<path d="M101.717 141.679C102.565 141.803 104.348 141.286 104.49 141.244C104.771 142.242 105.141 143.244 105.571 144.236C105.817 144.804 106.081 145.368 106.354 145.931C106.191 145.693 106.044 145.481 106.021 145.454C105.355 144.685 103.618 143.591 102.571 144.036C101.816 144.356 101.595 145.26 101.974 145.949C102.361 146.654 103.288 147.002 104.039 147.111C104.801 147.222 106.331 146.812 106.734 146.698C106.841 146.913 106.945 147.128 107.053 147.342C107.569 148.37 108.089 149.394 108.568 150.414C108.737 150.773 108.89 151.133 109.045 151.493C108.9 151.281 108.776 151.104 108.755 151.079C108.09 150.311 106.353 149.216 105.305 149.661C104.55 149.982 104.329 150.886 104.708 151.575C105.095 152.279 106.022 152.628 106.773 152.737C107.501 152.843 108.916 152.477 109.395 152.344C109.543 152.717 109.691 153.09 109.816 153.459C109.897 153.712 109.992 153.95 110.058 154.209C110.129 154.464 110.2 154.717 110.269 154.967C110.386 155.453 110.51 155.954 110.611 156.432C110.685 156.763 110.749 157.08 110.814 157.4C110.65 157.04 110.314 156.343 110.279 156.288C109.738 155.427 108.187 154.082 107.084 154.364C106.289 154.566 105.934 155.426 106.204 156.165C106.48 156.919 107.343 157.404 108.069 157.626C108.869 157.87 110.638 157.647 110.859 157.618C110.965 158.147 111.064 158.662 111.148 159.15C111.212 159.511 111.27 159.858 111.323 160.191H112.032C111.965 159.82 111.892 159.432 111.811 159.026C111.706 158.489 111.582 157.916 111.449 157.33C111.583 157.277 112.337 156.972 113.006 156.598C113.589 157.229 115.082 157.967 115.275 158.061C115.072 158.561 114.869 159.045 114.671 159.499C114.566 159.739 114.465 159.966 114.364 160.191H115.113C115.173 160.049 115.232 159.909 115.292 159.761C115.501 159.255 115.713 158.709 115.926 158.148C116.14 158.192 117.892 158.548 118.709 158.364C119.449 158.197 120.346 157.778 120.678 157.046C121.003 156.329 120.712 155.445 119.934 155.184C118.855 154.821 117.208 156.047 116.605 156.865C116.569 156.913 116.241 157.48 116.04 157.841C116.126 157.611 116.212 157.388 116.297 157.15C116.47 156.681 116.628 156.207 116.8 155.699C116.874 155.45 116.949 155.199 117.025 154.945C117.106 154.695 117.159 154.421 117.228 154.157C117.375 153.54 117.493 152.909 117.599 152.27C118.01 152.42 119.479 152.931 120.239 152.877C120.997 152.824 121.947 152.546 122.385 151.872C122.815 151.213 122.662 150.295 121.933 149.919C120.921 149.397 119.107 150.359 118.387 151.076C118.342 151.121 117.883 151.694 117.637 152.013C117.697 151.629 117.759 151.245 117.808 150.854C117.948 149.726 118.054 148.579 118.166 147.435C118.199 147.085 118.238 146.736 118.274 146.387C118.42 146.442 120.152 147.087 121.005 147.027C121.762 146.974 122.712 146.696 123.151 146.022C123.58 145.363 123.427 144.445 122.698 144.069C121.686 143.547 119.873 144.509 119.152 145.226C119.098 145.28 118.439 146.105 118.281 146.323C118.363 145.554 118.451 144.788 118.568 144.037C118.729 143.001 118.944 141.992 119.224 141.031C119.292 141.057 121.097 141.738 121.97 141.677C122.728 141.624 123.677 141.345 124.116 140.672C124.546 140.013 124.393 139.095 123.664 138.719C122.652 138.197 120.838 139.159 120.118 139.876C120.061 139.932 119.352 140.82 119.235 140.991C119.252 140.934 119.263 140.873 119.28 140.816C119.593 139.793 120.024 138.842 120.471 137.971C120.73 137.465 121.006 136.995 121.285 136.544C121.608 136.706 123.093 137.426 123.884 137.458C124.643 137.489 125.618 137.316 126.128 136.695C126.627 136.087 126.575 135.158 125.893 134.704C124.944 134.075 123.036 134.831 122.241 135.465C122.198 135.5 121.798 135.899 121.51 136.193C121.639 135.991 121.768 135.781 121.895 135.59C122.371 134.873 122.851 134.246 123.281 133.694C123.528 133.382 123.758 133.104 123.975 132.847C124.375 132.84 125.986 132.791 126.69 132.461C127.377 132.138 128.163 131.536 128.329 130.749C128.492 129.98 128.018 129.179 127.203 129.091C126.071 128.969 124.726 130.52 124.313 131.449C124.277 131.529 123.862 132.848 123.883 132.848C123.883 132.848 123.902 132.848 123.907 132.848C123.692 133.091 123.466 133.354 123.224 133.647C122.781 134.191 122.286 134.81 121.792 135.519C121.297 136.227 120.779 137.01 120.308 137.884C119.834 138.759 119.381 139.704 119.04 140.738C119.036 140.75 119.034 140.763 119.03 140.774C119.036 140.441 119.021 139.508 119.012 139.437C118.881 138.429 118.037 136.557 116.917 136.35C116.111 136.202 115.428 136.833 115.363 137.618C115.298 138.419 115.879 139.22 116.445 139.726C117.083 140.296 118.856 140.849 118.997 140.892C118.681 141.88 118.437 142.919 118.248 143.984C118.139 144.593 118.049 145.21 117.966 145.83C117.962 145.541 117.956 145.283 117.951 145.247C117.82 144.239 116.976 142.368 115.856 142.161C115.049 142.012 114.367 142.644 114.302 143.429C114.237 144.23 114.817 145.031 115.384 145.537C115.958 146.05 117.46 146.552 117.859 146.679C117.83 146.917 117.798 147.154 117.769 147.392C117.633 148.535 117.502 149.675 117.338 150.79C117.281 151.183 117.211 151.568 117.141 151.953C117.137 151.697 117.131 151.481 117.127 151.449C116.996 150.44 116.151 148.569 115.032 148.362C114.226 148.214 113.543 148.845 113.478 149.63C113.413 150.43 113.993 151.232 114.56 151.738C115.108 152.228 116.49 152.703 116.963 152.856C116.881 153.249 116.798 153.642 116.7 154.019C116.627 154.274 116.575 154.525 116.487 154.778C116.406 155.03 116.326 155.279 116.246 155.526C116.074 155.996 115.901 156.482 115.723 156.936C115.601 157.253 115.479 157.553 115.358 157.856C115.419 157.465 115.524 156.698 115.525 156.633C115.541 155.958 115.301 154.86 114.824 154.089C114.827 153.989 114.821 153.89 114.805 153.791C114.68 153.014 113.95 152.437 113.158 152.648C112.058 152.941 111.36 154.872 111.308 155.887C111.305 155.947 111.344 156.6 111.376 157.012C111.32 156.773 111.269 156.54 111.209 156.294C111.094 155.808 110.964 155.326 110.827 154.806C110.752 154.558 110.676 154.307 110.599 154.054C110.529 153.801 110.422 153.543 110.333 153.284C110.116 152.69 109.867 152.097 109.602 151.506C110.028 151.404 111.535 151.02 112.14 150.555C112.742 150.093 113.381 149.337 113.375 148.534C113.37 147.747 112.736 147.066 111.92 147.155C110.789 147.278 109.807 149.08 109.601 150.076C109.588 150.138 109.521 150.869 109.492 151.271C109.331 150.917 109.171 150.563 108.995 150.21C108.49 149.191 107.946 148.176 107.408 147.161C107.243 146.85 107.083 146.538 106.921 146.226C107.072 146.192 108.874 145.774 109.551 145.254C110.153 144.792 110.792 144.035 110.787 143.232C110.781 142.445 110.147 141.764 109.332 141.852C108.2 141.975 107.218 143.778 107.012 144.774C106.997 144.849 106.902 145.901 106.891 146.169C106.535 145.483 106.186 144.796 105.869 144.105C105.431 143.151 105.055 142.192 104.758 141.236C104.829 141.219 106.71 140.792 107.404 140.259C108.007 139.797 108.646 139.041 108.64 138.237C108.634 137.451 108 136.77 107.185 136.858C106.053 136.981 105.071 138.784 104.866 139.779C104.849 139.857 104.748 140.989 104.744 141.195C104.726 141.139 104.702 141.082 104.685 141.025C104.382 139.999 104.216 138.968 104.109 137.995C104.046 137.43 104.017 136.886 104 136.356C104.359 136.312 105.996 136.094 106.673 135.684C107.323 135.291 108.041 134.609 108.123 133.81C108.204 133.028 107.648 132.281 106.829 132.279C105.69 132.277 104.516 133.961 104.203 134.928C104.185 134.981 104.071 135.535 103.994 135.939C103.99 135.7 103.982 135.453 103.983 135.224C103.984 134.363 104.039 133.575 104.093 132.877C104.126 132.48 104.165 132.123 104.205 131.789C104.534 131.562 105.851 130.633 106.256 129.968C106.651 129.32 106.974 128.385 106.679 127.637C106.39 126.905 105.553 126.499 104.825 126.875C103.813 127.398 103.547 129.434 103.714 130.436C103.729 130.523 104.111 131.852 104.128 131.84C104.128 131.84 104.144 131.829 104.148 131.827C104.104 132.148 104.06 132.493 104.019 132.87C103.95 133.568 103.878 134.357 103.858 135.221C103.835 136.085 103.835 137.024 103.924 138.012C104.012 139.004 104.155 140.042 104.441 141.093C104.445 141.105 104.45 141.117 104.453 141.128C104.273 140.847 103.747 140.077 103.699 140.022C103.034 139.254 101.297 138.159 100.25 138.604C99.4948 138.925 99.2735 139.829 99.6527 140.518C100.04 141.221 100.966 141.57 101.717 141.679Z" fill="#263238"/>
<path d="M121.238 136.331C121.255 136.342 121.601 135.003 121.613 134.916C121.754 133.909 121.433 131.882 120.407 131.386C119.669 131.03 118.844 131.459 118.574 132.198C118.299 132.953 118.648 133.88 119.06 134.517C119.545 135.266 121.236 136.33 121.238 136.331Z" fill="#263238"/>
<path d="M234.189 61.624L234.03 62.05L232.127 65.9954L251.262 62.6962" fill="white"/>
<path d="M234.189 61.624L234.03 62.05L232.127 65.9954L251.262 62.6962" stroke="#263238" stroke-width="0.375" stroke-miterlimit="10" stroke-linecap="round" stroke-linejoin="round"/>
<path d="M236.004 65.8304L234.189 61.624L251.262 62.6962L236.004 65.8304Z" fill="white" stroke="#263238" stroke-width="0.375" stroke-miterlimit="10" stroke-linecap="round" stroke-linejoin="round"/>
<path d="M251.263 62.696L238.479 54.2832L235.623 60.1587L251.263 62.696Z" fill="white" stroke="#263238" stroke-width="0.375" stroke-miterlimit="10" stroke-linecap="round" stroke-linejoin="round"/>
<path d="M251.263 62.6955L236.004 65.8297L235.623 60.1582L251.263 62.6955Z" fill="white" stroke="#263238" stroke-width="0.375" stroke-miterlimit="10" stroke-linecap="round" stroke-linejoin="round"/>
<path d="M101.288 75.0469C101.288 75.0469 101.419 75.1935 101.675 75.4523" stroke="#263238" stroke-width="0.375" stroke-linecap="round" stroke-linejoin="round"/>
<path d="M102.482 76.2271C107.386 80.7492 126.95 95.6885 153.012 74.7961C183.247 50.558 147.514 22.8218 128.274 26.57C109.034 30.3181 112.282 60.5532 142.517 66.3005C172.429 71.9862 196.471 56.3952 230.854 60.416" stroke="#263238" stroke-width="0.375" stroke-linecap="round" stroke-linejoin="round" stroke-dasharray="1.12 1.12"/>
<path d="M231.415 60.4834C231.6 60.5063 231.787 60.5295 231.973 60.5535" stroke="#263238" stroke-width="0.375" stroke-linecap="round" stroke-linejoin="round"/>
<path d="M188.238 118.321L183.178 111.978L193.974 103.227L188.238 118.321Z" fill="white" stroke="#263238" stroke-width="0.375" stroke-miterlimit="10" stroke-linecap="round" stroke-linejoin="round"/>
<path d="M183.179 111.978L182.395 109.61L193.974 103.227L183.179 111.978Z" fill="white" stroke="#263238" stroke-width="0.375" stroke-miterlimit="10" stroke-linecap="round" stroke-linejoin="round"/>
<path d="M193.974 103.227L182.089 110.302L177.204 103.869L193.974 103.227Z" fill="white" stroke="#263238" stroke-width="0.375" stroke-miterlimit="10" stroke-linecap="round" stroke-linejoin="round"/>
<path d="M98.5601 66.4756C98.5601 66.4756 115.109 72.7977 122.547 95.4826C129.984 118.168 149.077 131.538 182.664 110.787" stroke="#263238" stroke-width="0.375" stroke-miterlimit="10" stroke-linecap="round" stroke-linejoin="round" stroke-dasharray="1.12 1.12"/>
<path d="M50.1926 94.1064C50.1926 94.1064 51.8816 99.6426 51.8816 100.205C51.8816 100.688 50.778 104.964 50.7589 106.588" fill="white"/>
<path d="M50.1926 94.1064C50.1926 94.1064 51.8816 99.6426 51.8816 100.205C51.8816 100.688 50.778 104.964 50.7589 106.588" stroke="#263238" stroke-width="0.375" stroke-miterlimit="10" stroke-linecap="round" stroke-linejoin="round"/>
<path d="M32.9987 78.0224L34.2688 89.839C34.5212 92.1854 36.7371 93.8061 39.0489 93.3317C47.4527 91.6086 66.2188 88.0675 77.7006 88.2542C92.8442 88.5006 106.534 96.1491 106.534 96.1491L106.394 89.2573C106.177 78.6073 104.548 68.0327 101.548 57.8117L99.5627 51.0479C99.5627 51.0479 88.9581 62.8071 73.4942 67.7173C61.8531 71.4141 44.5363 73.03 36.6864 73.6033C34.4278 73.7683 32.7564 75.7705 32.9987 78.0224Z" fill="#8B3E00" stroke="#263238" stroke-width="0.375" stroke-miterlimit="10" stroke-linecap="round" stroke-linejoin="round"/>
<path d="M99.6653 52.6637L99.5625 52.3135C99.5625 52.3135 88.9579 64.0727 73.494 68.983C72.6585 69.2481 71.7941 69.5027 70.9058 69.7472" stroke="white" stroke-width="1.875" stroke-miterlimit="10" stroke-linecap="round" stroke-linejoin="round"/>
<path d="M67.4051 70.6318C64.7801 71.2423 62.0265 71.7763 59.2661 72.2413" stroke="white" stroke-width="1.875" stroke-miterlimit="10" stroke-linecap="round" stroke-linejoin="round"/>
<path d="M106.783 98.4405C106.716 98.4476 106.649 98.4521 106.58 98.4533C105.308 98.4791 104.255 97.4685 104.23 96.1961L104.09 89.3044C103.877 78.861 102.278 68.4836 99.3362 58.4606L97.351 51.6968C96.9925 50.4754 97.6919 49.1951 98.9132 48.8366C100.135 48.4793 101.415 49.1779 101.773 50.3989L103.759 57.1628C106.815 67.5769 108.477 78.3593 108.698 89.2106L108.838 96.102C108.862 97.3069 107.959 98.3141 106.783 98.4405Z" fill="#263238" stroke="#263238" stroke-width="0.375" stroke-miterlimit="10" stroke-linecap="round" stroke-linejoin="round"/>
<path d="M60.3314 70.792C51.2294 72.3869 41.8833 73.2242 36.6861 73.6037C34.4275 73.7687 32.7565 75.7709 32.9984 78.0224L34.2685 89.839C34.5209 92.1854 36.7368 93.8061 39.0486 93.3317C44.2405 92.2671 53.3871 90.5095 62.3279 89.365L60.3314 70.792Z" fill="#263238" stroke="#263238" stroke-width="0.375" stroke-miterlimit="10" stroke-linecap="round" stroke-linejoin="round"/>
<path d="M44.9219 90.1533C44.9219 90.1533 48.5987 97.6289 49.1725 98.3167C49.3885 98.5754 49.7909 98.761 50.209 98.8923C51.2223 99.2095 52.0938 99.8669 52.6788 100.753C55.3053 104.734 62.0226 114.899 62.3631 115.264C62.7869 115.718 63.8279 116.106 64.4057 115.669C64.9836 115.232 69.2785 111.022 68.956 109.183C68.6335 107.344 68.0688 107.904 67.1114 107.133C66.3408 106.512 63.3651 101.19 62.2334 99.1376C61.9615 98.6444 61.9855 98.0418 62.2949 97.5712L63.2965 96.0487C63.2965 96.0487 58.9195 92.5214 58.8531 91.9038C58.7868 91.2862 60.613 90.8399 60.67 90.2092C60.727 89.5784 59.1164 87.3779 59.1164 87.3779L44.9219 90.1533Z" fill="#8B3E00" stroke="#263238" stroke-width="0.375" stroke-miterlimit="10" stroke-linecap="round" stroke-linejoin="round"/>
<path d="M60.5693 93.75L63.7782 94.932C63.9035 94.9781 63.9503 95.1304 63.8731 95.2391L63.296 96.0495L60.5693 93.75Z" fill="#263238" stroke="#263238" stroke-width="0.375" stroke-miterlimit="10" stroke-linecap="round" stroke-linejoin="round"/>
<path d="M52.5853 96.7529L51.6594 97.4695" stroke="#263238" stroke-width="0.375" stroke-miterlimit="10" stroke-linecap="round" stroke-linejoin="round"/>
<path d="M58.8529 91.9043L53.3857 96.1343" stroke="#263238" stroke-width="0.375" stroke-miterlimit="10" stroke-linecap="round" stroke-linejoin="round"/>
<path d="M52.0501 79.1897L48.4915 79.5723L48.7349 81.837L52.2935 81.4544L52.0501 79.1897Z" fill="#8B3E00" stroke="#263238" stroke-width="0.375" stroke-miterlimit="10" stroke-linecap="round" stroke-linejoin="round"/>
<path d="M50.7588 106.588C50.7558 106.859 50.7824 107.056 50.8495 107.149C51.3186 107.806 52.4448 112.404 52.5385 112.873C52.6323 113.342 52.5385 115.219 52.2569 116.72C51.9753 118.222 50.8495 122.069 50.8495 122.069L62.2972 125.728C62.2972 125.728 65.0181 120.286 65.6751 119.16C66.3321 118.034 68.3024 115.125 68.7715 113.155C69.2406 111.184 69.3344 108.932 69.3344 108.932C69.3344 108.932 70.8359 107.712 70.648 106.868C70.4605 106.023 69.616 105.085 69.616 105.085C69.616 105.085 69.8035 103.49 69.2406 102.645C68.6778 101.801 67.8333 100.956 67.6454 100.675C67.4579 100.393 67.927 97.7657 66.8009 97.2028C65.6748 96.6399 64.9244 96.5458 64.9244 96.5458C64.9244 96.5458 65.1119 94.9505 63.8924 94.106C62.6729 93.2615 61.1714 93.1678 60.0453 94.1998C58.9191 95.2318 53.9463 100.674 53.9463 100.674" fill="white"/>
<path d="M50.7588 106.588C50.7558 106.859 50.7824 107.056 50.8495 107.149C51.3186 107.806 52.4448 112.404 52.5385 112.873C52.6323 113.342 52.5385 115.219 52.2569 116.72C51.9753 118.222 50.8495 122.069 50.8495 122.069L62.2972 125.728C62.2972 125.728 65.0181 120.286 65.6751 119.16C66.3321 118.034 68.3024 115.125 68.7715 113.155C69.2406 111.184 69.3344 108.932 69.3344 108.932C69.3344 108.932 70.8359 107.712 70.648 106.868C70.4605 106.023 69.616 105.085 69.616 105.085C69.616 105.085 69.8035 103.49 69.2406 102.645C68.6778 101.801 67.8333 100.956 67.6454 100.675C67.4579 100.393 67.927 97.7657 66.8009 97.2028C65.6748 96.6399 64.9244 96.5458 64.9244 96.5458C64.9244 96.5458 65.1119 94.9505 63.8924 94.106C62.6729 93.2615 61.1714 93.1678 60.0453 94.1998C58.9191 95.2318 53.9463 100.674 53.9463 100.674" stroke="#263238" stroke-width="0.375" stroke-miterlimit="10" stroke-linecap="round" stroke-linejoin="round"/>
<path d="M54.1333 102.082C54.1333 102.082 54.4149 103.489 54.6962 103.771C54.9778 104.053 54.1333 107.994 54.1333 107.994" fill="white"/>
<path d="M54.1333 102.082C54.1333 102.082 54.4149 103.489 54.6962 103.771C54.9778 104.053 54.1333 107.994 54.1333 107.994" stroke="#263238" stroke-width="0.375" stroke-miterlimit="10" stroke-linecap="round" stroke-linejoin="round"/>
<path d="M64.9244 96.5459L62.86 97.7658L60.7019 100.393" fill="white"/>
<path d="M64.9244 96.5459L62.86 97.7658L60.7019 100.393" stroke="#263238" stroke-width="0.375" stroke-miterlimit="10" stroke-linecap="round" stroke-linejoin="round"/>
<path d="M67.6453 100.675L65.1118 102.739" stroke="#263238" stroke-width="0.375" stroke-miterlimit="10" stroke-linecap="round" stroke-linejoin="round"/>
<path d="M69.6159 105.084L67.4578 106.398" stroke="#263238" stroke-width="0.375" stroke-miterlimit="10" stroke-linecap="round" stroke-linejoin="round"/>
<path d="M58.5438 103.208C58.5438 103.208 58.1684 103.959 58.5438 104.991C58.9192 106.023 58.9192 106.023 58.9192 106.023" fill="white"/>
<path d="M58.5438 103.208C58.5438 103.208 58.1684 103.959 58.5438 104.991C58.9192 106.023 58.9192 106.023 58.9192 106.023" stroke="#263238" stroke-width="0.375" stroke-miterlimit="10" stroke-linecap="round" stroke-linejoin="round"/>
<path d="M63.5167 105.272C63.5167 105.272 62.4847 106.023 62.86 106.868L63.5167 105.272Z" fill="white"/>
<path d="M63.5167 105.272C63.5167 105.272 62.4847 106.023 62.86 106.868" stroke="#263238" stroke-width="0.375" stroke-miterlimit="10" stroke-linecap="round" stroke-linejoin="round"/>
<path d="M50.3321 118.365L65.6347 123.869L63.3524 130.983L48.0498 124.003L50.3321 118.365Z" fill="white" stroke="#263238" stroke-width="0.375" stroke-miterlimit="10" stroke-linecap="round" stroke-linejoin="round"/>
<path d="M48.3201 122.538L65.609 129.284L60.9572 150.206H38.2322L48.3201 122.538Z" fill="#263238" stroke="#263238" stroke-width="0.375" stroke-miterlimit="10" stroke-linecap="round" stroke-linejoin="round"/>
<path d="M231.905 72.7148C226.956 72.7148 222.944 75.8296 222.944 79.6722C222.944 80.8932 223.35 82.04 224.061 83.0371L221.057 88.0445L225.84 84.7921C227.436 85.9325 229.566 86.6292 231.906 86.6292C236.855 86.6292 240.867 83.5145 240.867 79.6718C240.867 75.8296 236.855 72.7148 231.905 72.7148Z" fill="white" stroke="#263238" stroke-width="0.375" stroke-miterlimit="10" stroke-linecap="round" stroke-linejoin="round"/>
<path d="M230.084 79.5356C230.084 80.0497 229.667 80.4667 229.153 80.4667C228.639 80.4667 228.222 80.0497 228.222 79.5356C228.222 79.0215 228.639 78.6045 229.153 78.6045C229.667 78.6045 230.084 79.0215 230.084 79.5356Z" fill="#263238"/>
<path d="M232.6 79.5356C232.6 80.0497 232.183 80.4667 231.669 80.4667C231.155 80.4667 230.738 80.0497 230.738 79.5356C230.738 79.0215 231.155 78.6045 231.669 78.6045C232.183 78.6045 232.6 79.0215 232.6 79.5356Z" fill="#263238"/>
<path d="M235.116 79.5356C235.116 80.0497 234.699 80.4667 234.185 80.4667C233.671 80.4667 233.254 80.0497 233.254 79.5356C233.254 79.0215 233.671 78.6045 234.185 78.6045C234.699 78.6045 235.116 79.0215 235.116 79.5356Z" fill="#263238"/>
<path d="M259.498 90.0492C259.498 86.2069 255.486 83.0918 250.537 83.0918C245.587 83.0918 241.575 86.2066 241.575 90.0492C241.575 93.3702 244.573 96.1463 248.583 96.8385L249.122 100.072L251.541 96.9615C256.018 96.5745 259.498 93.6282 259.498 90.0492Z" fill="white" stroke="#263238" stroke-width="0.375" stroke-miterlimit="10" stroke-linecap="round" stroke-linejoin="round"/>
<path d="M248.909 90.0219C248.909 90.5361 248.492 90.9531 247.978 90.9531C247.464 90.9531 247.047 90.5361 247.047 90.0219C247.047 89.5078 247.464 89.0908 247.978 89.0908C248.492 89.0908 248.909 89.5078 248.909 90.0219Z" fill="#263238"/>
<path d="M250.494 90.9531C251.008 90.9531 251.425 90.5362 251.425 90.0219C251.425 89.5077 251.008 89.0908 250.494 89.0908C249.98 89.0908 249.563 89.5077 249.563 90.0219C249.563 90.5362 249.98 90.9531 250.494 90.9531Z" fill="#263238"/>
<path d="M253.941 90.0219C253.941 90.5361 253.524 90.9531 253.01 90.9531C252.496 90.9531 252.079 90.5361 252.079 90.0219C252.079 89.5078 252.496 89.0908 253.01 89.0908C253.524 89.0908 253.941 89.5078 253.941 90.0219Z" fill="#263238"/>
<path d="M184.305 76.043C180.289 76.043 177.032 79.2991 177.032 83.3161C177.032 85.4195 177.93 87.3083 179.358 88.6366L177.951 91.6745L180.669 89.6086C181.74 90.2285 182.979 90.5892 184.305 90.5892C188.322 90.5892 191.578 87.3331 191.578 83.3161C191.578 79.2991 188.322 76.043 184.305 76.043Z" fill="white" stroke="#263238" stroke-width="0.375" stroke-miterlimit="10" stroke-linecap="round" stroke-linejoin="round"/>
<path d="M187.926 80.5519C187.125 79.7509 185.827 79.7509 185.026 80.5519L184.243 81.3353L183.459 80.5519C182.658 79.7509 181.36 79.7509 180.559 80.5519C179.758 81.3529 179.758 82.6515 180.559 83.4522L184.231 87.1242L184.243 87.1122L184.255 87.1242L187.926 83.4522C188.727 82.6512 188.727 81.3525 187.926 80.5519Z" fill="#8B3E00" stroke="#263238" stroke-width="0.375" stroke-miterlimit="10" stroke-linecap="round" stroke-linejoin="round"/>
<path d="M259.076 128.146H257.173V160.191H259.076V128.146Z" fill="#263238" stroke="#263238" stroke-width="0.375" stroke-miterlimit="10" stroke-linecap="round" stroke-linejoin="round"/>
<path d="M194.618 128.146H192.715V160.191H194.618V128.146Z" fill="#263238" stroke="#263238" stroke-width="0.375" stroke-miterlimit="10" stroke-linecap="round" stroke-linejoin="round"/>
<path d="M224.824 128.146H222.921V138.24H224.824V128.146Z" fill="#263238" stroke="#263238" stroke-width="0.375" stroke-miterlimit="10" stroke-linecap="round" stroke-linejoin="round"/>
<path d="M264.364 135.745H187.43V138.607H264.364V135.745Z" fill="#8B3E00" stroke="#263238" stroke-width="0.375" stroke-miterlimit="10" stroke-linecap="round" stroke-linejoin="round"/>
<path d="M264.364 121.091H187.43V130.593H264.364V121.091Z" fill="#8B3E00" stroke="#263238" stroke-width="0.375" stroke-miterlimit="10" stroke-linecap="round" stroke-linejoin="round"/>
<path d="M263.086 138.662H261.183V160.191H263.086V138.662Z" fill="#263238" stroke="#263238" stroke-width="0.375" stroke-miterlimit="10" stroke-linecap="round" stroke-linejoin="round"/>
<path d="M191.346 138.662H189.443V160.191H191.346V138.662Z" fill="#263238" stroke="#263238" stroke-width="0.375" stroke-miterlimit="10" stroke-linecap="round" stroke-linejoin="round"/>
<path d="M238.294 113.677C238.294 113.677 236.95 113.815 236.491 115.467C236.032 117.119 234.839 127.308 235.665 127.859C236.491 128.41 238.557 126.987 238.694 125.932C238.832 124.876 239.566 118.909 239.566 118.909C239.566 118.909 239.132 113.264 238.294 113.677Z" fill="white" stroke="#263238" stroke-width="0.375" stroke-miterlimit="10" stroke-linecap="round" stroke-linejoin="round"/>
<path d="M246.62 108.038C246.62 108.038 246.545 110.839 246.658 111.028C246.772 111.218 247.491 111.899 249.308 112.24C251.124 112.58 251.881 112.732 252.184 114.548C252.487 116.365 252.374 122.611 252.563 122.875C252.752 123.14 254.796 127.152 254.834 130.029C254.871 132.905 253.358 134.873 252.335 135.328C251.313 135.782 249.951 135.858 249.61 135.858C249.27 135.858 240.148 135.858 240.148 135.858C240.148 135.858 239.504 132.868 239.996 130.408C240.488 127.947 241.018 125.639 240.905 125.298C240.791 124.957 240.526 122.573 240.147 121.551C239.769 120.529 238.634 118.296 238.368 116.82C238.104 115.344 238.293 113.678 238.293 113.678C238.293 113.678 241.472 113.376 241.964 112.732C242.456 112.089 241.775 109.667 241.775 109.667L246.62 108.038Z" fill="#8B3E00" stroke="#263238" stroke-width="0.375" stroke-miterlimit="10" stroke-linecap="round" stroke-linejoin="round"/>
<path d="M241.206 113.143C241.651 113.641 242.687 114.537 244.501 114.7C246.317 114.862 247.706 113.045 248.348 112.001C247.229 111.646 246.749 111.18 246.658 111.028C246.545 110.839 246.62 108.038 246.62 108.038L241.776 109.666C241.776 109.666 242.457 112.088 241.965 112.732C241.845 112.889 241.562 113.025 241.206 113.143Z" fill="white" stroke="#263238" stroke-width="0.375" stroke-miterlimit="10" stroke-linecap="round" stroke-linejoin="round"/>
<path d="M238.407 108.833C238.407 108.833 238.407 109.968 238.559 110.612C238.71 111.255 238.861 112.164 238.445 112.58C238.029 112.996 237.082 113.602 237.839 114.094C238.596 114.586 239.429 114.435 239.24 114.851C239.05 115.267 237.423 115.116 238.256 116.517C239.088 117.917 241.208 117.955 241.094 118.296C240.981 118.636 240.035 118.371 240.64 119.015C241.246 119.658 242.268 119.015 242.04 118.674C241.813 118.334 241.662 118.107 242.116 117.652C242.57 117.198 243.138 116.593 242.987 115.949C242.835 115.306 242.229 115.457 242.646 115.041C243.062 114.625 243.744 113.905 243.895 112.997C244.047 112.089 243.971 111.294 243.214 110.65C242.457 110.007 241.246 108.645 241.208 107.471C241.208 107.471 240.867 106.108 241.056 104.746C241.056 104.745 238.71 106.94 238.407 108.833Z" fill="#263238" stroke="#263238" stroke-width="0.375" stroke-miterlimit="10" stroke-linecap="round" stroke-linejoin="round"/>
<path d="M242.019 101.604C242.019 101.604 240.172 103.26 240.299 104.788C240.427 106.317 240.554 109.056 241.063 109.756C241.573 110.457 243.052 111.834 243.803 111.872C244.429 111.903 245.17 111.381 245.679 110.871C246.189 110.361 246.796 108.928 246.923 108.609C247.05 108.291 247.05 104.788 246.923 104.087C246.795 103.387 244.757 101.794 243.993 101.603C243.229 101.412 242.019 101.604 242.019 101.604Z" fill="white" stroke="#263238" stroke-width="0.375" stroke-miterlimit="10" stroke-linecap="round" stroke-linejoin="round"/>
<path d="M243.022 108.526C243.022 108.526 243.554 108.933 243.866 108.808C244.179 108.683 244.46 108.37 244.46 108.37" stroke="#263238" stroke-width="0.375" stroke-miterlimit="10" stroke-linecap="round" stroke-linejoin="round"/>
<path d="M242.521 109.277C242.521 109.277 244.21 110.152 245.241 108.87" stroke="#263238" stroke-width="0.375" stroke-miterlimit="10" stroke-linecap="round" stroke-linejoin="round"/>
<path d="M241.333 105.807C241.896 105.431 242.74 105.932 242.74 105.932" stroke="#263238" stroke-width="0.375" stroke-miterlimit="10" stroke-linecap="round" stroke-linejoin="round"/>
<path d="M244.366 105.806C244.366 105.806 245.241 105.212 245.93 105.619" stroke="#263238" stroke-width="0.375" stroke-miterlimit="10" stroke-linecap="round" stroke-linejoin="round"/>
<path d="M242.146 107.277C242.308 107.277 242.439 107.108 242.439 106.901C242.439 106.693 242.308 106.524 242.146 106.524C241.985 106.524 241.854 106.693 241.854 106.901C241.854 107.108 241.985 107.277 242.146 107.277Z" fill="#263238"/>
<path d="M245.222 106.744C245.222 106.952 245.091 107.12 244.93 107.12C244.768 107.12 244.637 106.952 244.637 106.744C244.637 106.537 244.768 106.368 244.93 106.368C245.091 106.368 245.222 106.537 245.222 106.744Z" fill="#263238"/>
<path d="M244.539 102.701C244.539 102.701 243.063 102.966 242.495 103.988C241.927 105.01 241.814 106.448 240.64 107.432C239.467 108.416 238.407 108.832 238.407 108.832C238.407 108.832 238.029 106.259 238.597 105.237C239.164 104.215 240.3 101.414 241.473 100.732C242.647 100.051 244.047 100.392 244.274 100.392C244.501 100.392 245.674 100.316 246.394 101.224C247.113 102.133 247.491 103.95 247.756 104.669C248.021 105.388 248.324 107.016 248.324 107.962C248.324 108.908 247.87 109.741 247.567 109.93C247.264 110.119 246.545 110.233 246.545 110.233C246.545 110.233 247.151 106.788 246.886 106.372C246.62 105.956 245.939 104.669 245.372 103.912C244.804 103.155 244.539 102.701 244.539 102.701Z" fill="#263238" stroke="#263238" stroke-width="0.375" stroke-miterlimit="10" stroke-linecap="round" stroke-linejoin="round"/>
<path d="M241.908 118.253L242.629 122.246L244.432 123.492H246.202L245.738 117.951C245.723 117.77 245.565 117.634 245.384 117.646L242.214 117.861C242.015 117.875 241.873 118.057 241.908 118.253Z" fill="white" stroke="#263238" stroke-width="0.375" stroke-miterlimit="10" stroke-linecap="round" stroke-linejoin="round"/>
<path d="M235.73 125.527C235.73 125.527 238.423 122.662 238.996 121.917C239.569 121.172 240.601 120.599 240.83 120.513C241.059 120.427 243.036 120.284 243.38 120.226C243.724 120.169 244.154 120.284 244.039 120.542C243.924 120.8 243.723 120.914 243.208 120.972C242.692 121.029 242.497 120.903 242.497 120.903C242.497 120.903 242.978 122.433 242.892 122.605C242.807 122.777 241.374 123.407 240.858 123.607C240.342 123.808 240.027 123.808 240.027 123.808C240.027 123.808 239.368 126.186 238.938 127.017C238.508 127.848 237.849 128.966 237.219 129.109C236.589 129.252 235.815 129.052 235.643 128.65C235.471 128.249 235.271 126.616 235.299 125.871" fill="white"/>
<path d="M235.73 125.527C235.73 125.527 238.423 122.662 238.996 121.917C239.569 121.172 240.601 120.599 240.83 120.513C241.059 120.427 243.036 120.284 243.38 120.226C243.724 120.169 244.154 120.284 244.039 120.542C243.924 120.8 243.723 120.914 243.208 120.972C242.692 121.029 242.497 120.903 242.497 120.903C242.497 120.903 242.978 122.433 242.892 122.605C242.807 122.777 241.374 123.407 240.858 123.607C240.342 123.808 240.027 123.808 240.027 123.808C240.027 123.808 239.368 126.186 238.938 127.017C238.508 127.848 237.849 128.966 237.219 129.109C236.589 129.252 235.815 129.052 235.643 128.65C235.471 128.249 235.271 126.616 235.299 125.871" stroke="#263238" stroke-width="0.375" stroke-miterlimit="10" stroke-linecap="round" stroke-linejoin="round"/>
<path d="M240.028 123.808C239.283 123.723 239.025 122.806 239.025 122.806" stroke="#263238" stroke-width="0.375" stroke-miterlimit="10" stroke-linecap="round" stroke-linejoin="round"/>
<path d="M247.841 123C247.841 123 247.513 121.591 247.415 121.329C247.316 121.067 246.202 120.05 246.071 119.853C245.939 119.656 245.939 119.657 245.939 119.657L246.005 120.869C246.005 120.869 246.398 121.492 246.398 121.722C246.398 121.951 246.169 122.213 245.939 122.311C245.71 122.41 244.956 121.59 244.136 121.099C243.317 120.607 242.432 119.984 242.268 120.214C242.104 120.443 242.104 120.607 242.497 120.902C242.891 121.197 243.841 122.082 243.972 122.246C244.104 122.41 244.169 122.607 244.169 122.607C244.169 122.607 243.579 122.312 242.792 121.788C242.006 121.263 241.842 120.87 241.678 120.87C241.514 120.87 241.317 120.968 241.547 121.427C241.776 121.886 242.006 122.378 242.006 122.378C242.006 122.378 242.104 123.033 242.399 123.361C242.694 123.689 243.842 124.705 244.759 125.066C245.677 125.427 249.119 126.738 250.463 126.902C251.807 127.066 253.119 126.213 253.348 125.918C253.578 125.623 254.069 124.279 254.069 124.279C254.069 124.279 255.02 118.903 254.856 116.215C254.692 113.527 253.742 112.969 253.086 112.805C252.43 112.641 251.086 112.805 251.086 112.805C251.086 112.805 251.217 115.395 251.184 117.624C251.151 119.854 250.856 123.066 250.856 123.066C250.856 123.066 250.594 123.525 249.643 123.689C248.693 123.853 248.169 123.492 247.841 123Z" fill="white" stroke="#263238" stroke-width="0.375" stroke-miterlimit="10" stroke-linecap="round" stroke-linejoin="round"/>
<path d="M250.857 123.066C250.857 123.066 252.234 122.247 253.25 123.164" stroke="#263238" stroke-width="0.375" stroke-miterlimit="10" stroke-linecap="round" stroke-linejoin="round"/>
<path d="M242.006 122.378C242.006 122.378 242.76 123.23 243.546 123.722" stroke="#263238" stroke-width="0.375" stroke-miterlimit="10" stroke-linecap="round" stroke-linejoin="round"/>
<path d="M239.997 130.407C239.505 132.867 240.148 135.857 240.148 135.857C240.148 135.857 249.27 135.857 249.611 135.857C249.951 135.857 251.314 135.781 252.336 135.327C253.358 134.873 254.872 132.904 254.834 130.028C254.828 129.559 254.768 129.061 254.672 128.554H240.376C240.255 129.14 240.125 129.768 239.997 130.407Z" fill="#8A8A8A" stroke="#263238" stroke-width="0.375" stroke-miterlimit="10" stroke-linecap="round" stroke-linejoin="round"/>
<path d="M253.183 130.187C253.183 130.187 251.501 127.515 249.176 125.932C246.85 124.349 242.253 123.299 241.557 123.458C240.027 123.808 239.083 125.437 238.291 126.872C237.5 128.307 234.531 135.579 233.937 137.608C233.344 139.636 231.464 141.467 230.82 141.962C230.177 142.456 228 143.198 226.566 143.396C225.131 143.594 223.597 143.693 223.103 144.188C222.608 144.683 223.4 146.167 224.933 147.107C226.467 148.047 231.612 148.344 232.256 148.195C232.899 148.047 233.542 147.008 233.542 147.008C233.542 147.008 234.086 145.375 234.581 144.237C235.076 143.1 235.62 142.061 237.252 140.23C238.885 138.399 241.211 134.145 241.903 133.007C242.596 131.869 243.14 130.88 243.14 130.88C243.14 130.88 246.158 135.827 247.147 135.926C248.137 136.025 251.191 136.213 252.335 135.327" fill="#8A8A8A"/>
<path d="M253.183 130.187C253.183 130.187 251.501 127.515 249.176 125.932C246.85 124.349 242.253 123.299 241.557 123.458C240.027 123.808 239.083 125.437 238.291 126.872C237.5 128.307 234.531 135.579 233.937 137.608C233.344 139.636 231.464 141.467 230.82 141.962C230.177 142.456 228 143.198 226.566 143.396C225.131 143.594 223.597 143.693 223.103 144.188C222.608 144.683 223.4 146.167 224.933 147.107C226.467 148.047 231.612 148.344 232.256 148.195C232.899 148.047 233.542 147.008 233.542 147.008C233.542 147.008 234.086 145.375 234.581 144.237C235.076 143.1 235.62 142.061 237.252 140.23C238.885 138.399 241.211 134.145 241.903 133.007C242.596 131.869 243.14 130.88 243.14 130.88C243.14 130.88 246.158 135.827 247.147 135.926C248.137 136.025 251.191 136.213 252.335 135.327" stroke="#263238" stroke-width="0.375" stroke-miterlimit="10" stroke-linecap="round" stroke-linejoin="round"/>
<path d="M243.14 130.88C243.14 130.88 244.074 129.456 244.535 128.306" stroke="#263238" stroke-width="0.375" stroke-miterlimit="10" stroke-linecap="round" stroke-linejoin="round"/>
<path d="M233.173 139.267C232.371 140.57 231.281 141.608 230.821 141.961C230.178 142.456 228.001 143.198 226.566 143.396C225.131 143.594 223.597 143.693 223.103 144.188C222.608 144.682 223.4 146.167 224.933 147.107C226.467 148.047 231.612 148.343 232.255 148.195C232.899 148.046 233.542 147.008 233.542 147.008C233.542 147.008 234.086 145.375 234.581 144.237C234.961 143.363 235.373 142.545 236.283 141.383C235.325 140.024 233.693 139.428 233.173 139.267Z" fill="white" stroke="#263238" stroke-width="0.375" stroke-miterlimit="10" stroke-linecap="round" stroke-linejoin="round"/>
<path d="M232.741 144.723C232.741 144.723 232.564 143.534 232.08 142.829C231.763 142.368 231.182 142.096 230.819 141.963C230.173 142.458 227.999 143.198 226.566 143.396C225.131 143.594 223.598 143.693 223.103 144.188C222.608 144.682 223.4 146.167 224.933 147.107C226.467 148.047 231.613 148.344 232.256 148.195C232.899 148.047 233.542 147.008 233.542 147.008C233.542 147.008 233.808 146.21 234.137 145.341L232.741 144.723Z" fill="white" stroke="#263238" stroke-width="0.375" stroke-miterlimit="10" stroke-linecap="round" stroke-linejoin="round"/>
<path d="M243.14 130.879C243.14 130.879 245.823 132.125 246.395 133.139C246.968 134.152 246.748 135.209 246.616 135.562C246.484 135.914 245.647 136.927 245.514 137.323C245.382 137.72 246.395 142.037 246.527 145.472C246.659 148.908 246.659 152.124 246.924 153.137C247.188 154.15 247.717 155.428 247.849 156.353C247.981 157.278 248.201 158.555 247.937 158.951C247.673 159.348 247.276 159.348 247.232 159.568C247.188 159.788 247.188 160.229 246.44 160.405C245.691 160.582 242.299 160.493 242.123 160.229C241.947 159.965 242.608 158.819 242.872 158.291C243.136 157.763 243.885 155.384 244.061 154.459C244.238 153.534 243.665 152.125 243.577 151.992C243.489 151.86 240.89 144.768 240.273 141.597C239.656 138.425 238.995 137.598 239.877 136.443C240.932 135.058 242.149 132.173 243.14 130.879Z" fill="#8A8A8A" stroke="#263238" stroke-width="0.375" stroke-miterlimit="10" stroke-linecap="round" stroke-linejoin="round"/>
<path d="M246.924 153.136C246.86 152.89 246.812 152.512 246.773 152.034L243.757 152.418C243.944 152.938 244.184 153.814 244.061 154.458C243.885 155.383 243.136 157.762 242.872 158.29C242.607 158.819 241.946 159.964 242.123 160.228C242.299 160.492 245.691 160.58 246.439 160.404C247.188 160.228 247.188 159.787 247.232 159.567C247.276 159.347 247.673 159.347 247.937 158.95C248.201 158.554 247.981 157.276 247.849 156.352C247.717 155.427 247.189 154.15 246.924 153.136Z" fill="white" stroke="#263238" stroke-width="0.375" stroke-miterlimit="10" stroke-linecap="round" stroke-linejoin="round"/>
<path d="M247.359 154.542L246.88 154.855C246.88 154.855 246.572 154.282 245.603 154.062C244.715 153.86 244.088 154.654 243.988 154.789C243.734 155.856 243.109 157.816 242.872 158.29C242.607 158.819 241.946 159.964 242.123 160.228C242.299 160.492 245.691 160.581 246.439 160.405C247.188 160.228 247.188 159.788 247.232 159.568C247.276 159.348 247.673 159.348 247.937 158.951C248.201 158.554 247.981 157.277 247.849 156.352C247.774 155.825 247.57 155.184 247.359 154.542Z" fill="white" stroke="#263238" stroke-width="0.375" stroke-miterlimit="10" stroke-linecap="round" stroke-linejoin="round"/>
<path d="M201.602 121.431H215.412C215.412 121.431 217.194 121.32 217.695 120.095C218.196 118.87 219.087 117.088 218.697 115.194C218.307 113.301 216.747 111.496 216.747 111.496L201.59 110.723C201.59 110.723 199.987 111.686 199.653 114.582C199.319 117.477 199.708 120.15 201.602 121.431Z" fill="#263238" stroke="#263238" stroke-width="0.375" stroke-miterlimit="10" stroke-linecap="round" stroke-linejoin="round"/>
<path d="M219.943 95.8242C219.943 95.8242 220.974 97.6287 220.871 100.464C220.768 103.299 220.77 103.826 220.77 103.826C220.77 103.826 221.335 105.825 221.078 107.114C220.82 108.403 219.325 111.084 219.325 111.084L216.799 106.496L217.005 103.145C217.004 103.145 217.841 97.7521 219.943 95.8242Z" fill="#B5B5B5" stroke="#263238" stroke-width="0.375" stroke-miterlimit="10" stroke-linecap="round" stroke-linejoin="round"/>
<path d="M217.004 103.145L216.923 104.465C217.696 104.198 219.297 103.675 220.763 103.394C220.788 102.71 220.824 101.739 220.87 100.464C220.974 97.6287 219.942 95.8242 219.942 95.8242C217.841 97.7521 217.004 103.145 217.004 103.145Z" fill="#8B3E00" stroke="#263238" stroke-width="0.375" stroke-miterlimit="10" stroke-linecap="round" stroke-linejoin="round"/>
<path d="M208.292 92.3182C208.292 92.3182 203.807 93.5039 202.415 94.2772C201.023 95.0504 202.208 100.154 202.363 101.185C202.518 102.217 201.59 110.723 201.59 110.723C201.59 110.723 204.735 112.785 209.787 112.734C214.84 112.682 216.747 111.496 216.747 111.496C216.747 111.496 216.747 109.331 216.799 108.558C216.85 107.785 217.005 103.145 217.005 103.145C217.005 103.145 218.345 97.3709 219.583 96.2366L219.943 95.8241C219.943 95.8241 219.005 94.0833 215.504 93.3554C212.003 92.6276 210.56 92.0602 208.292 92.3182Z" fill="#8B3E00" stroke="#263238" stroke-width="0.375" stroke-miterlimit="10" stroke-linecap="round" stroke-linejoin="round"/>
<path d="M212.413 98.5551C214.321 98.5551 215.868 96.765 215.868 94.5568C215.868 92.3487 214.321 90.5586 212.413 90.5586C210.505 90.5586 208.958 92.3487 208.958 94.5568C208.958 96.765 210.505 98.5551 212.413 98.5551Z" fill="#B5B5B5" stroke="#263238" stroke-width="0.375" stroke-miterlimit="10" stroke-linecap="round" stroke-linejoin="round"/>
<path d="M203.497 93.9165C203.497 93.9165 204.374 97.0099 203.703 98.9171C203.033 100.825 202.363 102.784 202.363 102.784L201.074 108.197C201.074 108.197 204.941 111.29 207.364 112.012C209.787 112.734 209.735 113.455 210.045 113.764C210.354 114.074 212.468 117.27 212.571 117.682C212.674 118.095 212.88 120.993 212.803 121.299C212.727 121.606 212.538 121.49 212.387 121.415C212.237 121.34 212.086 120.623 212.123 120.435C212.161 120.246 211.75 121.199 211.637 121.388C211.523 121.577 211.145 121.539 211.032 121.464C210.919 121.388 210.919 120.935 210.956 120.633C210.994 120.33 211.07 119.763 211.07 119.763C211.07 119.763 210.805 120.595 210.616 120.859C210.427 121.124 210.276 121.35 210.049 121.426C209.822 121.502 209.407 121.464 209.52 121.162C209.633 120.86 209.067 121.237 209.067 120.784C209.067 120.33 208.84 118.592 208.764 118.176C208.689 117.761 208.386 117.269 208.386 117.269L207.819 115.796L207.593 114.888C207.593 114.888 198.977 112.659 198.145 112.281C197.314 111.903 197.314 111.299 197.276 111.034C197.238 110.769 197.276 107.104 197.427 105.327C197.578 103.551 198.573 100.823 198.8 99.9915C199.026 99.1601 199.824 96.756 200.24 96.1515C200.656 95.547 201.627 93.8584 203.497 93.9165Z" fill="#B5B5B5" stroke="#263238" stroke-width="0.375" stroke-miterlimit="10" stroke-linecap="round" stroke-linejoin="round"/>
<path d="M201.074 108.197C201.074 108.197 199.348 107.572 198.995 107.36" stroke="#263238" stroke-width="0.375" stroke-miterlimit="10" stroke-linecap="round" stroke-linejoin="round"/>
<path d="M209.521 121.162L209.974 119.688V118.139" fill="white"/>
<path d="M209.521 121.162L209.974 119.688V118.139" stroke="#263238" stroke-width="0.375" stroke-miterlimit="10" stroke-linecap="round" stroke-linejoin="round"/>
<path d="M211.07 119.764C211.07 119.764 211.108 118.97 211.108 118.365L211.07 119.764Z" fill="white"/>
<path d="M211.07 119.764C211.07 119.764 211.108 118.97 211.108 118.365" stroke="#263238" stroke-width="0.375" stroke-miterlimit="10" stroke-linecap="round" stroke-linejoin="round"/>
<path d="M212.124 120.435C212.124 120.435 212.203 119.575 212.166 119.31C212.128 119.046 211.863 118.403 211.863 118.403" fill="white"/>
<path d="M212.124 120.435C212.124 120.435 212.203 119.575 212.166 119.31C212.128 119.046 211.863 118.403 211.863 118.403" stroke="#263238" stroke-width="0.375" stroke-miterlimit="10" stroke-linecap="round" stroke-linejoin="round"/>
<path d="M203.773 113.97C203.773 113.97 199.712 111.13 198.208 110.629C196.705 110.128 195.207 112.285 194.569 113.386C193.893 114.553 195.438 118.259 196.995 122.539C198.504 126.685 199.738 130.198 199.738 130.198L203.692 130.588C203.692 130.588 202.178 126.761 202.178 124.855C202.178 123.532 201.342 120.552 201.737 120.554C201.737 120.554 203.829 119.205 204.163 117.59C204.497 115.975 203.773 113.97 203.773 113.97Z" fill="#B5B5B5" stroke="#263238" stroke-width="0.375" stroke-miterlimit="10" stroke-linecap="round" stroke-linejoin="round"/>
<path d="M201.657 120.096L202.047 115.474C202.047 115.474 202.003 114.561 201.281 113.643" stroke="#263238" stroke-width="0.375" stroke-miterlimit="10" stroke-linecap="round" stroke-linejoin="round"/>
<path d="M225.392 103.58C225.392 103.58 223.68 105.089 223.344 105.236C223.008 105.384 221.821 108.437 221.274 108.961C220.052 110.132 217.899 109.988 217.609 109.717C216.845 109.004 216.896 107.578 216.947 107.273C216.998 106.967 218.627 105.753 219.034 105.499C219.441 105.244 221.346 103.956 221.346 103.956L221.876 102.705L224.226 101.979L225.392 103.58Z" fill="#B5B5B5" stroke="#263238" stroke-width="0.375" stroke-miterlimit="10" stroke-linecap="round" stroke-linejoin="round"/>
<path d="M224.504 103.396L221.174 103.065L223.069 95.9678L226.399 96.2982L224.504 103.396Z" fill="#263238" stroke="#263238" stroke-width="0.375" stroke-miterlimit="10" stroke-linecap="round" stroke-linejoin="round"/>
<path d="M222.133 103.887C222.133 103.887 221.945 104.37 222.001 104.639C222.058 104.907 222.465 105.237 222.465 105.237" fill="#B5B5B5"/>
<path d="M222.133 103.887C222.133 103.887 221.945 104.37 222.001 104.639C222.058 104.907 222.465 105.237 222.465 105.237" stroke="#263238" stroke-width="0.375" stroke-miterlimit="10" stroke-linecap="round" stroke-linejoin="round"/>
<path d="M226.266 99.1839C226.266 99.1839 226.153 97.7683 226.038 97.5414C225.922 97.3146 224.571 96.7674 224.37 96.7322C224.17 96.6969 223.666 96.9186 223.663 97.2283C223.66 97.5381 224.604 97.7552 224.604 97.7552L225.245 98.2292L225.181 98.8899L225.86 99.7326L226.266 99.1839Z" fill="#B5B5B5" stroke="#263238" stroke-width="0.375" stroke-miterlimit="10" stroke-linecap="round" stroke-linejoin="round"/>
<path d="M226.397 99.62C226.397 99.62 225.513 98.1729 225.245 98.2291C224.977 98.2854 223.341 98.774 223.155 98.948C222.969 99.122 223.082 99.659 223.082 99.659L223.787 99.6815C223.787 99.6815 222.935 100.202 222.924 100.562C222.912 100.922 222.912 100.922 222.912 100.922C222.912 100.922 223.431 100.909 223.623 100.995C223.815 101.08 223.066 101.518 223.273 101.812C223.359 101.935 224.19 102.119 224.607 102.46C225.19 102.936 225.393 103.58 225.393 103.58C225.393 103.58 226.26 100.991 226.397 99.62Z" fill="#B5B5B5" stroke="#263238" stroke-width="0.375" stroke-miterlimit="10" stroke-linecap="round" stroke-linejoin="round"/>
<path d="M223.787 99.681C223.787 99.681 224.556 99.5033 224.898 99.615C225.241 99.7268 225.944 100.729 225.944 100.729" fill="#B5B5B5"/>
<path d="M223.787 99.681C223.787 99.681 224.556 99.5033 224.898 99.615C225.241 99.7268 225.944 100.729 225.944 100.729" stroke="#263238" stroke-width="0.375" stroke-miterlimit="10" stroke-linecap="round" stroke-linejoin="round"/>
<path d="M223.623 100.994L224.602 101.011L225.597 102.116" fill="#B5B5B5"/>
<path d="M223.623 100.994L224.602 101.011L225.597 102.116" stroke="#263238" stroke-width="0.375" stroke-miterlimit="10" stroke-linecap="round" stroke-linejoin="round"/>
<path d="M218.517 109.151C218.517 109.151 216.11 111.936 215.72 114.275C215.331 116.614 215.609 117.616 216.166 118.228C216.723 118.841 217.948 119.119 217.948 119.119C217.948 119.119 218.795 120.176 219.129 121.68C219.463 123.183 220.132 124.91 220.132 124.91L220.02 130.59L220.076 131.481L223.417 130.646L223.863 125.745C223.863 125.745 225.199 117.727 224.475 115.332C223.751 112.937 223.083 109.763 222.47 109.151C221.858 108.538 219.296 108.538 218.517 109.151Z" fill="#B5B5B5" stroke="#263238" stroke-width="0.375" stroke-miterlimit="10" stroke-linecap="round" stroke-linejoin="round"/>
<path d="M208.084 107.785C208.345 107.91 208.62 108.036 208.909 108.161" stroke="#263238" stroke-width="0.375" stroke-miterlimit="10" stroke-linecap="round" stroke-linejoin="round"/>
<path d="M203.654 104.808C203.654 104.808 204.624 105.945 207.057 107.262" stroke="#263238" stroke-width="0.375" stroke-miterlimit="10" stroke-linecap="round" stroke-linejoin="round"/>
<path d="M205.906 108.261C205.906 108.261 206.557 109.762 210.46 109.762" stroke="#263238" stroke-width="0.375" stroke-miterlimit="10" stroke-linecap="round" stroke-linejoin="round"/>
<path d="M215.303 106.393C215.303 106.393 214.013 107.11 212.962 107.36" stroke="#263238" stroke-width="0.375" stroke-miterlimit="10" stroke-linecap="round" stroke-linejoin="round"/>
<path d="M214.614 110.463C214.614 110.463 211.461 111.264 208.759 111.114" stroke="#263238" stroke-width="0.375" stroke-miterlimit="10" stroke-linecap="round" stroke-linejoin="round"/>
<path d="M217.948 119.119C217.47 118.558 217.006 113.743 217.936 113.838" stroke="#263238" stroke-width="0.375" stroke-miterlimit="10" stroke-linecap="round" stroke-linejoin="round"/>
<path d="M202.597 102.103C202.85 101.366 203.277 100.132 203.704 98.9171C204.374 97.0095 203.497 93.9165 203.497 93.9165C201.627 93.8587 200.656 95.5474 200.241 96.1519C199.825 96.7564 199.027 99.1605 198.801 99.9919C198.741 100.209 198.629 100.558 198.493 100.984L202.597 102.103Z" fill="#8B3E00" stroke="#263238" stroke-width="0.375" stroke-miterlimit="10" stroke-linecap="round" stroke-linejoin="round"/>
<path d="M203.692 130.588C203.692 130.588 202.244 129.362 201.687 129.084C201.13 128.806 200.856 128.989 200.299 129.378C199.742 129.768 198.791 131.2 198.402 131.924C198.012 132.648 197.901 132.871 197.344 133.706C196.787 134.541 196.843 135.321 197.177 135.822C197.511 136.323 200.128 136.435 201.186 136.323C202.245 136.212 203.302 135.432 203.637 135.043C203.971 134.653 204.026 132.982 204.026 132.648C204.026 132.314 203.692 130.588 203.692 130.588Z" fill="white" stroke="#263238" stroke-width="0.375" stroke-miterlimit="10" stroke-linecap="round" stroke-linejoin="round"/>
<path d="M203.636 135.042C203.818 134.83 203.917 134.237 203.97 133.688C203.562 134.06 202.601 134.844 201.288 135.316C199.889 135.82 197.785 135.483 196.968 135.32C197.01 135.506 197.079 135.677 197.176 135.822C197.51 136.323 200.127 136.434 201.186 136.323C202.244 136.212 203.302 135.432 203.636 135.042Z" fill="white" stroke="#263238" stroke-width="0.375" stroke-miterlimit="10" stroke-linecap="round" stroke-linejoin="round"/>
<path d="M203.126 132.489C203.126 132.489 202.985 134.964 202.49 135.671" stroke="#263238" stroke-width="0.375" stroke-miterlimit="10" stroke-linecap="round" stroke-linejoin="round"/>
<path d="M224.141 131.369C224.141 131.369 224.029 130.089 223.083 129.866C222.136 129.643 220.967 130.144 220.744 130.423C220.521 130.702 220.02 130.59 220.02 130.59C220.02 130.59 219.742 130.646 219.407 131.759C219.073 132.873 218.851 134.042 219.018 134.544C219.185 135.045 218.906 135.101 219.407 135.323C219.908 135.546 221.022 135.824 221.022 135.824C221.022 135.824 221.468 136.548 222.136 136.604C222.804 136.66 225.644 136.771 226.034 136.549C226.424 136.326 226.925 135.379 226.591 134.544C226.257 133.708 224.141 131.982 224.141 131.369Z" fill="white" stroke="#263238" stroke-width="0.375" stroke-miterlimit="10" stroke-linecap="round" stroke-linejoin="round"/>
<path d="M224.92 135.891C222.94 136.033 221.668 135.538 221.244 135.184C220.95 134.939 219.74 134.695 219.025 134.567C219.175 135.046 218.914 135.105 219.408 135.324C219.909 135.547 221.022 135.825 221.022 135.825C221.022 135.825 221.468 136.549 222.136 136.604C222.804 136.66 225.644 136.772 226.034 136.549C226.258 136.421 226.517 136.055 226.635 135.609C226.255 135.723 225.706 135.835 224.92 135.891Z" fill="white" stroke="#263238" stroke-width="0.375" stroke-miterlimit="10" stroke-linecap="round" stroke-linejoin="round"/>
<path d="M220.749 132.922C220.749 132.922 221.083 134.91 221.022 135.825" stroke="#263238" stroke-width="0.375" stroke-miterlimit="10" stroke-linecap="round" stroke-linejoin="round"/>
<path d="M205.882 98.7783C205.167 99.7961 204.192 100.979 203.237 101.493" stroke="#263238" stroke-width="0.375" stroke-miterlimit="10" stroke-linecap="round" stroke-linejoin="round"/>
<path d="M206.983 97.0391C206.983 97.0391 206.795 97.3814 206.479 97.8813" stroke="#263238" stroke-width="0.375" stroke-miterlimit="10" stroke-linecap="round" stroke-linejoin="round"/>
<path d="M204.863 98.0283C204.863 98.0283 204.438 99.3007 203.661 100.22" stroke="#263238" stroke-width="0.375" stroke-miterlimit="10" stroke-linecap="round" stroke-linejoin="round"/>
<path d="M217.234 90.3609C217.234 90.3609 218.024 90.0658 218.118 90.7236C218.212 91.3813 217.559 92.5712 217.138 92.8502C216.716 93.1292 216.647 92.7958 216.647 92.7958L217.234 90.3609Z" fill="#BABABA" stroke="#263238" stroke-width="0.375" stroke-miterlimit="10" stroke-linecap="round" stroke-linejoin="round"/>
<path d="M209.236 89.7333C209.236 89.7333 209.031 88.5082 208.442 89.1622C207.854 89.8162 208.023 91.4437 208.258 91.8555C208.493 92.2672 209.122 92.3047 209.122 92.3047C209.122 92.3047 209.309 92.6591 209.848 93.8156C210.386 94.9721 211.638 96.789 213.116 96.9078C214.593 97.0267 215.4 96.2403 216.208 94.659C216.695 93.7057 217.307 92.7885 217.349 91.0218C217.39 89.2552 217.634 89.3958 217.737 87.5508C217.839 85.7058 218.211 84.5523 217.662 83.8946C217.113 83.2365 214.369 82.6323 212.356 82.905C210.344 83.178 209.704 83.4116 209.474 84.3206C209.243 85.2288 209.236 89.7333 209.236 89.7333Z" fill="#BABABA" stroke="#263238" stroke-width="0.375" stroke-miterlimit="10" stroke-linecap="round" stroke-linejoin="round"/>
<path d="M213.066 89.7677C212.638 89.4665 211.848 89.2213 211.257 89.9109" stroke="#263238" stroke-width="0.375" stroke-miterlimit="10" stroke-linecap="round" stroke-linejoin="round"/>
<path d="M214.999 89.9435C215.105 89.8153 215.902 89.4065 216.51 90.4003" stroke="#263238" stroke-width="0.375" stroke-miterlimit="10" stroke-linecap="round" stroke-linejoin="round"/>
<path d="M212.429 91.7012C212.429 91.7012 212.015 92.1617 211.38 92.2888" stroke="#263238" stroke-width="0.1875" stroke-miterlimit="10" stroke-linecap="round" stroke-linejoin="round"/>
<path d="M214.792 92.0537C214.792 92.0537 215.043 92.5536 215.732 92.7898" stroke="#263238" stroke-width="0.1875" stroke-miterlimit="10" stroke-linecap="round" stroke-linejoin="round"/>
<path d="M217.409 90.0215C217.499 89.2074 217.659 88.9501 217.737 87.5499C217.839 85.7049 218.211 84.5514 217.662 83.8936C217.113 83.2355 214.369 82.6314 212.356 82.904C210.343 83.177 209.704 83.4106 209.473 84.3196C209.276 85.0966 209.242 88.5001 209.237 89.4714L209.271 89.558C209.271 89.558 209.199 90.3624 209.285 90.6076C209.372 90.8529 209.712 90.9676 209.802 90.5307C209.89 90.0939 209.746 88.79 210.063 88.3539C210.379 87.9177 210.286 87.0339 210.787 86.3622C211.288 85.6906 212.651 86.15 213.375 86.6161C214.1 87.0822 214.257 87.2052 215.123 86.972C215.99 86.7387 216.403 86.2767 217.039 86.7249C217.677 87.173 217.499 87.8199 217.426 88.6242C217.361 89.3461 217.354 89.6041 217.409 90.0215Z" fill="#263238" stroke="#263238" stroke-width="0.375" stroke-miterlimit="10" stroke-linecap="round" stroke-linejoin="round"/>
<path d="M214.264 91.417L214.192 91.9941C214.192 91.9941 214.559 92.2052 214.32 92.9305C214.081 93.6557 213.512 93.7675 212.989 93.433C212.465 93.0989 212.729 92.6972 212.729 92.6972" fill="#BABABA"/>
<path d="M214.264 91.417L214.192 91.9941C214.192 91.9941 214.559 92.2052 214.32 92.9305C214.081 93.6557 213.512 93.7675 212.989 93.433C212.465 93.0989 212.729 92.6972 212.729 92.6972" stroke="#263238" stroke-width="0.375" stroke-miterlimit="10" stroke-linecap="round" stroke-linejoin="round"/>
<path d="M212.192 91.077C212.178 91.3106 212.067 91.494 211.944 91.4865C211.821 91.479 211.733 91.2836 211.747 91.0503C211.76 90.8167 211.871 90.6333 211.994 90.6408C212.117 90.648 212.206 90.8433 212.192 91.077Z" fill="#263238"/>
<path d="M215.597 91.3196C215.55 91.5487 215.415 91.7149 215.294 91.6901C215.173 91.6657 215.113 91.4599 215.16 91.2304C215.207 91.0012 215.342 90.8351 215.463 90.8599C215.584 90.8842 215.643 91.0901 215.597 91.3196Z" fill="#263238"/>
<path d="M211.927 93.6299C211.88 93.9756 213.034 95.7711 214.712 94.1988" stroke="#263238" stroke-width="0.375" stroke-miterlimit="10" stroke-linecap="round" stroke-linejoin="round"/>
<path d="M176.662 116.163C176.473 115.824 174.58 114.215 174.58 114.215L166.856 109.492L167.32 114.271L172.734 115.648L173.382 115.975L175.09 116.933L175.27 118.32C175.27 118.32 174.529 118.686 174.622 118.939C174.715 119.192 175.27 119.267 175.486 119.451C175.644 119.586 176.006 119.537 176.19 119.501C176.22 119.51 176.254 119.508 176.302 119.476C176.581 119.288 177.071 118.76 177.071 118.76C177.071 118.76 176.852 116.502 176.662 116.163Z" fill="white" stroke="#263238" stroke-width="0.375" stroke-miterlimit="10" stroke-linecap="round" stroke-linejoin="round"/>
<path d="M168.757 110.148L167.25 114.879L165.693 113.861L166.856 109.492L168.757 110.148Z" fill="#8B3E00" stroke="#263238" stroke-width="0.375" stroke-miterlimit="10" stroke-linecap="round" stroke-linejoin="round"/>
<path d="M175.13 115.688C175.13 115.688 175.706 116.345 175.799 116.598C175.892 116.85 176.482 118.766 176.482 118.766C176.482 118.766 175.964 119.361 175.734 118.863C175.504 118.366 175.262 117.331 175.262 117.331C175.262 117.331 174.432 116.993 174.09 116.382C173.749 115.771 173.616 115.075 173.616 115.075" fill="white"/>
<path d="M175.13 115.688C175.13 115.688 175.706 116.345 175.799 116.598C175.892 116.85 176.482 118.766 176.482 118.766C176.482 118.766 175.964 119.361 175.734 118.863C175.504 118.366 175.262 117.331 175.262 117.331C175.262 117.331 174.432 116.993 174.09 116.382C173.749 115.771 173.616 115.075 173.616 115.075" stroke="#263238" stroke-width="0.375" stroke-miterlimit="10" stroke-linecap="round" stroke-linejoin="round"/>
<path d="M154.154 120.941C154.154 120.941 154.154 122.741 154.254 123.142C154.355 123.542 154.705 126.143 154.705 126.143C154.705 126.143 151.655 140.247 151.055 141.648C150.455 143.049 147.804 150.151 147.254 151.902C146.704 153.652 145.904 154.603 146.254 155.053C146.604 155.503 146.604 155.503 146.604 155.503C146.604 155.503 144.904 158.854 145.204 159.054C145.504 159.254 148.856 160.154 150.956 160.254C153.057 160.354 156.158 160.604 156.358 160.254C156.558 159.903 156.658 159.203 156.358 159.003C156.058 158.803 154.758 158.453 154.257 158.003C153.757 157.553 152.407 155.952 152.407 155.952C152.407 155.952 152.857 155.202 152.957 154.652C153.057 154.102 153.157 153.051 153.307 152.751C153.457 152.451 157.958 141.997 158.157 140.747C158.357 139.496 161.577 130.923 161.577 130.923C161.577 130.923 163.502 137.252 163.902 138.602C164.303 139.953 167.52 154.654 167.52 154.904C167.52 155.154 167.571 155.805 167.721 155.955C167.871 156.105 168.071 156.305 168.071 156.305C168.071 156.305 168.721 159.306 168.721 159.456C168.721 159.606 168.671 160.156 169.371 160.256C170.072 160.356 174.273 160.006 174.923 160.006C175.574 160.006 176.824 159.456 177.374 159.105C177.924 158.755 178.174 158.055 177.724 157.905C177.274 157.755 175.473 157.705 174.773 157.455C174.073 157.205 172.922 155.855 172.922 155.855C172.922 155.855 173.172 155.104 173.172 154.954C173.172 154.804 171.922 152.954 171.922 152.804C171.922 152.654 170.143 135.305 170.143 135.305C170.143 135.305 166.609 122.84 166.609 122.69C166.609 122.54 166.109 120.139 166.109 120.139C166.109 120.139 163.108 117.389 161.707 117.339C160.307 117.289 161.957 116.689 158.306 117.739C154.654 118.79 154.154 120.941 154.154 120.941Z" fill="#263238" stroke="#263238" stroke-width="0.375" stroke-miterlimit="10" stroke-linecap="round" stroke-linejoin="round"/>
<path d="M158.253 89.5801C158.253 89.5801 153.902 95.1323 153.752 96.0327C153.602 96.9331 153.352 101.585 153.352 101.835C153.352 102.085 153.303 110.588 153.303 110.588L153.503 118.09L153.704 121.591C153.704 121.591 157.605 119.99 158.605 119.54C159.605 119.09 160.806 118.589 161.056 118.49C161.306 118.389 164.857 119.94 165.257 120.19C165.657 120.44 167.258 121.69 167.258 121.69C167.258 121.69 167.858 113.438 167.657 112.137C167.457 110.837 166.956 98.7826 166.956 98.7826L163.454 92.9311L158.253 89.5801Z" fill="#8B3E00" stroke="#263238" stroke-width="0.375" stroke-miterlimit="10" stroke-linecap="round" stroke-linejoin="round"/>
<path d="M160.455 105.735L161.006 113.138" stroke="#263238" stroke-width="0.375" stroke-miterlimit="10" stroke-linecap="round" stroke-linejoin="round"/>
<path d="M169.393 82.768C169.393 82.768 169.376 84.4131 169.234 84.9471C169.091 85.4811 169.091 85.4811 169.091 85.4811C169.091 85.4811 169.848 87.1963 169.685 87.3501C169.522 87.5035 168.56 87.9497 168.56 87.9497C168.56 87.9497 167.21 91.3435 166.854 91.5861C166.499 91.8287 163.711 90.8605 163.711 90.8605L162.191 91.9551L159.226 88.4181L159.695 86.992C159.695 86.992 159.549 80.1205 159.811 79.843C160.072 79.5658 163.337 77.7793 164.815 78.1075C166.293 78.436 168.312 79.1758 169.101 79.7845C169.89 80.3931 170.925 81.7847 170.441 82.087C169.958 82.3888 169.393 82.768 169.393 82.768Z" fill="white" stroke="#263238" stroke-width="0.375" stroke-miterlimit="10" stroke-linecap="round" stroke-linejoin="round"/>
<path d="M166.244 87.9199C166.244 87.9199 167.326 88.9032 168.014 88.8049" stroke="#263238" stroke-width="0.375" stroke-miterlimit="10" stroke-linecap="round" stroke-linejoin="round"/>
<path d="M170.442 82.087C170.926 81.7848 169.891 80.3935 169.102 79.7845C168.313 79.1759 166.293 78.4357 164.815 78.1075C163.337 77.779 160.073 79.5659 159.811 79.843C159.55 80.1202 159.695 86.992 159.695 86.992L159.665 87.0843L162.112 86.0665L162.577 84.7987L163.821 84.4555C163.821 84.4555 165.604 84.0967 165.682 83.5927C165.76 83.0887 165.965 81.5122 165.965 81.5122L169.393 82.7684C169.393 82.7684 169.958 82.3889 170.442 82.087Z" fill="#263238" stroke="#263238" stroke-width="0.375" stroke-miterlimit="10" stroke-linecap="round" stroke-linejoin="round"/>
<path d="M163.902 84.933C163.902 84.933 163.84 83.8061 162.963 83.8687C162.087 83.9314 161.573 85.1332 162.112 86.0662C162.65 86.9989 163.214 86.4982 163.214 86.4982" fill="white"/>
<path d="M163.902 84.933C163.902 84.933 163.84 83.8061 162.963 83.8687C162.087 83.9314 161.573 85.1332 162.112 86.0662C162.65 86.9989 163.214 86.4982 163.214 86.4982" stroke="#263238" stroke-width="0.375" stroke-miterlimit="10" stroke-linecap="round" stroke-linejoin="round"/>
<path d="M168.065 85.6643C167.985 85.8848 167.804 86.0213 167.661 85.9688C167.518 85.9163 167.468 85.6954 167.549 85.4749C167.629 85.2544 167.81 85.1179 167.953 85.1704C168.096 85.2225 168.146 85.4438 168.065 85.6643Z" fill="#263238"/>
<path d="M167.397 84.4336C167.397 84.4336 168.192 84.299 168.524 84.8465" stroke="#263238" stroke-width="0.375" stroke-miterlimit="10" stroke-linecap="round" stroke-linejoin="round"/>
<path d="M158.853 88.3799L163.805 91.4804L163.885 93.7221L157.395 90.2808L158.853 88.3799Z" fill="#8B3E00" stroke="#263238" stroke-width="0.375" stroke-miterlimit="10" stroke-linecap="round" stroke-linejoin="round"/>
<path d="M162.512 96.8676L163.645 99.8125C163.645 99.8125 164.777 100.605 165.117 100.945C165.457 101.285 166.513 103.763 166.513 103.763L168.56 103.626L170.948 106.492C170.948 106.492 166.233 110.652 164.194 110.312C162.155 109.972 155.405 99.0261 155.292 98.0065C155.179 96.9868 155.783 94.2006 155.783 94.2006C155.783 94.2006 156.888 92.2363 158.361 92.2363" fill="#8B3E00"/>
<path d="M162.512 96.8676L163.645 99.8125C163.645 99.8125 164.777 100.605 165.117 100.945C165.457 101.285 166.513 103.763 166.513 103.763L168.56 103.626L170.948 106.492C170.948 106.492 166.233 110.652 164.194 110.312C162.155 109.972 155.405 99.0261 155.292 98.0065C155.179 96.9868 155.783 94.2006 155.783 94.2006C155.783 94.2006 156.888 92.2363 158.361 92.2363" stroke="#263238" stroke-width="0.375" stroke-miterlimit="10" stroke-linecap="round" stroke-linejoin="round"/>
<path d="M174.303 96.8015L178.256 93.1523L178.897 93.4865L174.712 97.4645L174.303 96.8015Z" fill="#263238" stroke="#263238" stroke-width="0.375" stroke-miterlimit="10" stroke-linecap="round" stroke-linejoin="round"/>
<path d="M169.385 102.923L172.756 99.8587C172.756 99.8587 172.799 98.1674 172.92 97.7249C173.041 97.2821 173.807 96.5583 173.908 96.2564C174.009 95.9546 174.131 94.7066 174.413 94.7471C174.695 94.7876 174.896 95.1907 174.915 95.4524C174.935 95.7142 174.753 96.5797 174.753 96.5797L174.712 97.4654L177.11 95.3947L177.512 95.9992C177.512 95.9992 177.351 96.3209 177.25 96.6228C177.149 96.9247 177.006 98.5151 176.925 98.8773C176.844 99.2396 174.567 101.27 174.567 101.27L171.757 105.423L169.385 102.923Z" fill="white" stroke="#263238" stroke-width="0.375" stroke-miterlimit="10" stroke-linecap="round" stroke-linejoin="round"/>
<path d="M167.331 103.716L170.765 107.589L172.272 105.656L169.245 102.299L167.331 103.716Z" fill="#8B3E00" stroke="#263238" stroke-width="0.375" stroke-miterlimit="10" stroke-linecap="round" stroke-linejoin="round"/>
</svg>
