<svg width="200" height="200" viewBox="0 0 200 200" fill="none" xmlns="http://www.w3.org/2000/svg">
<path d="M100 191.172C152.045 191.172 194.236 166.813 194.236 136.764C194.236 106.716 152.045 82.3572 100 82.3572C47.9551 82.3572 5.76416 106.716 5.76416 136.764C5.76416 166.813 47.9551 191.172 100 191.172Z" fill="#F0F0F0"/>
<path d="M80.4988 177.995C98.4461 177.995 112.995 169.595 112.995 159.234C112.995 148.872 98.4461 140.472 80.4988 140.472C62.5516 140.472 48.0024 148.872 48.0024 159.234C48.0024 169.595 62.5516 177.995 80.4988 177.995Z" fill="#E0E0E0"/>
<path d="M172.91 135.761L169.1 133.561C169.1 133.561 168.166 125.4 168.787 119.08C169.66 110.2 175.395 99.5136 182.238 102.023C189.08 104.533 179.101 113.577 176.879 121.11C174.658 128.642 172.91 135.761 172.91 135.761Z" fill="#8B3E00"/>
<path opacity="0.15" d="M172.91 135.761L169.1 133.561C169.1 133.561 168.166 125.4 168.787 119.08C169.66 110.2 175.395 99.5136 182.238 102.023C189.08 104.533 179.101 113.577 176.879 121.11C174.658 128.642 172.91 135.761 172.91 135.761Z" fill="black"/>
<path d="M170.906 134.835C170.909 134.835 170.911 134.835 170.914 134.835C171.041 134.831 171.141 134.724 171.137 134.597C170.468 114.864 180.291 104.937 180.39 104.84C180.481 104.75 180.482 104.604 180.393 104.514C180.302 104.423 180.156 104.422 180.066 104.511C179.965 104.611 170 114.68 170.675 134.613C170.68 134.737 170.782 134.835 170.906 134.835Z" fill="white"/>
<path d="M175.306 137.133L172.594 135.568C172.594 135.568 172.133 129.968 174.879 123.165C177.269 117.242 183.199 112.329 186.182 113.362C189.165 114.394 189.091 116.509 187.637 118.728C186.183 120.947 177.335 126.235 175.306 137.133Z" fill="#8B3E00"/>
<path d="M173.876 136.538H173.877C174.004 136.537 174.107 136.434 174.106 136.306C174.053 123.829 185.768 115.397 185.886 115.313C185.99 115.239 186.015 115.096 185.941 114.991C185.868 114.888 185.725 114.862 185.62 114.937C185.5 115.021 173.59 123.594 173.645 136.309C173.646 136.435 173.748 136.538 173.876 136.538Z" fill="white"/>
<path d="M31.864 130.858L35.3824 128.484C35.3824 128.484 36.9312 119.266 35.4924 111.168C33.4692 99.7841 25.618 95.9957 22.8164 97.1853C20.0148 98.3749 19.416 101.77 24.6432 108.27C27.7272 112.104 31.756 120.259 31.864 130.858Z" fill="#8B3E00"/>
<g opacity="0.15">
<path d="M31.864 130.858L35.3824 128.484C35.3824 128.484 36.9312 119.266 35.4924 111.168C33.4692 99.7841 25.618 95.9957 22.8164 97.1853C20.0148 98.3749 19.416 101.77 24.6432 108.27C27.7272 112.104 31.756 120.259 31.864 130.858Z" fill="black"/>
</g>
<path d="M33.0722 126.298C33.0602 126.298 33.0486 126.298 33.037 126.296C32.8974 126.28 32.797 126.153 32.8138 126.013C34.0846 115.294 29.5594 103.664 24.6378 99.0373C24.5354 98.9413 24.5302 98.7793 24.627 98.6769C24.7238 98.5753 24.885 98.5693 24.9874 98.6661C29.9986 103.378 34.6102 115.196 33.3202 126.073C33.3046 126.201 33.197 126.296 33.0722 126.298Z" fill="white"/>
<path d="M22.6479 137.075C22.0895 137.41 20.4571 136.2 20.0055 135.909C19.2323 135.412 18.5999 134.698 18.1731 133.886C17.6767 132.94 17.5363 131.92 17.6655 130.86C17.7327 130.311 17.8755 129.774 18.0179 129.24C18.1579 128.715 18.2979 128.19 18.4379 127.665C18.5759 127.147 18.7155 126.612 18.6371 126.082C18.4795 125.013 17.5143 124.282 16.6375 123.651C15.6679 122.954 14.6547 122.028 14.6351 120.739C14.6199 119.744 15.1175 118.81 15.7187 118.018C16.3203 117.225 17.0383 116.521 17.5795 115.686C17.9691 115.085 18.2687 114.382 18.1895 113.67C18.1403 113.228 17.9487 112.814 17.7291 112.427C17.2575 111.596 16.6423 110.839 16.3107 109.943C15.9791 109.047 16.0023 107.924 16.6939 107.266C17.2615 106.725 18.1187 106.634 18.9015 106.671C19.6259 106.705 20.3391 107.018 20.9787 107.357C23.0475 108.456 24.2627 110.857 26.4515 111.691C27.2959 112.013 28.2151 112.069 29.0927 112.283C29.9703 112.497 30.8695 112.926 31.2895 113.726C32.1175 115.303 30.6759 117.294 31.2691 118.974C31.7939 120.46 33.2587 121.005 34.1011 122.337C34.4695 122.92 34.5651 123.6 34.5207 124.288C34.4455 125.453 34.2919 126.31 33.7591 127.614C33.3187 128.691 32.0107 130.761 32.0107 130.761C32.0107 130.761 22.7331 137.024 22.6479 137.075Z" fill="#8B3E00"/>
<path d="M28.0553 133.758C28.0517 133.758 28.0485 133.758 28.0485 133.758C27.9041 133.755 27.7929 133.638 27.7957 133.498C28.0213 123.371 23.0381 112.292 19.5081 109.114C19.4037 109.02 19.3949 108.858 19.4893 108.754C19.5837 108.649 19.7445 108.641 19.8493 108.735C23.4501 111.977 28.5341 123.24 28.3057 133.509C28.3021 133.647 28.1913 133.756 28.0553 133.758Z" fill="white"/>
<path d="M26.1894 121.422C26.1646 121.422 26.139 121.419 26.1142 121.412C22.8438 120.47 18.7886 120.37 18.7482 120.37C18.6074 120.366 18.4958 120.25 18.4986 120.109C18.5018 119.968 18.6062 119.855 18.7594 119.859C18.8006 119.86 22.9202 119.96 26.2554 120.922C26.3906 120.96 26.469 121.102 26.4298 121.237C26.3974 121.347 26.2982 121.42 26.1894 121.422Z" fill="white"/>
<path d="M120.464 123.898L118.946 123.021C118.468 122.744 118.08 122.073 118.08 121.52L118.08 58.5135C118.08 57.9611 118.468 57.2895 118.946 57.0135L161.084 32.6855C161.562 32.4095 162.338 32.4095 162.816 32.6855L164.334 33.5615C164.812 33.8375 165.2 34.5091 165.2 35.0615V98.0679C165.2 98.6203 164.812 99.2919 164.334 99.5679L122.195 123.898C121.717 124.174 120.942 124.174 120.464 123.898Z" fill="#78695C" fill-opacity="0.5"/>
<path d="M165.193 34.9208C165.133 34.4728 164.769 34.3088 164.333 34.5608L122.197 58.8928C121.957 59.0328 121.745 59.2648 121.585 59.5368L118.333 57.6608C118.489 57.3888 118.705 57.1528 118.945 57.0128L161.085 32.6848C161.561 32.4088 162.337 32.4088 162.817 32.6848L164.333 33.5608C164.773 33.8128 165.137 34.4008 165.193 34.9208Z" fill="#78695C" fill-opacity="0.5"/>
<path d="M122.049 123.968C121.569 124.172 120.897 124.148 120.465 123.9L118.945 123.02C118.469 122.744 118.081 122.072 118.081 121.52V58.5129C118.081 58.2369 118.177 57.9329 118.333 57.6609L121.585 59.5369C121.425 59.8089 121.329 60.1169 121.329 60.3929V123.4C121.329 123.896 121.641 124.124 122.049 123.968Z" fill="#2C1B0D"/>
<path d="M121.329 60.3919V123.398C121.329 123.951 121.717 124.174 122.195 123.898L164.334 99.5683C164.812 99.2923 165.2 98.6207 165.2 98.0683V35.0611C165.2 34.5087 164.812 34.2851 164.334 34.5611L122.195 58.8919C121.717 59.1679 121.329 59.8395 121.329 60.3919Z" fill="#899094"/>
<path d="M111.489 84.4087C110.945 84.0847 108.421 82.6487 108.289 82.5727C107.889 82.3287 107.745 81.7367 108.117 81.3367L118.081 70.6487L121.329 72.5127L111.369 83.2047C111.009 83.5887 111.125 84.1447 111.489 84.4087Z" fill="#78695C" fill-opacity="0.5"/>
<path d="M121.33 72.5144L111.368 83.2036C110.868 83.7392 111.29 84.6084 112.02 84.5484L121.33 83.7816V72.5144Z" fill="#899094"/>
<path d="M143.264 53.2807C148.176 50.4451 152.157 52.7439 152.157 58.4147C152.157 64.0855 148.176 70.9811 143.264 73.8167C138.353 76.6523 134.372 74.3535 134.372 68.6827C134.372 63.0115 138.354 56.1159 143.264 53.2807Z" fill="#8B3E00"/>
<path d="M143.202 57.7435C144.795 56.8235 146.087 57.5691 146.087 59.4087C146.087 61.2487 144.796 63.4859 143.202 64.4055C141.609 65.3251 140.317 64.5799 140.317 62.7399C140.317 60.9003 141.609 58.6631 143.202 57.7435Z" fill="white"/>
<path d="M148.888 67.5536C148.888 64.5308 146.765 63.3056 144.148 64.8172L142.512 65.762C139.894 67.2732 137.772 70.9488 137.772 73.9712V74.7956C138.245 74.9524 138.758 75.03 139.3 75.0312C140.494 75.0336 141.838 74.6404 143.265 73.8168C145.398 72.5848 147.356 70.5856 148.888 68.2548V67.5536Z" fill="white"/>
<path d="M137.632 101.892L148.898 95.3873C149.376 95.1113 149.764 95.3349 149.764 95.8873V99.5157C149.764 100.068 149.376 100.74 148.898 101.016L137.632 107.52C137.153 107.796 136.766 107.573 136.766 107.02V103.392C136.766 102.84 137.153 102.168 137.632 101.892Z" fill="#8B3E00"/>
<path d="M132.117 93.7863L154.411 80.9151C154.985 80.5839 155.451 80.8523 155.451 81.5151V82.8655C155.451 83.5283 154.985 84.3343 154.411 84.6655L132.118 97.5367C131.544 97.8679 131.079 97.5995 131.079 96.9367V95.5863C131.078 94.9235 131.544 94.1175 132.117 93.7863Z" fill="#FAFAFA"/>
<path d="M134.725 84.4714C135.028 84.2962 135.264 84.2698 135.432 84.3934C135.6 84.5166 135.684 84.7902 135.684 85.215C135.684 85.6402 135.6 86.0126 135.432 86.3334C135.264 86.6546 135.028 86.9026 134.725 87.0778L134.123 87.425V88.7166C134.123 88.7594 134.113 88.8014 134.093 88.8438C134.072 88.8866 134.049 88.9158 134.021 88.9314L133.716 89.1074C133.689 89.1238 133.665 89.1222 133.644 89.1026C133.624 89.083 133.614 89.0526 133.614 89.0098V85.2682C133.614 85.2258 133.624 85.183 133.644 85.1406C133.665 85.0986 133.688 85.0686 133.716 85.053L134.725 84.4714ZM134.123 86.701L134.705 86.3642C134.848 86.2818 134.963 86.1726 135.048 86.0362C135.133 85.9002 135.175 85.7246 135.175 85.5082C135.175 85.2918 135.133 85.1666 135.048 85.133C134.962 85.0994 134.848 85.1238 134.705 85.2066L134.123 85.543V86.701Z" fill="#FAFAFA"/>
<path d="M137.361 82.9485C137.401 82.9253 137.432 82.9241 137.452 82.9453C137.472 82.9669 137.49 83.0057 137.505 83.0629L138.427 86.1913C138.429 86.2013 138.43 86.2141 138.43 86.2297C138.43 86.2721 138.42 86.3145 138.4 86.3569C138.38 86.3993 138.357 86.4289 138.329 86.4445L138.058 86.6009C138.008 86.6297 137.972 86.6337 137.952 86.6125C137.932 86.5913 137.919 86.5677 137.911 86.5405L137.749 85.9913L136.56 86.6781L136.399 87.4141C136.391 87.4493 136.377 87.4893 136.357 87.5337C136.337 87.5781 136.302 87.6145 136.252 87.6437L135.981 87.8001C135.953 87.8157 135.929 87.8141 135.909 87.7945C135.889 87.7753 135.879 87.7445 135.879 87.7025C135.879 87.6869 135.881 87.6729 135.883 87.6597L136.805 83.4673C136.82 83.3925 136.837 83.3337 136.858 83.2893C136.878 83.2453 136.908 83.2113 136.948 83.1881L137.361 82.9485ZM137.568 85.3721L137.155 83.9605L136.741 85.8497L137.568 85.3721Z" fill="#FAFAFA"/>
<path d="M139.829 81.4656C139.997 81.3688 140.145 81.318 140.273 81.314C140.401 81.3092 140.507 81.3348 140.593 81.3896C140.678 81.4448 140.743 81.5224 140.787 81.6224C140.83 81.7224 140.855 81.8272 140.86 81.936C140.863 81.9808 140.853 82.024 140.832 82.0652C140.811 82.106 140.786 82.1348 140.759 82.1508L140.495 82.3028C140.453 82.328 140.421 82.3332 140.399 82.3208C140.378 82.3084 140.358 82.2856 140.341 82.2536C140.303 82.1784 140.247 82.1276 140.17 82.1C140.093 82.0732 139.98 82.1024 139.829 82.1896C139.764 82.2272 139.702 82.274 139.643 82.3288C139.584 82.3844 139.533 82.4448 139.489 82.5108C139.445 82.5764 139.411 82.646 139.385 82.718C139.36 82.7908 139.348 82.8636 139.348 82.9368C139.348 83.026 139.359 83.0916 139.383 83.1336C139.407 83.1756 139.447 83.2008 139.504 83.2088C139.56 83.2172 139.635 83.2112 139.728 83.1924C139.821 83.1736 139.936 83.148 140.074 83.1144C140.224 83.0776 140.354 83.062 140.463 83.0668C140.572 83.0716 140.661 83.1008 140.73 83.1556C140.799 83.2108 140.851 83.29 140.885 83.394C140.919 83.4984 140.935 83.6292 140.935 83.7872C140.935 83.9612 140.91 84.1368 140.86 84.3144C140.81 84.4916 140.738 84.6604 140.646 84.8204C140.553 84.98 140.439 85.13 140.303 85.27C140.168 85.41 140.016 85.5284 139.848 85.6256C139.707 85.7068 139.573 85.7584 139.445 85.7796C139.317 85.8016 139.204 85.792 139.105 85.7508C139.006 85.7092 138.926 85.6368 138.865 85.5324C138.806 85.428 138.772 85.2932 138.764 85.1276C138.761 85.0828 138.771 85.0396 138.792 84.9984C138.813 84.9576 138.838 84.9288 138.865 84.9128L139.129 84.7608C139.171 84.7356 139.204 84.7288 139.227 84.7388C139.249 84.7488 139.268 84.7728 139.283 84.81C139.301 84.8508 139.322 84.8884 139.347 84.924C139.373 84.9596 139.406 84.9844 139.449 84.9984C139.491 85.0124 139.545 85.0132 139.609 85.002C139.673 84.99 139.752 84.9568 139.847 84.9012C139.923 84.8584 139.995 84.8076 140.066 84.7492C140.136 84.6916 140.197 84.6268 140.25 84.556C140.303 84.4852 140.345 84.4108 140.378 84.3316C140.41 84.2528 140.427 84.1692 140.427 84.08C140.427 83.9956 140.409 83.9364 140.374 83.9024C140.339 83.8684 140.285 83.8532 140.214 83.856C140.143 83.8584 140.055 83.8728 139.949 83.8988C139.844 83.9244 139.722 83.9508 139.584 83.976C139.459 84.002 139.349 84.0104 139.255 84.0012C139.161 83.992 139.083 83.9584 139.022 83.9012C138.961 83.844 138.915 83.7612 138.885 83.6532C138.855 83.5448 138.84 83.4044 138.84 83.23C138.84 83.0564 138.865 82.8816 138.915 82.7064C138.965 82.5308 139.034 82.3648 139.122 82.2104C139.21 82.0552 139.314 81.9128 139.436 81.7832C139.558 81.6524 139.689 81.5468 139.829 81.4656Z" fill="#FAFAFA"/>
<path d="M142.455 79.9501C142.623 79.8533 142.771 79.8025 142.898 79.7981C143.026 79.7937 143.133 79.8189 143.219 79.8737C143.304 79.9289 143.368 80.0065 143.412 80.1065C143.456 80.2069 143.48 80.3117 143.486 80.4201C143.488 80.4653 143.479 80.5085 143.458 80.5493C143.436 80.5905 143.412 80.6193 143.384 80.6349L143.12 80.7873C143.078 80.8121 143.046 80.8177 143.025 80.8053C143.004 80.7925 142.984 80.7697 142.967 80.7377C142.929 80.6633 142.872 80.6117 142.796 80.5841C142.719 80.5573 142.606 80.5865 142.455 80.6737C142.39 80.7117 142.328 80.7581 142.269 80.8133C142.21 80.8689 142.158 80.9289 142.114 80.9949C142.07 81.0609 142.036 81.1301 142.011 81.2025C141.986 81.2749 141.973 81.3477 141.973 81.4213C141.973 81.5105 141.985 81.5757 142.009 81.6177C142.033 81.6605 142.072 81.6853 142.129 81.6933C142.186 81.7013 142.26 81.6957 142.353 81.6769C142.446 81.6581 142.562 81.6325 142.699 81.5989C142.85 81.5621 142.979 81.5465 143.089 81.5509C143.198 81.5557 143.287 81.5849 143.356 81.6397C143.425 81.6953 143.476 81.7741 143.51 81.8781C143.544 81.9829 143.561 82.1133 143.561 82.2717C143.561 82.4453 143.536 82.6209 143.486 82.7989C143.436 82.9761 143.364 83.1449 143.271 83.3045C143.179 83.4645 143.064 83.6141 142.929 83.7545C142.794 83.8945 142.642 84.0129 142.474 84.1097C142.333 84.1909 142.199 84.2425 142.071 84.2641C141.944 84.2861 141.83 84.2761 141.731 84.2349C141.632 84.1937 141.552 84.1213 141.492 84.0165C141.432 83.9121 141.398 83.7773 141.39 83.6117C141.388 83.5669 141.397 83.5237 141.418 83.4829C141.439 83.4413 141.464 83.4129 141.492 83.3969L141.755 83.2449C141.797 83.2201 141.83 83.2129 141.852 83.2233C141.876 83.2333 141.894 83.2569 141.909 83.2945C141.927 83.3349 141.948 83.3725 141.973 83.4085C141.998 83.4437 142.032 83.4685 142.075 83.4829C142.117 83.4969 142.171 83.4977 142.234 83.4865C142.298 83.4745 142.378 83.4413 142.474 83.3861C142.549 83.3429 142.621 83.2925 142.692 83.2337C142.762 83.1765 142.823 83.1117 142.876 83.0409C142.928 82.9697 142.971 82.8957 143.004 82.8165C143.036 82.7381 143.052 82.6545 143.052 82.5653C143.052 82.4805 143.035 82.4213 143 82.3873C142.965 82.3537 142.911 82.3381 142.84 82.3409C142.769 82.3437 142.68 82.3577 142.575 82.3837C142.47 82.4097 142.348 82.4357 142.21 82.4613C142.085 82.4869 141.975 82.4957 141.881 82.4865C141.787 82.4769 141.709 82.4437 141.648 82.3865C141.586 82.3293 141.54 82.2465 141.51 82.1381C141.48 82.0301 141.466 81.8893 141.466 81.7153C141.466 81.5417 141.491 81.3669 141.541 81.1913C141.591 81.0157 141.66 80.8501 141.748 80.6953C141.836 80.5401 141.94 80.3981 142.062 80.2681C142.184 80.1369 142.314 80.0313 142.455 79.9501Z" fill="#FAFAFA"/>
<path d="M145.371 80.4504L145.047 82.3688C145.035 82.4336 145.019 82.4904 145 82.5376C144.981 82.5852 144.953 82.62 144.916 82.6416L144.61 82.8176C144.573 82.8392 144.543 82.8384 144.522 82.8132C144.5 82.7888 144.486 82.75 144.479 82.6968L143.997 79.3204C143.995 79.3024 143.994 79.2876 143.994 79.2764C143.994 79.234 144.004 79.1912 144.024 79.1488C144.044 79.1064 144.067 79.0768 144.095 79.0612L144.373 78.9004C144.398 78.8864 144.422 78.884 144.445 78.894C144.468 78.904 144.483 78.9356 144.49 78.9896L144.806 81.2628L145.084 79.5556C145.09 79.5256 145.101 79.4836 145.12 79.4304C145.139 79.3772 145.171 79.3376 145.216 79.3112L145.524 79.1332C145.57 79.1072 145.602 79.11 145.62 79.1416C145.639 79.1732 145.651 79.2008 145.656 79.2248L145.934 80.6108L146.25 77.9728C146.258 77.9104 146.273 77.8616 146.296 77.8248C146.318 77.7888 146.342 77.7632 146.367 77.7492L146.645 77.5884C146.673 77.5728 146.697 77.5744 146.717 77.594C146.737 77.6132 146.747 77.644 146.747 77.6864C146.747 77.6976 146.746 77.714 146.743 77.7344L146.262 81.6672C146.254 81.7296 146.24 81.7852 146.219 81.834C146.197 81.8828 146.168 81.9184 146.13 81.9404L145.825 82.116C145.787 82.138 145.759 82.136 145.74 82.11C145.722 82.084 145.706 82.046 145.693 81.9952L145.371 80.4504Z" fill="#FAFAFA"/>
<path d="M147.244 78.755C147.252 78.5346 147.278 78.315 147.325 78.097C147.371 77.879 147.44 77.6734 147.53 77.4806C147.62 77.2878 147.733 77.1102 147.868 76.9494C148.004 76.7878 148.164 76.6542 148.35 76.5466C148.533 76.4406 148.692 76.3894 148.828 76.3922C148.963 76.3954 149.076 76.4422 149.166 76.533C149.257 76.6238 149.325 76.7502 149.373 76.9114C149.421 77.0734 149.449 77.2618 149.456 77.4774C149.459 77.5498 149.461 77.6298 149.462 77.7174C149.463 77.8054 149.464 77.8966 149.464 77.9914C149.464 78.0862 149.463 78.1782 149.462 78.2674C149.461 78.3574 149.459 78.4394 149.456 78.5138C149.448 78.735 149.422 78.9538 149.376 79.1718C149.329 79.3898 149.261 79.5954 149.17 79.7882C149.08 79.981 148.966 80.1578 148.83 80.3178C148.693 80.4778 148.533 80.6106 148.35 80.7162C148.164 80.8234 148.004 80.8754 147.868 80.873C147.733 80.8698 147.62 80.8242 147.53 80.735C147.44 80.6466 147.371 80.5202 147.325 80.3554C147.278 80.1914 147.252 80.003 147.244 79.7914C147.242 79.7194 147.239 79.6398 147.238 79.551C147.237 79.463 147.236 79.3718 147.236 79.2774C147.236 79.183 147.237 79.0906 147.238 79.001C147.24 78.9118 147.242 78.8298 147.244 78.755ZM148.948 77.7998C148.938 77.5274 148.88 77.3462 148.773 77.255C148.666 77.1642 148.526 77.169 148.35 77.2706C148.174 77.3722 148.033 77.5298 147.926 77.7442C147.82 77.9582 147.761 78.2066 147.751 78.4906C147.746 78.6402 147.743 78.805 147.743 78.9846C147.743 79.1642 147.746 79.3254 147.751 79.4694C147.761 79.7418 147.82 79.9222 147.926 80.011C148.033 80.1002 148.174 80.0938 148.35 79.9926C148.526 79.8914 148.666 79.7346 148.773 79.5226C148.88 79.3102 148.938 79.0626 148.948 78.7786C148.954 78.629 148.956 78.4646 148.956 78.285C148.956 78.1054 148.954 77.9442 148.948 77.7998Z" fill="#FAFAFA"/>
<path d="M151.212 74.9516C151.526 74.7708 151.764 74.7452 151.927 74.8752C152.09 75.0052 152.171 75.2688 152.171 75.6668C152.171 75.9488 152.13 76.2128 152.046 76.4604C151.961 76.7076 151.838 76.9268 151.675 77.1176L152.194 78.2484C152.202 78.2672 152.205 78.2864 152.205 78.306C152.205 78.3404 152.197 78.3748 152.18 78.41C152.164 78.4444 152.144 78.468 152.122 78.4812L151.802 78.6656C151.752 78.6944 151.715 78.6976 151.691 78.6748C151.667 78.6512 151.65 78.628 151.64 78.6028L151.148 77.5372L150.648 77.8264V79.176C150.648 79.2184 150.638 79.2608 150.618 79.3028C150.597 79.3456 150.574 79.3748 150.546 79.3912L150.241 79.5668C150.214 79.5824 150.19 79.5808 150.17 79.5612C150.149 79.542 150.14 79.5116 150.14 79.4692V75.7276C150.14 75.6848 150.149 75.6424 150.17 75.6004C150.19 75.5576 150.213 75.5284 150.241 75.512L151.212 74.9516ZM150.648 77.102L151.193 76.7872C151.336 76.7048 151.45 76.6 151.536 76.4736C151.621 76.3476 151.663 76.176 151.663 75.9596C151.663 75.7436 151.62 75.6232 151.536 75.5992C151.45 75.5752 151.336 75.6044 151.193 75.6872L150.648 76.002V77.102Z" fill="#FAFAFA"/>
<path d="M153.88 73.4117C154.065 73.3045 154.226 73.2493 154.363 73.2453C154.5 73.2421 154.614 73.2833 154.706 73.3697C154.797 73.4557 154.867 73.5829 154.916 73.7517C154.965 73.9205 154.994 74.1237 155.005 74.3609C155.015 74.6405 155.015 74.9265 155.005 75.2181C154.995 75.4673 154.965 75.7045 154.916 75.9293C154.867 76.1549 154.798 76.3625 154.707 76.5541C154.617 76.7453 154.505 76.9169 154.37 77.0697C154.236 77.2229 154.079 77.3509 153.898 77.4553L152.95 78.0025C152.923 78.0185 152.899 78.0169 152.879 77.9973C152.859 77.9781 152.849 77.9477 152.849 77.9049V74.1633C152.849 74.1213 152.859 74.0781 152.879 74.0361C152.899 73.9937 152.922 73.9641 152.95 73.9481L153.88 73.4117ZM154.497 74.6541C154.491 74.5337 154.476 74.4277 154.45 74.3369C154.423 74.2461 154.385 74.1757 154.333 74.1265C154.281 74.0769 154.217 74.0529 154.14 74.0529C154.062 74.0537 153.969 74.0849 153.861 74.1473L153.357 74.4381V77.0445L153.88 76.7429C153.983 76.6837 154.072 76.6101 154.147 76.5217C154.223 76.4341 154.285 76.3373 154.335 76.2305C154.385 76.1241 154.424 76.0097 154.45 75.8865C154.476 75.7629 154.492 75.6381 154.497 75.5121C154.506 75.2197 154.506 74.9345 154.497 74.6541Z" fill="#FAFAFA"/>
<path d="M98.951 15.3581C99.6502 15.5129 100.309 15.7605 100.928 16.1001C101.547 16.4401 102.071 16.8565 102.5 17.3493C102.929 17.8417 103.239 18.4017 103.427 19.0289C103.616 19.6553 103.629 20.3337 103.468 21.0621C103.337 21.6569 103.129 22.1537 102.846 22.5509C102.563 22.9485 102.237 23.2901 101.87 23.5749C101.503 23.8601 101.115 24.1101 100.71 24.3241C100.303 24.5385 99.9182 24.7421 99.5566 24.9341C99.1938 25.1269 98.8654 25.3397 98.573 25.5709C98.2798 25.8025 98.075 26.0773 97.9578 26.3945C97.8914 26.5517 97.7934 26.6777 97.6634 26.7733C97.5326 26.8697 97.3858 26.8989 97.2222 26.8633L95.5266 26.4877C95.363 26.4517 95.231 26.3605 95.1314 26.2129C95.0314 26.0661 95.007 25.9129 95.0578 25.7525C95.2162 25.1789 95.451 24.6965 95.7642 24.3057C96.077 23.9149 96.4242 23.5785 96.8066 23.2961C97.189 23.0141 97.5862 22.7709 97.9982 22.5657C98.4098 22.3601 98.7934 22.1605 99.149 21.9661C99.5038 21.7721 99.807 21.5657 100.057 21.3485C100.309 21.1313 100.469 20.8661 100.538 20.5537C100.663 19.9889 100.528 19.4713 100.133 19.0013C99.7374 18.5317 99.1454 18.2097 98.3574 18.0349C97.0934 17.7549 96.0238 18.1813 95.149 19.3137C95.0386 19.4609 94.933 19.5661 94.8338 19.6297C94.7334 19.6937 94.5866 19.7041 94.393 19.6609L92.5862 19.2609C92.4526 19.2313 92.3466 19.1609 92.2702 19.0505C92.1934 18.9401 92.1714 18.8101 92.2042 18.6613C92.3338 18.1441 92.6122 17.6481 93.037 17.1725C93.4618 16.6973 93.9798 16.2973 94.5898 15.9717C95.2002 15.6469 95.8826 15.4193 96.6366 15.2901C97.3918 15.1613 98.1626 15.1833 98.951 15.3581ZM97.0378 28.2269C97.201 28.2629 97.3294 28.3537 97.4214 28.4993C97.5142 28.6445 97.5426 28.7989 97.5062 28.9625L97.0714 30.9253C97.035 31.0893 96.9446 31.2173 96.799 31.3097C96.6538 31.4029 96.4998 31.4309 96.3362 31.3945L94.4178 30.9697C94.2538 30.9329 94.1258 30.8429 94.033 30.6969C93.9402 30.5517 93.9118 30.3977 93.9482 30.2337L94.383 28.2705C94.4194 28.1073 94.5098 27.9789 94.6554 27.8861C94.801 27.7941 94.955 27.7653 95.119 27.8017L97.0378 28.2269Z" fill="#8B3E00"/>
<path d="M101.086 34.1222C101.574 34.0426 102.06 34.0318 102.544 34.0918C103.028 34.151 103.47 34.2834 103.872 34.4894C104.273 34.6962 104.614 34.9758 104.896 35.3294C105.178 35.6834 105.36 36.1146 105.443 36.6222C105.51 37.0374 105.504 37.4094 105.425 37.7362C105.345 38.0634 105.224 38.3658 105.062 38.643C104.899 38.9198 104.715 39.179 104.509 39.4202C104.304 39.6618 104.109 39.8902 103.926 40.1066C103.743 40.323 103.587 40.5434 103.459 40.7666C103.33 40.9898 103.269 41.2182 103.275 41.4514C103.273 41.5694 103.242 41.6754 103.184 41.7702C103.124 41.865 103.038 41.9218 102.924 41.9406L101.741 42.1338C101.626 42.1526 101.518 42.1274 101.416 42.0586C101.315 41.9902 101.26 41.8982 101.252 41.7822C101.206 41.3738 101.234 41.005 101.334 40.6738C101.434 40.3434 101.571 40.0382 101.744 39.7598C101.917 39.4814 102.109 39.2234 102.321 38.9862C102.532 38.7494 102.727 38.523 102.905 38.307C103.083 38.0922 103.224 37.8822 103.33 37.679C103.435 37.475 103.47 37.2646 103.434 37.0462C103.37 36.6526 103.151 36.355 102.777 36.1546C102.403 35.9546 101.941 35.8994 101.391 35.9894C100.509 36.1334 99.9329 36.681 99.6617 37.631C99.6285 37.7534 99.5881 37.8478 99.5401 37.9142C99.4925 37.981 99.4009 38.025 99.2661 38.047L98.0057 38.2534C97.9121 38.2686 97.8265 38.2506 97.7485 38.1994C97.6709 38.1478 97.6237 38.0706 97.6065 37.9666C97.5573 37.6022 97.6085 37.2126 97.7597 36.799C97.9101 36.3854 98.1397 35.9962 98.4477 35.6318C98.7557 35.267 99.1353 34.947 99.5853 34.671C100.036 34.395 100.536 34.2122 101.086 34.1222ZM103.154 42.8618C103.268 42.8434 103.373 42.869 103.47 42.9378C103.566 43.0078 103.624 43.0994 103.643 43.213L103.867 44.5834C103.886 44.6974 103.86 44.803 103.791 44.8994C103.721 44.9962 103.63 45.0534 103.515 45.0722L102.176 45.291C102.062 45.3098 101.957 45.2846 101.86 45.2154C101.764 45.1458 101.706 45.0542 101.687 44.9402L101.463 43.5698C101.445 43.4562 101.47 43.3506 101.539 43.2538C101.609 43.1574 101.7 43.0994 101.814 43.0806L103.154 42.8618Z" fill="#8B3E00"/>
<g opacity="0.2">
<path d="M101.086 34.1222C101.574 34.0426 102.06 34.0318 102.544 34.0918C103.028 34.151 103.47 34.2834 103.872 34.4894C104.273 34.6962 104.614 34.9758 104.896 35.3294C105.178 35.6834 105.36 36.1146 105.443 36.6222C105.51 37.0374 105.504 37.4094 105.425 37.7362C105.345 38.0634 105.224 38.3658 105.062 38.643C104.899 38.9198 104.715 39.179 104.509 39.4202C104.304 39.6618 104.109 39.8902 103.926 40.1066C103.743 40.323 103.587 40.5434 103.459 40.7666C103.33 40.9898 103.269 41.2182 103.275 41.4514C103.273 41.5694 103.242 41.6754 103.184 41.7702C103.124 41.865 103.038 41.9218 102.924 41.9406L101.741 42.1338C101.626 42.1526 101.518 42.1274 101.416 42.0586C101.315 41.9902 101.26 41.8982 101.252 41.7822C101.206 41.3738 101.234 41.005 101.334 40.6738C101.434 40.3434 101.571 40.0382 101.744 39.7598C101.917 39.4814 102.109 39.2234 102.321 38.9862C102.532 38.7494 102.727 38.523 102.905 38.307C103.083 38.0922 103.224 37.8822 103.33 37.679C103.435 37.475 103.47 37.2646 103.434 37.0462C103.37 36.6526 103.151 36.355 102.777 36.1546C102.403 35.9546 101.941 35.8994 101.391 35.9894C100.509 36.1334 99.9329 36.681 99.6617 37.631C99.6285 37.7534 99.5881 37.8478 99.5401 37.9142C99.4925 37.981 99.4009 38.025 99.2661 38.047L98.0057 38.2534C97.9121 38.2686 97.8265 38.2506 97.7485 38.1994C97.6709 38.1478 97.6237 38.0706 97.6065 37.9666C97.5573 37.6022 97.6085 37.2126 97.7597 36.799C97.9101 36.3854 98.1397 35.9962 98.4477 35.6318C98.7557 35.267 99.1353 34.947 99.5853 34.671C100.036 34.395 100.536 34.2122 101.086 34.1222ZM103.154 42.8618C103.268 42.8434 103.373 42.869 103.47 42.9378C103.566 43.0078 103.624 43.0994 103.643 43.213L103.867 44.5834C103.886 44.6974 103.86 44.803 103.791 44.8994C103.721 44.9962 103.63 45.0534 103.515 45.0722L102.176 45.291C102.062 45.3098 101.957 45.2846 101.86 45.2154C101.764 45.1458 101.706 45.0542 101.687 44.9402L101.463 43.5698C101.445 43.4562 101.47 43.3506 101.539 43.2538C101.609 43.1574 101.7 43.0994 101.814 43.0806L103.154 42.8618Z" fill="black"/>
</g>
<path d="M112.397 36.2756C112.508 36.3552 112.576 36.4644 112.6 36.6032C112.623 36.7424 112.595 36.8676 112.516 36.9792L111.563 38.3196C111.484 38.4316 111.374 38.4992 111.236 38.5224C111.096 38.5464 110.971 38.518 110.86 38.4388L109.55 37.5076C109.438 37.428 109.371 37.3192 109.347 37.1804C109.323 37.0408 109.352 36.916 109.431 36.8044L110.384 35.4636C110.463 35.352 110.572 35.2844 110.712 35.2608C110.85 35.2372 110.975 35.2652 111.087 35.3448L112.397 36.2756ZM117.938 27.1908C118.415 27.5296 118.833 27.926 119.191 28.3792C119.549 28.8328 119.812 29.3132 119.978 29.8208C120.144 30.3292 120.198 30.8488 120.141 31.3812C120.083 31.914 119.878 32.4288 119.524 32.9264C119.235 33.3328 118.921 33.6404 118.582 33.8496C118.242 34.0592 117.888 34.2128 117.52 34.3104C117.152 34.4084 116.781 34.4732 116.408 34.5056C116.032 34.5372 115.678 34.568 115.344 34.5976C115.01 34.6272 114.695 34.6828 114.401 34.764C114.106 34.8448 113.864 34.9868 113.675 35.1884C113.575 35.2856 113.461 35.3492 113.332 35.38C113.204 35.4108 113.084 35.3864 112.972 35.3068L111.814 34.4836C111.702 34.4044 111.632 34.2936 111.604 34.1508C111.575 34.0084 111.605 33.8848 111.695 33.78C111.997 33.3984 112.328 33.11 112.688 32.9152C113.048 32.7208 113.417 32.5776 113.795 32.4868C114.172 32.396 114.55 32.3392 114.926 32.316C115.301 32.2924 115.654 32.264 115.984 32.2308C116.313 32.1976 116.606 32.1392 116.865 32.0552C117.123 31.9712 117.328 31.8228 117.48 31.6096C117.754 31.2236 117.817 30.7912 117.669 30.3112C117.521 29.8316 117.178 29.4004 116.64 29.018C115.777 28.4044 114.835 28.3848 113.815 28.9592C113.685 29.0348 113.572 29.0812 113.477 29.0972C113.381 29.1132 113.268 29.0744 113.136 28.9808L111.902 28.1036C111.81 28.0388 111.753 27.9524 111.73 27.8448C111.708 27.7364 111.733 27.6324 111.804 27.5308C112.067 27.1824 112.434 26.8968 112.906 26.674C113.378 26.4512 113.895 26.3148 114.459 26.2644C115.022 26.214 115.608 26.2596 116.217 26.4028C116.826 26.5452 117.4 26.808 117.938 27.1908Z" fill="#8B3E00"/>
<g opacity="0.6">
<path d="M112.397 36.2756C112.508 36.3552 112.576 36.4644 112.6 36.6032C112.623 36.7424 112.595 36.8676 112.516 36.9792L111.563 38.3196C111.484 38.4316 111.374 38.4992 111.236 38.5224C111.096 38.5464 110.971 38.518 110.86 38.4388L109.55 37.5076C109.438 37.428 109.371 37.3192 109.347 37.1804C109.323 37.0408 109.352 36.916 109.431 36.8044L110.384 35.4636C110.463 35.352 110.572 35.2844 110.712 35.2608C110.85 35.2372 110.975 35.2652 111.087 35.3448L112.397 36.2756ZM117.938 27.1908C118.415 27.5296 118.833 27.926 119.191 28.3792C119.549 28.8328 119.812 29.3132 119.978 29.8208C120.144 30.3292 120.198 30.8488 120.141 31.3812C120.083 31.914 119.878 32.4288 119.524 32.9264C119.235 33.3328 118.921 33.6404 118.582 33.8496C118.242 34.0592 117.888 34.2128 117.52 34.3104C117.152 34.4084 116.781 34.4732 116.408 34.5056C116.032 34.5372 115.678 34.568 115.344 34.5976C115.01 34.6272 114.695 34.6828 114.401 34.764C114.106 34.8448 113.864 34.9868 113.675 35.1884C113.575 35.2856 113.461 35.3492 113.332 35.38C113.204 35.4108 113.084 35.3864 112.972 35.3068L111.814 34.4836C111.702 34.4044 111.632 34.2936 111.604 34.1508C111.575 34.0084 111.605 33.8848 111.695 33.78C111.997 33.3984 112.328 33.11 112.688 32.9152C113.048 32.7208 113.417 32.5776 113.795 32.4868C114.172 32.396 114.55 32.3392 114.926 32.316C115.301 32.2924 115.654 32.264 115.984 32.2308C116.313 32.1976 116.606 32.1392 116.865 32.0552C117.123 31.9712 117.328 31.8228 117.48 31.6096C117.754 31.2236 117.817 30.7912 117.669 30.3112C117.521 29.8316 117.178 29.4004 116.64 29.018C115.777 28.4044 114.835 28.3848 113.815 28.9592C113.685 29.0348 113.572 29.0812 113.477 29.0972C113.381 29.1132 113.268 29.0744 113.136 28.9808L111.902 28.1036C111.81 28.0388 111.753 27.9524 111.73 27.8448C111.708 27.7364 111.733 27.6324 111.804 27.5308C112.067 27.1824 112.434 26.8968 112.906 26.674C113.378 26.4512 113.895 26.3148 114.459 26.2644C115.022 26.214 115.608 26.2596 116.217 26.4028C116.826 26.5452 117.4 26.808 117.938 27.1908Z" fill="white"/>
</g>
<path d="M82.6102 71.6848H68.3994V37.2508C68.3994 31.024 73.4474 25.9756 79.6746 25.9756H80.9878C87.215 25.9756 92.263 31.0236 92.263 37.2508V62.0328C92.2626 67.3636 87.941 71.6848 82.6102 71.6848Z" fill="#2C1B0D"/>
<path d="M67.0181 154.576C66.9013 155.441 66.6529 156.45 66.6065 158.898C66.5569 161.521 66.0749 162.452 66.0109 164.605C65.9381 167.065 66.3629 167.986 67.3613 169.368C68.3597 170.751 70.9797 172.006 72.0869 169.668C73.2077 167.303 73.0517 165.8 72.6977 163.387C72.3317 160.892 72.2853 159.514 72.0729 157.611C71.8861 155.934 71.6621 154.66 71.6621 154.66L67.0181 154.576Z" fill="#2C1B0D"/>
<path d="M74.4648 137.148L65.8232 136.991C65.9516 142.76 66.8684 149.163 67.018 154.576C67.046 155.594 66.9924 162.493 67.3768 164.589C67.954 167.739 71.6928 167.314 71.8912 165.428C72.0896 163.544 71.6504 155.49 71.6624 154.66C71.6296 151.188 73.2564 145.329 74.1096 139.098C74.1512 138.792 74.4252 137.446 74.4648 137.148Z" fill="#FFA8A7"/>
<path d="M85.5658 150.087C85.5658 150.087 85.2246 149.904 85.1542 150.268C85.0706 150.701 84.9458 151.594 84.7658 152.305C84.5158 153.293 84.3078 154.921 84.4578 155.726C84.6078 156.532 86.4854 157.568 87.7042 157.943C89.5026 158.495 90.7366 159.397 91.7218 160.324C92.929 161.46 95.5342 162.534 97.3082 162.521C99.4074 162.506 100.871 161.822 101.563 160.698C102.285 159.524 100.932 159.437 98.533 157.881C97.9882 157.527 97.3682 157.128 96.6706 156.672C92.8698 154.189 91.4782 152.859 90.403 150.376L85.5658 150.087Z" fill="#2C1B0D"/>
<path d="M90.4328 148.55C90.3688 146.764 91.594 131.612 91.594 131.612L83.3872 135.353C85.1448 145.842 85.5192 148.316 85.5504 150.032C85.5368 150.072 85.502 150.218 85.504 150.472C85.5116 152.51 87.8112 153.608 89.6052 154.967C90.314 155.504 92.3748 157.088 94.4572 158.135C95.7608 158.79 98.4076 158.85 98.7356 158.011C96.5524 156.344 93.3772 153.849 91.6408 151.945C90.8116 151.035 90.4968 150.336 90.4328 148.55Z" fill="#FFA8A7"/>
<path d="M69.3643 80.8628C66.2139 87.782 66.2139 93.1324 66.7347 101.96C67.2123 110.058 67.9739 117.187 67.9739 117.187C67.8519 118.624 65.8547 121.428 65.5963 127.778C65.3547 133.715 66.0051 141.262 66.0051 141.262C66.0051 141.262 70.4883 143.747 73.8035 141.24C73.8035 141.24 77.0023 125.965 77.9399 118.534C78.7579 112.048 80.1795 103.762 80.1795 103.762L83.1907 118.498C83.1907 118.498 82.0451 122.132 81.7771 124.899C81.3535 129.27 83.7983 137.854 83.7983 137.854C83.7983 137.854 88.4307 139.236 91.2599 136.727C91.2599 136.727 92.3179 122.772 92.7127 117.506C93.2415 110.455 92.1295 91.3656 91.2595 81.26L69.3643 80.8628Z" fill="#78695C" fill-opacity="0.5"/>
<path d="M80.1797 103.762L81.4245 92.6691C81.4245 92.6691 87.0009 91.9239 89.5269 89.5491C89.5269 89.5491 87.6289 93.0267 82.9565 93.7015L81.1569 104.023L83.1913 118.498L80.1797 103.762Z" fill="#2C1B0D"/>
<path d="M102.758 78.1374C103.106 74.7374 103.092 72.4722 103.062 72.0366C102.941 70.2762 102.626 69.9898 100.165 66.8706C96.8423 62.6594 94.0067 58.8746 91.0071 55.109C88.8659 52.4206 86.6151 52.007 84.4167 52.1286C82.8795 52.2138 85.8783 59.6014 87.3891 63.973L96.0095 73.245C96.2747 73.611 96.3967 74.0618 96.3523 74.5114L95.8231 82.405L98.4047 85.8582C98.4047 85.8582 102.314 82.4878 102.758 78.1374Z" fill="#FFA8A7"/>
<path d="M76.1122 52.3678C74.445 52.4826 71.413 52.7494 71.413 52.7494C69.6634 53.7258 69.2214 54.5262 68.8958 56.8498C68.7574 57.8382 69.563 60.4758 70.255 64.223L71.5682 71.1726L71.4258 74.619C70.7442 76.7218 69.2022 79.3358 67.8442 83.1886C74.5226 86.9158 80.1238 87.0538 85.2034 86.4018C89.077 85.9046 91.1266 84.967 91.8098 84.0414C91.6674 80.235 91.3982 77.885 91.3322 73.9082C91.3046 72.2378 91.405 70.5526 91.4698 68.6302C94.0686 66.4954 94.0982 62.9454 92.6806 60.6506C89.3874 55.319 86.1854 51.9622 84.0646 52.1342L76.1122 52.3678Z" fill="#8B3E00"/>
<path opacity="0.6" d="M76.1122 52.3678C74.445 52.4826 71.413 52.7494 71.413 52.7494C69.6634 53.7258 69.2214 54.5262 68.8958 56.8498C68.7574 57.8382 69.563 60.4758 70.255 64.223L71.5682 71.1726L71.4258 74.619C70.7442 76.7218 69.2022 79.3358 67.8442 83.1886C74.5226 86.9158 80.1238 87.0538 85.2034 86.4018C89.077 85.9046 91.1266 84.967 91.8098 84.0414C91.6674 80.235 91.3982 77.885 91.3322 73.9082C91.3046 72.2378 91.405 70.5526 91.4698 68.6302C94.0686 66.4954 94.0982 62.9454 92.6806 60.6506C89.3874 55.319 86.1854 51.9622 84.0646 52.1342L76.1122 52.3678Z" fill="white"/>
<path opacity="0.1" d="M86.3004 68.688C86.3004 68.688 83.25 71.0552 79.7688 69.8208C76.288 68.5864 75.7796 65.5432 75.7796 65.5432C75.7796 65.5432 75.41 69.5228 79.8012 70.88C84.0392 72.1892 86.3004 68.688 86.3004 68.688Z" fill="black"/>
<path d="M90.4361 41.4441C90.3049 47.2189 88.4305 48.6465 87.4913 49.0565C86.5521 49.4665 84.7389 49.2165 82.9797 48.9253V52.3909C82.9797 52.3909 85.0101 54.5197 84.8581 56.1069C84.7025 57.6981 81.6673 57.8745 79.3869 56.3201C77.7225 55.1865 76.5337 53.8905 76.0149 53.2757C75.8261 53.0521 75.7241 52.7713 75.7241 52.4785V44.3233C75.7241 44.3233 74.7601 45.3445 73.0541 44.1757C71.3521 43.0109 71.2045 40.8369 72.2461 39.6065C72.9885 38.7329 74.8753 38.6713 75.7817 40.0289C76.2901 41.0257 76.3601 42.0265 76.9301 41.6121C78.4517 40.5169 77.6357 38.0273 79.4729 36.7969C79.4769 36.7969 79.4769 36.7929 79.4809 36.7929C80.0305 36.4977 80.6541 36.2185 81.3513 35.9765C84.6285 34.8445 87.4669 33.8929 88.1517 31.6533C89.4433 32.4205 90.5961 34.6313 90.4361 41.4441Z" fill="#FFA8A7"/>
<path d="M83.9767 46.6036C84.3954 46.6036 84.7347 46.2643 84.7347 45.8456C84.7347 45.427 84.3954 45.0876 83.9767 45.0876C83.5581 45.0876 83.2188 45.427 83.2188 45.8456C83.2188 46.2643 83.5581 46.6036 83.9767 46.6036Z" fill="#B16668"/>
<path d="M83.4697 40.5684C83.4929 41.0264 83.1541 41.414 82.7137 41.4352C82.2729 41.456 81.8973 41.102 81.8741 40.644C81.8513 40.1864 82.1897 39.7984 82.6305 39.7772C83.0709 39.7568 83.4469 40.1108 83.4697 40.5684Z" fill="#2C1B0D"/>
<path d="M89.5319 40.6472C89.5531 41.0632 89.2451 41.416 88.8443 41.4348C88.4039 41.4556 88.1043 41.1736 88.0811 40.716C88.0603 40.3 88.3679 39.9472 88.7687 39.928C89.1695 39.9092 89.5111 40.2312 89.5319 40.6472Z" fill="#2C1B0D"/>
<path d="M82.4424 42.6248C81.008 42.6248 79.8408 41.4576 79.8408 40.0232C79.8408 38.2544 81.6636 38.2544 82.4424 38.2544C83.2212 38.2544 85.044 38.2544 85.044 40.0232C85.044 41.458 83.8768 42.6248 82.4424 42.6248ZM82.4424 38.6648C80.8656 38.6648 80.2512 39.0456 80.2512 40.0236C80.2512 41.232 81.234 42.2148 82.4424 42.2148C83.6508 42.2148 84.6336 41.232 84.6336 40.0236C84.6336 39.0456 84.0192 38.6648 82.4424 38.6648Z" fill="#78695C" fill-opacity="0.5"/>
<path d="M89.0469 42.6248C87.6125 42.6248 86.4453 41.4576 86.4453 40.0232C86.4453 38.2544 88.2681 38.2544 89.0469 38.2544C89.8257 38.2544 91.6485 38.2544 91.6485 40.0232C91.6485 41.458 90.4813 42.6248 89.0469 42.6248ZM89.0469 38.6648C87.4701 38.6648 86.8557 39.0456 86.8557 40.0236C86.8557 41.232 87.8385 42.2148 89.0469 42.2148C90.2553 42.2148 91.2381 41.232 91.2381 40.0236C91.2381 39.0456 90.6237 38.6648 89.0469 38.6648Z" fill="#78695C" fill-opacity="0.5"/>
<path d="M85.4482 39.1848L85.5762 44.0432L88.1334 43.2508L85.4482 39.1848Z" fill="#F28F8F"/>
<path d="M82.9778 48.9241C81.1206 48.6805 77.2998 47.5829 76.7046 46.0725C76.7046 46.0725 76.903 47.0217 78.0442 48.0001C79.1854 48.9781 82.9778 50.0805 82.9778 50.0805V48.9241Z" fill="#F28F8F"/>
<path d="M83.0658 36.8256L81.3714 37.8584C81.0938 37.3708 81.2482 36.7444 81.7162 36.4592C82.1842 36.174 82.7886 36.338 83.0658 36.8256Z" fill="#2C1B0D"/>
<path d="M89.9682 37.9772L88.0806 37.318C88.2446 36.7856 88.7998 36.502 89.321 36.684C89.8422 36.8656 90.1318 37.4448 89.9682 37.9772Z" fill="#2C1B0D"/>
<path d="M84.8386 40.2305C84.7254 40.2305 84.6338 40.1369 84.6338 40.0233C84.6338 39.6905 85.2922 39.4753 85.883 39.4753C86.4738 39.4753 86.8554 39.6905 86.8554 40.0233C86.8554 40.1365 86.7638 40.2285 86.6502 40.2285C86.537 40.2285 86.445 40.1369 86.445 40.0233C86.4266 39.9857 86.2374 39.8857 85.8826 39.8857C85.5278 39.8857 85.0622 39.9857 85.043 40.0269C85.0434 40.1405 84.9518 40.2305 84.8386 40.2305Z" fill="#78695C" fill-opacity="0.5"/>
<path d="M80.0528 40.0573C80.0452 40.0573 80.0376 40.0569 80.0296 40.0561L75.4572 39.6397C75.3752 39.5637 75.1588 39.3401 74.708 39.1533L80.0752 39.6485C80.1876 39.6609 80.2688 39.7625 80.2564 39.8753C80.2444 39.9797 80.1556 40.0573 80.0528 40.0573Z" fill="#78695C" fill-opacity="0.5"/>
<path d="M61.2811 44.8225C62.7763 42.8249 63.7959 41.3153 65.1607 39.6029C65.9355 38.6305 66.4311 37.9365 67.1767 36.9389C67.6899 36.2521 67.9907 35.6729 68.5595 35.4601C69.1995 35.2205 69.8167 34.7469 70.2283 34.3145C70.5223 34.0053 70.7631 33.6505 71.0175 33.3077C71.8719 32.1561 72.8927 31.1281 74.0379 30.2653C75.2415 29.3585 76.5787 28.6669 77.8135 27.8029C78.5503 27.2873 79.3403 26.4309 78.4435 25.6317C78.1759 25.3929 77.8359 25.2505 77.4855 25.1741C75.3091 24.6985 73.4099 25.4489 71.2811 25.9933C70.3559 26.2297 69.4455 26.5261 68.5703 26.9089C68.1455 27.0945 67.7219 27.2965 67.3699 27.5977C66.8211 28.0673 66.4927 28.7357 66.1363 29.3633C65.1791 31.0497 63.1963 32.5377 61.8007 33.8505C60.1635 35.3905 58.7003 36.8025 56.8327 38.5017C55.1519 40.0309 53.5075 41.4409 51.9659 43.1109C50.6907 44.4925 51.1547 45.5733 51.3363 45.9465C52.3755 48.0841 53.5391 48.8505 54.9291 50.1745C57.3367 52.4681 65.6295 59.0657 68.3807 61.2433C68.9695 61.7093 69.4319 62.3137 69.7291 63.0033L70.2543 64.2233C73.3903 64.8005 75.4827 60.0921 72.8855 54.4229C72.4643 53.5033 71.7959 52.7205 70.9787 52.1245C67.7055 49.7365 61.2811 44.8225 61.2811 44.8225Z" fill="#FFA8A7"/>
<path d="M61.281 44.8225C61.281 44.8225 59.863 46.7181 57.4482 47.4605C57.4482 47.4605 59.4486 47.9709 62.1866 45.5137L61.281 44.8225Z" fill="#F28F8F"/>
<path d="M101.944 73.9634L101.955 73.9646L101.442 73.5226L101.441 73.529C101.326 73.4362 101.146 73.407 100.914 73.4702L95.3602 74.981C94.8454 75.121 94.2866 75.643 94.1122 76.147L90.1154 87.6786C90.023 87.9458 90.0598 88.1518 90.189 88.2678L90.1846 88.2694L90.7133 88.725L90.713 88.7182C90.8282 88.8142 91.0098 88.845 91.2454 88.781L96.7993 87.2706C97.3141 87.1306 97.873 86.6082 98.0474 86.1042C98.8326 83.8374 101.26 76.8386 102.045 74.5722C102.143 74.2878 102.094 74.0742 101.944 73.9634Z" fill="#78695C" fill-opacity="0.5"/>
<path d="M90.6295 88.1214L94.6263 76.5898C94.8007 76.0858 95.3595 75.5638 95.8743 75.4238L101.428 73.9134C101.943 73.7734 102.219 74.0686 102.044 74.5726C101.259 76.839 98.8323 83.8378 98.0475 86.1046C97.8731 86.6086 97.3139 87.131 96.7995 87.271L91.2455 88.7814C90.7307 88.9206 90.4551 88.6254 90.6295 88.1214Z" fill="#8B3E00"/>
<path d="M95.2703 75.7437C94.9811 75.9721 94.7323 76.2865 94.6259 76.5909L90.6279 88.1189C90.5415 88.3777 90.5671 88.5805 90.6835 88.6973L90.1863 88.2709L90.1915 88.2657C90.0595 88.1489 90.0239 87.9461 90.1155 87.6773L94.1135 76.1441C94.2099 75.8601 94.4383 75.5709 94.7071 75.3425L95.2703 75.7437Z" fill="#899094"/>
<path d="M100.418 79.2183C100.027 80.3931 98.6311 81.1767 96.3371 81.7203C94.0431 82.2639 92.7723 84.6999 93.1427 85.4411C93.5135 86.1823 97.2203 86.8707 98.7031 86.6591C100.186 86.4471 101.678 84.3039 102.126 83.6407C102.575 82.9775 103.098 78.3451 102.622 77.7099C102.145 77.0743 101.144 77.1719 101.144 77.1719L100.418 79.2183Z" fill="#F28F8F"/>
</svg>
