<svg width="250" height="250" viewBox="0 0 250 250" fill="none" xmlns="http://www.w3.org/2000/svg">
<mask id="mask0_8590_8067" style="mask-type:luminance" maskUnits="userSpaceOnUse" x="14" y="15" width="224" height="223">
<path d="M22.5243 90.3675C23.0973 76.885 26.9323 63.847 35.4573 51.8475C67.5178 6.71947 147.877 7.86246 192.343 33.271C205.695 40.9005 217.181 52.5985 221.781 67.0665C225.497 78.7525 224.538 91.267 224.471 103.491C224.396 117.273 227.345 127.495 233.003 139.863C237.531 149.762 238.482 161.528 236.65 172.109C232.674 195.066 215.569 213.646 195.043 224.182C162.42 240.929 110.658 241.134 70.8598 231.487C50.7458 226.611 31.5363 216.743 21.7688 202.86C13.9968 191.814 12.7933 179.18 15.2748 167.546C17.2698 158.192 21.9883 149.833 25.9323 141.012C29.0943 133.942 27.7563 127.795 25.8643 120.109C23.4033 110.112 22.1093 100.123 22.5243 90.3675Z" fill="white"/>
</mask>
<g mask="url(#mask0_8590_8067)">
<path d="M253.44 -1.89355H-0.263672V251.81H253.44V-1.89355Z" fill="#F2D1C8"/>
<path opacity="0.46" d="M120.714 -1.87905C120.714 -1.87905 160.72 59.1944 90.7408 82.3294C20.7613 105.464 -0.263672 183.879 -0.263672 183.879V-1.89355L120.714 -1.87905Z" fill="#E8BBB1"/>
<path opacity="0.46" d="M177.19 251.81C177.19 251.81 133.094 190.863 196.361 167.787C238.955 151.215 253.44 75.4204 253.44 75.4204V251.81H177.19Z" fill="#E8BBB1"/>
<path opacity="0.46" d="M102.294 251.81C102.294 251.81 96.1733 151.008 36.8488 184.293C18.7498 194.954 20.9428 236.587 -0.263672 222.306C-0.263672 251.81 -0.263672 251.81 -0.263672 251.81H102.294Z" fill="#E8BBB1"/>
<path opacity="0.3" d="M183.499 55.0206C187.587 50.1536 186.956 42.8939 182.089 38.8055C177.222 34.7172 169.962 35.3484 165.874 40.2154C161.785 45.0824 162.417 52.3421 167.284 56.4304C172.151 60.5188 179.41 59.8875 183.499 55.0206Z" fill="white"/>
<path opacity="0.3" d="M208.33 91.8713C210.458 86.8071 208.078 80.9765 203.014 78.8484C197.95 76.7203 192.119 79.1005 189.991 84.1648C187.863 89.2291 190.243 95.0596 195.307 97.1877C200.372 99.3158 206.202 96.9356 208.33 91.8713Z" fill="white"/>
<path opacity="0.3" d="M46.3818 78.3393C48.2469 76.4741 48.2469 73.4502 46.3818 71.585C44.5167 69.7199 41.4927 69.7199 39.6276 71.585C37.7625 73.4502 37.7625 76.4741 39.6276 78.3393C41.4927 80.2044 44.5167 80.2044 46.3818 78.3393Z" fill="white"/>
<path d="M216.34 185.782H34.5559V250H216.34V185.782Z" fill="#EFEEE4"/>
<path d="M216.34 185.782H34.5559V190.942H216.34V185.782Z" fill="#D3D1C5"/>
<path d="M72.1244 185.782H34.5559V249.985H72.1244V185.782Z" fill="#D3D1C5"/>
</g>
<path d="M145.109 137.883C145.109 137.883 138.058 134.812 133.434 126.666C128.81 118.519 129.33 92.6304 129.33 92.6304L141.801 103.439L145.109 137.883Z" fill="#AAA796"/>
<path d="M97.571 81.8867L78.1675 88.0792V178.574H136.296C136.296 178.574 134.479 110.373 131.011 93.5287C117.305 86.0977 109.42 84.4462 109.42 84.4462L97.571 81.8867Z" fill="#723328"/>
<path d="M121.383 45.8115C121.383 45.8115 127.268 50.2935 128.81 59.0855C130.351 67.8775 129.911 70.96 133.213 76.024C136.516 81.088 157.874 112.468 157.874 112.468C157.874 112.468 156.112 124.685 138.718 123.364C126.828 83.9505 124.516 77.3455 122.589 72.9415C120.663 68.538 120.342 50.8285 121.383 45.8115Z" fill="#8C564F"/>
<path d="M78.5691 85.6216C78.5691 85.6216 59.6726 87.1421 50.8831 133.788C79.9291 101.565 78.5691 85.6216 78.5691 85.6216Z" fill="#D8D5C3"/>
<path d="M72.124 88.5641C73.3825 89.4636 75.2655 91.1486 76.957 94.0141C78.805 88.4121 78.5685 85.6216 78.5685 85.6216C78.5685 85.6216 75.9105 85.8356 72.124 88.5641Z" fill="#723328"/>
<path opacity="0.33" d="M124.592 78.0895C125.558 74.5585 124.983 66.1745 125.177 63.438C125.397 60.337 124.847 57.5285 123.257 53.2635C123.76 52.411 123.677 49.437 123.677 49.437L121.091 47.8965C120.433 54.565 120.874 69.0215 122.589 72.9415C123.149 74.2205 123.742 75.688 124.592 78.0895Z" fill="#312A2E"/>
<path d="M119.122 46.6295L116.917 50.923L100.495 68.6485L92.3306 60.522L92.7871 46.6295L102.859 38.813L115.048 41.345L119.122 46.6295Z" fill="#381612"/>
<path d="M115.492 128.868C119.879 109.053 120.47 94.3217 120.501 88.3767C113.36 85.2737 109.421 84.4462 109.421 84.4462L97.5716 81.8867L91.3931 83.8587C93.6481 91.9627 101.588 117.302 115.492 128.868Z" fill="#924D3E"/>
<path d="M91.3926 83.8579C93.6481 91.9619 101.588 117.301 115.492 128.867C119.879 109.052 120.47 94.3209 120.501 88.3759" stroke="#56221C" stroke-width="0.5" stroke-miterlimit="10"/>
<path d="M97.5712 81.8867L95.5957 82.5172C97.4882 88.9297 103.065 105.653 113.424 120.116C117.325 101.913 117.092 91.0967 116.731 86.8247C111.987 84.9857 109.42 84.4467 109.42 84.4467L97.5712 81.8867Z" fill="#EFEEE4"/>
<path d="M97.5712 81.8867L95.5957 82.5172C96.6607 86.1262 98.8927 93.0002 102.487 100.9L110.122 91.7952L102.68 82.9907L97.5712 81.8867Z" fill="#D8D5C3"/>
<path d="M113.424 85.6216L110.122 91.7946L116.791 96.3506C117.024 91.8581 116.891 88.7056 116.732 86.8236C115.471 86.3356 114.37 85.9411 113.424 85.6216Z" fill="#D8D5C3"/>
<path d="M113.424 120.115C114.313 115.969 114.985 112.21 115.492 108.82L112.702 99.6384C112.702 99.6384 113.433 97.8414 113.882 94.3639C110.121 91.7944 110.121 91.7944 110.121 91.7944L106.745 95.8209C106.745 95.8209 108.471 98.6474 109.42 100.134C108.915 105.864 108.577 109.693 108.351 112.261C109.897 114.904 111.584 117.545 113.424 120.115Z" fill="#D66562"/>
<path d="M111.856 79.9877L113.424 85.6212L110.122 91.7947L97.571 81.8867L98.6445 58.3047L107.067 65.9507L111.856 79.9877Z" fill="#8C564F"/>
<path d="M113.424 85.6209L111.855 79.9874L110.81 76.9229L102.442 73.8774C102.442 73.8774 105.166 82.2699 112.61 87.1424L113.424 85.6209Z" fill="#0C0404"/>
<path d="M119.659 53.4555C121.878 53.4555 123.678 51.6563 123.678 49.437C123.678 47.2176 121.878 45.4185 119.659 45.4185C117.44 45.4185 115.641 47.2176 115.641 49.437C115.641 51.6563 117.44 53.4555 119.659 53.4555Z" fill="#381612"/>
<path d="M117.896 47.839C120.115 47.839 121.914 46.0399 121.914 43.8205C121.914 41.6011 120.115 39.802 117.896 39.802C115.677 39.802 113.877 41.6011 113.877 43.8205C113.877 46.0399 115.677 47.839 117.896 47.839Z" fill="#381612"/>
<path d="M112.941 44.2587C115.161 44.2587 116.96 42.4595 116.96 40.2402C116.96 38.0208 115.161 36.2217 112.941 36.2217C110.722 36.2217 108.923 38.0208 108.923 40.2402C108.923 42.4595 110.722 44.2587 112.941 44.2587Z" fill="#381612"/>
<path d="M99.811 44.2587C102.03 44.2587 103.829 42.4595 103.829 40.2402C103.829 38.0208 102.03 36.2217 99.811 36.2217C97.5916 36.2217 95.7925 38.0208 95.7925 40.2402C95.7925 42.4595 97.5916 44.2587 99.811 44.2587Z" fill="#381612"/>
<path d="M94.9286 47.5556C97.148 47.5556 98.9472 45.7564 98.9472 43.5371C98.9472 41.3177 97.148 39.5186 94.9286 39.5186C92.7093 39.5186 90.9102 41.3177 90.9102 43.5371C90.9102 45.7564 92.7093 47.5556 94.9286 47.5556Z" fill="#381612"/>
<path d="M90.9106 52.2955C93.1299 52.2955 94.9291 50.4964 94.9291 48.277C94.9291 46.0577 93.1299 44.2585 90.9106 44.2585C88.6912 44.2585 86.8921 46.0577 86.8921 48.277C86.8921 50.4964 88.6912 52.2955 90.9106 52.2955Z" fill="#381612"/>
<path d="M90.6899 57.2816C92.9092 57.2816 94.7084 55.4825 94.7084 53.2631C94.7084 51.0438 92.9092 49.2446 90.6899 49.2446C88.4705 49.2446 86.6714 51.0438 86.6714 53.2631C86.6714 55.4825 88.4705 57.2816 90.6899 57.2816Z" fill="#381612"/>
<path d="M90.9106 62.7196C93.1299 62.7196 94.9291 60.9205 94.9291 58.7011C94.9291 56.4818 93.1299 54.6826 90.9106 54.6826C88.6912 54.6826 86.8921 56.4818 86.8921 58.7011C86.8921 60.9205 88.6912 62.7196 90.9106 62.7196Z" fill="#381612"/>
<path d="M92.3305 68.559C94.5499 68.559 96.349 66.7598 96.349 64.5405C96.349 62.3211 94.5499 60.522 92.3305 60.522C90.1112 60.522 88.312 62.3211 88.312 64.5405C88.312 66.7598 90.1112 68.559 92.3305 68.559Z" fill="#381612"/>
<path d="M100.771 68.1048C101.128 65.9143 99.6409 63.8496 97.4504 63.4931C95.2599 63.1367 93.1952 64.6235 92.8387 66.814C92.4823 69.0045 93.9691 71.0692 96.1596 71.4256C98.3501 71.7821 100.415 70.2953 100.771 68.1048Z" fill="#381612"/>
<path d="M106.296 43.537C108.763 43.537 110.764 41.5369 110.764 39.0695C110.764 36.6022 108.763 34.6021 106.296 34.6021C103.829 34.6021 101.829 36.6022 101.829 39.0695C101.829 41.5369 103.829 43.537 106.296 43.537Z" fill="#381612"/>
<path opacity="0.31" d="M123.677 49.4372C123.677 47.8362 122.738 46.4577 121.383 45.8117C121.719 45.2242 121.914 44.5457 121.914 43.8207C121.914 41.6017 120.115 39.8022 117.895 39.8022C117.567 39.8022 117.249 39.8462 116.943 39.9202C116.78 37.8512 115.052 36.2222 112.941 36.2222C111.948 36.2222 111.041 36.5842 110.34 37.1812L110.339 37.1802C108.604 40.1707 110.121 42.3362 110.121 42.3362C110.121 42.3362 106.901 41.7857 106.061 44.2587C105.221 46.7317 107.019 49.4217 107.019 49.4217L113.882 54.1982L116.281 51.6092C116.996 52.7192 118.24 53.4557 119.658 53.4557C121.878 53.4552 123.677 51.6562 123.677 49.4372Z" fill="#EFEEE4"/>
<path d="M118.724 48.219C118.724 48.219 123.648 53.8765 123.334 59.848C123.019 65.8195 123.962 72.001 123.962 75.2485C123.962 78.496 125.219 86.3535 119.353 85.4105C113.486 84.4675 102.381 79.02 100.495 68.648C99.0287 60.581 101.857 55.657 102.905 53.457C103.953 51.2575 109.61 45.4955 118.724 48.219Z" fill="#8C564F"/>
<path d="M111.496 63.8296C113.318 63.8296 114.796 62.9244 114.796 61.8076C114.796 60.6909 113.318 59.7856 111.496 59.7856C109.673 59.7856 108.196 60.6909 108.196 61.8076C108.196 62.9244 109.673 63.8296 111.496 63.8296Z" fill="#EFEEE4"/>
<path d="M114.795 61.8076C114.795 61.4386 114.632 61.0941 114.35 60.7966C113.953 60.4826 113.448 60.2861 112.89 60.2861C111.63 60.2861 110.609 61.2476 110.609 62.4331C110.609 62.9646 110.822 63.4441 111.161 63.8191C111.271 63.8256 111.382 63.8296 111.495 63.8296C113.318 63.8296 114.795 62.9241 114.795 61.8076Z" fill="#381612"/>
<path d="M122.919 61.8074C122.919 62.8389 121.804 63.6749 120.429 63.6749C119.053 63.6749 117.938 62.8389 117.938 61.8074C117.938 60.7759 119.053 59.9399 120.429 59.9399C121.804 59.9394 122.919 60.7759 122.919 61.8074Z" fill="#EFEEE4"/>
<path d="M122.92 61.8076C122.92 61.4671 122.796 61.1486 122.584 60.8736C122.285 60.5836 121.903 60.4021 121.481 60.4021C120.531 60.4021 119.76 61.2901 119.76 62.3856C119.76 62.8761 119.921 63.3196 120.177 63.6661C120.26 63.6721 120.344 63.6756 120.429 63.6756C121.805 63.6751 122.92 62.8391 122.92 61.8076Z" fill="#381612"/>
<path d="M123.963 75.2487C123.963 73.5157 123.695 70.9437 123.492 68.0172L123.491 68.0162L122.548 71.5817C122.548 71.5817 121.086 69.7887 117.939 69.7987C113.067 69.8147 111.392 72.1672 111.392 72.1672C111.392 72.1672 101.268 67.3882 100.8 58.7002C100.119 61.2357 99.7461 64.5302 100.495 68.6477C102.381 79.0197 113.486 84.4672 119.353 85.4102C125.22 86.3542 123.963 78.4967 123.963 75.2487Z" fill="#381612"/>
<path d="M112.227 55.9744C111.147 56.8664 109.494 58.0409 107.342 59.0079C106.979 59.1709 106.551 59.0689 106.289 58.7699C105.94 58.3709 105.999 57.7609 106.422 57.4409C107.402 56.6984 109.054 55.3339 109.975 53.9384C110.442 53.2314 111.403 53.0534 112.104 53.5294C112.947 54.1019 113.013 55.3254 112.227 55.9744Z" fill="#381612"/>
<path d="M123.257 57.89C123.056 56.258 122.536 54.6975 121.913 53.324C121.496 53.2105 121.033 53.2675 120.647 53.53C119.803 54.1025 119.738 55.3255 120.524 55.975C121.21 56.541 122.128 57.221 123.257 57.89Z" fill="#381612"/>
<path d="M96.349 69.0154C98.8205 69.0154 100.824 67.0119 100.824 64.5404C100.824 62.069 98.8205 60.0654 96.349 60.0654C93.8775 60.0654 91.874 62.069 91.874 64.5404C91.874 67.0119 93.8775 69.0154 96.349 69.0154Z" fill="#8C564F"/>
<path d="M93.5085 62.021C93.194 62.021 92.887 62.054 92.591 62.116C92.139 62.815 91.874 63.646 91.874 64.5405C91.874 67.012 93.8775 69.0155 96.349 69.0155C96.6635 69.0155 96.9705 68.9825 97.2665 68.9205C97.7185 68.2215 97.9835 67.3905 97.9835 66.496C97.9835 64.0245 95.98 62.021 93.5085 62.021Z" fill="#5B3331"/>
<path d="M108.196 61.8076C108.196 60.6911 109.673 59.7856 111.496 59.7856C113.318 59.7856 114.796 60.6911 114.796 61.8076" stroke="#381612" stroke-width="0.48515" stroke-miterlimit="10" stroke-linecap="round"/>
<path d="M117.938 61.8074C117.938 60.7759 119.053 59.9399 120.429 59.9399C121.804 59.9399 122.919 60.7759 122.919 61.8074" stroke="#381612" stroke-width="0.44815" stroke-miterlimit="10" stroke-linecap="round"/>
<path opacity="0.54" d="M102.905 53.4576C102.306 54.7161 101.126 56.8696 100.499 59.9881L99.1216 58.7381C98.9381 59.0171 98.7601 59.2891 98.5876 59.5541L97.8816 75.0631C98.4056 74.7231 99.0771 74.2626 99.8111 73.6976C101.494 72.4026 103.58 66.9761 103.599 63.8291C103.618 60.6821 104.328 56.5011 105.116 54.0431C105.742 52.0911 105.375 51.0651 105.197 50.7241C104.008 51.7381 103.232 52.7711 102.905 53.4576Z" fill="#312A2E"/>
<path d="M117.939 60.0654C117.939 60.0654 120.296 66.5529 119.772 69.2249C118.829 70.3774 114.796 69.4869 114.796 69.4869C114.796 69.4869 114.534 63.0064 117.939 60.0654Z" fill="#8C564F"/>
<path d="M118.179 60.7605C118.179 60.7605 120.295 66.553 119.771 69.225C118.828 70.3775 114.795 69.487 114.795 69.487" stroke="#381612" stroke-width="0.375" stroke-miterlimit="10" stroke-linecap="round"/>
<path d="M117.32 68.6487C117.32 68.8512 116.942 69.0152 116.477 69.0152C116.011 69.0152 115.634 68.8512 115.634 68.6487C115.634 68.4462 116.011 68.2822 116.477 68.2822C116.942 68.2822 117.32 68.4462 117.32 68.6487Z" fill="#381612"/>
<path d="M97.8741 73.932C97.8741 73.932 102.278 69.8585 102.498 64.134C102.718 58.4095 103.819 54.8865 104.81 52.9045C105.801 50.923 104.7 48.831 103.599 49.0515C104.59 47.18 103.709 46.079 101.838 46.6295C100.847 45.088 98.5351 44.758 97.1036 46.079C95.3421 45.1985 91.8191 47.9505 90.2781 50.3725C88.7366 52.7945 87.7461 59.29 87.0856 63.6935C86.4251 68.097 83.7831 75.4735 79.2691 83.51C74.7556 91.5465 62.4251 114.886 62.4251 114.886C62.4251 114.886 61.3241 131.84 82.4616 126.555C97.8741 73.932 97.8741 73.932 97.8741 73.932Z" fill="#8C564F"/>
<path d="M97.1029 46.0791C97.1029 46.0791 92.5894 49.0516 92.1489 52.9046" stroke="#56221C" stroke-width="0.5" stroke-miterlimit="10"/>
<path opacity="0.33" d="M81.4944 79.302C80.8109 80.6755 80.0709 82.0815 79.2684 83.51C74.7549 91.5465 62.4244 114.886 62.4244 114.886C62.4244 114.886 61.3233 131.84 82.4608 126.555C82.7174 125.68 82.9689 124.821 83.2169 123.975C80.6714 122.486 68.7439 114.805 72.8829 103.767C77.5069 91.4365 80.2209 86.4155 80.2209 86.4155C80.2209 86.4155 82.0433 87.292 84.0553 85.621C87.3758 86.935 91.5863 87.5365 93.8993 87.5005C94.3323 86.0225 94.7178 84.705 95.0618 83.5315L81.4944 79.302Z" fill="#312A2E"/>
<path d="M101.837 46.6294C101.837 46.6294 97.6534 49.1614 96.7729 53.5654" stroke="#56221C" stroke-width="0.5" stroke-miterlimit="10"/>
<path opacity="0.33" d="M136.054 170.576C72.2035 179.832 81.0035 131.29 81.0035 131.29L78.1675 133.596V178.574H136.296C136.296 178.574 136.214 175.528 136.054 170.576Z" fill="#312A2E"/>
<path d="M103.598 49.0515C103.598 49.0515 101.286 52.024 100.296 55.437" stroke="#56221C" stroke-width="0.5" stroke-miterlimit="10"/>
<path d="M85.3234 77.2351C85.3234 77.2351 89.2869 81.6016 97.1034 79.9136C95.6724 84.8311 95.6724 84.8311 95.6724 84.8311C95.6724 84.8311 87.7459 86.2621 83.2319 82.1891C84.5529 79.3266 85.3234 77.2351 85.3234 77.2351Z" fill="#D66562"/>
<path d="M82.7054 73.6975L81.8449 75.636C81.1779 76.257 80.5664 77.1085 80.1149 78.1255C79.6634 79.1425 79.4419 80.1675 79.4289 81.0785L78.5684 83.0175L80.6034 83.9205L80.6109 83.9035C80.6734 83.941 80.7359 83.9795 80.8034 84.0095C82.3259 84.685 84.4859 83.1465 85.6284 80.573C86.7709 77.999 86.4624 75.365 84.9399 74.6895C84.8724 74.6595 84.8024 74.639 84.7324 74.618L84.7399 74.601L82.7054 73.6975Z" fill="#B74949"/>
<path d="M82.7056 73.6976C84.2281 74.3736 84.5361 77.0076 83.3941 79.5811C82.2516 82.1546 80.0916 83.6936 78.5691 83.0176C77.0466 82.3416 76.7386 79.7076 77.8806 77.1336C79.0231 74.5606 81.1831 73.0221 82.7056 73.6976Z" fill="#EFEEE4"/>
<path d="M78.0869 78.6599L80.4219 78.0459L81.0034 81.7809" stroke="#723328" stroke-width="0.32615" stroke-miterlimit="10"/>
<path d="M63.6935 112.488C63.6935 112.488 60.553 111.914 58.351 116.758C56.149 121.602 45.8005 139.877 50.4245 147.363C55.0485 154.85 66.9385 162.116 74.6445 149.125C82.3505 136.134 85.551 129.058 83.4005 123.348C82.461 126.556 82.461 126.556 82.461 126.556C82.461 126.556 63.3105 127.154 63.6935 112.488Z" fill="#EFEEE4"/>
<path d="M73.7641 132.171C62.9751 129.969 58.3511 116.758 58.3511 116.758C57.7501 118.08 56.5406 120.408 55.1951 123.24C66.7041 140.592 84.2361 134.308 73.7641 132.171Z" fill="#D8D5C3"/>
<path d="M117.559 74.4885C118.448 74.4885 119.318 74.576 120.165 74.7435C120.914 74.8915 121.353 73.792 120.754 73.257C119.873 72.4705 118.764 72.0015 117.56 72.0015C116.355 72.0015 115.247 72.4705 114.366 73.257C113.767 73.792 114.205 74.8915 114.954 74.7435C115.8 74.576 116.671 74.4885 117.559 74.4885Z" fill="#EFEEE4"/>
<path d="M121.018 74.0432C118.316 72.7667 115.336 73.5632 114.092 74.0062C114.142 74.4442 114.487 74.8362 114.953 74.7442C115.8 74.5767 116.67 74.4892 117.559 74.4892C118.448 74.4892 119.318 74.5767 120.165 74.7442C120.618 74.8332 120.953 74.4652 121.018 74.0432Z" fill="#D66562"/>
<path d="M114.534 49.2451C114.534 49.2451 112.037 53.7041 114.534 53.7041C117.032 53.7036 114.534 49.2451 114.534 49.2451Z" fill="#EFEEE4"/>
<path d="M114.092 74.0057C114.142 74.4437 114.487 74.8357 114.953 74.7437C115.8 74.5762 116.67 74.4887 117.559 74.4887C118.184 74.4887 118.799 74.5342 119.404 74.6182C119.104 74.0932 118.685 73.6812 118.216 73.3667C116.474 73.2757 114.908 73.7152 114.092 74.0057Z" fill="#B24242"/>
<path d="M114.332 63.8296C114.033 64.2806 113.606 64.6381 113.147 64.9266C112.685 65.2176 112.176 65.4311 111.65 65.5776C111.119 65.7031 110.577 65.7941 110.033 65.7716C109.491 65.7696 108.954 65.6771 108.442 65.5186C108.98 65.4706 109.499 65.4521 110.012 65.3821C110.526 65.3261 111.027 65.2196 111.52 65.0951C112.014 64.9676 112.492 64.7896 112.963 64.5846C113.431 64.3726 113.889 64.1301 114.332 63.8296Z" fill="#56221C"/>
<path d="M119.848 64.5407C120.35 64.5227 120.789 64.5862 121.235 64.6467C121.679 64.7237 122.109 64.7852 122.59 64.9407C122.143 65.1817 121.635 65.2097 121.159 65.1407C120.685 65.0597 120.215 64.8937 119.848 64.5407Z" fill="#56221C"/>
<path d="M59.8926 137.455C52.8466 134.372 59.4521 142.299 67.3786 143.4C71.8051 144.015 75.5356 143.737 77.9676 143.371C78.8031 141.872 79.5531 140.467 80.2211 139.142C80.2066 139.144 66.9346 140.536 59.8926 137.455Z" fill="#D8D5C3"/>
<path opacity="0.31" d="M123.962 75.2162C123.961 75.0157 123.958 74.8042 123.951 74.5822C123.948 74.4867 123.942 74.3822 123.938 74.2832C123.932 74.1412 123.927 74.0012 123.92 73.8517C123.912 73.7102 123.903 73.5592 123.894 73.4112C123.887 73.2982 123.881 73.1877 123.873 73.0712C123.86 72.8647 123.844 72.6497 123.829 72.4327C123.825 72.3782 123.821 72.3252 123.817 72.2697C123.723 70.9972 123.599 69.5612 123.493 68.0227C123.315 65.4642 123.188 62.6357 123.334 59.8487C123.649 53.8772 118.725 48.2197 118.725 48.2197C113.713 46.7222 109.749 47.7912 107.02 49.4222C106.339 55.2457 104.882 75.6412 116.349 84.6607C117.438 85.0162 118.457 85.2672 119.353 85.4112C119.537 85.4407 119.713 85.4617 119.883 85.4742C120.052 85.4867 120.215 85.4912 120.372 85.4882C120.998 85.4752 121.521 85.3377 121.957 85.1017C122.066 85.0427 122.17 84.9777 122.268 84.9067C122.417 84.7997 122.55 84.6757 122.676 84.5442C123.051 84.1527 123.333 83.6622 123.538 83.1017C123.617 82.8852 123.683 82.6572 123.742 82.4227C123.757 82.3637 123.772 82.3042 123.786 82.2442C123.934 81.5907 124.013 80.8842 124.049 80.1672C124.05 80.1527 124.051 80.1377 124.052 80.1232C124.066 79.8297 124.073 79.5347 124.075 79.2412C124.075 79.2387 124.075 79.2362 124.075 79.2342C124.085 77.7282 123.963 76.2632 123.963 75.2482C123.962 75.2387 123.962 75.2267 123.962 75.2162Z" fill="#EFEEE4"/>
<path d="M126.608 75.4736L129.312 82.1891" stroke="#56221C" stroke-width="0.5" stroke-miterlimit="10"/>
<g opacity="0.33">
<path d="M157.874 112.467C157.874 112.467 156.674 110.704 154.8 107.948C141.733 122.346 131.065 96.9821 127.377 86.4521C129.688 93.6636 133.154 104.922 138.717 123.363C156.112 124.685 157.874 112.467 157.874 112.467Z" fill="#312A2E"/>
<path d="M125.991 82.191L125.99 82.189L125.991 82.191Z" fill="#312A2E"/>
</g>
<path d="M156.584 110.572C156.584 110.572 159.636 112.575 161.617 117.639C163.599 122.703 167.782 136.354 157.874 138.776C147.966 141.198 139.599 136.354 138.498 130.85C137.397 125.345 136.317 122.813 137.738 120.116C141.801 122.263 155.735 116.495 156.584 110.572Z" fill="#EFEEE4"/>
<path d="M161.997 118.647C161.865 118.283 161.737 117.944 161.617 117.638C160.967 115.978 160.204 114.654 159.469 113.615C159.448 113.653 154.575 122.305 147.1 124.985C140.063 127.509 154.066 127.829 161.997 118.647Z" fill="#D8D5C3"/>
<path d="M156.634 128.353C150.506 130.629 141.737 129.394 138.044 128.71C138.191 129.373 138.344 130.079 138.498 130.849C138.544 131.08 138.607 131.309 138.678 131.536C157.656 133.096 164.267 125.518 156.634 128.353Z" fill="#D8D5C3"/>
<path d="M88.9565 124.024L106.565 123.463L106.745 128.399L88.9565 129.437V124.024Z" fill="#924D3E"/>
<path d="M88.9565 124.024L106.565 123.463" stroke="#56221C" stroke-width="0.5" stroke-miterlimit="10"/>
<path d="M47.1033 158.266H30.4668V177.41H47.1033V158.266Z" fill="#D66562"/>
<path d="M36.6648 158.266H30.4668V177.41H36.6648V158.266Z" fill="#BC5050"/>
<path d="M33.5659 174.868H31.0169C27.6109 174.868 24.8394 172.097 24.8394 168.691V168.595C24.8394 165.189 27.6109 162.418 31.0169 162.418H33.5659C34.3659 162.418 35.0144 163.066 35.0144 163.866C35.0144 164.667 34.3659 165.315 33.5659 165.315H31.0169C29.2084 165.315 27.7369 166.786 27.7369 168.595V168.691C27.7369 170.499 29.2084 171.971 31.0169 171.971H33.5659C34.3659 171.971 35.0144 172.619 35.0144 173.419C35.0149 174.219 34.3659 174.868 33.5659 174.868Z" fill="#BC5050"/>
<path d="M38.3714 155.458C38.3714 155.458 34.4129 150.53 37.6754 144.317C40.9379 138.105 38.6904 133.827 37.6754 131.017C42.6489 138.349 42.5264 141.16 40.8154 145.315C39.1049 149.47 38.1274 151.574 38.3714 155.458Z" fill="white"/>
<path d="M214.72 143.722H155.548C152.116 143.722 149.333 140.939 149.333 137.507V71.4135C149.333 67.981 152.116 65.1985 155.548 65.1985H214.719C218.152 65.1985 220.934 67.981 220.934 71.4135V137.507C220.935 140.939 218.152 143.722 214.72 143.722Z" fill="#5B5256"/>
<path d="M219.742 143.722H160.571C157.139 143.722 154.356 140.939 154.356 137.507V71.4135C154.356 67.981 157.139 65.1985 160.571 65.1985H219.742C223.175 65.1985 225.957 67.981 225.957 71.4135V137.507C225.957 140.939 223.175 143.722 219.742 143.722Z" fill="#312A2E"/>
<path d="M217.286 176.754H197.237L180.053 113.077H200.101L217.286 176.754Z" fill="#898486"/>
<path d="M170.684 176.754H200.184L199.165 172.979H170.684V176.754Z" fill="#898486"/>
<path d="M170.684 133.785H162.665V137.214H170.684V133.785Z" fill="#2A1214"/>
<path d="M181.567 133.785H173.547V137.214H181.567V133.785Z" fill="#2A1214"/>
<path d="M192.45 98.47C195.874 98.47 198.649 95.6948 198.649 92.2715C198.649 88.8482 195.874 86.073 192.45 86.073C189.027 86.073 186.252 88.8482 186.252 92.2715C186.252 95.6948 189.027 98.47 192.45 98.47Z" fill="#2A1214"/>
<path d="M220.232 176.754H200.184L182.999 113.077H203.048L220.232 176.754Z" fill="#5B5256"/>
<path d="M185.134 143.722L180.053 113.077L188.323 143.722H185.134Z" fill="#242417"/>
<path d="M177.557 117.573H159.115V119.091H177.557V117.573Z" fill="#2A1214"/>
<path d="M177.557 119.897H159.115V121.416H177.557V119.897Z" fill="#2A1214"/>
<path d="M177.557 122.223H159.115V123.741H177.557V122.223Z" fill="#2A1214"/>
<path d="M177.557 124.547H159.115V126.066H177.557V124.547Z" fill="#2A1214"/>
<path d="M177.557 126.873H159.115V128.391H177.557V126.873Z" fill="#2A1214"/>
<path d="M182.999 113.077L200.184 176.754" stroke="#242417" stroke-width="0.5728" stroke-miterlimit="10"/>
<path d="M220.934 115.99H212.794V137.507H220.934V115.99Z" stroke="#D8D5C3" stroke-width="0.5" stroke-miterlimit="10"/>
<path d="M234.953 185.782H26.801C24.2935 185.782 22.261 183.75 22.261 181.242C22.261 178.735 24.2935 176.702 26.801 176.702H234.953C237.46 176.702 239.493 178.735 239.493 181.242C239.493 183.75 237.46 185.782 234.953 185.782Z" fill="#D3D1C5"/>
<path d="M26.801 185.782H77.529C80.026 185.782 82.069 183.739 82.069 181.242C82.069 178.745 80.026 176.702 77.529 176.702H26.801C24.304 176.702 22.261 178.745 22.261 181.242C22.261 183.739 24.304 185.782 26.801 185.782Z" fill="#D3D1C5"/>
<path d="M63.1296 61.8745C63.1296 61.8745 34.8456 59.175 24.6836 39.7935C35.4451 18.6055 35.4451 18.6055 35.4451 18.6055C35.4451 18.6055 54.1821 37.632 73.8121 35.705C64.8071 58.5125 63.1296 61.8745 63.1296 61.8745Z" fill="#F9F3E9"/>
<path d="M142.615 28.9926C142.615 28.9926 152.558 15.3381 165.55 16.0056C173.134 27.9256 173.133 27.9256 173.133 27.9256C173.133 27.9256 157.726 31.7531 152.77 42.3801C143.827 30.8686 142.615 28.9926 142.615 28.9926Z" fill="#F9F3E9"/>
<path d="M47.7815 113.273C47.7815 113.273 43.335 94.8225 29.562 89.926C16.5625 99.0365 16.5625 99.0365 16.5625 99.0365C16.5625 99.0365 30.908 109.637 31.4805 122.8C45.716 114.699 47.7815 113.273 47.7815 113.273Z" fill="#F9F3E9"/>
</svg>
