<svg width="196" height="231" viewBox="0 0 196 231" fill="none" xmlns="http://www.w3.org/2000/svg">
<path d="M31.9008 101.494C34.4948 109.214 45.8933 143.139 77.6543 151.711C108.666 160.082 137.228 138.38 150.748 121.023C164.818 102.96 177.188 70.8725 163.023 44.0235C150.845 20.94 125.603 14.142 112.248 10.5455C98.9198 6.95602 71.6673 -0.38348 50.3138 14.4515C23.5043 33.076 22.9558 74.8715 31.9008 101.494Z" fill="#EDE7DD"/>
<path d="M88.3562 45.042C88.3562 45.042 92.3377 77.4995 88.7957 82.1305C85.2542 86.762 64.6132 84.743 53.9237 110.209C31.8562 162.783 40.3927 174.85 40.3927 174.85C40.3927 174.85 60.0917 161.135 68.1777 151.328C68.1777 151.328 63.4592 179.936 66.7282 192.468H136.472C136.472 192.468 128.844 178.029 131.024 166.859C133.203 155.689 144.918 105.749 144.373 96.9365C144.373 96.9365 125.03 85.0015 121.216 71.5785C121.216 71.5785 116.312 74.4295 114.678 66.1565L88.3562 45.042Z" fill="#7A5432"/>
<path d="M73.8007 114.79C73.8007 114.79 116.151 116.999 143.339 106.921L144.105 104.453C144.105 104.453 145.463 106.101 145.599 106.921C145.735 107.74 138.269 170.492 138.814 172.126C139.359 173.761 138.925 192.468 138.925 192.468H65.2027C65.2027 192.468 64.0037 170.946 66.7282 155.689C69.4527 140.433 69.4527 140.433 69.4527 140.433C69.4527 140.433 57.4432 140.093 73.8007 114.79Z" fill="#EDE7DD"/>
<path d="M39.7412 177.476C39.2662 176.982 38.9707 176.348 38.8937 175.667C38.4477 171.708 37.9312 157.72 50.6542 146.154C65.6382 132.532 74.0837 118.322 74.0837 118.322L83.6192 126.655C83.6192 126.655 78.0787 153.002 69.1802 169.311C62.6347 181.307 52.0662 183.677 48.5682 184.36C47.4092 184.586 46.2182 184.204 45.3992 183.353L39.7412 177.476Z" fill="#7A5432"/>
<path d="M121.216 71.5786C121.216 71.5786 123.123 51.0246 124.757 41.3771C126.392 31.7296 123.94 28.3011 127.209 18.0281C130.478 7.75512 140.286 -1.21738 142.738 0.135621C145.19 1.48862 152.546 6.93662 152.818 8.57162C153.091 10.2066 155.543 24.1561 154.453 36.2521C153.363 48.3481 149.821 56.1506 150.639 66.0921C151.191 72.8126 152.112 79.1296 143.339 106.92C143.339 106.92 113.86 101.348 121.216 71.5786Z" fill="#7A5432"/>
<path d="M46.1458 151C49.0803 146.875 53.1683 143.785 56.5653 140.07C60.0848 136.47 63.4013 132.686 66.6643 128.849C63.7138 132.943 60.4133 136.774 56.9243 140.418C53.4798 144.105 49.3953 147.127 46.1458 151Z" fill="#1A1A1A"/>
<path d="M106.033 92.7701C106.033 92.7701 127.899 79.1616 130.125 50.8021C130.646 44.1686 88.3562 45.0416 88.3562 45.0416C88.3562 45.0416 91.3492 73.9416 93.8267 82.5846C96.4237 91.6451 101.385 96.5136 106.033 92.7701Z" fill="#47290F"/>
<path d="M133.666 26.5825C133.666 26.5825 137.69 39.4965 136.115 44.7675C134.539 50.0385 133.534 50.168 129.258 58.159C124.982 66.15 115.061 70.608 115.061 70.608L133.666 26.5825Z" fill="#1A1A1A"/>
<path d="M63.6342 56.8792C63.6342 56.8792 48.6077 96.7691 75.2642 91.8776C92.8817 88.6451 71.9847 115.713 85.2817 121.816C106.651 131.624 99.3892 153.99 99.3892 153.99C99.3892 153.99 134.425 121.805 119.007 104.453C98.3502 81.2046 90.0892 81.9942 91.1112 58.5816L63.6342 56.8792Z" fill="#1A1A1A"/>
<path d="M85.5207 26.0885C85.5207 26.0885 83.1812 55.058 93.1637 67.787C104.65 82.433 113.322 79.692 116.021 77.1025C120.58 72.7295 128.805 67.477 130.124 50.802C131.42 34.4145 130.25 13.5505 111.368 11.7975C87.1292 9.54752 85.5207 26.0885 85.5207 26.0885Z" fill="#7A5432"/>
<path d="M112.954 78.7905C99.1682 76.0025 91.1112 56.8845 91.1112 56.8845L88.3872 58.0905C89.5307 61.7565 91.0772 65.127 93.1637 67.787C101.798 78.797 108.842 79.981 112.954 78.7905Z" fill="#5C3B16"/>
<path d="M95.4276 39.8402C95.4276 39.8402 101.565 41.9346 104.6 32.8901C104.6 32.8901 107.049 23.0117 122.779 29.8962C122.779 29.8962 130.886 24.4421 130.49 43.2286C130.49 43.2286 138.181 35.1481 132.629 24.1496C129.82 18.5861 124.645 14.6137 118.631 12.9762C108.304 10.1637 88.7756 7.44865 78.0686 22.6732C27.2776 94.8941 91.3826 62.0201 88.5571 62.0727L95.4276 39.8402Z" fill="#1A1A1A"/>
<path d="M97.1547 39.6256L96.3137 49.4261L93.1527 45.1601L94.9492 36.3506L97.1547 39.6256Z" fill="#1A1A1A"/>
<path d="M87.4762 52.6111C88.2847 56.1516 91.0362 58.5426 93.6227 57.9521C96.2087 57.3616 97.6502 54.0131 96.8417 50.4726C96.0332 46.9321 93.2817 44.5411 90.6952 45.1316C88.1092 45.7221 86.6677 49.0706 87.4762 52.6111Z" fill="#7A5432"/>
<path d="M90.5002 49.0505C92.6822 49.7535 93.5062 52.4625 93.1082 54.539C93.0442 54.2725 93.0042 54.0095 92.9607 53.7485C92.6237 51.972 92.0102 50.1985 90.5002 49.0505Z" fill="#1A1A1A"/>
<path d="M90.0566 51.8026C91.1046 51.4851 92.6386 51.8431 92.9981 52.9921C92.0591 52.3271 91.1121 52.2271 90.0566 51.8026Z" fill="#1A1A1A"/>
<path d="M76.3997 89.9155C70.7467 93.62 61.5942 95.9945 59.1367 87.513C57.3037 80.2485 59.7252 71.955 61.9702 65.0425C60.5507 71.9155 58.7202 78.9545 59.7822 85.9835C61.3732 95.102 70.2232 92.964 76.3997 89.9155Z" fill="#1A1A1A"/>
<path d="M119.656 17.56C119.656 17.56 110.725 10.8175 102.072 11.2885C102.072 11.2885 110.191 13.0125 107.043 15.3485C103.895 17.685 100.532 15.8675 99.6438 18.5255C98.7553 21.183 102.977 23.0605 97.6673 23.5875C92.3578 24.1145 89.4158 22.204 89.4158 22.204C89.4158 22.204 95.7893 29.744 99.1633 32.4465C99.1633 32.4465 93.1688 26.995 98.8373 26.314C104.506 25.633 108.007 25.9745 110.32 22.122C112.632 18.2695 109.993 16.3845 113.554 15.7985C114.52 15.6385 117.295 15.6215 119.656 17.56Z" fill="#2B3136"/>
<path d="M78.1832 32.647C78.1832 32.647 76.8787 42.2625 80.3812 49.1395C80.3812 49.1395 77.5667 43.547 75.1817 48.472C72.7967 53.397 71.4487 57.4195 69.9647 56.8265C68.4802 56.234 66.7377 46.159 66.7377 46.159C66.7377 46.159 68.0462 50.469 73.1192 47.676C78.1922 44.8825 75.7482 33.212 78.1832 32.647Z" fill="#2B3136"/>
<path d="M115.789 84.1135C115.789 84.1135 115.736 96.998 117.522 98.9635C119.308 100.929 130.129 87.171 127.898 89.0195C126.103 90.5075 119.683 99.843 118.156 93.3005C116.668 86.928 119.007 78.7905 119.007 78.7905L115.789 84.1135Z" fill="#5C3B16"/>
<path d="M122.193 88.2195C124.881 84.7725 126.78 81.568 127.652 80.0075C127.984 79.3905 128.192 79.01 128.192 79.01C128.192 79.01 128.002 79.3795 127.652 80.0075C126.453 82.233 123.629 87.5475 123.033 89.292C122.272 91.52 120.654 94.601 124.204 90.6785C127.201 87.3665 128.241 86.067 128.493 85.7415C128.537 85.6845 128.563 85.6505 128.563 85.6505C128.563 85.6505 128.54 85.6815 128.493 85.7415C127.914 86.5035 123.843 91.9445 125.928 91.5645C126.966 91.3755 127.031 92.397 126.802 93.549C128.998 92.9455 130.961 91.2885 132.06 88.1755C132.06 88.1755 142.691 73.26 137.278 68.996C130.15 63.3825 122.831 76.548 120.22 80.474C118.707 82.7495 115.417 87.2595 116.555 89.2105C117.697 90.3225 119.749 91.3525 122.193 88.2195Z" fill="#EDE7DD"/>
<path d="M99.3896 113.116L96.2751 110.391L83.6191 126.655C83.6191 126.655 78.0786 153.002 69.1801 169.311C68.4131 170.717 67.5906 171.99 66.7306 173.145L65.0136 175.244C64.8166 179.305 64.7201 182.471 64.9876 186.08C70.7971 178.737 83.8681 159.66 85.7986 127.809L99.3896 113.116Z" fill="#D4CEC5"/>
<path d="M97.9666 114.654L99.3896 113.116L96.2751 110.391L92.7981 114.86C94.4536 114.809 96.1811 114.742 97.9666 114.654Z" fill="#5C3B16"/>
<path d="M113.394 91.0342L116.613 94.6101L119.309 92.1833L116.09 88.6074L113.394 91.0342Z" fill="#BF8321"/>
<path d="M113.397 91.0256L116.616 94.6021L113.54 95.1281L112.343 93.7981L113.397 91.0256Z" fill="#DB9626"/>
<path d="M113.54 95.1281L101.318 109.074C100.702 109.777 99.6301 109.842 98.9331 109.219L97.5896 108.018C96.8126 107.323 96.8486 106.095 97.6651 105.447L112.343 93.7981L113.54 95.1281Z" fill="#DB9626"/>
<path d="M116.003 88.8026L119.092 92.2341L123.382 93.7786C123.567 93.8456 123.774 93.8046 123.921 93.6726L125.804 91.9781C125.934 91.8606 125.945 91.6596 125.827 91.5286L117.948 82.7751C117.83 82.6446 117.629 82.6341 117.499 82.7516L115.592 84.4676C115.459 84.5881 115.394 84.7676 115.421 84.9451L116.003 88.8026Z" fill="#DB9626"/>
<path d="M115.421 84.9455L116.003 88.8025L119.092 92.234L123.382 93.7785C123.567 93.8455 123.775 93.8045 123.921 93.6725L115.592 84.4675C115.458 84.5885 115.394 84.768 115.421 84.9455Z" fill="#BF8321"/>
<path d="M86.7977 103.926C91.7922 108.103 94.4262 107.467 94.4262 107.467C98.6942 115.277 101.419 113.007 101.419 113.007L96.4242 103.108C96.4242 103.108 98.9672 104.924 103.78 106.92C108.593 108.916 109.955 107.195 110.569 106.224C111.183 105.253 104.537 101.746 104.537 101.746C109.925 103.29 110.864 99.5666 110.5 99.3851C110.137 99.2036 102.69 96.0251 100.783 95.3891C98.8762 94.7536 88.5237 93.8451 86.9797 94.2086C85.4357 94.5721 83.9827 95.7526 82.4392 95.8431C80.8952 95.9341 80.7137 97.8411 79.8962 99.2031C79.0787 100.565 75.2647 104.016 74.0842 105.015C72.9037 106.014 74.0842 118.322 74.0842 118.322L83.6197 126.655C83.6197 126.655 90.5212 121.094 92.6102 118.322C94.6987 115.549 98.7852 111.463 98.7852 111.463L92.0842 103.38L86.7977 103.926Z" fill="#7A5432"/>
<path d="M80.8947 105.561C80.8947 105.561 81.6212 113.806 84.7997 114.86C87.9782 115.913 94.5167 111.645 94.5167 111.645L97.0662 113.234L97.9997 112.263C97.9997 112.263 94.9862 109.406 94.4257 107.468C94.4257 107.468 92.3372 107.514 85.3102 103.382L80.8947 105.561Z" fill="#47290F"/>
<path d="M85.7986 96.093C88.0756 96.3125 90.3786 96.5785 92.5091 97.474C94.0131 98.429 94.5681 100.277 95.4671 101.725C95.7386 102.219 96.0086 102.719 96.4231 103.108C95.9316 102.803 95.6006 102.306 95.2591 101.855C94.3036 100.605 93.5936 98.782 92.2831 97.9195C90.5176 97.132 87.6891 96.6065 85.7986 96.093Z" fill="#1A1A1A"/>
<path d="M90.0896 95.344C92.4311 95.379 94.8976 95.621 97.0021 96.7425C98.9156 98.016 100.94 99.353 102.873 100.615C103.425 100.995 103.988 101.358 104.536 101.746C103.93 101.456 103.343 101.134 102.747 100.825C101.034 99.878 99.1811 98.82 97.5706 97.719C95.4431 96.1065 92.6576 95.782 90.0896 95.344Z" fill="#1A1A1A"/>
<path d="M82.3931 98.5451C86.2651 98.2261 89.9411 100.184 92.0841 103.381C90.7271 102.133 89.3136 100.907 87.6846 100.057C86.0366 99.2596 84.2161 98.8066 82.3931 98.5451Z" fill="#1A1A1A"/>
<path d="M80.8947 105.561C82.2262 104.618 83.7147 103.961 85.1622 103.251C85.1697 103.244 85.1137 103.302 85.2127 103.212C85.3407 103.131 85.4582 103.18 85.5492 103.224C86.0792 103.559 86.4192 103.985 86.7977 104.453L86.0917 103.972C85.8512 103.817 85.5797 103.611 85.3592 103.549C85.3592 103.549 85.3907 103.555 85.4332 103.529C84.2432 104.378 82.4522 105.121 80.8947 105.561Z" fill="#1A1A1A"/>
<path d="M134.992 192.468H154.731C154.731 192.468 143.432 173.67 142.887 172.035C142.342 170.401 145.735 107.74 145.599 106.921C145.463 106.101 144.105 104.453 144.105 104.453C144.105 104.453 142.723 150.047 134.642 164.121C129.101 173.772 131.425 187.005 134.992 192.468Z" fill="#D4CEC5"/>
<path d="M93.7641 83.543C93.7641 83.543 88.7161 73.475 80.5771 69.958C80.5771 69.958 87.2101 75.187 83.2456 75.836C79.2811 76.485 77.0451 73.3365 75.0001 75.2995C72.9546 77.2625 75.9481 80.855 70.8436 78.9085C65.7396 76.9625 63.9326 73.9225 63.9326 73.9225C63.9326 73.9225 66.2706 83.5375 68.1056 87.4795C68.1056 87.4795 65.1461 79.897 70.6506 81.869C76.1556 83.841 79.2016 85.738 83.1041 83.359C87.0071 80.98 85.4651 78.1 88.9971 79.198C89.9541 79.496 92.5021 80.743 93.7641 83.543Z" fill="#2B3136"/>
<path d="M108.966 131.261C108.966 131.261 110.238 121.641 106.713 114.776C106.713 114.776 109.546 120.359 111.915 115.426C114.284 110.494 115.619 106.467 117.105 107.055C118.591 107.642 120.367 117.712 120.367 117.712C120.367 117.712 119.045 113.406 113.981 116.216C108.916 119.025 111.399 130.687 108.966 131.261Z" fill="#2B3136"/>
<path d="M129.196 58.1905C127.502 59.6245 124.502 59.8605 122.927 58.1345C125.1 58.5125 126.966 58.258 129.196 58.1905Z" fill="#1A1A1A"/>
<path d="M112.546 50.3381C112.546 50.3381 114.787 54.8311 111.981 57.0346L114.738 56.2536C114.738 56.2536 119.939 48.4116 115.91 45.9951C111.882 43.5786 105.914 42.6391 101.249 45.8561L103.106 51.0646C106.115 49.1971 107.595 48.7621 112.546 50.3381Z" fill="#5C3B16"/>
<path d="M113.588 56.9667C110.037 57.9877 105.579 57.1287 103.232 54.1177C106.43 55.9512 109.97 56.5542 113.588 56.9667Z" fill="#1A1A1A"/>
<path d="M118.263 43.7937C118.263 43.7937 113.385 42.9452 109.506 43.0282C105.864 43.1062 101.249 45.8557 101.249 45.8557C101.249 45.8557 107.957 44.2627 109.387 44.3702C111.479 44.5272 116.552 46.2007 116.552 46.2007L118.263 43.7937Z" fill="#1A1A1A"/>
<path d="M129.079 55.449C129.079 55.449 129.277 51.203 128.503 51.2355C126.88 51.304 124.769 53.3655 123.153 57.069L121.11 60.7115C121.185 60.356 122.392 50.609 125.019 46.644C126.692 44.1185 130.925 48.356 130.489 50.8555L129.079 55.449Z" fill="#5C3B16"/>
<path d="M124.686 44.2212C124.686 44.2212 127.658 44.1357 130.222 46.9397C131.539 48.3792 130.49 50.8552 130.49 50.8552C130.49 50.8552 130.617 49.0027 129.524 48.0742C127.925 46.7157 125.019 46.6437 125.019 46.6437L124.686 44.2212Z" fill="#1A1A1A"/>
<path d="M111.867 63.2395C111.867 63.2395 117.408 70.975 121.33 64.64C121.33 64.64 118.559 66.02 111.867 63.2395Z" fill="#5C3B16"/>
<path d="M105.891 67.7936C105.891 67.7936 110.517 67.7601 111.699 67.5581C112.86 67.3596 115.503 67.5636 116.73 68.7106C117.294 69.2376 117.511 70.1246 117.629 70.4991C117.689 70.6911 117.592 70.8941 117.408 70.9756L114.688 72.1751L105.891 67.7936Z" fill="black"/>
<path d="M106.351 68.0227C106.351 68.0227 108.315 73.7892 113.074 74.8717C115.296 75.3772 117.146 73.2307 117.254 72.4982C117.337 71.9397 116.756 70.7227 116.756 70.7227L114.528 71.5052L106.351 68.0227Z" fill="#451F11"/>
<path d="M88.8147 71.22C87.9367 71.22 87.0552 71.073 86.2007 70.7775C82.0442 69.34 79.8327 64.789 81.2702 60.6325C82.3822 57.417 85.4087 55.2615 88.8077 55.2615C88.8177 55.2615 88.8272 55.2615 88.8372 55.2615L88.8352 55.7615C88.8262 55.7615 88.8167 55.7615 88.8077 55.7615C85.6217 55.7615 82.7857 57.7815 81.7432 60.796C80.3957 64.692 82.4687 68.9575 86.3647 70.305C88.2517 70.958 90.2807 70.8365 92.0762 69.964C93.8722 69.091 95.2212 67.571 95.8737 65.6835C97.0797 62.1975 95.5217 58.2935 92.2507 56.6025L92.4802 56.158C95.9702 57.9625 97.6327 62.1275 96.3462 65.847C95.6497 67.8605 94.2107 69.4825 92.2947 70.4135C91.1917 70.9495 90.0062 71.22 88.8147 71.22Z" fill="#EDE7DD"/>
<path d="M82.4386 95.8435C81.2486 95.968 80.8921 97.2375 80.5211 98.192C80.1731 99.2355 79.4536 100.14 78.7051 100.935C77.4511 102.31 75.9666 103.66 74.5831 104.908C74.5261 104.959 74.2176 105.219 74.1911 105.273C73.9561 105.77 73.9166 106.359 73.8586 106.947C73.6431 110.649 73.9526 114.606 74.0836 118.323C73.7821 116.167 73.5771 114 73.4391 111.826C73.3651 109.626 73.1126 107.403 73.6586 105.235C73.7146 105.097 73.8456 104.882 73.9546 104.802C74.5146 104.334 75.5331 103.419 76.0841 102.92C77.2596 101.81 78.4796 100.721 79.5121 99.4805C80.5236 98.356 80.5921 95.968 82.4386 95.8435Z" fill="#1A1A1A"/>
<path d="M129.087 19.0171C135.899 26.3106 143.012 38.8116 137.382 48.5771C136.543 49.9031 135.512 51.0811 134.35 52.0931C135.353 50.9206 136.282 49.7031 136.953 48.3396C141.659 38.6026 134.732 26.9371 129.087 19.0171Z" fill="#1A1A1A"/>
<path d="M3.5 227.468V218.564H0.056V217.668H7.98V218.564H4.536V227.468H3.5ZM13.1771 220.048C13.7744 220.048 14.2971 220.165 14.7451 220.398C15.2024 220.622 15.5571 220.967 15.8091 221.434C16.0704 221.901 16.2011 222.489 16.2011 223.198V227.468H15.2071V223.296C15.2071 222.521 15.0111 221.938 14.6191 221.546C14.2364 221.145 13.6951 220.944 12.9951 220.944C12.4724 220.944 12.0151 221.051 11.6231 221.266C11.2404 221.471 10.9417 221.775 10.7271 222.176C10.5217 222.568 10.4191 223.044 10.4191 223.604V227.468H9.42506V217.08H10.4191V222.134L10.2231 221.756C10.4564 221.224 10.8297 220.809 11.3431 220.51C11.8564 220.202 12.4677 220.048 13.1771 220.048ZM18.886 227.468V220.118H19.88V227.468H18.886ZM19.39 218.494C19.1847 218.494 19.012 218.424 18.872 218.284C18.732 218.144 18.662 217.976 18.662 217.78C18.662 217.584 18.732 217.421 18.872 217.29C19.012 217.15 19.1847 217.08 19.39 217.08C19.5953 217.08 19.768 217.145 19.908 217.276C20.048 217.407 20.118 217.57 20.118 217.766C20.118 217.971 20.048 218.144 19.908 218.284C19.7773 218.424 19.6047 218.494 19.39 218.494ZM24.6198 227.538C24.0131 227.538 23.4391 227.454 22.8978 227.286C22.3564 227.109 21.9318 226.889 21.6238 226.628L22.0718 225.844C22.3704 226.068 22.7531 226.264 23.2198 226.432C23.6864 226.591 24.1764 226.67 24.6898 226.67C25.3898 226.67 25.8938 226.563 26.2018 226.348C26.5098 226.124 26.6638 225.83 26.6638 225.466C26.6638 225.195 26.5751 224.985 26.3978 224.836C26.2298 224.677 26.0058 224.561 25.7258 224.486C25.4458 224.402 25.1331 224.332 24.7878 224.276C24.4424 224.22 24.0971 224.155 23.7518 224.08C23.4158 224.005 23.1078 223.898 22.8278 223.758C22.5478 223.609 22.3191 223.408 22.1418 223.156C21.9738 222.904 21.8898 222.568 21.8898 222.148C21.8898 221.747 22.0018 221.387 22.2258 221.07C22.4498 220.753 22.7764 220.505 23.2058 220.328C23.6444 220.141 24.1764 220.048 24.8018 220.048C25.2778 220.048 25.7538 220.113 26.2298 220.244C26.7058 220.365 27.0978 220.529 27.4058 220.734L26.9718 221.532C26.6451 221.308 26.2951 221.149 25.9218 221.056C25.5484 220.953 25.1751 220.902 24.8018 220.902C24.1391 220.902 23.6491 221.019 23.3318 221.252C23.0238 221.476 22.8698 221.765 22.8698 222.12C22.8698 222.4 22.9538 222.619 23.1218 222.778C23.2991 222.937 23.5278 223.063 23.8078 223.156C24.0971 223.24 24.4098 223.31 24.7458 223.366C25.0911 223.422 25.4318 223.492 25.7678 223.576C26.1131 223.651 26.4258 223.758 26.7058 223.898C26.9951 224.029 27.2238 224.22 27.3918 224.472C27.5691 224.715 27.6578 225.037 27.6578 225.438C27.6578 225.867 27.5364 226.241 27.2938 226.558C27.0604 226.866 26.7151 227.109 26.2578 227.286C25.8098 227.454 25.2638 227.538 24.6198 227.538ZM33.3138 227.468V219.194C33.3138 218.541 33.5051 218.013 33.8878 217.612C34.2704 217.211 34.8211 217.01 35.5398 217.01C35.8198 217.01 36.0904 217.047 36.3518 217.122C36.6131 217.197 36.8324 217.313 37.0098 217.472L36.6738 218.214C36.5338 218.093 36.3704 218.004 36.1838 217.948C35.9971 217.883 35.7964 217.85 35.5818 217.85C35.1618 217.85 34.8398 217.967 34.6158 218.2C34.3918 218.433 34.2798 218.779 34.2798 219.236V220.356L34.3078 220.818V227.468H33.3138ZM31.9978 220.944V220.118H36.5478V220.944H31.9978ZM40.8889 227.538C40.1235 227.538 39.4515 227.379 38.8729 227.062C38.2942 226.735 37.8415 226.292 37.5149 225.732C37.1882 225.163 37.0249 224.514 37.0249 223.786C37.0249 223.058 37.1789 222.414 37.4869 221.854C37.8042 221.294 38.2335 220.855 38.7749 220.538C39.3255 220.211 39.9415 220.048 40.6229 220.048C41.3135 220.048 41.9249 220.207 42.4569 220.524C42.9982 220.832 43.4229 221.271 43.7309 221.84C44.0389 222.4 44.1929 223.049 44.1929 223.786C44.1929 223.833 44.1882 223.884 44.1789 223.94C44.1789 223.987 44.1789 224.038 44.1789 224.094H37.7809V223.352H43.6469L43.2549 223.646C43.2549 223.114 43.1382 222.643 42.9049 222.232C42.6809 221.812 42.3729 221.485 41.9809 221.252C41.5889 221.019 41.1362 220.902 40.6229 220.902C40.1189 220.902 39.6662 221.019 39.2649 221.252C38.8635 221.485 38.5509 221.812 38.3269 222.232C38.1029 222.652 37.9909 223.133 37.9909 223.674V223.828C37.9909 224.388 38.1122 224.883 38.3549 225.312C38.6069 225.732 38.9522 226.063 39.3909 226.306C39.8389 226.539 40.3475 226.656 40.9169 226.656C41.3649 226.656 41.7802 226.577 42.1629 226.418C42.5549 226.259 42.8909 226.017 43.1709 225.69L43.7309 226.334C43.4042 226.726 42.9935 227.025 42.4989 227.23C42.0135 227.435 41.4769 227.538 40.8889 227.538ZM50.617 227.468V225.844L50.575 225.578V222.862C50.575 222.237 50.3977 221.756 50.043 221.42C49.6977 221.084 49.1797 220.916 48.489 220.916C48.013 220.916 47.5603 220.995 47.131 221.154C46.7017 221.313 46.3377 221.523 46.039 221.784L45.591 221.042C45.9643 220.725 46.4123 220.482 46.935 220.314C47.4577 220.137 48.0083 220.048 48.587 220.048C49.539 220.048 50.2717 220.286 50.785 220.762C51.3077 221.229 51.569 221.943 51.569 222.904V227.468H50.617ZM48.083 227.538C47.5323 227.538 47.0517 227.449 46.641 227.272C46.2397 227.085 45.9317 226.833 45.717 226.516C45.5023 226.189 45.395 225.816 45.395 225.396C45.395 225.013 45.4837 224.668 45.661 224.36C45.8477 224.043 46.1463 223.791 46.557 223.604C46.977 223.408 47.537 223.31 48.237 223.31H50.771V224.052H48.265C47.5557 224.052 47.061 224.178 46.781 224.43C46.5103 224.682 46.375 224.995 46.375 225.368C46.375 225.788 46.5383 226.124 46.865 226.376C47.1917 226.628 47.649 226.754 48.237 226.754C48.797 226.754 49.2777 226.628 49.679 226.376C50.0897 226.115 50.3883 225.741 50.575 225.256L50.799 225.942C50.6123 226.427 50.2857 226.815 49.819 227.104C49.3617 227.393 48.783 227.538 48.083 227.538ZM56.5928 227.538C55.9021 227.538 55.3701 227.351 54.9968 226.978C54.6235 226.605 54.4368 226.077 54.4368 225.396V218.494H55.4308V225.34C55.4308 225.769 55.5381 226.101 55.7528 226.334C55.9768 226.567 56.2941 226.684 56.7048 226.684C57.1435 226.684 57.5075 226.558 57.7968 226.306L58.1468 227.02C57.9508 227.197 57.7128 227.328 57.4328 227.412C57.1621 227.496 56.8821 227.538 56.5928 227.538ZM53.1208 220.944V220.118H57.6708V220.944H53.1208ZM62.9943 227.538C62.369 227.538 61.823 227.421 61.3563 227.188C60.8896 226.955 60.5256 226.605 60.2643 226.138C60.0123 225.671 59.8863 225.088 59.8863 224.388V220.118H60.8803V224.276C60.8803 225.06 61.0716 225.653 61.4543 226.054C61.8463 226.446 62.3923 226.642 63.0923 226.642C63.6056 226.642 64.049 226.539 64.4223 226.334C64.805 226.119 65.0943 225.811 65.2903 225.41C65.4956 225.009 65.5983 224.528 65.5983 223.968V220.118H66.5923V227.468H65.6403V225.452L65.7943 225.816C65.561 226.357 65.197 226.782 64.7023 227.09C64.217 227.389 63.6476 227.538 62.9943 227.538ZM69.3626 227.468V220.118H70.3146V222.12L70.2166 221.77C70.4219 221.21 70.7672 220.785 71.2526 220.496C71.7379 220.197 72.3399 220.048 73.0586 220.048V221.014C73.0212 221.014 72.9839 221.014 72.9466 221.014C72.9092 221.005 72.8719 221 72.8346 221C72.0599 221 71.4532 221.238 71.0146 221.714C70.5759 222.181 70.3566 222.848 70.3566 223.716V227.468H69.3626ZM77.926 227.538C77.1606 227.538 76.4886 227.379 75.91 227.062C75.3313 226.735 74.8786 226.292 74.552 225.732C74.2253 225.163 74.062 224.514 74.062 223.786C74.062 223.058 74.216 222.414 74.524 221.854C74.8413 221.294 75.2706 220.855 75.812 220.538C76.3626 220.211 76.9786 220.048 77.66 220.048C78.3506 220.048 78.962 220.207 79.494 220.524C80.0353 220.832 80.46 221.271 80.768 221.84C81.076 222.4 81.23 223.049 81.23 223.786C81.23 223.833 81.2253 223.884 81.216 223.94C81.216 223.987 81.216 224.038 81.216 224.094H74.818V223.352H80.684L80.292 223.646C80.292 223.114 80.1753 222.643 79.942 222.232C79.718 221.812 79.41 221.485 79.018 221.252C78.626 221.019 78.1733 220.902 77.66 220.902C77.156 220.902 76.7033 221.019 76.302 221.252C75.9006 221.485 75.588 221.812 75.364 222.232C75.14 222.652 75.028 223.133 75.028 223.674V223.828C75.028 224.388 75.1493 224.883 75.392 225.312C75.644 225.732 75.9893 226.063 76.428 226.306C76.876 226.539 77.3846 226.656 77.954 226.656C78.402 226.656 78.8173 226.577 79.2 226.418C79.592 226.259 79.928 226.017 80.208 225.69L80.768 226.334C80.4413 226.726 80.0306 227.025 79.536 227.23C79.0506 227.435 78.514 227.538 77.926 227.538ZM86.9173 227.468V220.118H87.9113V227.468H86.9173ZM87.4213 218.494C87.2159 218.494 87.0433 218.424 86.9033 218.284C86.7633 218.144 86.6933 217.976 86.6933 217.78C86.6933 217.584 86.7633 217.421 86.9033 217.29C87.0433 217.15 87.2159 217.08 87.4213 217.08C87.6266 217.08 87.7993 217.145 87.9393 217.276C88.0793 217.407 88.1493 217.57 88.1493 217.766C88.1493 217.971 88.0793 218.144 87.9393 218.284C87.8086 218.424 87.6359 218.494 87.4213 218.494ZM92.651 227.538C92.0443 227.538 91.4703 227.454 90.929 227.286C90.3877 227.109 89.963 226.889 89.655 226.628L90.103 225.844C90.4017 226.068 90.7843 226.264 91.251 226.432C91.7177 226.591 92.2077 226.67 92.721 226.67C93.421 226.67 93.925 226.563 94.233 226.348C94.541 226.124 94.695 225.83 94.695 225.466C94.695 225.195 94.6063 224.985 94.429 224.836C94.261 224.677 94.037 224.561 93.757 224.486C93.477 224.402 93.1643 224.332 92.819 224.276C92.4737 224.22 92.1283 224.155 91.783 224.08C91.447 224.005 91.139 223.898 90.859 223.758C90.579 223.609 90.3503 223.408 90.173 223.156C90.005 222.904 89.921 222.568 89.921 222.148C89.921 221.747 90.033 221.387 90.257 221.07C90.481 220.753 90.8077 220.505 91.237 220.328C91.6757 220.141 92.2077 220.048 92.833 220.048C93.309 220.048 93.785 220.113 94.261 220.244C94.737 220.365 95.129 220.529 95.437 220.734L95.003 221.532C94.6763 221.308 94.3263 221.149 93.953 221.056C93.5797 220.953 93.2063 220.902 92.833 220.902C92.1703 220.902 91.6803 221.019 91.363 221.252C91.055 221.476 90.901 221.765 90.901 222.12C90.901 222.4 90.985 222.619 91.153 222.778C91.3303 222.937 91.559 223.063 91.839 223.156C92.1283 223.24 92.441 223.31 92.777 223.366C93.1223 223.422 93.463 223.492 93.799 223.576C94.1443 223.651 94.457 223.758 94.737 223.898C95.0263 224.029 95.255 224.22 95.423 224.472C95.6003 224.715 95.689 225.037 95.689 225.438C95.689 225.867 95.5677 226.241 95.325 226.558C95.0917 226.866 94.7463 227.109 94.289 227.286C93.841 227.454 93.295 227.538 92.651 227.538ZM104.229 227.538C103.501 227.538 102.848 227.379 102.269 227.062C101.7 226.735 101.252 226.292 100.925 225.732C100.598 225.163 100.435 224.514 100.435 223.786C100.435 223.049 100.598 222.4 100.925 221.84C101.252 221.28 101.7 220.841 102.269 220.524C102.848 220.207 103.501 220.048 104.229 220.048C104.854 220.048 105.419 220.169 105.923 220.412C106.427 220.655 106.824 221.019 107.113 221.504L106.371 222.008C106.119 221.635 105.806 221.359 105.433 221.182C105.06 221.005 104.654 220.916 104.215 220.916C103.692 220.916 103.221 221.037 102.801 221.28C102.381 221.513 102.05 221.845 101.807 222.274C101.564 222.703 101.443 223.207 101.443 223.786C101.443 224.365 101.564 224.869 101.807 225.298C102.05 225.727 102.381 226.063 102.801 226.306C103.221 226.539 103.692 226.656 104.215 226.656C104.654 226.656 105.06 226.567 105.433 226.39C105.806 226.213 106.119 225.942 106.371 225.578L107.113 226.082C106.824 226.558 106.427 226.922 105.923 227.174C105.419 227.417 104.854 227.538 104.229 227.538ZM111.939 227.538C111.229 227.538 110.59 227.379 110.021 227.062C109.461 226.735 109.017 226.292 108.691 225.732C108.364 225.163 108.201 224.514 108.201 223.786C108.201 223.049 108.364 222.4 108.691 221.84C109.017 221.28 109.461 220.841 110.021 220.524C110.581 220.207 111.22 220.048 111.939 220.048C112.667 220.048 113.311 220.207 113.871 220.524C114.44 220.841 114.883 221.28 115.201 221.84C115.527 222.4 115.691 223.049 115.691 223.786C115.691 224.514 115.527 225.163 115.201 225.732C114.883 226.292 114.44 226.735 113.871 227.062C113.301 227.379 112.657 227.538 111.939 227.538ZM111.939 226.656C112.471 226.656 112.942 226.539 113.353 226.306C113.763 226.063 114.085 225.727 114.319 225.298C114.561 224.859 114.683 224.355 114.683 223.786C114.683 223.207 114.561 222.703 114.319 222.274C114.085 221.845 113.763 221.513 113.353 221.28C112.942 221.037 112.475 220.916 111.953 220.916C111.43 220.916 110.963 221.037 110.553 221.28C110.142 221.513 109.815 221.845 109.573 222.274C109.33 222.703 109.209 223.207 109.209 223.786C109.209 224.355 109.33 224.859 109.573 225.298C109.815 225.727 110.142 226.063 110.553 226.306C110.963 226.539 111.425 226.656 111.939 226.656ZM126.904 220.048C127.501 220.048 128.019 220.165 128.458 220.398C128.906 220.622 129.251 220.967 129.494 221.434C129.746 221.901 129.872 222.489 129.872 223.198V227.468H128.878V223.296C128.878 222.521 128.691 221.938 128.318 221.546C127.954 221.145 127.436 220.944 126.764 220.944C126.26 220.944 125.821 221.051 125.448 221.266C125.084 221.471 124.799 221.775 124.594 222.176C124.398 222.568 124.3 223.044 124.3 223.604V227.468H123.306V223.296C123.306 222.521 123.119 221.938 122.746 221.546C122.373 221.145 121.85 220.944 121.178 220.944C120.683 220.944 120.249 221.051 119.876 221.266C119.503 221.471 119.213 221.775 119.008 222.176C118.812 222.568 118.714 223.044 118.714 223.604V227.468H117.72V220.118H118.672V222.106L118.518 221.756C118.742 221.224 119.101 220.809 119.596 220.51C120.1 220.202 120.693 220.048 121.374 220.048C122.093 220.048 122.704 220.23 123.208 220.594C123.712 220.949 124.039 221.485 124.188 222.204L123.796 222.05C124.011 221.453 124.389 220.972 124.93 220.608C125.481 220.235 126.139 220.048 126.904 220.048ZM132.568 227.468V220.118H133.562V227.468H132.568ZM133.072 218.494C132.866 218.494 132.694 218.424 132.554 218.284C132.414 218.144 132.344 217.976 132.344 217.78C132.344 217.584 132.414 217.421 132.554 217.29C132.694 217.15 132.866 217.08 133.072 217.08C133.277 217.08 133.45 217.145 133.59 217.276C133.73 217.407 133.8 217.57 133.8 217.766C133.8 217.971 133.73 218.144 133.59 218.284C133.459 218.424 133.286 218.494 133.072 218.494ZM140.079 220.048C140.677 220.048 141.199 220.165 141.647 220.398C142.105 220.622 142.459 220.967 142.711 221.434C142.973 221.901 143.103 222.489 143.103 223.198V227.468H142.109V223.296C142.109 222.521 141.913 221.938 141.521 221.546C141.139 221.145 140.597 220.944 139.897 220.944C139.375 220.944 138.917 221.051 138.525 221.266C138.143 221.471 137.844 221.775 137.629 222.176C137.424 222.568 137.321 223.044 137.321 223.604V227.468H136.327V220.118H137.279V222.134L137.125 221.756C137.359 221.224 137.732 220.809 138.245 220.51C138.759 220.202 139.37 220.048 140.079 220.048ZM148.924 230.254C148.252 230.254 147.608 230.156 146.992 229.96C146.376 229.764 145.877 229.484 145.494 229.12L145.998 228.364C146.344 228.672 146.768 228.915 147.272 229.092C147.786 229.279 148.327 229.372 148.896 229.372C149.83 229.372 150.516 229.153 150.954 228.714C151.393 228.285 151.612 227.613 151.612 226.698V224.864L151.752 223.604L151.654 222.344V220.118H152.606V226.572C152.606 227.841 152.294 228.77 151.668 229.358C151.052 229.955 150.138 230.254 148.924 230.254ZM148.742 227.188C148.042 227.188 147.412 227.039 146.852 226.74C146.292 226.432 145.849 226.007 145.522 225.466C145.205 224.925 145.046 224.304 145.046 223.604C145.046 222.904 145.205 222.288 145.522 221.756C145.849 221.215 146.292 220.795 146.852 220.496C147.412 220.197 148.042 220.048 148.742 220.048C149.396 220.048 149.984 220.183 150.506 220.454C151.029 220.725 151.444 221.126 151.752 221.658C152.06 222.19 152.214 222.839 152.214 223.604C152.214 224.369 152.06 225.018 151.752 225.55C151.444 226.082 151.029 226.488 150.506 226.768C149.984 227.048 149.396 227.188 148.742 227.188ZM148.84 226.306C149.382 226.306 149.862 226.194 150.282 225.97C150.702 225.737 151.034 225.419 151.276 225.018C151.519 224.607 151.64 224.136 151.64 223.604C151.64 223.072 151.519 222.605 151.276 222.204C151.034 221.803 150.702 221.49 150.282 221.266C149.862 221.033 149.382 220.916 148.84 220.916C148.308 220.916 147.828 221.033 147.398 221.266C146.978 221.49 146.647 221.803 146.404 222.204C146.171 222.605 146.054 223.072 146.054 223.604C146.054 224.136 146.171 224.607 146.404 225.018C146.647 225.419 146.978 225.737 147.398 225.97C147.828 226.194 148.308 226.306 148.84 226.306ZM161.01 227.538C160.404 227.538 159.83 227.454 159.288 227.286C158.747 227.109 158.322 226.889 158.014 226.628L158.462 225.844C158.761 226.068 159.144 226.264 159.61 226.432C160.077 226.591 160.567 226.67 161.08 226.67C161.78 226.67 162.284 226.563 162.592 226.348C162.9 226.124 163.054 225.83 163.054 225.466C163.054 225.195 162.966 224.985 162.788 224.836C162.62 224.677 162.396 224.561 162.116 224.486C161.836 224.402 161.524 224.332 161.178 224.276C160.833 224.22 160.488 224.155 160.142 224.08C159.806 224.005 159.498 223.898 159.218 223.758C158.938 223.609 158.71 223.408 158.532 223.156C158.364 222.904 158.28 222.568 158.28 222.148C158.28 221.747 158.392 221.387 158.616 221.07C158.84 220.753 159.167 220.505 159.596 220.328C160.035 220.141 160.567 220.048 161.192 220.048C161.668 220.048 162.144 220.113 162.62 220.244C163.096 220.365 163.488 220.529 163.796 220.734L163.362 221.532C163.036 221.308 162.686 221.149 162.312 221.056C161.939 220.953 161.566 220.902 161.192 220.902C160.53 220.902 160.04 221.019 159.722 221.252C159.414 221.476 159.26 221.765 159.26 222.12C159.26 222.4 159.344 222.619 159.512 222.778C159.69 222.937 159.918 223.063 160.198 223.156C160.488 223.24 160.8 223.31 161.136 223.366C161.482 223.422 161.822 223.492 162.158 223.576C162.504 223.651 162.816 223.758 163.096 223.898C163.386 224.029 163.614 224.22 163.782 224.472C163.96 224.715 164.048 225.037 164.048 225.438C164.048 225.867 163.927 226.241 163.684 226.558C163.451 226.866 163.106 227.109 162.648 227.286C162.2 227.454 161.654 227.538 161.01 227.538ZM168.868 227.538C168.159 227.538 167.52 227.379 166.95 227.062C166.39 226.735 165.947 226.292 165.62 225.732C165.294 225.163 165.13 224.514 165.13 223.786C165.13 223.049 165.294 222.4 165.62 221.84C165.947 221.28 166.39 220.841 166.95 220.524C167.51 220.207 168.15 220.048 168.868 220.048C169.596 220.048 170.24 220.207 170.8 220.524C171.37 220.841 171.813 221.28 172.13 221.84C172.457 222.4 172.62 223.049 172.62 223.786C172.62 224.514 172.457 225.163 172.13 225.732C171.813 226.292 171.37 226.735 170.8 227.062C170.231 227.379 169.587 227.538 168.868 227.538ZM168.868 226.656C169.4 226.656 169.872 226.539 170.282 226.306C170.693 226.063 171.015 225.727 171.248 225.298C171.491 224.859 171.612 224.355 171.612 223.786C171.612 223.207 171.491 222.703 171.248 222.274C171.015 221.845 170.693 221.513 170.282 221.28C169.872 221.037 169.405 220.916 168.882 220.916C168.36 220.916 167.893 221.037 167.482 221.28C167.072 221.513 166.745 221.845 166.502 222.274C166.26 222.703 166.138 223.207 166.138 223.786C166.138 224.355 166.26 224.859 166.502 225.298C166.745 225.727 167.072 226.063 167.482 226.306C167.893 226.539 168.355 226.656 168.868 226.656ZM177.646 227.538C176.936 227.538 176.297 227.379 175.728 227.062C175.168 226.735 174.724 226.292 174.398 225.732C174.071 225.163 173.908 224.514 173.908 223.786C173.908 223.049 174.071 222.4 174.398 221.84C174.724 221.28 175.168 220.841 175.728 220.524C176.288 220.207 176.927 220.048 177.646 220.048C178.374 220.048 179.018 220.207 179.578 220.524C180.147 220.841 180.59 221.28 180.908 221.84C181.234 222.4 181.398 223.049 181.398 223.786C181.398 224.514 181.234 225.163 180.908 225.732C180.59 226.292 180.147 226.735 179.578 227.062C179.008 227.379 178.364 227.538 177.646 227.538ZM177.646 226.656C178.178 226.656 178.649 226.539 179.06 226.306C179.47 226.063 179.792 225.727 180.026 225.298C180.268 224.859 180.39 224.355 180.39 223.786C180.39 223.207 180.268 222.703 180.026 222.274C179.792 221.845 179.47 221.513 179.06 221.28C178.649 221.037 178.182 220.916 177.66 220.916C177.137 220.916 176.67 221.037 176.26 221.28C175.849 221.513 175.522 221.845 175.28 222.274C175.037 222.703 174.916 223.207 174.916 223.786C174.916 224.355 175.037 224.859 175.28 225.298C175.522 225.727 175.849 226.063 176.26 226.306C176.67 226.539 177.132 226.656 177.646 226.656ZM187.179 220.048C187.776 220.048 188.299 220.165 188.747 220.398C189.204 220.622 189.559 220.967 189.811 221.434C190.072 221.901 190.203 222.489 190.203 223.198V227.468H189.209V223.296C189.209 222.521 189.013 221.938 188.621 221.546C188.238 221.145 187.697 220.944 186.997 220.944C186.474 220.944 186.017 221.051 185.625 221.266C185.242 221.471 184.944 221.775 184.729 222.176C184.524 222.568 184.421 223.044 184.421 223.604V227.468H183.427V220.118H184.379V222.134L184.225 221.756C184.458 221.224 184.832 220.809 185.345 220.51C185.858 220.202 186.47 220.048 187.179 220.048ZM192.93 224.528L192.734 217.668H193.91L193.7 224.528H192.93ZM193.322 227.538C193.117 227.538 192.939 227.468 192.79 227.328C192.65 227.179 192.58 227.006 192.58 226.81C192.58 226.605 192.65 226.437 192.79 226.306C192.939 226.166 193.117 226.096 193.322 226.096C193.537 226.096 193.709 226.166 193.84 226.306C193.98 226.437 194.05 226.605 194.05 226.81C194.05 227.006 193.98 227.179 193.84 227.328C193.709 227.468 193.537 227.538 193.322 227.538Z" fill="black"/>
</svg>
