<svg width="165" height="115" viewBox="0 0 165 115" fill="none" xmlns="http://www.w3.org/2000/svg">
<circle cx="71" cy="50" r="50" fill="#8B3E00"/>
<g clip-path="url(#clip0_2003_953)">
<path d="M76.1562 25.2051C75.4824 25.5566 75.3945 25.8887 75.3945 27.9785C75.3945 29.5996 75.4141 29.834 75.5898 30.1758C75.8145 30.6152 76.3711 30.957 76.8594 30.957C77.3477 30.957 77.9043 30.6152 78.1289 30.1758C78.3047 29.834 78.3242 29.5996 78.3242 27.9785C78.3242 26.3574 78.3047 26.1231 78.1289 25.7813C77.7676 25.0684 76.8887 24.8145 76.1562 25.2051Z" fill="white"/>
<path d="M66.7617 29.1894C66.3223 29.4824 66.1172 29.873 66.1172 30.4297C66.1172 31.0644 66.3125 31.3379 67.748 32.7343C68.5195 33.4765 68.9297 33.8086 69.2031 33.8867C70.3457 34.2285 71.4102 33.0664 70.9512 31.9824C70.7949 31.5918 69.0762 29.7656 68.4219 29.2871C67.9531 28.9355 67.2109 28.8965 66.7617 29.1894Z" fill="white"/>
<path d="M85.2969 29.287C85.0918 29.4335 84.4473 30.0487 83.8711 30.6346C83.1289 31.4061 82.7969 31.8163 82.7188 32.0897C82.377 33.2323 83.5391 34.2967 84.6231 33.8377C85.0137 33.6815 86.8399 31.9627 87.3184 31.3085C87.8262 30.6151 87.6602 29.6581 86.9571 29.1893C86.5078 28.8963 85.7657 28.9354 85.2969 29.287Z" fill="white"/>
<path d="M73.3926 34.0233C72.9922 34.1991 72.5918 34.6874 72.4746 35.1366C72.4258 35.3319 72.1523 36.3768 71.8887 37.4413C70.9707 41.0448 69.4766 43.828 67.2988 46.0057C66.0391 47.2655 64.584 48.203 63.627 48.3885C63.3535 48.4471 63.3145 48.4178 63.0508 47.9003C62.7285 47.285 61.957 46.5331 61.2734 46.201C60.3164 45.7225 60.1309 45.703 55.0039 45.703C50.375 45.703 50.1797 45.7128 49.8086 45.8983C49.5547 46.0253 49.3496 46.2303 49.2227 46.4842C49.0273 46.8651 49.0273 47.0311 49.0273 60.3514C49.0273 73.6717 49.0273 73.8377 49.2227 74.2186C49.3496 74.4725 49.5547 74.6776 49.8086 74.8045C50.1797 74.9901 50.375 74.9998 55.0039 74.9998C58.7148 74.9998 59.9258 74.9705 60.3066 74.8631C61.3809 74.5799 62.3477 73.8963 62.9043 73.0467C63.0801 72.7733 63.2656 72.5584 63.3145 72.5584C63.373 72.5584 64.6816 72.9783 66.2246 73.4862C70.9512 75.0487 70.5117 74.9998 79.1641 74.9998C83.3535 74.9998 86.1172 74.9608 86.4395 74.9022C88.2559 74.5604 89.6621 73.1053 89.9648 71.2498C90.0625 70.6444 90.0039 69.8827 89.7988 69.1893C89.75 69.0233 89.8379 68.9549 90.3652 68.7205C92.8359 67.6463 93.7051 64.5702 92.1816 62.2655L91.8789 61.8163L92.1816 61.367C92.7285 60.5467 92.9043 59.9217 92.9043 58.8866C92.9043 57.8514 92.7285 57.2264 92.1816 56.4061L91.8789 55.9569L92.1816 55.5077C93.9297 52.8514 92.4648 49.3163 89.3691 48.7303C89.0566 48.6717 87.0352 48.6327 84.4668 48.6327C82.0547 48.6327 80.082 48.6131 80.082 48.5936C80.082 48.5643 80.1895 48.1346 80.3262 47.6366C81.1074 44.7167 81.4883 40.3221 81.1074 38.5253C80.6484 36.328 78.8125 34.4921 76.6152 34.0331C75.7461 33.8475 73.793 33.8475 73.3926 34.0233ZM76.5957 37.0897C77.1523 37.3436 77.7969 37.9784 78.0703 38.5643C78.2559 38.9745 78.2754 39.16 78.2656 40.9178C78.2559 42.9296 78.1094 44.1991 77.6797 46.0936C77.416 47.2753 77.3184 47.6171 77.0938 48.203L76.9277 48.6327H75.2773C73.8223 48.6327 73.5879 48.6522 73.2461 48.828C72.8066 49.0526 72.4648 49.6092 72.4648 50.0975C72.4648 50.5858 72.8066 51.1424 73.2461 51.3671C73.6172 51.5624 73.8027 51.5624 81.2539 51.5624C88.7051 51.5624 88.8906 51.5624 89.2617 51.7577C89.7012 51.9823 90.043 52.5389 90.043 53.0272C90.043 53.5155 89.7012 54.0721 89.2617 54.2967C88.9199 54.4725 88.6855 54.492 87.1133 54.492C85.0625 54.492 84.7305 54.5897 84.3789 55.2733C84.1348 55.7616 84.1348 56.1522 84.3789 56.6405C84.7305 57.3241 85.0625 57.4217 87.1133 57.4217C89.1641 57.4217 89.4961 57.5194 89.8477 58.203C90.0918 58.6913 90.0918 59.0819 89.8477 59.5702C89.4961 60.2538 89.1641 60.3514 87.1133 60.3514C85.541 60.3514 85.3066 60.3709 84.9648 60.5467C84.5254 60.7713 84.1836 61.328 84.1836 61.8163C84.1836 62.3045 84.5254 62.8612 84.9648 63.0858C85.3066 63.2616 85.541 63.2811 87.1133 63.2811C89.1641 63.2811 89.4961 63.3788 89.8477 64.0623C90.0918 64.5506 90.0918 64.9413 89.8477 65.4295C89.4961 66.1131 89.1641 66.2108 87.1133 66.2108C85.541 66.2108 85.3066 66.2303 84.9648 66.4061C84.5254 66.6307 84.1836 67.1873 84.1836 67.6756C84.1836 68.4178 84.9062 69.1405 85.6484 69.1405C86.3906 69.1405 87.1133 69.8631 87.1133 70.6053C87.1133 71.0936 86.7715 71.6502 86.3223 71.8748C85.9414 72.0799 85.834 72.0799 78.832 72.0506C72.4648 72.0213 71.6445 71.992 70.8926 71.8358C70.4336 71.7479 68.6367 71.1912 66.8887 70.6151L63.7246 69.5702L63.6953 60.4881L63.6758 51.4061L64.3496 51.2401C65.8633 50.8495 67.4941 49.8534 68.9785 48.4374C70.707 46.787 71.9375 45.0878 73.0508 42.8221C73.8223 41.2499 74.1934 40.2343 74.6719 38.3788C74.8574 37.6561 75.0332 37.0018 75.0625 36.9237C75.1211 36.7382 76.0195 36.8358 76.5957 37.0897ZM59.9648 48.828C60.2188 48.9549 60.4238 49.16 60.5508 49.4139C60.7461 49.7948 60.7461 49.9706 60.7461 60.3514C60.7461 70.7323 60.7461 70.908 60.5508 71.2889C60.4238 71.5428 60.2188 71.7479 59.9648 71.8748C59.6035 72.0604 59.3984 72.0701 55.7656 72.0701H51.957V60.3514V48.6327H55.7656C59.3984 48.6327 59.6035 48.6424 59.9648 48.828Z" fill="white"/>
<path d="M55.6484 66.4158C55.2285 66.6306 54.8867 67.2068 54.8867 67.6755C54.8867 68.4177 55.6094 69.1404 56.3516 69.1404C57.0938 69.1404 57.8164 68.4177 57.8164 67.6755C57.8164 67.1873 57.4746 66.6306 57.0352 66.406C56.5566 66.1619 56.1172 66.1619 55.6484 66.4158Z" fill="white"/>
</g>
<circle cx="159" cy="19" r="6" fill="#FF7701" fill-opacity="0.5"/>
<circle cx="7.5" cy="20.5" r="7.5" fill="#8B3E00"/>
<circle cx="132" cy="73" r="4" fill="#8B3E00" fill-opacity="0.8"/>
<circle cx="62.5" cy="112.5" r="2.5" fill="#8B3E00"/>
<circle cx="13.5" cy="79.5" r="4.5" fill="#8B3E00"/>
<defs>
<clipPath id="clip0_2003_953">
<rect width="50" height="49.9999" fill="white" transform="translate(46 25)"/>
</clipPath>
</defs>
</svg>
