<svg width="123" height="132" viewBox="0 0 123 132" fill="none" xmlns="http://www.w3.org/2000/svg">
<path d="M110.529 0.296489L46.1867 0.160889C27.8591 1.98489 19.6091 18.4501 22.1687 45.8833C36.6623 2.43729 104.485 53.9065 110.529 0.296489Z" fill="white"/>
<path d="M50.9301 78.204C51.3093 94.9812 26.6121 98.106 22.7037 81.564C20.7105 58.7004 21.4089 32.1204 50.9133 30.4332C50.9145 46.3332 50.9325 62.3112 50.9301 78.204Z" fill="white"/>
<path d="M81.5532 59.6233C81.5532 65.9077 81.5448 72.2005 81.528 78.4933C81.6228 96.2425 55.3212 97.3033 53.7876 80.0497C53.7876 80.0509 53.7876 30.4345 53.7876 30.4345H81.4212C81.7296 40.1701 81.462 49.8757 81.5532 59.6233Z" fill="white"/>
<path d="M7.17366 121.803H2.55794V100.122H17.9004V104.186H7.17366V108.769H17.6728V112.832H7.17366V121.803ZM34.9099 121.803H21.1278V100.122H25.7435V117.74H34.9099V121.803ZM58.3603 121.803H53.0945L51.7618 118.13H42.4653L41.1001 121.803H35.8343L44.2206 100.122H50.0065L58.3603 121.803ZM50.4941 114.067L47.1136 104.738L43.733 114.067H50.4941ZM69.0672 122.193C62.4687 122.193 59.2832 118.488 59.2832 113.157V100.122H63.9639V112.994C63.9639 116.017 65.7192 118.098 69.0672 118.098C72.4152 118.098 74.138 116.017 74.138 112.994V100.122H78.8513V113.124C78.8513 118.52 75.6658 122.193 69.0672 122.193ZM100.675 121.803H95.3768L91.1186 114.1H87.7381V121.803H83.1224V100.122H93.264C97.7822 100.122 100.545 103.08 100.545 107.111C100.545 110.947 98.1397 112.994 95.7994 113.547L100.675 121.803ZM92.5814 110.036C94.4342 110.036 95.8319 108.931 95.8319 107.111C95.8319 105.291 94.4342 104.186 92.5814 104.186H87.7381V110.036H92.5814ZM114.1 121.803H109.484V112.929L101.13 100.122H106.396L111.792 108.834L117.123 100.122H122.389L114.1 112.929V121.803Z" fill="white"/>
</svg>
