<svg width="375" height="400" viewBox="0 0 375 400" fill="none" xmlns="http://www.w3.org/2000/svg">
<g clip-path="url(#clip0_6364_6768)">
<path d="M213.134 304.793H105.579C76.588 304.793 50.56 285.848 41.2832 257.398C41.0736 256.756 40.8672 256.105 40.6632 255.445C32.6352 229.462 28.276 199.187 54.9568 158.721C81.6376 118.255 63.3352 80.299 97.6392 66.4814C131.943 52.6638 159.774 69.8934 198.842 53.115C237.91 36.3366 316.046 37.3238 320.81 105.425C325.575 173.526 306.517 170.565 314.14 193.265C321.763 215.966 347.491 310.716 213.134 304.793Z" fill="#B9B9B9" fill-opacity="0.2"/>
<path d="M112.583 362.177C152.577 362.177 184.998 353.515 184.998 342.83C184.998 332.146 152.577 323.484 112.583 323.484C72.5894 323.484 40.168 332.146 40.168 342.83C40.168 353.515 72.5894 362.177 112.583 362.177Z" fill="#FFBCBC" fill-opacity="0.25"/>
<path d="M39.288 304.747H334.15" stroke="#FFBCBC" stroke-width="0.4" stroke-miterlimit="10" stroke-linecap="round"/>
<path d="M78.8736 350.16L139.151 350.225C141.09 350.227 142.665 348.656 142.666 346.717L142.731 287.121L78.9416 287.053L78.8736 350.16Z" fill="#FFBCBC" fill-opacity="0.25"/>
<path d="M78.9424 287.05L142.702 287.118L122.626 271.121C121.235 270.012 119.502 269.406 117.715 269.404L64.3352 269.347C63.0072 269.346 62.3472 270.941 63.2952 271.861L78.9424 287.05Z" fill="#FFBCBC" fill-opacity="0.25"/>
<path d="M61.0128 329.31L60.8136 274.474C60.8184 270.297 63.5304 269.613 63.5304 269.613L63.0384 270.643C62.7976 271.174 63.3008 271.793 63.7192 272.201L78.9496 287.053L78.8808 350.156L62.9728 334.046C61.7224 332.779 61.0192 331.081 61.0128 329.31Z" fill="#FFBCBC" fill-opacity="0.25"/>
<path d="M96.6848 287.071L81.6032 287.055C80.1336 287.054 78.9408 288.244 78.9392 289.714L78.9216 305.639" stroke="white" stroke-width="0.4" stroke-miterlimit="10"/>
<path d="M78.9112 315.712L78.8768 347.498" stroke="white" stroke-width="0.4" stroke-miterlimit="10"/>
<path d="M69.5248 277.949L78.8608 287.052" stroke="white" stroke-width="0.4" stroke-miterlimit="10"/>
<path d="M63.4416 269.613L62.9496 270.643C62.7088 271.174 63.212 271.793 63.6304 272.201L67.888 276.353" stroke="white" stroke-width="0.4" stroke-miterlimit="10"/>
<path d="M227.989 305.062H144.328C136.841 305.062 130.771 298.992 130.771 291.505V107.948C130.771 100.461 136.841 94.3916 144.328 94.3916H227.989C235.476 94.3916 241.546 100.461 241.546 107.948V291.505C241.546 298.992 235.476 305.062 227.989 305.062Z" fill="#6F3A3A"/>
<path d="M228.789 299.84H143.527C139.134 299.84 135.573 296.279 135.573 291.886V107.568C135.573 103.175 139.134 99.6133 143.527 99.6133H228.789C233.182 99.6133 236.743 103.175 236.743 107.568V291.885C236.743 296.279 233.182 299.84 228.789 299.84Z" fill="white"/>
<path d="M202.979 111.664H169.338C165.182 111.664 161.813 108.295 161.813 104.139V97.4046C161.813 97.1838 161.991 97.0054 162.212 97.0054H210.505V104.139C210.504 108.295 207.135 111.664 202.979 111.664Z" fill="#6F3A3A"/>
<path d="M160.73 87.5652C160.806 100.869 150.084 111.716 136.78 111.793C123.476 111.87 112.629 101.147 112.553 87.8436C112.476 74.5388 123.198 63.6924 136.502 63.6156C149.806 63.5388 160.653 74.2612 160.73 87.5652Z" fill="#FFBCBC" fill-opacity="0.25"/>
<path d="M154.57 87.2197C154.628 97.3341 146.477 105.58 136.363 105.637C126.249 105.696 118.003 97.5445 117.945 87.4309C117.886 77.3165 126.038 69.0709 136.151 69.0125C146.266 68.9549 154.511 77.1053 154.57 87.2197Z" fill="#8B3E00"/>
<path d="M155.091 87.9796C155.149 97.9572 147.107 106.093 137.129 106.15C127.15 106.208 119.016 98.166 118.958 88.1876C118.901 78.2092 126.942 70.074 136.921 70.0164C146.898 69.9596 155.034 78.002 155.091 87.9796Z" fill="#FF725E"/>
<path d="M155.133 87.962C155.19 97.9396 147.149 106.076 137.17 106.132C127.192 106.19 119.058 98.1484 119 88.17C118.942 78.1916 126.984 70.0564 136.962 69.9988C146.94 69.942 155.075 77.9844 155.133 87.962Z" fill="#FFBCBC"/>
<path d="M137.735 86.5138L137.709 81.8914C137.716 81.8914 137.724 81.8914 137.731 81.8914C138.534 81.9794 139.367 82.189 140.192 82.5178C140.881 82.8698 141.347 83.237 141.347 83.237L141.407 83.0938L142.11 81.4258L142.272 81.0426L141.443 80.1818L141.048 80.3626C140.035 79.8626 138.882 79.473 137.694 79.4154L137.68 76.873L136.885 76.2402L136.889 76.8778L135.802 76.8842L135.818 79.4722C132.247 79.8362 130.564 81.8842 130.578 84.2202C130.596 87.4034 133.326 88.2122 135.871 88.8154L135.898 93.3954C134.156 93.245 132.434 92.5906 131.307 91.681L130.29 94.0002C131.487 95.0242 133.667 95.7442 135.912 95.869L135.923 97.7882L135.03 97.809L135.927 98.4106L137.805 98.3994L137.79 95.8346C141.382 95.4474 143.089 93.4226 143.075 91.0866C143.056 87.9026 140.281 87.117 137.735 86.5138ZM135.854 86.0434C134.524 85.6618 133.536 85.1634 133.53 84.0642C133.524 83.057 134.206 82.2282 135.83 81.9674L135.854 86.0434ZM137.774 93.3378L137.751 89.2842C139.127 89.6658 140.138 90.1866 140.145 91.3082C140.15 92.2938 139.445 93.0762 137.774 93.3378Z" fill="#71B7E2"/>
<path d="M137.009 95.2109L137.024 97.7765L135.146 97.7869L135.131 95.2445C132.886 95.1197 130.706 94.3997 129.509 93.3757L130.526 91.0573C131.654 91.9669 133.375 92.6205 135.118 92.7709L135.091 88.1901C132.546 87.5869 129.815 86.7773 129.797 83.5941C129.783 81.2573 131.466 79.2093 135.038 78.8453L135.022 76.2573L136.901 76.2461L136.915 78.7885C138.611 78.8701 140.331 79.3645 141.574 80.1589L140.647 82.4773C139.43 81.7741 138.144 81.3925 136.93 81.2621L136.956 85.8885C139.502 86.4925 142.278 87.2781 142.297 90.4613C142.309 92.7981 140.602 94.8237 137.009 95.2109ZM135.074 85.4189L135.05 81.3421C133.426 81.6037 132.743 82.4317 132.75 83.4397C132.755 84.5389 133.743 85.0373 135.074 85.4189ZM139.365 90.6853C139.358 89.5629 138.347 89.0421 136.971 88.6605L136.994 92.7149C138.665 92.4533 139.37 91.6701 139.365 90.6853Z" fill="white"/>
<path d="M201.923 65.2237C201.972 73.6525 195.178 80.5245 186.75 80.5733C178.322 80.6221 171.45 73.8285 171.401 65.3997C171.352 56.9709 178.145 50.0989 186.574 50.0501C195.002 50.0021 201.874 56.7949 201.923 65.2237Z" fill="#FFBCBC" fill-opacity="0.25"/>
<path d="M198.021 65.0051C198.058 71.4131 192.894 76.6371 186.486 76.6739C180.078 76.7107 174.854 71.5467 174.818 65.1387C174.781 58.7307 179.945 53.5067 186.353 53.4699C192.759 53.4331 197.983 58.5971 198.021 65.0051Z" fill="#8B3E00"/>
<path d="M198.35 65.4861C198.387 71.8077 193.292 76.9621 186.97 76.9981C180.649 77.0349 175.495 71.9397 175.458 65.6181C175.422 59.2965 180.517 54.1429 186.838 54.1061C193.161 54.0701 198.314 59.1645 198.35 65.4861Z" fill="#FF725E"/>
<path d="M198.35 65.4861C198.387 71.8077 193.292 76.9621 186.97 76.9981C180.649 77.0349 175.495 71.9397 175.458 65.6181C175.422 59.2965 180.517 54.1429 186.838 54.1061C193.161 54.0701 198.314 59.1645 198.35 65.4861Z" fill="#FFBCBC"/>
<path d="M187.355 64.5573L187.338 61.6293C187.343 61.6293 187.348 61.6293 187.353 61.6293C187.861 61.6853 188.389 61.8181 188.912 62.0261C189.349 62.2493 189.644 62.4821 189.644 62.4821L189.682 62.3917L190.128 61.3349L190.23 61.0917L189.705 60.5461L189.455 60.6605C188.813 60.3437 188.082 60.0965 187.33 60.0605L187.321 58.4501L186.817 58.0493L186.82 58.4533L186.132 58.4573L186.141 60.0965C183.879 60.3269 182.813 61.6245 182.821 63.1045C182.833 65.1213 184.562 65.6333 186.175 66.0165L186.192 68.9181C185.089 68.8229 183.998 68.4085 183.284 67.8325L182.64 69.3013C183.398 69.9501 184.779 70.4061 186.201 70.4853L186.209 71.7013L185.642 71.7141L186.211 72.0957L187.401 72.0893L187.391 70.4645C189.668 70.2197 190.749 68.9365 190.74 67.4565C190.726 65.4373 188.968 64.9397 187.355 64.5573ZM186.164 64.2597C185.321 64.0181 184.695 63.7021 184.691 63.0061C184.687 62.3677 185.12 61.8429 186.149 61.6773L186.164 64.2597ZM187.38 68.8813L187.365 66.3133C188.237 66.5549 188.877 66.8853 188.881 67.5957C188.885 68.2197 188.438 68.7157 187.38 68.8813Z" fill="#8B3E00"/>
<path d="M186.894 70.0678L186.904 71.6934L185.714 71.6998L185.705 70.0894C184.282 70.0102 182.901 69.5542 182.142 68.9054L182.787 67.4366C183.501 68.0126 184.592 68.427 185.696 68.5222L185.679 65.6198C184.066 65.2374 182.337 64.7246 182.325 62.7078C182.316 61.2278 183.382 59.9294 185.645 59.699L185.635 58.059L186.825 58.0518L186.833 59.6622C187.908 59.7142 188.997 60.027 189.785 60.5302L189.198 61.999C188.427 61.5534 187.613 61.3118 186.843 61.2286L186.86 64.1598C188.473 64.5422 190.232 65.0398 190.243 67.0574C190.253 68.539 189.172 69.8222 186.894 70.0678ZM185.669 63.8638L185.653 61.2806C184.625 61.4462 184.192 61.971 184.196 62.6094C184.2 63.3062 184.826 63.6222 185.669 63.8638ZM188.387 67.2006C188.383 66.4894 187.742 66.1598 186.87 65.9182L186.885 68.487C187.944 68.3206 188.391 67.8246 188.387 67.2006Z" fill="white"/>
<path d="M299.502 213.798H336.238C338.03 213.798 339.485 212.344 339.485 210.551V172.604C339.485 170.811 338.031 169.356 336.238 169.356H299.502C297.709 169.356 296.255 170.81 296.255 172.604V210.551C296.255 212.344 297.709 213.798 299.502 213.798Z" fill="#FFBCBC" fill-opacity="0.5"/>
<path d="M336.237 169.357H299.502C297.708 169.357 296.254 170.811 296.254 172.605V182.154H339.483V172.605C339.484 170.811 338.03 169.357 336.237 169.357Z" fill="#FFBCBC"/>
<path d="M327.582 193.245H333.358C333.706 193.245 333.988 192.964 333.988 192.616V186.84C333.988 186.492 333.706 186.21 333.358 186.21H327.582C327.234 186.21 326.953 186.492 326.953 186.84V192.616C326.952 192.964 327.234 193.245 327.582 193.245Z" fill="#E4F1FF"/>
<path d="M319.331 193.245H325.107C325.455 193.245 325.737 192.964 325.737 192.616V186.84C325.737 186.492 325.454 186.21 325.107 186.21H319.331C318.983 186.21 318.702 186.492 318.702 186.84V192.616C318.702 192.964 318.983 193.245 319.331 193.245Z" fill="#FFBCBC" fill-opacity="0.25"/>
<path d="M307.586 172.683C306.79 172.683 306.145 172.038 306.145 171.242V166.141C306.145 165.345 306.79 164.7 307.586 164.7C308.381 164.7 309.026 165.345 309.026 166.141V171.242C309.026 172.038 308.382 172.683 307.586 172.683Z" fill="#FFBCBC"/>
<path d="M314.879 172.691C314.084 172.691 313.438 172.046 313.438 171.25V166.148C313.438 165.352 314.084 164.708 314.879 164.708C315.674 164.708 316.32 165.352 316.32 166.148V171.25C316.32 172.046 315.674 172.691 314.879 172.691Z" fill="#FFBCBC"/>
<path d="M321.834 172.685C321.038 172.685 320.393 172.041 320.393 171.245V166.143C320.393 165.347 321.038 164.702 321.834 164.702C322.629 164.702 323.274 165.347 323.274 166.143V171.245C323.274 172.041 322.63 172.685 321.834 172.685Z" fill="#FFBCBC"/>
<path d="M311.022 193.245H316.798C317.146 193.245 317.428 192.964 317.428 192.616V186.84C317.428 186.492 317.146 186.21 316.798 186.21H311.022C310.674 186.21 310.393 186.492 310.393 186.84V192.616C310.393 192.964 310.674 193.245 311.022 193.245Z" fill="#E4F1FF"/>
<path d="M302.771 193.245H308.547C308.895 193.245 309.177 192.964 309.177 192.616V186.84C309.177 186.492 308.894 186.21 308.547 186.21H302.771C302.423 186.21 302.142 186.492 302.142 186.84V192.616C302.142 192.964 302.424 193.245 302.771 193.245Z" fill="#E4F1FF"/>
<path d="M327.522 201.078H333.298C333.646 201.078 333.928 200.796 333.928 200.449V194.673C333.928 194.325 333.646 194.043 333.298 194.043H327.522C327.174 194.043 326.893 194.325 326.893 194.673V200.449C326.893 200.796 327.174 201.078 327.522 201.078Z" fill="#E4F1FF"/>
<path d="M319.271 201.078H325.047C325.395 201.078 325.677 200.796 325.677 200.449V194.673C325.677 194.325 325.394 194.043 325.047 194.043H319.271C318.923 194.043 318.642 194.325 318.642 194.673V200.449C318.642 200.796 318.924 201.078 319.271 201.078Z" fill="#FFBCBC" fill-opacity="0.25"/>
<path d="M310.963 201.078H316.739C317.087 201.078 317.369 200.796 317.369 200.449V194.673C317.369 194.325 317.086 194.043 316.739 194.043H310.963C310.615 194.043 310.334 194.325 310.334 194.673V200.449C310.333 200.796 310.615 201.078 310.963 201.078Z" fill="#E4F1FF"/>
<path d="M302.712 201.078H308.488C308.836 201.078 309.118 200.796 309.118 200.449V194.673C309.118 194.325 308.835 194.043 308.488 194.043H302.712C302.364 194.043 302.082 194.325 302.082 194.673V200.449C302.082 200.796 302.364 201.078 302.712 201.078Z" fill="#E4F1FF"/>
<path d="M327.464 208.977H333.24C333.588 208.977 333.87 208.694 333.87 208.347V202.571C333.87 202.223 333.587 201.941 333.24 201.941H327.464C327.116 201.941 326.834 202.224 326.834 202.571V208.347C326.834 208.694 327.116 208.977 327.464 208.977Z" fill="#E4F1FF"/>
<path d="M319.213 208.977H324.989C325.337 208.977 325.618 208.694 325.618 208.347V202.571C325.618 202.223 325.336 201.941 324.989 201.941H319.213C318.865 201.941 318.583 202.224 318.583 202.571V208.347C318.583 208.694 318.866 208.977 319.213 208.977Z" fill="#FFBCBC" fill-opacity="0.25"/>
<path d="M310.905 208.977H316.681C317.029 208.977 317.31 208.694 317.31 208.347V202.571C317.31 202.223 317.028 201.941 316.681 201.941H310.905C310.557 201.941 310.275 202.224 310.275 202.571V208.347C310.274 208.694 310.557 208.977 310.905 208.977Z" fill="#E4F1FF"/>
<path d="M302.654 208.977H308.43C308.778 208.977 309.059 208.694 309.059 208.347V202.571C309.059 202.223 308.777 201.941 308.43 201.941H302.654C302.306 201.941 302.024 202.224 302.024 202.571V208.347C302.024 208.694 302.306 208.977 302.654 208.977Z" fill="#E4F1FF"/>
<path d="M328.805 172.685C328.01 172.685 327.364 172.041 327.364 171.245V166.143C327.364 165.347 328.01 164.702 328.805 164.702C329.6 164.702 330.246 165.347 330.246 166.143V171.245C330.246 172.041 329.6 172.685 328.805 172.685Z" fill="#FFBCBC"/>
<path opacity="0.35" d="M267.607 137.994H162.222C158.798 137.994 156.022 140.77 156.022 144.194V145.162V199.037C156.022 202.461 158.798 205.237 162.222 205.237H267.606C271.03 205.237 273.806 202.461 273.806 199.037V189.312V144.194C273.806 140.77 271.03 137.994 267.607 137.994Z" fill="#B9B9B9" fill-opacity="0.05"/>
<path d="M264.878 203.083H159.494C156.07 203.083 153.294 200.307 153.294 196.883V142.04C153.294 138.616 156.07 135.84 159.494 135.84H264.878C268.302 135.84 271.078 138.616 271.078 142.04V196.883C271.078 200.308 268.302 203.083 264.878 203.083Z" fill="#FFBCBC" fill-opacity="0.25"/>
<path d="M271.078 142.041C271.078 138.617 268.302 135.841 264.878 135.841H159.494C156.07 135.841 153.294 138.617 153.294 142.041V143.009C166.191 143.594 191.191 147.822 208.629 170.209C228.699 195.974 255.67 193.455 271.078 187.158V142.041H271.078Z" fill="#FF7701" fill-opacity="0.1"/>
<path d="M180.049 173.332H165.338C164.034 173.332 162.978 172.275 162.978 170.972V163.269C162.978 161.965 164.034 160.909 165.338 160.909H180.049C181.352 160.909 182.409 161.965 182.409 163.269V170.972C182.409 172.275 181.353 173.332 180.049 173.332Z" fill="white"/>
<path d="M262.98 147.849H241.678C241.139 147.849 240.702 147.412 240.702 146.873V142.773C240.702 142.234 241.139 141.797 241.678 141.797H262.98C263.519 141.797 263.956 142.234 263.956 142.773V146.873C263.956 147.411 263.519 147.849 262.98 147.849Z" fill="#8B3E00"/>
<path d="M182.568 183.829H164.339C163.2 183.829 162.276 182.905 162.276 181.765C162.276 180.626 163.2 179.702 164.339 179.702H182.568C183.707 179.702 184.631 180.625 184.631 181.765C184.631 182.905 183.707 183.829 182.568 183.829Z" fill="white"/>
<path d="M208.376 183.829H190.147C189.008 183.829 188.084 182.905 188.084 181.765C188.084 180.626 189.008 179.702 190.147 179.702H208.376C209.515 179.702 210.439 180.625 210.439 181.765C210.438 182.905 209.515 183.829 208.376 183.829Z" fill="white"/>
<path d="M234.377 183.829H216.148C215.009 183.829 214.085 182.905 214.085 181.765C214.085 180.626 215.009 179.702 216.148 179.702H234.377C235.516 179.702 236.44 180.625 236.44 181.765C236.439 182.905 235.516 183.829 234.377 183.829Z" fill="white"/>
<path d="M260.184 183.829H241.955C240.816 183.829 239.892 182.905 239.892 181.765C239.892 180.626 240.815 179.702 241.955 179.702H260.184C261.323 179.702 262.247 180.625 262.247 181.765C262.247 182.905 261.324 183.829 260.184 183.829Z" fill="white"/>
<path d="M188.326 197.743H164.614C163.921 197.743 163.36 197.181 163.36 196.489C163.36 195.796 163.922 195.235 164.614 195.235H188.326C189.018 195.235 189.58 195.796 189.58 196.489C189.58 197.181 189.018 197.743 188.326 197.743Z" fill="#8B3E00"/>
<path d="M260.12 197.743H248.42C247.727 197.743 247.166 197.181 247.166 196.489C247.166 195.796 247.728 195.235 248.42 195.235H260.12C260.813 195.235 261.374 195.796 261.374 196.489C261.374 197.181 260.813 197.743 260.12 197.743Z" fill="#8B3E00"/>
<mask id="mask0_6364_6768" style="mask-type:luminance" maskUnits="userSpaceOnUse" x="162" y="160" width="21" height="14">
<path d="M180.049 173.332H165.338C164.034 173.332 162.978 172.275 162.978 170.972V163.269C162.978 161.965 164.034 160.909 165.338 160.909H180.049C181.352 160.909 182.409 161.965 182.409 163.269V170.972C182.409 172.275 181.353 173.332 180.049 173.332Z" fill="white"/>
</mask>
<g mask="url(#mask0_6364_6768)">
<path d="M166.523 160.695C168.245 162.907 170.973 167.927 166.293 173.659" stroke="#8EC3F4" stroke-width="0.4" stroke-miterlimit="10" stroke-linecap="round"/>
</g>
<mask id="mask1_6364_6768" style="mask-type:luminance" maskUnits="userSpaceOnUse" x="162" y="160" width="21" height="14">
<path d="M180.049 173.332H165.338C164.034 173.332 162.978 172.275 162.978 170.972V163.269C162.978 161.965 164.034 160.909 165.338 160.909H180.049C181.352 160.909 182.409 161.965 182.409 163.269V170.972C182.409 172.275 181.353 173.332 180.049 173.332Z" fill="white"/>
</mask>
<g mask="url(#mask1_6364_6768)">
<path d="M161.726 167.007H168.855" stroke="#8EC3F4" stroke-width="0.4" stroke-miterlimit="10"/>
</g>
<mask id="mask2_6364_6768" style="mask-type:luminance" maskUnits="userSpaceOnUse" x="162" y="160" width="21" height="14">
<path d="M180.049 173.332H165.338C164.034 173.332 162.978 172.275 162.978 170.972V163.269C162.978 161.965 164.034 160.909 165.338 160.909H180.049C181.352 160.909 182.409 161.965 182.409 163.269V170.972C182.409 172.275 181.353 173.332 180.049 173.332Z" fill="white"/>
</mask>
<g mask="url(#mask2_6364_6768)">
<path d="M178.327 160.695C176.606 162.907 173.878 167.927 178.558 173.659" stroke="#8EC3F4" stroke-width="0.4" stroke-miterlimit="10" stroke-linecap="round"/>
</g>
<mask id="mask3_6364_6768" style="mask-type:luminance" maskUnits="userSpaceOnUse" x="162" y="160" width="21" height="14">
<path d="M180.049 173.332H165.338C164.034 173.332 162.978 172.275 162.978 170.972V163.269C162.978 161.965 164.034 160.909 165.338 160.909H180.049C181.352 160.909 182.409 161.965 182.409 163.269V170.972C182.409 172.275 181.353 173.332 180.049 173.332Z" fill="white"/>
</mask>
<g mask="url(#mask3_6364_6768)">
<path d="M183.124 167.007H175.994" stroke="#8EC3F4" stroke-width="0.4" stroke-miterlimit="10"/>
</g>
<path d="M284.264 92.1045C278.984 86.5685 278.598 84.6365 286.839 76.5253C295.079 68.4141 293.792 57.2125 293.792 57.2125L277.962 56.9077V56.8901L277.508 56.8989L277.053 56.8901V56.9077L261.224 57.2125C261.224 57.2125 259.937 68.4141 268.177 76.5253C276.417 84.6365 276.031 86.5677 270.752 92.1045C265.473 97.6413 258.263 103.049 258.521 113.22H277.054H277.962H296.496C296.753 103.049 289.542 97.6405 284.264 92.1045Z" fill="white"/>
<path d="M296.809 115.977H258.206C257.032 115.977 256.082 115.025 256.082 113.852C256.082 112.678 257.033 111.727 258.206 111.727H296.809C297.982 111.727 298.933 112.678 298.933 113.852C298.934 115.026 297.982 115.977 296.809 115.977Z" fill="#FFBCBC"/>
<path d="M296.809 58.9503H258.206C257.032 58.9503 256.082 57.9991 256.082 56.8255C256.082 55.6519 257.033 54.7007 258.206 54.7007H296.809C297.982 54.7007 298.933 55.6519 298.933 56.8255C298.934 57.9991 297.982 58.9503 296.809 58.9503Z" fill="#FFBCBC"/>
<path d="M270.173 73.6064H285.154C285.658 73.6064 285.933 74.1648 285.608 74.5312L278.796 82.2176C278.706 82.3192 278.657 82.4472 278.657 82.58V105.83C278.657 106.141 278.922 106.393 279.25 106.393H291.982C292.242 106.393 292.47 106.552 292.549 106.786L293.402 109.346C293.522 109.709 293.237 110.078 292.835 110.078H262.197C261.808 110.078 261.524 109.73 261.622 109.373L262.334 106.795C262.402 106.548 262.637 106.375 262.906 106.374L276.054 106.329C276.382 106.328 276.646 106.076 276.646 105.766V82.704C276.646 82.5736 276.598 82.4464 276.511 82.3456L269.714 74.5272C269.396 74.16 269.671 73.6064 270.173 73.6064Z" fill="#8B3E00" fill-opacity="0.5"/>
<path d="M273.946 274.551C273.946 274.551 274.082 256.95 284.962 255.69C295.842 254.43 299.591 257.661 301.082 258.259C302.571 258.856 298.648 259.658 295.329 262.904C292.01 266.152 292.044 270.2 284.561 271.524C277.078 272.849 274.293 278.361 274.293 278.361L273.946 274.551Z" fill="#8B3E00"/>
<path d="M274.292 278.361C274.292 278.361 277.781 260.305 294.646 259.571" stroke="#A0593A" stroke-width="0.4" stroke-miterlimit="10" stroke-linecap="round"/>
<path d="M274.838 268.296C274.838 268.296 276.467 253.12 267.219 250.956C257.971 248.792 254.422 251.204 253.079 251.57C251.737 251.936 255.037 253.016 257.574 256.143C260.11 259.269 259.679 262.753 265.994 264.636C272.309 266.52 274.162 271.544 274.162 271.544L274.838 268.296Z" fill="#8B3E00"/>
<path d="M274.162 271.544C274.162 271.544 272.948 255.644 258.492 253.339" stroke="#A0593A" stroke-width="0.4" stroke-miterlimit="10" stroke-linecap="round"/>
<path d="M275.846 233.62C275.85 233.619 275.864 233.679 275.886 233.795C275.909 233.923 275.941 234.095 275.98 234.311C276.02 234.544 276.068 234.825 276.124 235.155C276.165 235.492 276.213 235.879 276.265 236.313C276.456 238.057 276.6 240.605 276.422 243.742C276.273 246.88 275.805 250.592 275.281 254.703C274.752 258.814 274.299 263.351 274.225 268.131C274.012 277.702 275.179 286.335 276.432 292.467C277.04 295.542 277.699 297.993 278.134 299.691C278.367 300.524 278.55 301.176 278.678 301.635C278.735 301.848 278.78 302.016 278.813 302.142C278.842 302.256 278.856 302.316 278.852 302.317C278.852 302.317 277.556 298.647 276.261 292.502C274.961 286.369 273.764 277.719 273.977 268.127C274.051 263.336 274.513 258.785 275.055 254.675C275.591 250.563 276.076 246.861 276.246 243.732C276.446 240.605 276.329 238.066 276.169 236.323C276.125 235.89 276.085 235.503 276.05 235.165C276.003 234.835 275.963 234.553 275.929 234.32C275.901 234.102 275.878 233.929 275.86 233.799C275.848 233.682 275.842 233.621 275.846 233.62Z" fill="#1C004F"/>
<path d="M286.126 286.303H265.275C264.777 286.303 264.374 285.899 264.374 285.401V282.893C264.374 282.395 264.778 281.992 265.275 281.992H286.126C286.624 281.992 287.027 282.396 287.027 282.893V285.401C287.028 285.899 286.624 286.303 286.126 286.303Z" fill="#21212A"/>
<path d="M281.51 304.914H270.767C269.899 304.914 269.158 304.29 269.011 303.435L266 286H285.507L283.277 303.359C283.163 304.248 282.406 304.914 281.51 304.914Z" fill="#8B3E00" fill-opacity="0.5"/>
<path d="M275.594 249.79C275.594 249.79 277.073 238.264 284.304 238.296C291.535 238.329 293.738 240.744 294.667 241.252C295.597 241.761 292.962 241.977 290.53 243.844C288.098 245.71 287.801 248.367 282.791 248.644C277.782 248.921 275.521 252.315 275.521 252.315L275.594 249.79Z" fill="#8B3E00"/>
<path d="M275.521 252.315C275.521 252.315 279.233 240.755 290.346 241.605L275.521 252.315Z" fill="#8B3E00"/>
<path d="M275.521 252.315C275.521 252.315 279.233 240.755 290.346 241.605" stroke="#A0593A" stroke-width="0.4" stroke-miterlimit="10" stroke-linecap="round"/>
<path d="M277.027 241.08C277.027 241.08 279.711 229.773 272.934 227.252C266.156 224.732 263.243 226.213 262.194 226.361C261.145 226.509 263.534 227.641 265.151 230.246C266.768 232.851 266.109 235.441 270.698 237.468C275.288 239.495 276.206 243.469 276.206 243.469L277.027 241.08Z" fill="#8B3E00"/>
<path d="M276.205 243.468C276.205 243.468 276.811 231.342 266.113 228.215" stroke="#A0593A" stroke-width="0.4" stroke-miterlimit="10" stroke-linecap="round"/>
<path d="M102.79 116.18C102.79 114.7 101.59 113.5 100.109 113.5H60.5448C59.064 113.5 57.864 114.7 57.864 116.18V137.56C57.864 139.04 59.064 140.24 60.5448 140.24H93.152L96.2208 144.423C97.1768 145.726 98.8303 145.605 99.5871 144.177L102.24 139.169C102.58 138.72 102.79 138.166 102.79 137.559V116.18Z" fill="#FFBCBC"/>
<path d="M95.2792 123.08H65.0008C64.528 123.08 64.1448 122.696 64.1448 122.224C64.1448 121.751 64.528 121.368 65.0008 121.368H95.2792C95.752 121.368 96.1352 121.751 96.1352 122.224C96.1352 122.696 95.752 123.08 95.2792 123.08Z" fill="white"/>
<path d="M86.0768 127.089H65.0008C64.528 127.089 64.1448 126.706 64.1448 126.233C64.1448 125.76 64.528 125.377 65.0008 125.377H86.0768C86.5496 125.377 86.9328 125.76 86.9328 126.233C86.9328 126.706 86.5496 127.089 86.0768 127.089Z" fill="white"/>
<path d="M91.1896 131.184H65.0008C64.528 131.184 64.1448 130.8 64.1448 130.328C64.1448 129.855 64.528 129.472 65.0008 129.472H91.1896C91.6624 129.472 92.0456 129.855 92.0456 130.328C92.0464 130.8 91.6624 131.184 91.1896 131.184Z" fill="white"/>
<g opacity="0.35">
<path d="M213.108 254.273C213.183 267.34 202.651 277.994 189.584 278.07C176.516 278.146 165.862 267.614 165.787 254.546C165.712 241.478 176.243 230.824 189.311 230.748C202.378 230.674 213.033 241.206 213.108 254.273Z" fill="#9FCCFB"/>
</g>
<path d="M211.316 254.06C212.046 240.881 201.954 229.605 188.774 228.875C175.594 228.145 164.318 238.237 163.588 251.417C162.858 264.597 172.951 275.873 186.131 276.603C199.31 277.333 210.586 267.24 211.316 254.06Z" fill="#8B3E00" fill-opacity="0.7"/>
<path d="M205.234 252.267C205.292 262.302 197.205 270.483 187.17 270.541C177.135 270.598 168.954 262.512 168.897 252.477C168.839 242.441 176.925 234.261 186.961 234.203C196.996 234.145 205.177 242.232 205.234 252.267Z" fill="#D19D70"/>
<path d="M205.752 253.02C205.809 262.92 197.83 270.991 187.93 271.048C178.03 271.105 169.959 263.127 169.902 253.227C169.846 243.327 177.824 235.255 187.724 235.199C197.624 235.142 205.694 243.12 205.752 253.02Z" fill="#8B3E00" fill-opacity="0.7"/>
<path d="M205.752 253.02C205.809 262.92 197.83 270.991 187.93 271.048C178.03 271.105 169.959 263.127 169.902 253.227C169.846 243.327 177.824 235.255 187.724 235.199C197.624 235.142 205.694 243.12 205.752 253.02Z" fill="#FFBCBC" fill-opacity="0.25"/>
<path d="M188.532 251.566L188.506 246.98C188.513 246.979 188.52 246.98 188.528 246.98C189.325 247.067 190.151 247.275 190.969 247.602C191.652 247.951 192.114 248.315 192.114 248.315L192.174 248.173L192.872 246.518L193.033 246.138L192.21 245.284L191.818 245.463C190.813 244.967 189.669 244.58 188.491 244.523L188.477 242.001L187.688 241.373L187.692 242.006L186.614 242.012L186.63 244.579C183.087 244.94 181.418 246.972 181.43 249.29C181.449 252.448 184.157 253.251 186.682 253.849L186.709 258.393C184.981 258.244 183.273 257.595 182.154 256.692L181.146 258.993C182.333 260.009 184.496 260.723 186.723 260.847L186.734 262.751L185.847 262.771L186.738 263.368L188.601 263.358L188.586 260.813C192.151 260.429 193.844 258.419 193.83 256.102C193.811 252.944 191.058 252.164 188.532 251.566ZM186.666 251.099C185.346 250.721 184.366 250.227 184.36 249.136C184.354 248.137 185.031 247.315 186.643 247.055L186.666 251.099ZM188.506 246.976C188.506 246.976 188.506 246.976 188.506 246.976V246.976ZM188.571 258.337L188.548 254.315C189.914 254.694 190.916 255.211 190.922 256.323C190.929 257.3 190.228 258.077 188.571 258.337Z" fill="#D19D70"/>
<path d="M187.811 260.195L187.826 262.741L185.962 262.751L185.948 260.229C183.72 260.105 181.557 259.39 180.37 258.374L181.379 256.073C182.498 256.976 184.206 257.624 185.934 257.774L185.908 253.229C183.382 252.63 180.674 251.828 180.655 248.669C180.642 246.351 182.312 244.319 185.854 243.958L185.839 241.39L187.702 241.379L187.717 243.901C189.399 243.983 191.106 244.473 192.338 245.261L191.42 247.561C190.212 246.864 188.937 246.485 187.731 246.356L187.758 250.946C190.283 251.545 193.038 252.325 193.056 255.484C193.07 257.801 191.377 259.811 187.811 260.195ZM185.892 250.48L185.869 246.435C184.257 246.694 183.58 247.517 183.586 248.517C183.592 249.607 184.572 250.101 185.892 250.48ZM190.149 255.705C190.142 254.591 189.139 254.074 187.774 253.696L187.797 257.718C189.455 257.459 190.155 256.682 190.149 255.705Z" fill="white"/>
<path d="M205.554 245.325C210.931 245.325 215.29 240.966 215.29 235.589C215.29 230.211 210.931 225.853 205.554 225.853C200.177 225.853 195.818 230.211 195.818 235.589C195.818 240.966 200.177 245.325 205.554 245.325Z" fill="#8B3E00" fill-opacity="0.7"/>
<path d="M202.265 235.382L203.571 238.312C203.703 238.609 204.097 238.674 204.317 238.434L209.199 233.128" stroke="#FFBCBC" stroke-opacity="0.25" stroke-width="1.21888" stroke-miterlimit="10" stroke-linecap="round"/>
<path d="M205.527 243.632C209.984 243.632 213.597 240.018 213.597 235.561C213.597 231.104 209.984 227.491 205.527 227.491C201.07 227.491 197.457 231.104 197.457 235.561C197.457 240.018 201.07 243.632 205.527 243.632Z" stroke="white" stroke-width="0.4" stroke-miterlimit="10"/>
<path d="M76.9031 160.849C76.9031 160.849 79.8543 152.679 92.2983 156.214C100.594 158.57 105.415 165.154 104.866 174.823C104.287 185.038 110.744 181.902 106.985 196.664C104.443 206.645 116.518 214.868 105.534 230.544C96.6392 243.237 46.3367 235.926 46.8423 214.025C47.0807 203.682 55.7175 208.518 56.2383 191.838C56.4591 184.757 69.9471 187.119 68.1327 176.381C67.2287 171.032 71.5111 160.17 76.9031 160.849Z" fill="#FF7701" fill-opacity="0.5"/>
<path d="M92.1368 192.633C92.1368 192.633 95.5576 194.733 94.708 199.314C93.8584 203.894 93.4816 208.217 97.3952 211.561" stroke="#B70825" stroke-width="0.4" stroke-miterlimit="10" stroke-linecap="round"/>
<path d="M101.286 181.976C102.127 185.659 103.718 188.121 101.522 193.12C96.8855 203.674 106.149 205.873 101.702 215.538C100.108 219.002 99.4647 221.994 99.1359 224.604" stroke="#B70825" stroke-width="0.4" stroke-miterlimit="10" stroke-linecap="round"/>
<path d="M103.263 234.18L119.15 234.183L114.28 228.866L103.857 230.442L103.263 234.18Z" fill="#F7C2A0"/>
<path d="M74.2043 187.999C74.2043 187.999 69.6531 190.524 70.2635 195.314C71.0867 201.776 64.6571 202.785 66.2571 206.828" stroke="#B70825" stroke-width="0.4" stroke-miterlimit="10" stroke-linecap="round"/>
<path d="M72.3488 170.629C72.3488 170.629 70.5072 174.651 70.9896 178.706C71.9776 187.018 60.6928 187.195 60.608 195.584C60.5552 200.827 56.18 204.03 53.3392 207.072" stroke="#B70825" stroke-width="0.4" stroke-miterlimit="10" stroke-linecap="round"/>
<path d="M149.92 329.495L149.888 339.186L140.945 339.258L139.529 331.358L149.92 329.495Z" fill="#E8977B"/>
<path d="M123.193 332.533L122.318 343.106L112.651 343.982L111.07 336.03L123.193 332.533Z" fill="#E8977B"/>
<path d="M83.2935 260.983C93.5703 266.5 114.967 277.431 127.105 279.634C128.102 279.815 128.878 280.595 129.026 281.597L136.421 331.959C136.553 332.859 137.192 333.602 138.066 333.86C140.875 334.691 147.242 335.754 152.171 330.487C152.622 330.007 152.861 329.364 152.815 328.707C152.303 321.277 148.916 273.263 146.477 266.967C143.994 260.555 109.319 253.814 105.094 253.015C104.816 252.962 104.532 252.961 104.253 253.011L83.9863 256.623C81.8039 257.011 81.3399 259.934 83.2935 260.983Z" fill="#8B3E00"/>
<path d="M68.4104 264.223C68.4584 264.236 60.1008 279.98 101.96 283.68C102.883 283.762 103.57 284.575 103.664 285.498L108.866 336.303C108.949 337.108 109.491 337.785 110.258 338.044C112.877 338.927 119.122 340.245 124.736 335.406C125.231 334.978 125.525 334.366 125.507 333.713C125.303 326.292 123.902 278.15 121.725 271.756C119.63 265.604 88.8032 257.968 81.9016 256.33C81.0768 256.134 80.2232 256.465 79.7408 257.162L68.4104 264.223Z" fill="#8B3E00"/>
<path d="M66.4727 199.717C79.5391 195.83 95.3727 199.205 97.9671 199.982C100.928 200.87 104.629 204.423 108.626 212.417C112.622 220.412 112.622 220.412 112.622 220.412L104.629 222.781V253.276C97.4919 259.338 88.9063 263.449 79.7087 265.205L68.9095 267.137C67.8623 267.325 66.9095 266.499 66.9455 265.436L68.1823 226.633L54.6167 227.347C54.6167 227.347 53.9871 203.433 66.4727 199.717Z" fill="#FFFEFC"/>
<path d="M93.4943 227.897L69.1375 234.595L68.1823 226.633L56.8607 227.143C56.8607 227.143 54.3095 246.815 61.0415 247.236C71.2367 247.873 97.5095 234.967 97.5095 234.967L93.4943 227.897Z" fill="#F7C2A0"/>
<path d="M89.5848 166.561C90.9496 166.01 92.9304 166.45 93.9368 167.493C96.7 170.355 100.145 175.357 98.9768 181.744C97.6264 189.13 95.8752 193.727 91.804 193.651C90.4824 193.626 89.9064 194.674 89.864 195.914L89.6128 199.775C88.4096 206.528 78.5312 207.505 75.7056 201.15L75.2424 200.108C74.9032 199.346 74.916 198.477 75.2752 197.723C76.4656 195.228 79.364 190.981 76.1176 181.56C75.8952 180.915 74.9048 178.711 75.536 177.161C76.0744 175.838 77.7944 175.642 78.888 176.562C79.1288 176.764 79.4552 176.801 80.0664 176.375C82.1832 174.903 82.3696 169.471 89.5848 166.561Z" fill="#F7C2A0"/>
<path d="M90.4632 166.368C90.4632 166.368 90.5776 168.858 94.724 170.996C99.7952 173.61 96.6752 176.74 99.0208 180.44C101.491 184.337 99.3456 176.913 99.3456 176.913L98.6264 168.444C97.1944 162.949 95.0928 159.356 89.8208 160.456C86.9928 161.046 84.2584 162.111 82.7904 164.01C78.924 169.011 78.0784 180.406 78.0784 180.406C78.0784 180.406 82.328 180.49 84.5624 175.15C87.0904 169.114 86.7936 168.142 90.4632 166.368Z" fill="#FF7701" fill-opacity="0.5"/>
<path d="M114.562 234.733H104.865C104.069 234.733 103.423 234.087 103.423 233.291V212.253C103.423 211.457 104.069 210.811 104.865 210.811H114.562C115.358 210.811 116.004 211.457 116.004 212.253V233.291C116.004 234.087 115.358 234.733 114.562 234.733Z" fill="#1C004F"/>
<path d="M122.923 226.83C120.291 223.156 116.616 216.253 115.366 216.111C114.694 216.035 114.476 216.626 114.773 218.02C115.656 222.164 117.083 222.974 113.204 222.308C112.644 222.212 109.798 221.658 108.24 221.353C107.094 221.129 106.09 222.27 106.555 223.341C106.682 223.632 106.889 223.95 107.205 224.293C107.205 224.293 106.288 226.873 108.742 227.514C108.742 227.514 109.03 230.445 110.874 230.576C110.874 230.576 112.838 231.798 116.973 233.507C118.854 234.764 121.38 234.394 122.822 232.651L123.137 232.269C124.462 230.666 124.37 228.323 122.923 226.83Z" fill="#F7C2A0"/>
<path d="M107.634 224.323C108.994 224.75 111.079 225.389 112.378 225.327" stroke="#F18884" stroke-width="0.4" stroke-miterlimit="10" stroke-linecap="round"/>
<path d="M109.07 227.567C109.07 227.567 111.471 228.487 113.182 228.359" stroke="#F18884" stroke-width="0.4" stroke-miterlimit="10" stroke-linecap="round"/>
<path d="M93.4943 227.897L96.4511 225.754C98.5847 221.505 102.516 213.809 103.23 214.181C104.015 214.59 104.224 215.45 103.693 217.137C102.42 221.179 103.047 223.16 105.34 222.987C106.129 222.927 112.906 222.887 112.906 222.887C112.906 222.887 114.528 224.338 112.371 225.981C112.371 225.981 112.827 228.681 110.299 228.887C110.299 228.887 109.507 231.723 107.667 231.533C107.667 231.533 105.521 232.395 101.153 233.363L97.5079 234.967L93.4943 227.897Z" fill="#F7C2A0"/>
<path d="M111.943 225.936C110.531 226.12 108.366 226.388 107.098 226.102" stroke="#F18884" stroke-width="0.4" stroke-miterlimit="10" stroke-linecap="round"/>
<path d="M109.966 228.882C109.966 228.882 107.442 229.372 105.78 228.949" stroke="#F18884" stroke-width="0.4" stroke-miterlimit="10" stroke-linecap="round"/>
<path d="M103.23 214.18C104.015 214.589 104.224 215.449 103.693 217.136C102.42 221.178 103.047 223.159 105.34 222.986C106.129 222.927 112.906 222.886 112.906 222.886C112.906 222.886 114.528 224.337 112.371 225.98C112.371 225.98 112.827 228.68 110.299 228.886C110.299 228.886 109.507 231.723 107.667 231.532C107.667 231.532 105.521 232.395 101.153 233.362" stroke="#F18884" stroke-width="0.4" stroke-miterlimit="10" stroke-linecap="round"/>
<path d="M110.875 230.576C111.837 231.049 115.377 232.847 116.974 233.507" stroke="#F18884" stroke-width="0.4" stroke-miterlimit="10" stroke-linecap="round"/>
<path d="M150.774 337.515C150.774 337.515 147.914 339.832 139.84 338.594C139.84 338.594 139.27 343.646 137.073 346.286C134.874 348.927 141.245 352.118 146.023 350.637C150.802 349.156 154.371 352.681 159.094 352.107C163.818 351.534 170.631 346.394 168.105 344.862C165.579 343.329 156.602 343.387 154.365 339.878C153.046 337.81 150.774 337.515 150.774 337.515Z" fill="#1C004F"/>
<path d="M156.798 350.142C161.126 351.429 165.962 346.405 165.962 346.405" stroke="white" stroke-width="0.4" stroke-miterlimit="10" stroke-linecap="round"/>
<path d="M139.039 347.126C139.039 347.126 140.758 349.178 144.706 348.771C148.656 348.366 152.468 348.856 156.797 350.142" stroke="white" stroke-width="0.4" stroke-miterlimit="10" stroke-linecap="round"/>
<path d="M123.412 341.178C123.412 341.178 118.913 344.377 110.922 342.689C110.922 342.689 111.03 347.495 108.687 350.009C106.345 352.523 112.526 356.065 117.381 354.853C122.235 353.641 125.602 357.36 130.35 357.051C135.098 356.743 142.187 351.992 139.751 350.321C137.315 348.65 127.463 347.531 125.426 343.902C124.224 341.763 123.412 341.178 123.412 341.178Z" fill="#1C004F"/>
<path d="M128.166 354.962C132.415 356.488 137.524 351.743 137.524 351.743" stroke="white" stroke-width="0.4" stroke-miterlimit="10" stroke-linecap="round"/>
<path d="M110.604 350.958C110.604 350.958 112.205 353.102 116.17 352.917C120.136 352.732 123.915 353.435 128.166 354.962" stroke="white" stroke-width="0.4" stroke-miterlimit="10" stroke-linecap="round"/>
<path d="M123.058 281.299C122.655 276.66 122.21 273.178 121.726 271.756C120.524 268.227 109.87 264.21 99.6992 261.117" stroke="white" stroke-width="0.4" stroke-miterlimit="10" stroke-linecap="round"/>
<path d="M122.775 306.326C122.466 299.054 122.085 291.402 121.638 284.947" stroke="white" stroke-width="0.4" stroke-miterlimit="10" stroke-linecap="round"/>
<path d="M114.337 337.04C116.973 336.907 120.017 336.045 122.895 333.564C123.39 333.137 123.684 332.525 123.666 331.871C123.601 329.478 123.41 322.849 123.11 314.75" stroke="white" stroke-width="0.4" stroke-miterlimit="10" stroke-linecap="round"/>
<path d="M111.319 271.44C111.319 271.44 111.581 278.119 119.308 280.476" stroke="white" stroke-width="0.4" stroke-miterlimit="10"/>
<path d="M137.773 265.809C137.773 265.809 139.344 271.964 145.892 275.369" stroke="white" stroke-width="0.4" stroke-miterlimit="10"/>
<path d="M139.529 331.358C139.529 331.358 145.63 331.549 150.606 327.751" stroke="white" stroke-width="0.4" stroke-miterlimit="10"/>
<path d="M73.7231 200.965C73.7231 200.965 75.0983 208.975 85.3735 206.886" stroke="#315782" stroke-width="0.4" stroke-miterlimit="10" stroke-linecap="round"/>
<path d="M90.7751 201.526C90.7751 201.526 90.8647 203.758 87.9183 205.544" stroke="#315782" stroke-width="0.4" stroke-miterlimit="10" stroke-linecap="round"/>
<path d="M56.4919 225.438L64.9895 225.365" stroke="#315782" stroke-width="0.4" stroke-miterlimit="10" stroke-linecap="round"/>
<path d="M68.2576 226.469L69.1504 220.784" stroke="#315782" stroke-width="0.4" stroke-miterlimit="10" stroke-linecap="round"/>
<path d="M81.1696 261.458C77.9208 262.336 74.2776 263.074 70.2368 263.556" stroke="#315782" stroke-width="0.4" stroke-miterlimit="10" stroke-linecap="round"/>
<path d="M101.502 251.623C101.502 251.623 96.6071 256.119 86.6583 259.727" stroke="#315782" stroke-width="0.4" stroke-miterlimit="10" stroke-linecap="round"/>
<path d="M88.4911 254.881C86.3415 255.696 84.0959 256.257 81.9023 256.329" stroke="#315782" stroke-width="0.4" stroke-miterlimit="10" stroke-linecap="round"/>
<path d="M101.383 246.969C101.383 246.969 97.6568 250.276 92.6608 252.961" stroke="#315782" stroke-width="0.4" stroke-miterlimit="10" stroke-linecap="round"/>
<path d="M82.6391 266.987C82.6391 266.987 85.3895 272.88 80.8055 277.202" stroke="white" stroke-width="0.4" stroke-miterlimit="10"/>
</g>
<defs>
<clipPath id="clip0_6364_6768">
<rect width="400" height="400" fill="white" transform="translate(-13)"/>
</clipPath>
</defs>
</svg>
