<svg width="375" height="400" viewBox="0 0 375 400" fill="none" xmlns="http://www.w3.org/2000/svg">
<path d="M387 305.918H-13V306.118H387V305.918Z" fill="#EBEBEB"/>
<path d="M177.721 270.24H23.2416C20.724 270.24 18.6752 268.191 18.6752 265.673V48.5278C18.6752 46.0102 20.724 43.9614 23.2416 43.9614H177.721C180.238 43.9614 182.286 46.0102 182.286 48.5278V265.673C182.286 268.191 180.238 270.24 177.721 270.24ZM23.2416 44.1622C20.8336 44.1622 18.8752 46.1206 18.8752 48.5286V265.674C18.8752 268.082 20.8336 270.041 23.2416 270.041H177.721C180.128 270.041 182.086 268.082 182.086 265.674V48.5278C182.086 46.1206 180.128 44.1614 177.721 44.1614L23.2416 44.1622Z" fill="#EBEBEB"/>
<path d="M350.758 270.24H196.279C193.762 270.24 191.714 268.191 191.714 265.673V48.5278C191.714 46.0102 193.762 43.9614 196.279 43.9614H350.758C353.277 43.9614 355.325 46.0102 355.325 48.5278V265.673C355.325 268.191 353.276 270.24 350.758 270.24ZM196.279 44.1622C193.872 44.1622 191.914 46.1206 191.914 48.5286V265.674C191.914 268.082 193.872 270.041 196.279 270.041H350.758C353.166 270.041 355.125 268.082 355.125 265.674V48.5278C355.125 46.1206 353.166 44.1614 350.758 44.1614L196.279 44.1622Z" fill="#EBEBEB"/>
<path d="M387 305.918H-13V306.118H387V305.918Z" fill="#EBEBEB"/>
<path d="M346.921 318.795H320.423V318.995H346.921V318.795Z" fill="#EBEBEB"/>
<path d="M251.976 320.966H245.022V321.166H251.976V320.966Z" fill="#EBEBEB"/>
<path d="M319.622 311.366H304.269V311.566H319.622V311.366Z" fill="#EBEBEB"/>
<path d="M63.5216 312.71H28.9672V312.91H63.5216V312.71Z" fill="#EBEBEB"/>
<path d="M167.118 316.089H92.1768V316.289H167.118V316.089Z" fill="#EBEBEB"/>
<path d="M127.577 79.357C132.476 74.6006 132.591 66.7733 127.835 61.8742C123.079 56.9751 115.251 56.8594 110.352 61.6158C105.453 66.3722 105.338 74.1995 110.094 79.0986C114.85 83.9977 122.678 84.1134 127.577 79.357Z" fill="#E0E0E0"/>
<path d="M125.642 82.1611C131.814 79.2407 134.45 71.8701 131.53 65.6982C128.609 59.5264 121.239 56.8905 115.067 59.8109C108.895 62.7312 106.259 70.1019 109.18 76.2737C112.1 82.4456 119.471 85.0814 125.642 82.1611Z" fill="#F0F0F0"/>
<path d="M129.069 74.1016C127.348 78.9128 122.053 81.4184 117.242 79.6976C112.43 77.9768 109.925 72.6816 111.646 67.8704C113.366 63.0592 118.662 60.5536 123.473 62.2744C128.284 63.9952 130.79 69.2904 129.069 74.1016Z" fill="#E6E6E6"/>
<path d="M124.856 73.3624C124.686 72.8304 124.352 72.3744 123.852 71.9936C124.342 71.9256 124.77 71.7448 125.135 71.4512C125.499 71.1576 125.767 70.7712 125.938 70.2928C126.221 69.504 126.122 68.764 125.644 68.0744C125.287 67.5608 124.73 67.1208 123.974 66.7512L124.229 66.0392L123.128 65.6456L122.89 66.3104L121.79 65.9168L122.027 65.252L120.926 64.8584L120.689 65.5232L118.303 64.6704L114.776 74.5328L117.162 75.3856L116.911 76.0856L118.012 76.4792L118.262 75.7792L119.363 76.1728L119.113 76.8728L120.214 77.2664L120.474 76.5384C121.491 76.8312 122.361 76.8984 123.063 76.7096C123.902 76.4848 124.474 75.9408 124.783 75.0768C125.002 74.4664 125.026 73.8952 124.856 73.3624ZM119.957 67.2008L122.226 68.012C122.789 68.2136 123.182 68.4624 123.403 68.7592C123.626 69.056 123.668 69.3968 123.53 69.7824C123.393 70.168 123.143 70.4064 122.782 70.4992C122.42 70.5928 121.958 70.5384 121.394 70.3368L119.126 69.5256L119.957 67.2008ZM121.787 74.7672C121.411 74.8552 120.923 74.792 120.322 74.5768L117.659 73.6248L118.53 71.188L121.193 72.14C122.405 72.5736 122.865 73.1984 122.573 74.0152C122.425 74.4296 122.162 74.68 121.787 74.7672Z" fill="white"/>
<path d="M181.021 76.8721V80.5697C183.405 80.7601 185.575 81.7049 187.294 83.1673L189.907 80.5537C187.512 78.4305 184.422 77.0753 181.021 76.8721Z" fill="#E6E6E6"/>
<path d="M179.237 102.618C173.839 102.187 169.536 97.8839 169.105 92.4863H165.407C165.851 99.9223 171.801 105.872 179.237 106.316V102.618Z" fill="#F5F5F5"/>
<path d="M169.104 90.7017C169.535 85.3041 173.839 81.0009 179.237 80.5697V76.8721C171.802 77.3161 165.852 83.2665 165.407 90.7017H169.104Z" fill="#E0E0E0"/>
<path d="M191.169 81.8154L188.555 84.429C190.198 86.3594 191.192 88.8602 191.192 91.5938C191.192 97.4034 186.714 102.163 181.021 102.618V106.315C188.752 105.854 194.88 99.4402 194.88 91.5938C194.88 87.8418 193.477 84.4186 191.169 81.8154Z" fill="#EBEBEB"/>
<path d="M55.156 120.66L55.4984 128.87L75.192 123.569L84.9416 111.439L95.9104 107.32L96.9968 110.224L105.321 101.269L92.7896 97.2471L94.0344 100.537L83.088 104.489L73.6832 116.892L55.156 120.66Z" fill="#E6E6E6"/>
<path d="M300.645 129.026C304.166 135.294 301.941 143.23 295.674 146.752C289.406 150.274 281.47 148.048 277.949 141.781C274.427 135.514 276.653 127.578 282.92 124.056C289.186 120.534 297.122 122.759 300.645 129.026Z" fill="#E6E6E6"/>
<path d="M299.548 144.156C304.804 139.251 305.09 131.014 300.185 125.757C295.281 120.5 287.043 120.214 281.786 125.119C276.529 130.024 276.244 138.261 281.148 143.518C286.053 148.775 294.291 149.06 299.548 144.156Z" fill="#F0F0F0"/>
<path d="M299.15 129.866C301.786 134.557 300.121 140.495 295.43 143.131C290.74 145.766 284.802 144.102 282.166 139.411C279.53 134.721 281.196 128.782 285.886 126.146C290.576 123.51 296.514 125.176 299.15 129.866Z" fill="#E6E6E6"/>
<path d="M295.403 134.35C296.787 136.043 296.203 138.023 293.99 139.526L294.824 141.101L293.413 141.895L292.578 140.319C291.144 140.959 289.647 141.243 288.531 141.164L288.187 139.055C289.341 139.131 290.547 138.917 291.594 138.459L290.316 136.039C288.712 136.419 286.887 136.759 285.628 135.218C284.245 133.525 284.848 131.515 287.123 130.013L286.289 128.439L287.701 127.645L288.546 129.233C289.62 128.759 290.747 128.498 291.736 128.499L292.165 130.56C291.256 130.533 290.345 130.728 289.52 131.08L290.857 133.598C292.435 133.213 294.207 132.886 295.403 134.35ZM289.223 133.996L288.135 131.934C287.445 132.526 287.315 133.174 287.697 133.666C288.019 134.06 288.558 134.091 289.223 133.996ZM293.387 135.966C293.085 135.597 292.572 135.55 291.943 135.662L292.987 137.619C293.635 137.051 293.783 136.45 293.387 135.966Z" fill="white"/>
<path d="M245.862 57.2983L233.594 77.6631L245.862 85.0791V57.2983Z" fill="#F5F5F5"/>
<path d="M233.594 77.663L245.862 72.1606V85.079L233.594 77.663Z" fill="#EBEBEB"/>
<path d="M245.862 57.2983L258.132 77.6631L245.862 85.0791V57.2983Z" fill="#EBEBEB"/>
<path d="M258.132 77.663L245.862 72.1606V85.079L258.132 77.663Z" fill="#E0E0E0"/>
<path d="M233.549 81.3774L245.907 98.7814L245.862 88.7334L233.549 81.3774Z" fill="#F5F5F5"/>
<path d="M258.177 81.3774L245.818 98.7814L245.862 88.7334L258.177 81.3774Z" fill="#EBEBEB"/>
<path d="M75.7112 312.71H70.6448V312.91H75.7112V312.71Z" fill="#EBEBEB"/>
<path d="M188.711 341.613C274.377 341.613 343.822 337.557 343.822 332.554C343.822 327.552 274.377 323.496 188.711 323.496C103.046 323.496 33.6 327.552 33.6 332.554C33.6 337.557 103.046 341.613 188.711 341.613Z" fill="#F5F5F5"/>
<path d="M209.046 331.904H46.1904C42.8864 329.584 40.4864 326.016 39.5744 322.08C38.6544 318.152 39.2464 313.888 41.1904 310.352C41.9664 308.944 43.0384 307.592 44.3984 306.784C42.5824 303.632 42.0224 299.12 42.8624 295.56C43.7104 291.984 46.6704 289.56 49.7264 287.608C47.4304 274.656 50.0384 260.856 56.8944 249.704C63.7584 238.552 75.0784 231.312 87.5264 227.776C86.4384 218.288 89.4864 208.392 95.6864 201.232C101.894 194.08 111.782 189.496 121.15 189.424C121.838 182.624 125.662 176.224 131.27 172.48C136.886 168.736 144.022 167.528 150.414 169.608C151.374 164.776 154.678 160.488 159.054 158.376C163.422 156.272 168.774 156.4 173.046 158.704C179.59 156.848 186.79 160.344 189.758 166.568C192.734 172.8 190.742 181.048 185.262 185.152C191.446 194.368 191.174 208.8 184.606 217.736C188.222 218.712 189.79 223.896 190.326 227.672C191.886 238.568 189.99 249.952 184.982 259.712C191.654 259.392 198.11 264.368 202.086 269.84C206.062 275.304 207.158 282.824 204.91 289.232C208.782 288.992 212.07 292.056 213.974 295.488C215.51 298.264 216.19 301.424 216.678 304.584C216.83 304.896 216.942 305.224 217.022 305.576C219.094 314.704 215.902 325.528 209.046 331.904Z" fill="#B6A292"/>
<g opacity="0.6">
<path d="M209.046 331.904H46.1904C42.8864 329.584 40.4864 326.016 39.5744 322.08C38.6544 318.152 39.2464 313.888 41.1904 310.352C41.9664 308.944 43.0384 307.592 44.3984 306.784C42.5824 303.632 42.0224 299.12 42.8624 295.56C43.7104 291.984 46.6704 289.56 49.7264 287.608C47.4304 274.656 50.0384 260.856 56.8944 249.704C63.7584 238.552 75.0784 231.312 87.5264 227.776C86.4384 218.288 89.4864 208.392 95.6864 201.232C101.894 194.08 111.782 189.496 121.15 189.424C121.838 182.624 125.662 176.224 131.27 172.48C136.886 168.736 144.022 167.528 150.414 169.608C151.374 164.776 154.678 160.488 159.054 158.376C163.422 156.272 168.774 156.4 173.046 158.704C179.59 156.848 186.79 160.344 189.758 166.568C192.734 172.8 190.742 181.048 185.262 185.152C191.446 194.368 191.174 208.8 184.606 217.736C188.222 218.712 189.79 223.896 190.326 227.672C191.886 238.568 189.99 249.952 184.982 259.712C191.654 259.392 198.11 264.368 202.086 269.84C206.062 275.304 207.158 282.824 204.91 289.232C208.782 288.992 212.07 292.056 213.974 295.488C215.51 298.264 216.19 301.424 216.678 304.584C216.83 304.896 216.942 305.224 217.022 305.576C219.094 314.704 215.902 325.528 209.046 331.904Z" fill="white"/>
</g>
<path d="M169.973 145.299L220.301 137.131C221.077 137.005 221.692 137.776 221.397 138.505L202.256 185.763C201.966 186.477 201.014 186.615 200.533 186.013L169.346 146.924C168.865 146.32 169.211 145.423 169.973 145.299Z" fill="#8B3E00"/>
<path opacity="0.2" d="M169.973 145.299L220.301 137.131C221.077 137.005 221.692 137.776 221.397 138.505L202.256 185.763C201.966 186.477 201.014 186.615 200.533 186.013L169.346 146.924C168.865 146.32 169.211 145.423 169.973 145.299Z" fill="white"/>
<path d="M173.564 164.362L176.702 160.304L173.973 156.882L169.319 159.042C169.949 161.228 171.414 163.174 173.564 164.362Z" fill="#263238"/>
<path opacity="0.2" d="M173.973 156.882C173.973 156.882 173.274 157.206 172.883 157.388C173.509 158.905 174.554 160.258 175.967 161.254L176.703 160.303L173.973 156.882Z" fill="white"/>
<path opacity="0.4" d="M171.714 157.93C171.419 158.067 171.122 158.205 170.84 158.336C171.568 160.195 172.844 161.849 174.59 163.035L175.18 162.273C173.726 161.042 172.562 159.563 171.714 157.93Z" fill="white"/>
<path d="M178.496 161.986C175.577 160.374 173.587 157.73 172.73 154.76L201.667 131.673C205.073 128.955 209.259 127.875 213.273 128.326C212.821 132.34 210.839 136.181 207.433 138.898L178.496 161.986Z" fill="#8B3E00"/>
<path d="M201.667 131.674C201.667 131.674 177.337 151.085 174.389 153.437C175.417 156.336 177.386 158.912 180.154 160.663C183.101 158.312 207.433 138.899 207.433 138.899C210.839 136.182 212.821 132.34 213.273 128.327C209.259 127.875 205.073 128.955 201.667 131.674Z" fill="#8B3E00"/>
<path opacity="0.5" d="M201.667 131.674C201.667 131.674 177.337 151.085 174.389 153.437C175.417 156.336 177.386 158.912 180.154 160.663C183.101 158.312 207.433 138.899 207.433 138.899C210.839 136.182 212.821 132.34 213.273 128.327C209.259 127.875 205.073 128.955 201.667 131.674Z" fill="white"/>
<path d="M201.667 131.674C201.667 131.674 201.209 132.039 200.416 132.672C201.597 135.502 203.552 138.026 206.18 139.899C206.974 139.266 207.433 138.9 207.433 138.9C210.839 136.182 212.821 132.341 213.273 128.328C209.259 127.875 205.073 128.955 201.667 131.674Z" fill="#8B3E00"/>
<path opacity="0.2" d="M201.667 131.674C201.667 131.674 201.209 132.039 200.416 132.672C201.597 135.502 203.552 138.026 206.18 139.899C206.974 139.266 207.433 138.9 207.433 138.9C210.839 136.182 212.821 132.341 213.273 128.328C209.259 127.875 205.073 128.955 201.667 131.674Z" fill="white"/>
<path d="M188.777 182.214L191.915 178.156L189.185 174.735L184.532 176.894C185.162 179.08 186.627 181.027 188.777 182.214Z" fill="#263238"/>
<path opacity="0.2" d="M189.185 174.734C189.185 174.734 188.486 175.058 188.096 175.239C188.721 176.756 189.767 178.11 191.18 179.107L191.915 178.155L189.185 174.734Z" fill="white"/>
<path opacity="0.4" d="M186.927 175.783C186.632 175.92 186.334 176.058 186.053 176.188C186.781 178.048 188.057 179.702 189.803 180.888L190.393 180.125C188.938 178.895 187.774 177.415 186.927 175.783Z" fill="white"/>
<path d="M193.709 179.838C190.79 178.226 188.8 175.582 187.943 172.612L216.88 149.525C220.286 146.807 224.472 145.727 228.486 146.178C228.034 150.192 226.052 154.033 222.646 156.75L193.709 179.838Z" fill="#8B3E00"/>
<path d="M216.88 149.525C216.88 149.525 192.55 168.936 189.602 171.288C190.63 174.187 192.599 176.763 195.367 178.514C198.314 176.163 222.645 156.75 222.645 156.75C226.052 154.033 228.034 150.191 228.485 146.178C224.472 145.727 220.286 146.807 216.88 149.525Z" fill="#8B3E00"/>
<path opacity="0.5" d="M216.88 149.525C216.88 149.525 192.55 168.936 189.602 171.288C190.63 174.187 192.599 176.763 195.367 178.514C198.314 176.163 222.645 156.75 222.645 156.75C226.052 154.033 228.034 150.191 228.485 146.178C224.472 145.727 220.286 146.807 216.88 149.525Z" fill="white"/>
<path d="M216.88 149.525C216.88 149.525 216.422 149.89 215.629 150.523C216.81 153.353 218.765 155.878 221.393 157.75C222.187 157.117 222.645 156.751 222.645 156.751C226.052 154.034 228.034 150.192 228.485 146.179C224.472 145.727 220.286 146.807 216.88 149.525Z" fill="#8B3E00"/>
<path opacity="0.2" d="M216.88 149.525C216.88 149.525 216.422 149.89 215.629 150.523C216.81 153.353 218.765 155.878 221.393 157.75C222.187 157.117 222.645 156.751 222.645 156.751C226.052 154.034 228.034 150.192 228.485 146.179C224.472 145.727 220.286 146.807 216.88 149.525Z" fill="white"/>
<path d="M180.673 176.356L185.741 169.805L181.333 164.282L173.821 167.767C174.838 171.297 177.203 174.439 180.673 176.356Z" fill="#263238"/>
<path opacity="0.2" d="M181.334 164.281C181.334 164.281 180.206 164.804 179.575 165.097C180.585 167.546 182.274 169.73 184.554 171.339L185.741 169.804L181.334 164.281Z" fill="white"/>
<path opacity="0.4" d="M177.687 165.974C177.211 166.194 176.73 166.418 176.276 166.629C177.451 169.63 179.511 172.301 182.33 174.215L183.281 172.985C180.935 170.998 179.055 168.609 177.687 165.974Z" fill="white"/>
<path d="M188.635 172.521C183.922 169.918 180.71 165.65 179.328 160.855L226.042 123.584C231.541 119.197 238.298 117.454 244.777 118.182C244.049 124.661 240.849 130.863 235.349 135.25L188.635 172.521Z" fill="#8B3E00"/>
<path d="M226.042 123.584C226.042 123.584 186.765 154.922 182.005 158.719C183.665 163.399 186.844 167.559 191.312 170.385C196.069 166.589 235.349 135.25 235.349 135.25C240.849 130.863 244.049 124.661 244.777 118.182C238.298 117.454 231.541 119.197 226.042 123.584Z" fill="#8B3E00"/>
<path opacity="0.6" d="M226.042 123.584C226.042 123.584 186.765 154.922 182.005 158.719C183.665 163.399 186.844 167.559 191.312 170.385C196.069 166.589 235.349 135.25 235.349 135.25C240.849 130.863 244.049 124.661 244.777 118.182C238.298 117.454 231.541 119.197 226.042 123.584Z" fill="white"/>
<path d="M226.042 123.584C226.042 123.584 225.303 124.174 224.022 125.196C225.93 129.765 229.085 133.84 233.328 136.863C234.61 135.84 235.35 135.25 235.35 135.25C240.85 130.863 244.05 124.661 244.778 118.182C238.298 117.454 231.542 119.197 226.042 123.584Z" fill="#8B3E00"/>
<path opacity="0.2" d="M226.042 123.584C226.042 123.584 225.303 124.174 224.022 125.196C225.93 129.765 229.085 133.84 233.328 136.863C234.61 135.84 235.35 135.25 235.35 135.25C240.85 130.863 244.05 124.661 244.778 118.182C238.298 117.454 231.542 119.197 226.042 123.584Z" fill="white"/>
<path d="M224.061 140.271C222.185 141.767 219.45 141.46 217.953 139.584C216.457 137.708 216.764 134.974 218.64 133.476C220.516 131.979 223.25 132.287 224.748 134.163C226.245 136.039 225.937 138.774 224.061 140.271Z" fill="#8B3E00"/>
<path d="M217.953 139.584C216.525 137.795 216.743 135.227 218.394 133.694C218.304 133.755 218.214 133.816 218.128 133.886C216.252 135.383 215.944 138.117 217.441 139.994C218.938 141.87 221.673 142.178 223.549 140.68C223.636 140.611 223.716 140.537 223.796 140.463C221.933 141.732 219.381 141.374 217.953 139.584Z" fill="#8B3E00"/>
<path opacity="0.3" d="M217.953 139.584C216.525 137.795 216.743 135.227 218.394 133.694C218.304 133.755 218.214 133.816 218.128 133.886C216.252 135.383 215.944 138.117 217.441 139.994C218.938 141.87 221.673 142.178 223.549 140.68C223.636 140.611 223.716 140.537 223.796 140.463C221.933 141.732 219.381 141.374 217.953 139.584Z" fill="black"/>
<path d="M223.267 139.275C221.941 140.334 220.007 140.116 218.949 138.79C217.89 137.463 218.108 135.53 219.434 134.471C220.761 133.413 222.694 133.63 223.753 134.957C224.811 136.283 224.594 138.217 223.267 139.275Z" fill="white"/>
<path d="M218.861 138.654L224.273 135.946C224.17 135.62 224.012 135.308 223.794 135.021L218.398 137.721C218.493 138.05 218.653 138.363 218.861 138.654Z" fill="#8B3E00"/>
<path d="M219.701 139.451L224.407 137.096C224.422 136.904 224.418 136.712 224.396 136.52L219.248 139.096C219.389 139.23 219.54 139.348 219.701 139.451Z" fill="#8B3E00"/>
<g opacity="0.7">
<path d="M218.861 138.654L224.273 135.946C224.17 135.62 224.012 135.308 223.794 135.021L218.398 137.721C218.493 138.05 218.653 138.363 218.861 138.654Z" fill="white"/>
<path d="M219.701 139.451L224.407 137.096C224.422 136.904 224.418 136.712 224.396 136.52L219.248 139.096C219.389 139.23 219.54 139.348 219.701 139.451Z" fill="white"/>
</g>
<path d="M276.803 187.469H233.814V331.793H276.803V187.469Z" fill="#8B3E00"/>
<path opacity="0.2" d="M245.862 187.459H233.714V331.718H245.862V187.459Z" fill="black"/>
<path d="M81.8968 291.653H38.9088V331.793H81.8968V291.653Z" fill="#8B3E00"/>
<path opacity="0.2" d="M50.6584 291.613H38.5104V331.718H50.6584V291.613Z" fill="black"/>
<path d="M144.318 256.926H101.329V331.794H144.318V256.926Z" fill="#8B3E00"/>
<path opacity="0.2" d="M113.178 256.896H101.03V331.719H113.178V256.896Z" fill="black"/>
<path d="M211.183 222.198H168.194V331.794H211.183V222.198Z" fill="#8B3E00"/>
<path opacity="0.2" d="M180.144 222.178H167.996V331.719H180.144V222.178Z" fill="black"/>
<path d="M339.223 152.741H296.234V331.792H339.223V152.741Z" fill="#8B3E00"/>
<path opacity="0.2" d="M308.382 152.741H296.234V331.718H308.382V152.741Z" fill="black"/>
<path d="M124.538 233.47L120.981 245.595L126.219 246.816L130.197 235.219L124.538 233.47Z" fill="#FF8B7B"/>
<path d="M127.814 245.164L121.788 244.008C121.561 243.964 121.33 244.096 121.232 244.323L119.079 249.364C118.884 249.81 119.062 250.326 119.474 250.516C119.527 250.54 119.582 250.559 119.639 250.571C121.819 250.947 123.776 251.19 126.479 251.713C129.671 252.327 128.778 252.58 132.518 253.357C134.771 253.823 135.743 251.15 134.812 250.831C130.545 249.397 130.377 247.891 129.026 245.884C128.725 245.491 128.293 245.235 127.814 245.164Z" fill="#263238"/>
<path d="M96.2392 154.362L116.885 166.999L95.2544 170.787L96.2392 154.362Z" fill="#FF725E" fill-opacity="0.5"/>
<path d="M129.333 241.089L121.882 239.751C121.882 239.751 124.654 229.413 127.662 215.289C128.125 213.112 134.123 196.549 134.123 196.549C134.123 196.549 104.548 182.677 104.049 182.53C103.672 182.41 101.249 182.221 97.4616 179.261C90.424 173.76 92.6344 162.994 92.6344 162.994L111.062 163.434C129.021 173.024 144.614 187.056 146.718 192.802C149.678 200.886 129.333 241.089 129.333 241.089Z" fill="#FF725E" fill-opacity="0.5"/>
<path d="M55.4584 228.069L43.1584 230.971L44.6865 236.127L56.7336 233.854L55.4584 228.069Z" fill="#FF8B7B"/>
<path d="M46.7772 237.141L44.8044 231.331C44.73 231.112 44.502 230.976 44.2556 231.003L38.8084 231.623C38.3252 231.675 37.9644 232.084 38.0028 232.536C38.0076 232.594 38.0188 232.651 38.0372 232.706C38.7876 234.788 39.5436 236.609 40.4252 239.218C41.4692 242.295 40.8076 241.645 41.9804 245.281C42.6892 247.47 45.4932 246.994 45.3108 246.027C44.4476 241.609 45.674 240.719 46.7508 238.553C46.9428 238.094 46.9524 237.592 46.7772 237.141Z" fill="#263238"/>
<path d="M51.2041 236.004L48.6841 228.866L87.8185 207.066C87.8185 207.066 85.2601 174.499 85.1409 173.993C85.0593 173.606 84.0265 171.406 84.7273 166.65C86.0305 157.813 96.4825 154.414 96.4825 154.414L105.41 173.275C105.395 173.28 101.255 211.494 97.3001 216.163C91.7377 222.73 51.2041 236.004 51.2041 236.004Z" fill="#FF725E" fill-opacity="0.5"/>
<path opacity="0.2" d="M104.049 182.531L97.4608 179.262L102.538 194.882L104.049 182.531Z" fill="black"/>
<path d="M120.049 131.698C116.658 132.425 113.25 133.069 109.842 133.707L107.282 134.17L105.002 134.564C104.039 134.758 103.128 135.237 102.375 135.95L98.8207 139.612C97.6167 140.855 96.4183 142.104 95.1927 143.329C92.7607 145.794 90.3167 148.25 87.8231 150.662C86.9487 151.508 85.5543 151.484 84.7095 150.61C83.9639 149.838 83.8951 148.662 84.4895 147.815C86.4783 144.976 88.5175 142.181 90.5687 139.396C91.5847 137.996 92.6279 136.618 93.6647 135.237L96.8399 131.027C98.3687 129.145 100.508 127.727 102.865 126.981L105.636 126.235L108.133 125.578C111.466 124.725 114.798 123.877 118.149 123.11C120.517 122.57 122.874 124.05 123.415 126.418C123.956 128.786 122.475 131.143 120.108 131.684C120.095 131.688 120.06 131.695 120.049 131.698Z" fill="#FF7701" fill-opacity="0.5"/>
<path opacity="0.1" d="M119.958 131.698C116.567 132.425 113.158 133.069 109.75 133.707L107.191 134.17L104.911 134.564C103.948 134.758 103.037 135.237 102.284 135.95L98.7297 139.612C97.5257 140.855 96.3273 142.104 95.1017 143.329C92.6697 145.794 90.2257 148.25 87.7321 150.662C86.8577 151.508 85.4633 151.484 84.6185 150.61C83.8729 149.838 83.8041 148.662 84.3985 147.815C86.3873 144.976 88.4265 142.181 90.4777 139.396C91.4937 137.996 92.5369 136.618 93.5737 135.237L96.7489 131.027C98.2777 129.145 100.417 127.727 102.774 126.981L105.545 126.235L108.042 125.578C111.374 124.725 114.707 123.877 118.058 123.11C120.426 122.57 122.783 124.05 123.324 126.418C123.865 128.786 122.384 131.143 120.017 131.684C120.004 131.688 119.969 131.695 119.958 131.698Z" fill="#FF7701" fill-opacity="0.5"/>
<path d="M83.8135 147.789L78.5327 149.837L83.3095 154.465L87.2951 151.299C87.7671 150.924 87.8383 150.225 87.4351 149.777C86.6903 148.95 85.3927 147.825 83.8135 147.789Z" fill="#FF8B7B"/>
<path d="M78.5328 149.836L77.6992 151.379C77.2872 152.14 77.484 153.088 78.1656 153.624L79.8608 154.955C80.3768 155.36 81.0744 155.448 81.676 155.184L83.3104 154.466L78.5328 149.836Z" fill="#FF8B7B"/>
<path d="M54.82 170.778L52.8744 170.453L54.08 168.995L78.4128 160.252C82.2816 158.862 84.7872 156.222 82.812 151.52C80.964 147.122 76.8064 145.816 72.9384 147.189L48.608 155.824L46.6464 155.453L47.8704 154.049L72.2008 145.428C76.6984 143.834 81.0448 144.197 83.952 151.112C86.864 158.04 83.6528 160.399 79.1544 162.018L54.82 170.778Z" fill="#263238"/>
<path d="M62.028 144.377L61.4936 143.172C60.3808 140.661 57.5736 139.372 54.944 140.162L37 145.554L40.2256 153.482L62.028 144.377Z" fill="#263238"/>
<path opacity="0.2" d="M62.028 144.377L61.4936 143.172C60.3808 140.661 57.5736 139.372 54.944 140.162L37 145.554L40.2256 153.482L62.028 144.377Z" fill="white"/>
<path d="M55.8584 173.622L55.1168 171.836L78.7112 161.448C82.4624 159.797 84.872 156.942 82.8928 152.232C81.0416 147.828 76.9768 146.729 73.2264 148.363L49.6328 158.64L48.8936 156.861L72.4872 146.599C76.8488 144.702 81.0856 144.82 83.9976 151.748C86.9151 158.688 83.8152 161.296 79.4528 163.218L55.8584 173.622Z" fill="#263238"/>
<path d="M53.1712 184.766L38.6272 149.62L56.2616 142.105C58.516 141.132 61.096 142.15 62.028 144.378L72.7056 169.926C73.9112 172.812 72.5424 176.195 69.6416 177.482L53.1712 184.766Z" fill="#8B3E00" fill-opacity="0.5"/>
<g opacity="0.3">
<path d="M55.8584 173.622L53.96 173.402L55.1168 171.836L78.7112 161.448C82.4624 159.797 84.872 156.942 82.8928 152.232C81.0416 147.828 76.9768 146.729 73.2264 148.363L49.6328 158.64L47.7184 158.373L48.8944 156.861L72.488 146.599C76.8496 144.702 81.0864 144.82 83.9984 151.748C86.916 158.688 83.816 161.296 79.4536 163.218L55.8584 173.622Z" fill="white"/>
</g>
<path d="M58.9728 155.163L57.7528 152.237L58.8464 151.762L60.0664 154.687L58.9728 155.163Z" fill="#263238"/>
<path d="M51.88 158.253L50.6608 155.32L51.7592 154.842L52.9792 157.774L51.88 158.253Z" fill="#263238"/>
<path d="M65.2408 170.197L64.016 167.26L65.1104 166.778L66.3352 169.714L65.2408 170.197Z" fill="#263238"/>
<path d="M58.1487 173.325L56.924 170.381L58.0232 169.897L59.2471 172.841L58.1487 173.325Z" fill="#263238"/>
<path d="M147.379 117.909C147.606 118.026 147.653 118.397 147.482 118.745C147.31 119.093 146.987 119.29 146.76 119.173C146.534 119.055 146.486 118.685 146.658 118.337C146.822 117.966 147.153 117.791 147.379 117.909Z" fill="#263238"/>
<path d="M147.217 118.185C147.493 118.25 147.843 118.186 148.087 118.043C147.788 118.068 147.481 117.971 147.249 117.779C147.3 117.902 147.294 118.078 147.217 118.185Z" fill="#263238"/>
<path d="M145.225 121.518C145.727 121.948 146.393 122.135 147.045 122.028C146.808 120.774 146.742 119.494 146.85 118.223L145.225 121.518Z" fill="#FF5652"/>
<path d="M146.111 116.116C146.681 115.983 147.279 116.133 147.718 116.519C147.733 116.54 147.75 116.559 147.77 116.574C147.873 116.652 148.018 116.632 148.095 116.53C148.173 116.428 148.153 116.283 148.051 116.206C147.515 115.706 146.771 115.498 146.054 115.646C145.999 115.658 145.951 115.687 145.917 115.73C145.838 115.831 145.854 115.977 145.955 116.056C145.998 116.095 146.053 116.117 146.111 116.116Z" fill="#263238"/>
<path d="M130.142 132.469C124.964 128.468 126.386 125.051 126.386 125.051C129.094 124.758 131.334 122.078 132.94 119.379C132.897 120.241 133.006 121.112 133.31 122.047C133.9 123.825 137.589 124.632 137.589 124.632C137.596 124.637 137.229 125.087 136.746 125.77C135.564 127.437 133.697 130.524 134.81 132.109C134.81 132.109 135.85 136.877 130.142 132.469Z" fill="#FF8B7B"/>
<path d="M137.335 125.108C137.094 125.3 136.854 125.493 136.622 125.717C136.59 125.715 136.562 125.705 136.541 125.688C135.102 125.037 133.903 123.823 133.312 122.045C133.004 121.106 132.892 120.239 132.938 119.377C133.349 118.696 133.714 118.001 134.039 117.356L137.215 124.831L137.335 125.108Z" fill="#FF8B7B"/>
<path d="M144.326 123.822C142.79 125.692 140.486 126.473 138.344 126.197L138.336 126.192C138.324 126.193 138.316 126.188 138.309 126.182C137.724 126.121 137.16 125.96 136.623 125.718C136.59 125.716 136.563 125.706 136.541 125.689C135.103 125.038 133.904 123.824 133.312 122.046C133.004 121.107 132.892 120.24 132.938 119.378C133.022 117.203 134.059 115.028 135.384 111.869C135.763 110.932 136.355 110.092 137.112 109.424C139.819 107.036 143.948 107.296 146.331 109.998C149.687 113.775 147.142 120.414 144.326 123.822Z" fill="#FF8B7B"/>
<path opacity="0.2" d="M137.983 126.076C137.444 126.02 137.194 125.968 136.744 125.771C137.228 125.088 137.595 124.638 137.588 124.632C138.075 124.087 138.568 123.547 138.568 123.547C138.552 123.568 137.714 125.864 137.983 126.076Z" fill="black"/>
<path d="M148.508 115.755C147.565 116.089 145.805 115.611 145.972 115.492C146.633 115.119 147.428 114.029 146.549 113.737C146.405 114.308 144.467 117.925 143.907 118.106C143.601 118.205 141.465 120.636 138.619 122.019C136.349 123.122 135.912 123.676 135.912 123.676L131.873 121.583C130.69 120.383 127.832 109.638 133.885 107.593C135.874 106.921 137.393 105.238 140.542 106.143C142.489 106.702 144.77 106.358 146.684 107.021C148.597 107.683 150.364 109.117 150.874 111.077C151.125 112.041 150.87 114.917 148.508 115.755Z" fill="#263238"/>
<path d="M144.853 116.616C145.682 117.786 144.989 119.822 144.237 120.869C143.407 122.027 142.105 122.144 141.722 120.627C141.443 119.472 141.552 118.258 142.031 117.171C142.631 115.868 144.023 115.447 144.853 116.616Z" fill="#FF8B7B"/>
<path d="M123.449 125.737C123.449 125.737 126.191 123.905 128.009 124.078C129.826 124.251 134.472 129.231 135.044 130.208C135.616 131.186 134.944 133.754 134.944 133.754L123.449 125.737Z" fill="#407BFF"/>
<path opacity="0.3" d="M123.449 125.737C123.449 125.737 126.191 123.905 128.009 124.078C129.826 124.251 134.472 129.231 135.044 130.208C135.616 131.186 134.944 133.754 134.944 133.754L123.449 125.737Z" fill="white"/>
<path d="M136.342 134.216C135.627 133.431 135.498 133.128 134.616 132.31C131.886 129.938 129.022 127.725 126.038 125.684C124.946 124.941 123.794 124.356 122.62 123.812C120.208 122.697 117.349 123.507 115.868 125.691C111.724 131.801 110.754 136.54 108.002 140.543C102.518 148.517 97.1113 152.876 95.5081 154.483L98.9273 158.142C105.997 163.46 111.783 165.608 116.886 167C116.886 167 123.122 157.046 126.698 154.51C136.467 147.58 135.878 144.796 137.396 141.802C138.656 139.312 138.237 136.292 136.342 134.216Z" fill="#407BFF"/>
<path d="M136.967 141.494C136.421 142.56 136.152 143.614 135.566 144.836C134.867 146.321 133.707 148.065 131.059 150.422C129.83 151.535 128.267 152.772 126.273 154.192C125.105 155.016 123.66 156.636 122.243 158.428C122.236 158.436 122.229 158.446 122.222 158.456C120.885 160.145 120.771 162.497 121.897 164.333C124.434 168.468 128.33 174.37 128.33 174.37C125.583 173.651 124.461 173.354 120.079 174.74C113.233 176.9 98.8777 174.993 94.8281 169.212C95.9745 166.516 97.5737 164.068 99.8041 162.168C97.3505 163.742 94.9465 165.88 92.9473 168C91.1417 168.37 89.3065 167.382 88.0017 166.091C86.6897 164.798 85.7249 163.189 84.4681 161.849C83.2049 160.5 81.8369 159.255 80.0001 159.411C82.3969 156.241 86.4569 154.902 90.2713 153.791C93.1217 152.972 96.7545 151.792 99.4769 149.986C101.782 147.664 104.667 144.458 107.575 140.232C110.321 136.224 111.294 131.494 115.44 125.376C116.918 123.19 119.783 122.381 122.194 123.5C123.366 124.037 124.515 124.628 125.615 125.372C128.59 127.416 131.459 129.62 134.19 131.988C135.068 132.81 135.198 133.112 135.913 133.901C137.803 135.986 138.227 138.992 136.967 141.494Z" fill="#FFD6B3"/>
<path d="M175.248 131.366L179.367 129.587C179.538 129.514 179.699 129.418 179.846 129.304L181.706 127.858C181.942 127.665 182.078 127.325 181.984 126.992L180.106 123.996C179.977 123.524 179.512 123.214 179.078 123.308L176.296 124.342C176.088 124.42 175.901 124.546 175.75 124.71L172.96 127.753C172.734 128.018 172.682 128.418 172.827 128.778L174.06 130.732C174.266 131.245 174.792 131.528 175.248 131.366Z" fill="#FF8B7B"/>
<path opacity="0.2" d="M131.49 150.738L133.266 141.056L137.021 143.078C135.695 146.588 134.138 148.38 131.49 150.738Z" fill="black"/>
<path d="M158.951 144.482C164.082 140.908 170.533 135.868 175.235 131.817C175.672 130.267 174.21 128.222 172.724 128.846C169.022 130.401 157.952 136.535 156.003 136.592C154.655 136.632 140.817 134.628 136.272 133.977C135.373 133.848 134.446 134.023 133.692 134.531C131.186 136.22 130.547 138.08 130.692 139.713C130.919 142.266 133.103 144.205 135.659 144.397C141.989 144.873 151.471 145.4 155.173 145.56C156.518 145.618 157.847 145.251 158.951 144.482Z" fill="#FF7701" fill-opacity="0.5"/>
<path d="M141.297 119.705C139.837 123.892 137.888 131.873 134.682 134.935C131.475 137.997 126.969 138.097 122.66 139.145C121.621 139.397 120.301 140.701 120.324 140.499C119.215 141.665 118.631 143.164 118.392 144.756C116.838 143.541 115.286 142.325 113.732 141.11C113.291 140.765 112.834 140.399 112.606 139.888C112.222 139.025 112.602 138.012 113.125 137.225C113.647 136.437 114.257 135.013 114.539 134.111C112.885 135.468 111.72 136.877 111.064 138.913C108.79 138.089 106.137 136.198 106.085 133.78C106.044 131.873 106.854 129.965 108.254 128.671C106.64 129.489 105.426 130.841 104.576 132.438C104.09 131.012 102.899 129.583 101.394 129.632C102.666 127.117 103.961 124.572 105.834 122.465C107.706 120.359 110.256 118.707 113.067 118.511C115.21 118.361 117.31 119.053 119.357 119.705C121.403 120.358 123.537 120.987 125.666 120.709C127.796 120.432 129.984 117.174 130.382 115.063C133.359 113.257 137.67 117.543 141.297 119.705Z" fill="#8B3E00" fill-opacity="0.5"/>
<path opacity="0.2" d="M155.473 115.894C155.034 124.546 147.665 131.206 139.004 130.768L138.948 130.765C138.285 130.731 137.632 130.65 136.998 130.53C133.956 126.21 129.844 122.79 125.072 120.53C124.854 119.934 124.669 119.316 124.525 118.683C124.195 117.281 124.053 115.816 124.13 114.306C124.568 105.645 131.938 98.9849 140.591 99.4233C149.252 99.8625 155.911 107.233 155.473 115.894Z" fill="#8B3E00"/>
<path d="M145.117 129.869C143.216 130.55 141.149 130.878 139.007 130.769L138.951 130.766C138.28 130.732 137.635 130.651 137.001 130.53C133.959 126.211 129.839 122.79 125.075 120.53C124.858 119.934 124.664 119.316 124.528 118.685C124.198 117.282 124.048 115.817 124.125 114.306C124.49 107.1 129.663 101.274 136.379 99.7793L136.387 99.7801C137.301 100.243 138.116 100.917 138.732 101.717C140.131 103.51 140.719 105.815 141.022 108.073C141.489 111.499 141.409 115.001 140.782 118.404C140.35 120.757 140.49 123.199 141.442 125.394C142.979 128.943 145.117 129.869 145.117 129.869Z" fill="#8B3E00"/>
<path opacity="0.4" d="M145.117 129.869C143.216 130.55 141.149 130.878 139.007 130.769L138.951 130.766C138.28 130.732 137.635 130.651 137.001 130.53C133.959 126.211 129.839 122.79 125.075 120.53C124.858 119.934 124.664 119.316 124.528 118.685C124.198 117.282 124.048 115.817 124.125 114.306C124.49 107.1 129.663 101.274 136.379 99.7793L136.387 99.7801C137.301 100.243 138.116 100.917 138.732 101.717C140.131 103.51 140.719 105.815 141.022 108.073C141.489 111.499 141.409 115.001 140.782 118.404C140.35 120.757 140.49 123.199 141.442 125.394C142.979 128.943 145.117 129.869 145.117 129.869Z" fill="white"/>
<path d="M138.753 131.918C138.225 132.397 137.731 131.852 137.731 131.852C137.47 131.434 137.2 131.016 136.922 130.613C133.942 126.25 129.88 122.771 125.141 120.442C124.66 120.194 124.17 119.97 123.678 119.754C123.25 119.566 123.323 118.93 123.68 118.624C123.934 118.408 124.335 118.41 124.62 118.589C124.728 118.652 124.818 118.746 124.883 118.862C130.434 121.524 135.425 125.77 138.869 130.875C138.876 130.884 138.883 130.9 138.89 130.909C138.89 130.909 139.264 131.446 138.753 131.918Z" fill="#8B3E00"/>
<path d="M142.044 116.414C142.044 117.18 141.423 117.8 140.658 117.8C139.893 117.8 139.273 117.179 139.273 116.414C139.273 115.65 139.893 115.029 140.658 115.029C141.423 115.029 142.044 115.649 142.044 116.414Z" fill="#A9701A"/>
<path d="M142.503 116.83C142.503 117.596 141.883 118.216 141.118 118.216C140.352 118.216 139.732 117.595 139.732 116.83C139.732 116.066 140.353 115.445 141.118 115.445C141.883 115.445 142.503 116.065 142.503 116.83Z" fill="#8B3E00"/>
<path opacity="0.7" d="M142.503 116.83C142.503 117.596 141.883 118.216 141.118 118.216C140.352 118.216 139.732 117.595 139.732 116.83C139.732 116.066 140.353 115.445 141.118 115.445C141.883 115.445 142.503 116.065 142.503 116.83Z" fill="white"/>
<path d="M337.651 83.3027C337.651 94.1515 328.858 102.944 318.01 102.944C317.572 102.944 317.134 102.933 316.696 102.9C306.477 102.226 298.379 93.7131 298.379 83.3027C298.379 72.8923 306.477 64.3795 316.696 63.7059C317.134 63.6723 317.572 63.6611 318.01 63.6611C328.858 63.6611 337.651 72.4547 337.651 83.3027Z" fill="#8B3E00"/>
<path opacity="0.2" d="M334.645 83.5978C334.645 94.0082 326.548 102.521 316.317 103.195C306.098 102.521 298 94.0082 298 83.5978C298 73.1874 306.098 64.6746 316.317 64.001C326.548 64.6754 334.645 73.1874 334.645 83.5978Z" fill="white"/>
<path opacity="0.4" d="M330.24 88.9206C333.346 81.4227 329.785 72.8265 322.287 69.7206C314.788 66.6146 306.192 70.175 303.086 77.6729C299.98 85.1708 303.541 93.7669 311.04 96.8729C318.538 99.9788 327.134 96.4185 330.24 88.9206Z" fill="white"/>
<path opacity="0.4" d="M319.183 93.7384C325.018 92.3606 328.632 86.5136 327.254 80.6787C325.876 74.8437 320.029 71.2305 314.194 72.6083C308.359 73.9861 304.746 79.8332 306.124 85.6681C307.501 91.503 313.348 95.1162 319.183 93.7384Z" fill="white"/>
<path d="M320.248 83.3017C320.248 85.6417 318.351 87.5385 316.011 87.5385C313.671 87.5385 311.775 85.6417 311.775 83.3017C311.775 80.9617 313.671 79.0649 316.011 79.0649C318.351 79.0649 320.248 80.9625 320.248 83.3017Z" fill="#263238"/>
<path d="M286.55 97.87L290.482 98.5148L296.239 95.1108L296.24 95.1052L293.302 93.8076L286.55 97.87Z" fill="#8B3E00"/>
<path d="M313.726 84.4132L290.334 98.2563L290.634 98.7617L314.025 84.9185L313.726 84.4132Z" fill="#263238"/>
<path d="M289.977 102.028L295.659 98.6536L296.239 95.1104L290.483 98.5143L289.977 102.028Z" fill="#8B3E00"/>
<path opacity="0.2" d="M289.977 102.028L295.659 98.6536L296.239 95.1104L290.483 98.5143L289.977 102.028Z" fill="black"/>
<path d="M315.393 83.0923L311.491 84.0923L315.049 86.0523L316.656 83.4963L315.393 83.0923Z" fill="white"/>
<path d="M317.368 58.2281C316.561 58.2281 315.909 57.5753 315.909 56.7689V50.3249C315.909 49.5185 316.561 48.8657 317.368 48.8657C318.174 48.8657 318.827 49.5185 318.827 50.3249V56.7689C318.827 57.5745 318.174 58.2281 317.368 58.2281Z" fill="#8B3E00"/>
<path d="M317.368 117.74C316.561 117.74 315.909 117.088 315.909 116.281V109.837C315.909 109.031 316.561 108.378 317.368 108.378C318.174 108.378 318.827 109.031 318.827 109.837V116.281C318.827 117.087 318.174 117.74 317.368 117.74Z" fill="#8B3E00"/>
<path d="M290.907 83.8471H284.463C283.657 83.8471 283.004 83.1943 283.004 82.3879C283.004 81.5815 283.657 80.9287 284.463 80.9287H290.907C291.714 80.9287 292.366 81.5815 292.366 82.3879C292.366 83.1943 291.713 83.8471 290.907 83.8471Z" fill="#8B3E00"/>
<path d="M351.111 83.8471H344.667C343.861 83.8471 343.208 83.1943 343.208 82.3879C343.208 81.5815 343.861 80.9287 344.667 80.9287H351.111C351.917 80.9287 352.57 81.5815 352.57 82.3879C352.57 83.1943 351.917 83.8471 351.111 83.8471Z" fill="#8B3E00"/>
</svg>
