<svg width="339" height="320" viewBox="0 0 339 320" fill="none" xmlns="http://www.w3.org/2000/svg">
<path d="M241.507 79.3994L233.717 90.6161L238.043 98.4599L244.165 82.1837L241.507 79.3994Z" fill="#D3DCEA"/>
<path d="M335.033 114.866C328.36 101.818 290.957 100.218 271.539 103.407C267.437 104.075 263.385 111.959 260.911 118.806C256.097 132.132 257.426 153.168 250.377 156.212C246.646 157.819 209.287 155.681 208.998 169.606C208.749 181.087 207.482 189.432 207.001 201.852C206.766 207.984 234.545 224.209 239.243 224.209C262.161 224.209 296.374 216.095 304.019 200.812C311.646 185.539 335.033 114.866 335.033 114.866Z" fill="#7D5B3F"/>
<path d="M338.511 119.644C338.511 106.47 318.926 104.776 303.011 102.23C287.089 99.6844 265.876 104.404 268.715 104.097C277.631 103.144 320.862 105.683 323.762 117.799C327.276 132.511 338.511 119.644 338.511 119.644Z" fill="#8B3E00" fill-opacity="0.5"/>
<path d="M212.218 265.718C210.647 270.124 211.781 274.851 212.399 280.792C213.005 286.725 214.396 291.207 208.422 292.561C202.475 293.908 173.107 293.276 173.107 293.276C173.107 293.276 167.828 286.249 181.2 284.559C191.576 283.258 196.971 274.035 196.671 265.39C196.599 263.165 212.218 265.718 212.218 265.718Z" fill="#FFBCBC" fill-opacity="0.4"/>
<path d="M247.013 167.054C202.944 175.88 179.857 174.739 177.29 193.106C174.924 210.018 171.952 269.142 171.952 269.142L203.053 268.293C203.053 268.293 204.468 220.823 195.083 197.815C192.237 190.849 276.597 181.979 276.597 181.979L247.013 167.054Z" fill="#FFBCBC" fill-opacity="0.4"/>
<path d="M211.047 301.518L206.757 299.398C206.757 299.398 210.274 295.472 210.961 295.638C211.632 295.776 211.047 301.518 211.047 301.518Z" fill="#FFBCBC" fill-opacity="0.4"/>
<path d="M216.362 277.293C216.947 282.551 217.842 292.153 216.232 299.386C215.758 301.561 210.952 301.42 210.952 301.42C210.952 301.42 213.115 295.775 205.672 302.471C197.915 309.451 185.759 306.765 183.892 305.656C182.007 304.522 179.819 302.806 184.271 298.588C188.092 294.966 194.528 291.474 196.03 288.072C197.503 284.674 197.958 273.945 197.958 273.945L216.362 277.293Z" fill="#FFBCBC" fill-opacity="0.4"/>
<path d="M251.999 181.6C246.889 184.76 197.681 182.145 195.406 198.298C192.275 220.584 203.366 246.535 199.751 279.329L219.039 283.182C219.039 283.182 220.223 262.663 221.931 215.181C222.061 211.621 290.265 217.962 294.042 208.76C298.358 198.215 292.45 185.724 292.45 185.724L251.999 181.6Z" fill="#FFBCBC" fill-opacity="0.4"/>
<path d="M249.506 196.912L237.372 183.889C237.372 183.889 231.731 150.485 230.818 128.78C230.171 113.104 237.22 109.348 240.236 103.332C241.392 101.031 244.06 93.8591 245.241 92.1112C249.499 85.8239 254.244 77.1206 254.244 77.1206C262.204 82.4256 273.828 89.8939 278.501 114.155C283.175 138.394 282.069 140.376 284.673 149.701C289.039 165.219 297.36 183.221 300.177 195.987C300.177 195.987 250.492 204.615 249.506 196.912Z" fill="#FFBCBC" fill-opacity="0.4"/>
<path d="M19.7177 185.717C17.811 178.538 17.1718 169.957 17.1718 162.521C17.1718 158.408 17.3668 154.667 17.6882 151.706C18.0999 148.625 18.2407 146.809 19.2952 144.876V144.884L24.4991 148.119V148.192C24.4305 148.387 24.3474 148.701 24.268 149.094C24.1019 149.896 23.9321 151.023 23.7877 152.363C23.4879 155.057 23.3038 158.618 23.3038 162.521C23.2965 169.582 23.9466 177.808 25.6439 184.135C27.3196 190.646 30.1472 194.283 32.5018 194.391L31.6567 200.466C24.7447 199.27 21.6498 192.712 19.7177 185.717Z" fill="#BCC0C9"/>
<path d="M58.9474 282.334C62.0748 282.334 83.0999 286.137 88.0221 287.928C92.9443 289.716 107.704 297.321 106.36 300.005C105.017 302.691 103.222 301.117 101.214 299.781C97.8557 297.542 92.9443 293.519 83.9919 292.623C75.0466 291.728 59.1677 293.519 57.3765 291.727C55.5889 289.94 58.9474 282.334 58.9474 282.334Z" fill="#929BB7"/>
<path d="M89.1366 290.395C93.0765 291.829 102.303 297.365 105.525 300.738C105.734 300.514 105.947 300.239 106.135 299.849C107.475 297.17 92.7082 289.564 87.7968 287.777C82.8818 285.993 65.2116 282.334 62.0734 282.334C62.0734 282.334 64.7602 284.353 58.4946 285.689C66.7103 287.018 85.1244 288.932 89.1366 290.395Z" fill="#B2BCCE"/>
<path d="M62.1744 285.993C62.1744 289.452 59.8956 292.251 57.0824 292.251C54.2764 292.251 51.9977 289.452 51.9977 285.993V207.266C51.9977 203.806 54.2764 201.004 57.0824 201.004C59.892 201.004 62.1744 203.806 62.1744 207.266V285.993Z" fill="#929BB7"/>
<path d="M62.1746 285.881V207.154C62.1746 204.074 60.3581 201.524 57.9783 201.004V292.034C60.3581 291.507 62.1746 288.961 62.1746 285.881Z" fill="#B2BCCE"/>
<path d="M54.7797 282.266C51.6487 282.266 30.6958 286.441 25.7736 288.228C20.8586 290.016 6.09551 297.625 7.43531 300.308C8.77872 302.988 10.5772 301.421 12.5742 300.084C15.9255 297.845 20.8586 293.822 29.8002 292.927C38.7454 292.035 54.6244 293.822 56.4156 292.035C58.2104 290.244 54.7797 282.266 54.7797 282.266Z" fill="#929BB7"/>
<path d="M55.2949 285.993C49.0329 284.65 51.7197 282.638 51.7197 282.638C48.5815 282.638 30.9185 286.293 26.0035 288.081C21.0705 289.865 6.311 297.47 7.65802 300.153C7.84581 300.543 8.05888 300.821 8.26834 301.041C11.4896 297.665 20.7093 292.125 24.6529 290.691C28.6687 289.232 47.0792 287.326 55.2949 285.993Z" fill="#B2BCCE"/>
<path d="M54.4803 286.137C56.8673 287.636 60.8181 287.04 62.1724 285.881C63.3497 290.691 63.5013 299.792 63.5013 300.9C63.5013 302.023 62.0063 313.28 61.1143 314.168C60.2187 315.064 57.7955 315.273 57.2285 313.345C56.4773 310.813 54.845 303.287 54.4008 299.257C54.083 296.368 54.4803 286.137 54.4803 286.137Z" fill="#929BB7"/>
<path d="M58.3135 287.445C59.0972 287.672 61.1737 287.278 62.0657 286.776C62.3943 289.572 63.4236 297.025 63.1997 298.813C62.9721 300.604 61.4698 315.663 60.2528 314.132C59.3572 313.013 59.917 307.162 59.917 300.452C59.9206 298.553 58.3135 287.445 58.3135 287.445Z" fill="#B2BCCE"/>
<path d="M101.218 199.187C99.4301 196.378 24.2388 197.779 17.789 198.837C12.2456 199.74 12.0073 207.121 12.5021 210.736C12.4876 210.83 12.4009 210.92 12.4226 211.011C12.9426 213.582 24.4627 218.504 57.9108 218.504C83.0528 218.504 102.167 215.294 103.421 211.011C103.435 210.967 103.388 210.924 103.381 210.884C105.613 207.674 102.76 201.61 101.218 199.187Z" fill="#8B3E00" fill-opacity="0.5"/>
<path d="M99.5228 200.061C99.5228 203.748 80.8125 206.738 57.7254 206.738C34.6454 206.738 15.928 203.748 15.928 200.061C15.928 196.374 34.6491 193.387 57.7254 193.387C80.8089 193.387 99.5228 196.374 99.5228 200.061Z" fill="#8B3E00"/>
<path d="M54.9173 133.331C43.1264 131.186 7.591 132.157 2.23181 139.654C-3.12017 147.155 2.69045 152.825 6.98069 152.825C11.2637 152.825 15.8212 150.672 15.8212 150.672C15.8212 150.672 17.0418 147.747 19.5336 145.45C22.9644 142.291 47.1638 140.366 53.9964 141.763C60.8182 143.175 54.9173 133.331 54.9173 133.331Z" fill="#FFBCBC" fill-opacity="0.25"/>
<path d="M273.637 277.542C270.502 277.542 249.484 281.341 244.551 283.132C239.64 284.923 224.88 292.525 226.22 295.215C227.556 297.898 229.358 296.324 231.359 294.988C234.721 292.749 239.64 288.722 248.585 287.83C257.534 286.938 273.413 288.722 275.204 286.938C276.988 285.154 273.637 277.542 273.637 277.542Z" fill="#929BB7"/>
<path d="M274.088 280.896C267.822 279.557 270.502 277.542 270.502 277.542C267.371 277.542 249.701 281.193 244.786 282.984C239.864 284.771 225.1 292.38 226.44 295.06C226.635 295.446 226.848 295.724 227.051 295.945C230.272 292.568 239.492 287.036 243.442 285.602C247.447 284.139 265.858 282.233 274.088 280.896Z" fill="#B2BCCE"/>
<path d="M270.397 281.2C270.397 284.659 272.676 287.458 275.489 287.458C278.302 287.458 280.574 284.659 280.574 281.2V202.473C280.574 199.013 278.302 196.211 275.489 196.211C272.676 196.211 270.397 199.013 270.397 202.473V281.2Z" fill="#929BB7"/>
<path d="M270.397 281.088V202.361C270.397 199.277 272.207 196.731 274.59 196.211V287.238C272.21 286.711 270.397 284.168 270.397 281.088Z" fill="#B2BCCE"/>
<path d="M277.801 277.469C280.932 277.469 301.874 281.644 306.807 283.435C311.722 285.223 326.478 292.835 325.145 295.511C323.798 298.198 322 296.624 319.999 295.284C316.637 293.052 311.722 289.033 302.777 288.137C293.831 287.238 277.949 289.029 276.165 287.238C274.37 285.45 277.801 277.469 277.801 277.469Z" fill="#929BB7"/>
<path d="M307.923 285.902C311.867 287.335 321.09 292.879 324.312 296.252C324.521 296.024 324.727 295.75 324.922 295.363C326.269 292.676 311.506 285.071 306.576 283.287C301.661 281.499 283.991 277.845 280.86 277.845C280.86 277.845 283.54 279.856 277.274 281.2C285.497 282.532 303.911 284.435 307.923 285.902Z" fill="#B2BCCE"/>
<path d="M278.099 281.344C275.708 282.843 271.761 282.244 270.4 281.088C269.23 285.902 269.078 294.999 269.078 296.111C269.078 297.23 270.566 308.487 271.465 309.375C272.361 310.271 274.777 310.484 275.344 308.556C276.091 306.02 277.734 298.494 278.175 294.468C278.5 291.575 278.099 281.344 278.099 281.344Z" fill="#929BB7"/>
<path d="M274.26 282.652C273.476 282.879 271.407 282.486 270.508 281.98C270.179 284.775 269.146 292.229 269.381 294.024C269.601 295.808 271.104 310.87 272.317 309.339C273.22 308.22 272.653 302.366 272.653 295.656C272.653 293.756 274.26 282.652 274.26 282.652Z" fill="#B2BCCE"/>
<path d="M153.662 144.678C153.806 145.465 154.395 146.014 154.965 145.898C155.55 145.797 155.89 145.068 155.738 144.28L137.479 34.0268C137.324 33.2359 136.735 32.687 136.172 32.7954C135.59 32.9037 135.251 33.626 135.395 34.4205L153.662 144.678Z" fill="#CBCFD8"/>
<path d="M157.908 143.508C158.06 144.32 158.652 144.891 159.234 144.782C159.804 144.674 160.14 143.93 159.992 143.111L141.13 29.6971C140.971 28.8809 140.379 28.3103 139.808 28.4222C139.227 28.527 138.891 29.2709 139.046 30.0871L157.908 143.508Z" fill="#CBCFD8"/>
<path d="M126.631 33.3118C126.201 33.5574 126.049 34.1172 126.295 34.5758C126.544 35.02 127.1 35.1861 127.537 34.9478L181.227 5.08939C181.667 4.84743 181.823 4.28406 181.574 3.83626C181.328 3.38846 180.768 3.21874 180.328 3.4643L126.631 33.3118Z" fill="#CBCFD8"/>
<path d="M128.99 35.5472C128.571 35.7747 128.376 36.2334 128.556 36.562C128.737 36.8907 129.232 36.9593 129.643 36.7317L181.531 7.88451C181.95 7.64616 182.152 7.19473 181.971 6.86249C181.791 6.53386 181.296 6.45445 180.873 6.69641L128.99 35.5472Z" fill="#CBCFD8"/>
<path d="M176.64 11.1961C175.914 14.3777 178.565 17.5592 182.61 18.0648C186.643 18.5632 190.053 16.14 190.193 12.8862L190.536 5.02795C190.645 2.61559 188.171 0.463242 185.022 0.0623858C181.873 -0.327637 178.919 1.14579 178.381 3.5112L176.64 11.1961Z" fill="#CBCFD8"/>
<path d="M179.178 10.1237C179.106 10.4776 179.304 10.7919 179.608 10.8316C179.918 10.8677 180.24 10.6185 180.305 10.2646L181.525 3.91952C181.572 3.64145 181.392 3.38503 181.117 3.35614C180.843 3.31641 180.572 3.51504 180.514 3.79311L179.178 10.1237Z" fill="#ABAFBB"/>
<path d="M181.175 10.2175C181.11 10.5714 181.316 10.8784 181.634 10.9217C181.941 10.9615 182.241 10.7014 182.295 10.3584L183.299 4.01332C183.349 3.73524 183.151 3.48607 182.884 3.45357C182.609 3.42468 182.338 3.61606 182.302 3.88691L181.175 10.2175Z" fill="#ABAFBB"/>
<path d="M183.158 10.3043C183.108 10.651 183.328 10.9688 183.628 11.0049C183.946 11.041 184.231 10.7883 184.274 10.4416L185.065 4.10006C185.101 3.82921 184.906 3.58006 184.628 3.54394C184.361 3.51505 184.108 3.70285 184.072 3.98092L183.158 10.3043Z" fill="#ABAFBB"/>
<path d="M165.189 24.7494C165.023 26.0784 164.828 27.4327 165.221 28.6533C166.294 32.0335 196.011 36.6018 197.091 32.5499C197.405 31.3654 197.68 30.0834 197.846 28.8302C198.911 20.2823 192.465 12.4312 183.447 11.3081C174.423 10.185 166.25 16.2051 165.189 24.7494Z" fill="#CBCFD8"/>
<path d="M172.316 24.1461C172.197 25.0923 172.056 26.0565 172.33 26.9304C173.096 29.3428 194.287 32.6002 195.046 29.7111C195.266 28.8697 195.468 27.9524 195.587 27.0568C196.349 20.9573 191.749 15.3706 185.328 14.5653C178.896 13.76 173.074 18.0574 172.316 24.1461Z" fill="#D3DCEA"/>
<path d="M165.074 27.9636C164.799 29.8812 171.74 32.4597 180.581 33.7309C189.418 34.9948 196.81 34.4748 197.084 32.5536C197.352 30.636 190.422 28.0503 181.57 26.7863C172.737 25.5115 165.348 26.046 165.074 27.9636Z" fill="#ABAFBB"/>
<path d="M181.566 26.8763C183.516 27.1543 185.347 27.501 187.048 27.8766C186.286 29.5811 183.956 30.6393 181.363 30.3106C178.662 29.9784 176.622 28.263 176.427 26.3237C178.055 26.4393 179.774 26.6199 181.566 26.8763Z" fill="white"/>
<path d="M141.784 32.5356C141.784 29.9716 139.7 27.8843 137.136 27.8843C134.572 27.8843 132.492 29.9716 132.492 32.5356C132.492 35.1033 134.576 37.187 137.136 37.187C139.7 37.187 141.784 35.1033 141.784 32.5356Z" fill="#CBCFD8"/>
<path d="M139.877 32.5357C139.877 31.0226 138.649 29.7983 137.136 29.7983C135.627 29.7983 134.402 31.0226 134.402 32.5357C134.402 34.0488 135.627 35.2767 137.136 35.2767C138.649 35.2767 139.877 34.0488 139.877 32.5357Z" fill="#686767"/>
<path d="M160.801 132.396C159.822 132.219 156.204 132.565 156.204 132.565C156.204 132.565 158.898 132.053 160.833 132.168C162.455 132.266 164.907 133.186 165.503 132.659C166.543 131.731 162.321 130.586 161.523 130.287C161.003 130.088 157.254 129.85 156.529 130.037C155.373 130.33 152.683 131.475 148.909 133.176C148.197 133.497 146.933 134.353 145.344 134.992C138.671 134.288 129.288 132.435 122.73 132.435C121.152 131.803 109.444 124.696 103.031 117.633C97.2091 111.233 94.4464 104.415 90.4667 103.274C90.4667 103.274 79.3439 106.401 81.1459 112.385C82.9407 118.366 109.361 138.087 114.045 141.998C118.321 145.562 138.396 142.529 146.504 141.131C147.446 141.29 148.573 141.388 149.887 141.157C152.726 140.658 155.911 139.467 157.132 139.214C159.36 138.777 163.072 137.426 162.011 137.293C159.591 136.971 156.929 137.733 156.929 137.733C156.929 137.733 157.728 137.195 159.345 137.054C160.996 136.906 163.943 137.018 164.192 136.538C164.697 135.527 161.115 135.274 160.089 135.028C159.472 134.877 156.825 135.353 156.825 135.353L161.014 134.44C161.014 134.44 165.282 135.631 165.925 135.028C167.001 134.028 162.029 132.616 160.801 132.396Z" fill="#CC9483"/>
<path d="M135.417 223.686C133.384 227.395 140.079 272.789 140.859 276.249C143.445 287.678 153.134 296.096 161.863 300.336C156.919 304.077 150.466 303.89 139.805 296.526C135.457 293.536 130.152 291.824 128.837 288.816C125.869 281.994 129.585 285.801 128.631 275.266C127.703 264.718 112.496 237.665 118.44 220.609C122.077 210.176 137.44 219.952 135.417 223.686Z" fill="#CC9483"/>
<path d="M128.401 281.824C126.534 283.731 125.696 288.52 127.451 292.503C129.213 296.468 132.879 298.249 133.984 308.313C136.255 308.555 136.255 308.064 136.255 308.064C136.255 308.064 134.143 295.768 136.328 296.331C138.494 296.898 142.185 302.134 146.414 305.778C150.636 309.433 164.023 306.479 164.698 305.168C165.384 303.814 165.731 299.769 162.282 298.938C158.812 298.129 157.934 297.176 157.934 297.176C157.934 297.176 152.969 301.203 147.458 297.559C140.611 293.012 128.401 281.824 128.401 281.824Z" fill="#26282D"/>
<path d="M127.487 173.084C129.556 182.463 136.916 199.06 134.529 203.347C132.117 207.597 128.733 274.725 129.589 278.704C132.391 291.958 143.464 301.846 153.478 306.876C147.714 311.116 140.257 310.784 128.076 302.127C123.103 298.603 116.989 296.533 115.512 293.056C112.197 285.136 116.426 289.578 115.498 277.39C114.588 265.212 102.526 230.576 109.654 210.97C114.017 198.992 110.243 182.773 111.305 178.617C112.334 174.453 127.487 173.084 127.487 173.084Z" fill="#CC9483"/>
<path d="M115.113 284.966C112.935 287.148 111.885 292.666 113.849 297.263C115.825 301.889 120.028 304.002 121.166 315.644C123.759 315.969 123.78 315.388 123.78 315.388C123.78 315.388 121.53 301.141 124.047 301.849C126.547 302.539 130.7 308.624 135.531 312.914C140.378 317.204 155.874 314.016 156.665 312.492C157.47 310.932 157.943 306.277 153.967 305.273C149.98 304.269 148.98 303.182 148.98 303.182C148.98 303.182 143.18 307.728 136.886 303.431C129.053 298.072 115.113 284.966 115.113 284.966Z" fill="#FFBCBC" fill-opacity="0.4"/>
<path d="M98.1487 125.119C98.2643 120.994 93.519 101.963 95.1802 98.3298C96.6355 93.3064 107.173 85.2098 112.688 83.8086C112.688 83.8086 92.6884 59.4214 90.6444 67.4494C89.0554 73.6933 79.3626 86.6182 74.9496 89.3881C65.3435 95.419 58.3411 113.284 62.6314 122.258C65.5421 128.354 92.5728 127.664 93.0423 127.538C94.494 127.17 97.9176 133.836 98.1487 125.119Z" fill="#CC9483"/>
<path d="M50.0359 171.615C53.6256 174.605 70.2774 167.332 77.8576 165.934C89.2188 163.84 121.201 161.832 127.82 165.035C134.469 168.256 137.441 177.862 144.562 204.525C150.597 227.07 149.354 234.441 149.354 234.441L114.05 243.415C114.05 243.415 124.147 186.836 94.3107 186.28C81.7794 186.038 50.0359 171.615 50.0359 171.615Z" fill="#5A2570"/>
<path d="M56.39 202.568C76.328 205.327 86.6059 199.765 94.9299 207.021C99.1444 217.197 98.8374 253.545 98.8374 253.545L133.221 242.318C132.289 225.572 120.805 178.65 115.684 174.699C102.933 164.84 69.6254 184.901 62.7567 167.924C59.2826 159.311 47.7228 155 47.7228 155C37.8747 173.237 31.4574 199.115 56.39 202.568Z" fill="#282626" fill-opacity="0.7"/>
<path d="M83.9125 96.8819C86.881 99.9877 97.1985 119.048 97.1985 119.048C99.3761 124.685 100.788 127.235 101.052 131.359C101.409 137.152 100.015 146.108 97.213 148.986C94.88 151.391 91.471 157.444 90.5645 161.023C89.6581 164.612 96.0646 171.091 96.0646 171.091C96.0646 171.091 70.9587 186.674 47.5032 173.864C44.8958 172.438 53.8555 139.77 56.5495 125.227C59.2363 110.695 79.4706 92.2486 83.9125 96.8819Z" fill="#E84F94"/>
<path d="M54.737 121.453C44.322 163.113 36.6335 172.402 39.1433 174.027C39.1433 174.027 72.4938 182.575 74.9929 177.244C93.4395 138.076 78.1853 112.652 79.9259 105.773C81.1971 100.71 81.3668 100.995 84.4004 97.463C81.7063 93.0572 80.2654 91.0277 77.2427 87.6187C66.8782 96.8058 58.9153 104.736 54.737 121.453Z" fill="#FF725E"/>
<path d="M79.6332 83.9463C79.9221 86.8787 98.5673 119.189 100.156 126.437C95.7 121.486 88.0151 108.42 86.7114 107.676C85.4041 106.94 86.5958 101.385 86.5958 101.385C86.5958 101.385 77.5928 88.5543 76.0472 88.251C74.4798 87.944 79.6332 83.9463 79.6332 83.9463Z" fill="#E84F94"/>
<path d="M206.424 308.639C206.424 314.912 200.325 320 192.788 320H120.815C113.285 320 107.171 314.912 107.171 308.639V164.731C107.171 158.451 113.285 153.37 120.815 153.37H192.788C200.325 153.37 206.424 158.448 206.424 164.731V308.639Z" fill="#8B3E00"/>
<path opacity="0.4" d="M134.891 298.978C129.16 298.949 124.776 293.93 124.769 288V172.203C124.776 166.266 129.16 161.257 134.891 161.225H178.7C184.442 161.25 188.823 166.273 188.834 172.203V288C188.826 293.93 184.442 298.949 178.7 298.978H134.891ZM128.438 172.199V287.996C128.449 292.16 131.479 295.291 134.891 295.298H178.7C182.124 295.291 185.146 292.16 185.161 287.996V172.199C185.146 168.028 182.12 164.897 178.7 164.894H134.891C131.479 164.901 128.452 168.036 128.438 172.199Z" fill="white"/>
<path d="M235.064 162.095C237.563 164.428 237.401 166.45 234.534 166.45L72.3276 166.23C69.4746 166.23 70.0019 164.2 73.299 161.86L97.9426 141.727C99.528 140.619 102.222 139.755 104.042 139.755H205.672C207.488 139.755 209.883 140.619 211.067 141.727L235.064 162.095Z" fill="#8B3E00" fill-opacity="0.7"/>
<path d="M237.225 167.657C237.225 169.098 235.484 170.268 233.332 170.268H74.5677C72.4189 170.268 70.6747 169.101 70.6747 167.657V165.692C70.6747 164.255 72.4189 163.088 74.5677 163.088H233.336C235.488 163.088 237.229 164.255 237.229 165.692L237.225 167.657Z" fill="#455A64"/>
<path d="M185.142 134.83C183.972 134.7 185.221 134.866 182.058 134.985C176.503 135.184 169.317 134.729 167.793 135.082C165.825 135.747 165.059 136.27 164.214 136.642C162.582 137.368 160.592 138.889 161.152 139.365C161.556 139.719 163.062 138.686 164.496 138.213L167.5 137.556C164.492 138.611 161.141 140.308 161.462 141.005C161.906 141.919 165.149 139.849 168.215 139.506C168.316 139.564 168.396 139.596 168.497 139.661C165.716 140.275 163.134 141.763 163.452 142.146C164.275 143.121 168.186 141.933 170.342 141.139C170.458 141.189 170.555 141.247 170.675 141.283C169.035 142.316 165.677 143.305 166.074 143.616C166.547 144.006 169.927 143.331 172.271 142.63C174.315 143.248 179.667 143.121 181.014 142.478C183.293 141.384 187.619 141.937 187.619 141.937L185.142 134.83Z" fill="#CC9483"/>
<path d="M189.443 149.054C189.443 151.933 187.11 154.258 184.235 154.258H160.27C157.396 154.258 155.059 151.929 155.059 149.054C155.059 146.18 157.396 143.854 160.27 143.854H184.235C187.11 143.854 189.443 146.18 189.443 149.054Z" fill="white"/>
<path d="M26.6442 134.389C14.001 135.97 18.5982 142.037 23.6613 143.522C29.6308 145.273 46.2031 147.584 50.2623 148.263C53.4186 148.791 57.9508 156.497 49.4786 161.78C42.7182 165.995 8.91267 163.185 3.64015 156.342C-1.62154 149.488 -0.78733 140.535 3.64015 138.253C9.43992 135.266 26.6442 134.389 26.6442 134.389Z" fill="#8B3E00" fill-opacity="0.5"/>
<path d="M45.2608 134.916C38.9337 134.916 17.6956 135.79 17.8617 139.308C18.0495 143.099 24.0118 146.155 45.3474 148.614C55.8672 149.824 52.2812 151.42 47.3626 151.951C43.029 152.413 6.40298 150.268 5.30514 142.027C4.34092 134.743 36.4455 132.966 44.0221 133.508C48.9479 133.862 45.2608 134.916 45.2608 134.916Z" fill="#8B3E00"/>
<path d="M93.2389 59.6093C98.7462 47.3597 108.811 46.5833 118.54 50.9674C128.283 55.348 130.566 65.0805 125.065 77.312C124.015 79.6558 121.743 79.8905 120.45 81.8587C120.179 83.101 119.739 86.6436 119.652 88.4457C119.237 89.4677 116.843 89.8613 115.351 89.4352C110.45 94.3791 106.182 98.6874 100.516 93.7074C92.4806 86.6726 87.7353 71.8481 93.2389 59.6093Z" fill="#CC9483"/>
<path d="M120.165 72.9026L127.561 70.3313C134.314 66.3119 125.86 47.9484 110.645 45.6588C96.4924 43.5209 91.9566 49.7143 88.432 57.3306C84.9218 64.9324 83.9503 78.2979 83.9503 78.2979C83.9503 78.2979 83.8167 80.0096 89.6779 81.418C94.2823 82.5195 103.011 80.5044 102.549 79.0599C101.902 77.0447 104.9 71.4761 107.688 72.2056C109.056 72.5451 109.692 75.2825 109.692 75.2825L120.165 72.9026Z" fill="#FFBCBC" fill-opacity="0.4"/>
<path d="M92.8399 49.7542C91.5543 47.5044 88.9831 43.0083 82.2299 46.5402C75.4767 50.0756 66.7987 57.468 64.5489 77.7275C62.299 97.9797 54.2638 101.201 52.0104 100.555C57.7957 104.412 64.8703 103.126 70.9806 94.4442C77.091 85.7663 80.6265 83.5164 84.4834 64.2247C85.9965 56.641 89.6223 54.8967 90.9115 54.8967C92.1971 54.8967 92.8399 49.7542 92.8399 49.7542Z" fill="#FFBCBC" fill-opacity="0.4"/>
<path d="M247.245 88.9116C246.06 92.1004 237.581 90.3129 234.952 96.0549C231.745 103.072 224.331 122.659 219.759 125.473C216.856 127.257 178.153 134.786 178.153 134.786C178.153 134.786 179.757 146.281 182.624 149.589C186.022 148.249 225.443 144.403 228.683 143.32C238.303 140.113 254.731 122.576 254.731 122.576L247.245 88.9116Z" fill="#FFBCBC" fill-opacity="0.4"/>
<path d="M241.082 173.809C282.782 173.809 289.149 175.076 301.561 168.074C314.865 160.566 317.494 121.459 326.353 114.71C334.431 108.545 338.808 121.033 338.808 121.033C338.808 121.033 324.067 204.971 315.808 220.066C309.903 230.857 244.777 226.036 237.139 226.036C229.501 226.036 227.121 173.809 241.082 173.809Z" fill="#8B3E00" fill-opacity="0.5"/>
<path d="M199.85 138.604C197.597 138.604 188.157 137.636 185.149 137.354C181.667 136.101 178.128 133.808 175.333 133.829C170.992 133.447 170.985 132.999 169.909 133.013C167.605 133.039 163.831 132.616 164.369 134.021C164.604 134.599 167.316 134.433 169.587 134.783L172.339 135.967C170.461 137.13 164.402 140.9 164.47 141.807C164.607 143.616 167.988 140.528 171.48 139.842C171.599 139.925 171.678 139.987 171.787 140.088C169.248 140.77 166.355 143.417 166.727 143.88C167.103 144.346 171.559 142.345 174.217 141.973C174.336 142.063 174.448 142.15 174.564 142.219C172.419 142.984 168.634 144.443 169.017 144.891C169.457 145.454 173.195 144.374 176.037 144.161C178.204 145.386 181.537 145.357 183.22 144.967C183.762 144.84 184.614 145.068 185.008 144.891C185.109 144.956 201.681 148.434 202.208 147.78C202.728 147.126 202.338 138.604 199.85 138.604Z" fill="#E0AC9B"/>
<path d="M240.983 57.6445C242.009 61.8264 248.105 72.9962 252.637 77.7307C257.155 82.4723 241.626 94.9531 241.626 94.9531C241.626 94.9531 235.512 87.1093 231.489 84.278C227.455 81.4287 240.983 57.6445 240.983 57.6445Z" fill="#CC9483"/>
<path d="M214.015 66.0302C219.681 78.4495 223.827 89.5146 229.973 88.2398C236.116 86.9723 246.798 74.4518 244.274 62.2925C241.76 50.1477 234.74 39.2234 223.588 43.3981C211.425 47.9303 208.005 52.8597 214.015 66.0302Z" fill="#E0AC9B"/>
<path d="M203.773 45.2651C202.346 51.0216 208.659 59.1868 211.519 59.0026C214.357 58.8256 216.661 56.3483 218.875 57.6339C220.952 58.8401 224.065 58.6343 225.596 59.4324C227.131 60.216 223.718 54.9254 223.718 54.9254L226.744 58.9557L225.653 54.7051L226.899 56.7672L230.186 59.1146L231.229 62.5923L234.877 64.6724L235.003 60.9888L243.103 71.4436L251.391 73.7476C251.391 73.7476 252.056 67.4856 252.143 63.459C252.265 58.6668 250.247 50.4871 249.365 47.4464C248.394 44.1565 242.847 39.3896 240.525 39.0754C238.21 38.7756 237.17 38.66 236.141 39.3895C235.086 40.1298 234.418 38.6854 232.147 37.8223C229.001 36.6269 226.979 37.5117 224.007 38.4506C219.507 39.8699 215.679 43.5209 212.266 45.9622C210.006 47.5836 203.773 45.2651 203.773 45.2651Z" fill="#210500"/>
<path d="M233.378 61.5918C233.931 59.0531 236.849 58.2911 238.08 59.9342C239.304 61.6099 240.305 68.54 237.098 70.2012C233.887 71.8479 233.378 61.5918 233.378 61.5918Z" fill="#E0AC9B"/>
<path d="M223.678 76.2105C225.087 76.0444 227.763 76.9726 228.543 77.4998C229.308 78.0343 233.822 80.1686 234.205 82.3029C234.577 84.448 233.165 88.4023 230.067 89.4099C229.037 89.7385 225.043 90.1069 223.667 87.6476C223.072 86.5606 220.656 82.4076 221.905 82.1079C223.133 81.8153 224.661 81.5734 225.054 81.187C226.148 80.1469 225.412 79.4282 224.852 79.4896C224.289 79.5546 224.462 80.035 224.047 80.0819C223.617 80.1397 220.746 82.2667 220.294 81.8442C218.312 79.9988 218.77 78.4207 218.77 78.4207L223.678 76.2105Z" fill="#210500"/>
<path d="M215.018 67.1172C215.018 70.0135 215.022 75.4774 215.343 76.763C215.665 78.0486 217.911 76.7666 219.038 76.4416C220.164 76.1202 215.018 67.1172 215.018 67.1172Z" fill="#E0AC9B"/>
<path d="M200.948 136.566L188.168 136.805C188.168 136.805 189.132 147.895 192.267 150.791C195.401 153.684 200.706 150.791 200.706 150.791L200.948 136.566Z" fill="#D3DCEA"/>
<path d="M262.199 92.9164C258.905 91.6019 251.99 92.1942 249.418 97.3403C246.847 102.483 229.242 127.646 227.956 129.575L192.266 135.118C192.266 135.118 193.147 149.426 197.65 152.962C215.977 152.319 230.769 149.585 235.912 148.625C241.054 147.657 265.174 122.421 268.389 113.418C271.603 104.411 268.627 95.4913 262.199 92.9164Z" fill="#282626" fill-opacity="0.7"/>
<path d="M254.956 75.8314L249.745 73.0615L237.567 90.999L240.261 99.5903L254.956 75.8314Z" fill="white"/>
<path d="M259.603 79.5038L252.312 73.0215C246.118 90.0308 244.269 87.6762 240.539 95.7439C234.331 112.768 230.572 134.049 230.128 136.566C231.493 134.728 243.952 100.233 243.952 100.233L243.793 95.8161L250.141 92.9162L259.603 79.5038Z" fill="#282626"/>
<path d="M167.96 126.014C168.285 126.437 168.206 127.043 167.783 127.368L147.52 142.955C147.101 143.28 146.491 143.197 146.169 142.774C145.844 142.355 145.924 141.748 146.346 141.423L166.609 125.837C167.025 125.516 167.635 125.595 167.96 126.014Z" fill="#FF725E"/>
<path d="M90.7453 159.351L139.18 158.188L146.724 141.641L110.023 142.966L90.7453 159.351Z" fill="white"/>
<path d="M128.067 155.186C128.067 155.497 127.814 155.746 127.508 155.746H113.691C113.38 155.746 113.127 155.497 113.127 155.186C113.127 154.876 113.38 154.63 113.691 154.63H127.504C127.814 154.63 128.067 154.876 128.067 155.186Z" fill="#ABAFBB"/>
<path d="M127.458 154.981C127.458 155.103 127.224 155.208 126.946 155.208H114.375C114.093 155.208 113.862 155.107 113.862 154.981C113.862 154.861 114.093 154.757 114.375 154.757H126.946C127.224 154.757 127.458 154.861 127.458 154.981Z" fill="#D3DCEA"/>
<path d="M127.386 155.414V154.952C127.386 154.952 130.651 154.952 130.882 154.959V155.414C130.644 155.414 127.386 155.414 127.386 155.414Z" fill="#ABAFBB"/>
<path d="M131.889 152.529C131.889 152.843 131.636 153.096 131.326 153.096H117.512C117.202 153.096 116.945 152.843 116.945 152.529C116.945 152.225 117.198 151.973 117.512 151.973H131.326C131.636 151.973 131.889 152.225 131.889 152.529Z" fill="#ABAFBB"/>
<path d="M131.279 152.323C131.279 152.449 131.052 152.554 130.77 152.554H118.199C117.914 152.554 117.686 152.453 117.686 152.323C117.686 152.2 117.917 152.103 118.199 152.103H130.77C131.048 152.103 131.279 152.2 131.279 152.323Z" fill="#D3DCEA"/>
<path d="M131.214 152.291C131.214 152.291 134.977 152.291 134.984 152.291C135.045 152.291 135.103 152.319 135.143 152.366C135.186 152.406 135.208 152.464 135.208 152.525C135.208 152.587 135.186 152.644 135.143 152.688C135.107 152.735 135.045 152.756 134.984 152.756C134.98 152.756 134.879 152.756 134.706 152.756C134.355 152.756 133.727 152.756 133.091 152.756C132.153 152.756 131.21 152.756 131.21 152.764L131.214 152.291Z" fill="#ABAFBB"/>
<path d="M137.88 152.167L137.429 152.814H135.23C135.23 152.814 134.45 152.167 135.23 152.167C136.002 152.167 137.88 152.167 137.88 152.167Z" fill="#ABAFBB"/>
<path d="M156.11 134.418C155.117 134.335 151.542 135.014 151.542 135.014C151.542 135.014 154.174 134.255 156.117 134.183C157.739 134.133 160.27 134.826 160.808 134.23C161.758 133.215 157.45 132.471 156.627 132.247C156.088 132.099 152.336 132.215 151.629 132.468C150.509 132.869 146.147 134.403 142.539 136.455C141.473 137.065 139.206 137.596 136.064 137.975C127.306 137.177 108.982 135.339 106.039 134.598C102.453 133.703 86.9353 104.303 78.6474 102.96C78.6474 102.96 62.8551 101.613 66.8961 118.669C69.2832 128.744 98.7949 149.856 102.832 151.2C106.7 152.489 138.574 144.959 141.3 144.302C142.449 144.465 144.099 144.71 146.063 144.172C148.837 143.41 151.896 141.915 153.087 141.547C155.272 140.9 158.837 139.214 157.768 139.174C155.337 139.084 152.759 140.095 152.759 140.095C152.759 140.095 153.503 139.492 155.103 139.188C156.724 138.889 159.678 138.726 159.866 138.224C160.281 137.17 156.695 137.249 155.644 137.108C155.02 137.018 152.427 137.737 152.427 137.737L156.507 136.433C156.507 136.433 160.877 137.213 161.459 136.556C162.434 135.454 157.352 134.526 156.11 134.418Z" fill="#E0AC9B"/>
<path d="M78.2066 101.36C81.9588 102.721 92.9155 115.588 98.2205 123.786C94.602 131.258 82.0635 138.253 79.8931 137.773C77.7227 137.289 63.7072 118.434 64.22 112.815C64.7039 107.506 70.2509 98.4634 78.2066 101.36Z" fill="#FFBCBC" fill-opacity="0.25"/>
</svg>
