<svg width="18" height="19" viewBox="0 0 18 19" fill="none" xmlns="http://www.w3.org/2000/svg">
<path d="M14.4879 12.3846C14.0479 11.9443 13.5338 11.5849 12.9691 11.3229C13.7654 10.6778 14.2734 9.69343 14.2734 8.58952C14.2734 6.64187 12.6492 5.04402 10.7015 5.0739C8.78377 5.10378 7.23865 6.66648 7.23865 8.58952C7.23865 9.69343 7.74842 10.6778 8.54295 11.3229C7.97818 11.5847 7.46404 11.9441 7.0242 12.3846C6.06444 13.3462 5.51951 14.6153 5.48436 15.9688C5.48389 15.9876 5.48718 16.0062 5.49404 16.0237C5.50089 16.0412 5.51118 16.0571 5.52428 16.0705C5.53739 16.084 5.55305 16.0946 5.57034 16.1019C5.58764 16.1092 5.60622 16.113 5.62498 16.113H6.60936C6.68494 16.113 6.74823 16.0532 6.74998 15.9776C6.78338 14.9581 7.19647 14.0036 7.92244 13.2794C8.29394 12.9059 8.73582 12.6098 9.22251 12.4083C9.70919 12.2067 10.231 12.1037 10.7578 12.1051C11.8283 12.1051 12.8355 12.5217 13.5931 13.2794C14.3174 14.0036 14.7305 14.9581 14.7656 15.9776C14.7674 16.0532 14.8306 16.113 14.9062 16.113H15.8906C15.9094 16.113 15.928 16.1092 15.9452 16.1019C15.9625 16.0946 15.9782 16.084 15.9913 16.0705C16.0044 16.0571 16.0147 16.0412 16.0216 16.0237C16.0284 16.0062 16.0317 15.9876 16.0312 15.9688C15.9961 14.6153 15.4512 13.3462 14.4879 12.3846ZM10.7578 10.8395C10.1566 10.8395 9.59061 10.6057 9.16698 10.1803C8.95437 9.96942 8.78644 9.71783 8.67318 9.44058C8.55993 9.16334 8.50368 8.86613 8.5078 8.56667C8.51307 7.99011 8.74334 7.43288 9.14588 7.0198C9.56776 6.58738 10.132 6.34656 10.7349 6.33952C11.3308 6.33425 11.9092 6.56628 12.3346 6.98288C12.7705 7.41003 13.0096 7.98132 13.0096 8.58952C13.0096 9.1907 12.7758 9.75495 12.3504 10.1803C12.1417 10.39 11.8935 10.5563 11.6201 10.6694C11.3467 10.7826 11.0536 10.8404 10.7578 10.8395ZM6.35448 9.05359C6.33865 8.90066 6.32987 8.74597 6.32987 8.58952C6.32987 8.31003 6.35623 8.03757 6.40545 7.77214C6.41776 7.70886 6.38436 7.64382 6.32635 7.61745C6.08729 7.51023 5.86756 7.36257 5.67772 7.17624C5.45402 6.95934 5.27799 6.69819 5.16086 6.40945C5.04373 6.12072 4.98807 5.81074 4.99744 5.49929C5.01326 4.93503 5.24002 4.3989 5.63553 3.9946C6.06971 3.54988 6.6533 3.3073 7.27381 3.31433C7.83455 3.3196 8.37596 3.53581 8.78553 3.91902C8.9244 4.04909 9.04393 4.19323 9.14412 4.34792C9.17928 4.40241 9.24783 4.42527 9.3076 4.40417C9.61698 4.29695 9.94393 4.22136 10.2797 4.1862C10.3781 4.17566 10.4344 4.07019 10.3904 3.9823C9.81912 2.85202 8.65194 2.07156 7.30194 2.05046C5.35252 2.02058 3.7283 3.61843 3.7283 5.56433C3.7283 6.66823 4.23631 7.65261 5.0326 8.29773C4.47362 8.55613 3.95858 8.91296 3.51209 9.35945C2.54881 10.321 2.00389 11.5901 1.96873 12.9454C1.96826 12.9641 1.97155 12.9828 1.97841 13.0003C1.98527 13.0177 1.99555 13.0337 2.00866 13.0471C2.02176 13.0605 2.03742 13.0712 2.05472 13.0785C2.07201 13.0858 2.09059 13.0895 2.10936 13.0895H3.09549C3.17108 13.0895 3.23436 13.0298 3.23612 12.9542C3.26951 11.9346 3.6826 10.9801 4.40858 10.2559C4.92537 9.73913 5.55819 9.38054 6.24901 9.20652C6.31756 9.18894 6.36326 9.1239 6.35448 9.05359Z" fill="black"/>
</svg>
