<svg width="28" height="28" viewBox="0 0 28 28" fill="none" xmlns="http://www.w3.org/2000/svg">
<g clip-path="url(#clip0_3835_7337)">
<path d="M15.5945 0.0745621C14.5972 0.303894 13.7865 1.09856 13.5252 2.11189C13.4825 2.28256 13.0559 4.30923 12.5865 6.61322L11.7225 10.7999L6.05853 16.4799C0.741189 21.8079 0.383856 22.1812 0.245189 22.4905C-0.0534777 23.1839 -0.0481443 23.9039 0.271856 24.5865C0.410523 24.8799 0.58119 25.0772 1.40252 25.9039C2.23452 26.7359 2.42652 26.8959 2.73052 27.0399C3.44519 27.3759 4.20253 27.3705 4.90653 27.0292C5.22119 26.8745 5.73853 26.3785 10.7999 21.3279L16.3465 15.8025L20.6932 14.8319C23.0825 14.2932 25.1625 13.8239 25.3065 13.7759C26.0585 13.5412 26.6505 13.0346 26.9865 12.3519C27.2852 11.7439 27.3439 11.2799 27.2639 10.1866C27.1465 8.67189 26.8212 7.46122 26.1865 6.15989C24.6079 2.93323 21.6212 0.714561 18.0799 0.133228C17.3492 0.010561 15.9999 -0.0161057 15.5945 0.0745621ZM17.3225 1.12523C20.7892 1.49856 23.6585 3.49323 25.2265 6.61322C26.0745 8.30389 26.4959 11.0292 26.0425 11.9092C25.9092 12.1706 25.5892 12.4852 25.3172 12.6239C25.1305 12.7146 23.7919 13.0399 20.8052 13.7119C18.4692 14.2346 16.5225 14.6666 16.4799 14.6666C16.4319 14.6666 16.3039 14.5759 16.1919 14.4586L15.9945 14.2559L17.7492 13.4986C18.7145 13.0772 19.5839 12.6932 19.6745 12.6346C20.1172 12.3679 19.9359 11.6799 19.4185 11.6799C19.3332 11.6799 18.3412 12.0746 17.2212 12.5599L15.1785 13.4452L15.0452 13.3066L14.9119 13.1732L15.9892 12.0906C17.0505 11.0186 17.0665 11.0026 17.0665 10.7786C17.0665 10.4692 16.8479 10.2399 16.5545 10.2399C16.3625 10.2399 16.2932 10.2986 15.2425 11.3439C14.1492 12.4319 14.1332 12.4426 14.0265 12.3466C13.9679 12.2932 13.9199 12.2132 13.9199 12.1706C13.9199 12.1279 14.2932 11.2266 14.7519 10.1652C15.2105 9.10922 15.6052 8.17056 15.6319 8.07989C15.6959 7.87189 15.6052 7.60522 15.4399 7.49856C15.2532 7.37589 14.9652 7.39189 14.8052 7.53056C14.7145 7.61056 14.4052 8.27189 13.8932 9.46655C13.4612 10.4639 13.0932 11.3012 13.0719 11.3226C13.0452 11.3492 12.9652 11.2959 12.8959 11.2052L12.7572 11.0452L12.8532 10.5759C12.9065 10.3199 13.3119 8.34656 13.7545 6.19722C14.1972 4.04789 14.5972 2.20256 14.6399 2.10123C14.8212 1.65856 15.2692 1.2639 15.7225 1.14123C16.0372 1.05589 16.6505 1.05056 17.3225 1.12523ZM13.7599 13.5732L15.3865 15.1999L13.3705 17.2159L11.3599 19.2265L9.72253 17.5839L8.07986 15.9465L10.0799 13.9466C11.1785 12.8479 12.0905 11.9466 12.1065 11.9466C12.1225 11.9466 12.8639 12.6772 13.7599 13.5732ZM9.00253 18.3625L10.6132 19.9732L7.58386 22.9972C5.91986 24.6559 4.47986 26.0585 4.37853 26.1065C3.86653 26.3625 3.27452 26.2399 2.76786 25.7705L2.44786 25.4772L3.51453 24.3999C4.58653 23.3279 4.61853 23.2852 4.59186 22.9599C4.57586 22.7785 4.28786 22.5599 4.06919 22.5599C3.88253 22.5599 3.80253 22.6292 2.78386 23.6372L1.69586 24.7199L1.49319 24.4905C1.10386 24.0532 0.99719 23.6319 1.14652 23.1145C1.23186 22.7999 1.25319 22.7839 4.25586 19.7705C5.91986 18.1065 7.30119 16.7465 7.33319 16.7465C7.36519 16.7465 8.11186 17.4719 9.00253 18.3625Z" fill="#8B3E00"/>
<path d="M17.7759 8.87969C17.6213 8.94369 17.4399 9.18903 17.4399 9.33303C17.4399 9.37036 17.4773 9.47703 17.5199 9.57303C17.7119 9.96769 18.2453 9.96236 18.4479 9.56236C18.5439 9.37036 18.5173 9.18369 18.3626 9.01836C18.1813 8.82636 17.9999 8.78369 17.7759 8.87969Z" fill="#8B3E00"/>
<path d="M5.11444 21.3279C4.7091 21.7386 5.1411 22.3892 5.66911 22.1652C6.01577 22.0212 6.09044 21.5999 5.81844 21.3279C5.59977 21.1146 5.33311 21.1146 5.11444 21.3279Z" fill="#8B3E00"/>
</g>
<rect x="0.02" y="0.02" width="27.2667" height="27.2666" stroke="#8B3E00" stroke-width="0.04"/>
<defs>
<clipPath id="clip0_3835_7337">
<rect width="27.3067" height="27.3066" fill="white"/>
</clipPath>
</defs>
</svg>
