<svg width="18" height="18" viewBox="0 0 18 18" fill="none" xmlns="http://www.w3.org/2000/svg">
<g clip-path="url(#clip0_6364_7539)">
<path d="M15 5.25H12V3.75L10.5 2.25H7.5L6 3.75V5.25H3C2.175 5.25 1.5 5.925 1.5 6.75V10.5C1.5 11.0625 1.8 11.535 2.25 11.7975V14.25C2.25 15.0825 2.9175 15.75 3.75 15.75H14.25C15.0825 15.75 15.75 15.0825 15.75 14.25V11.79C16.1925 11.5275 16.5 11.0475 16.5 10.5V6.75C16.5 5.925 15.825 5.25 15 5.25ZM7.5 3.75H10.5V5.25H7.5V3.75ZM3 6.75H15V10.5H11.25V8.25H6.75V10.5H3V6.75ZM9.75 11.25H8.25V9.75H9.75V11.25ZM14.25 14.25H3.75V12H6.75V12.75H11.25V12H14.25V14.25Z" fill="black"/>
</g>
<defs>
<clipPath id="clip0_6364_7539">
<rect width="18" height="18" fill="white"/>
</clipPath>
</defs>
</svg>
