<svg width="25" height="22" viewBox="0 0 25 22" fill="none" xmlns="http://www.w3.org/2000/svg">
<path d="M21.5625 3.0625H18.3141L16.7168 0.667188C16.6312 0.538928 16.5153 0.433753 16.3794 0.360983C16.2435 0.288213 16.0917 0.250093 15.9375 0.25H8.4375C8.28331 0.250093 8.13153 0.288213 7.9956 0.360983C7.85966 0.433753 7.74378 0.538928 7.6582 0.667188L6.05977 3.0625H2.8125C2.06658 3.0625 1.35121 3.35882 0.823762 3.88626C0.296316 4.41371 0 5.12908 0 5.875V19C0 19.7459 0.296316 20.4613 0.823762 20.9887C1.35121 21.5162 2.06658 21.8125 2.8125 21.8125H21.5625C22.3084 21.8125 23.0238 21.5162 23.5512 20.9887C24.0787 20.4613 24.375 19.7459 24.375 19V5.875C24.375 5.12908 24.0787 4.41371 23.5512 3.88626C23.0238 3.35882 22.3084 3.0625 21.5625 3.0625ZM22.5 19C22.5 19.2486 22.4012 19.4871 22.2254 19.6629C22.0496 19.8387 21.8111 19.9375 21.5625 19.9375H2.8125C2.56386 19.9375 2.3254 19.8387 2.14959 19.6629C1.97377 19.4871 1.875 19.2486 1.875 19V5.875C1.875 5.62636 1.97377 5.3879 2.14959 5.21209C2.3254 5.03627 2.56386 4.9375 2.8125 4.9375H6.5625C6.71688 4.9376 6.8689 4.89957 7.00506 4.82679C7.14121 4.75401 7.25729 4.64874 7.34297 4.52031L8.93906 2.125H15.4348L17.032 4.52031C17.1177 4.64874 17.2338 4.75401 17.3699 4.82679C17.5061 4.89957 17.6581 4.9376 17.8125 4.9375H21.5625C21.8111 4.9375 22.0496 5.03627 22.2254 5.21209C22.4012 5.3879 22.5 5.62636 22.5 5.875V19ZM12.1875 6.8125C11.1677 6.8125 10.1708 7.11491 9.32284 7.68148C8.4749 8.24806 7.81401 9.05336 7.42375 9.99554C7.03348 10.9377 6.93137 11.9745 7.13033 12.9747C7.32928 13.9749 7.82037 14.8937 8.54148 15.6148C9.2626 16.3359 10.1814 16.827 11.1816 17.0259C12.1818 17.2249 13.2185 17.1228 14.1607 16.7325C15.1029 16.3422 15.9082 15.6813 16.4748 14.8334C17.0413 13.9855 17.3438 12.9886 17.3438 11.9688C17.3422 10.6017 16.7985 9.29109 15.8318 8.32444C14.8652 7.35779 13.5545 6.81405 12.1875 6.8125ZM12.1875 15.25C11.5385 15.25 10.9041 15.0576 10.3645 14.697C9.82494 14.3365 9.40437 13.824 9.15602 13.2244C8.90767 12.6249 8.84269 11.9651 8.9693 11.3286C9.09591 10.6921 9.40841 10.1074 9.86731 9.64856C10.3262 9.18966 10.9109 8.87716 11.5474 8.75055C12.1839 8.62394 12.8436 8.68892 13.4432 8.93727C14.0427 9.18562 14.5552 9.60619 14.9158 10.1458C15.2763 10.6854 15.4688 11.3198 15.4688 11.9688C15.4688 12.839 15.123 13.6736 14.5077 14.2889C13.8923 14.9043 13.0577 15.25 12.1875 15.25Z" fill="#8B3E00"/>
</svg>
