<svg width="24" height="24" viewBox="0 0 24 24" fill="none" xmlns="http://www.w3.org/2000/svg">
<g clip-path="url(#clip0_5035_2150)">
<path d="M12.004 6.80206e-07C9.92213 -0.000700201 7.87586 0.540249 6.0663 1.5697C4.25673 2.59914 2.74612 4.08167 1.68289 5.8716C0.619665 7.66153 0.0404092 9.69729 0.00203874 11.7788C-0.0363318 13.8604 0.467503 15.9161 1.46404 17.744L0.0440402 22.724C-0.00592523 22.8989 -0.00725637 23.0841 0.0401902 23.2596C0.0876368 23.4352 0.182064 23.5945 0.31331 23.7204C0.444556 23.8463 0.60765 23.934 0.78504 23.9741C0.96243 24.0142 1.1474 24.0052 1.32004 23.948L5.99603 22.39C7.58975 23.3109 9.37397 23.8529 11.2107 23.974C13.0473 24.0951 14.8873 23.792 16.5881 23.0883C18.2889 22.3845 19.805 21.2989 21.0192 19.9154C22.2333 18.532 23.113 16.8878 23.59 15.11C24.067 13.3322 24.1287 11.4685 23.7702 9.66307C23.4118 7.85763 22.6428 6.15886 21.5228 4.69816C20.4027 3.23747 18.9617 2.05401 17.3111 1.23933C15.6606 0.424662 13.8447 0.000615899 12.004 6.80206e-07ZM8.00403 10C8.00403 9.73478 8.10939 9.48043 8.29692 9.29289C8.48446 9.10536 8.73881 9 9.00403 9H15.004C15.2692 9 15.5236 9.10536 15.7111 9.29289C15.8987 9.48043 16.004 9.73478 16.004 10C16.004 10.2652 15.8987 10.5196 15.7111 10.7071C15.5236 10.8946 15.2692 11 15.004 11H9.00403C8.73881 11 8.48446 10.8946 8.29692 10.7071C8.10939 10.5196 8.00403 10.2652 8.00403 10ZM9.00403 13H13.004C13.2692 13 13.5236 13.1054 13.7111 13.2929C13.8987 13.4804 14.004 13.7348 14.004 14C14.004 14.2652 13.8987 14.5196 13.7111 14.7071C13.5236 14.8946 13.2692 15 13.004 15H9.00403C8.73881 15 8.48446 14.8946 8.29692 14.7071C8.10939 14.5196 8.00403 14.2652 8.00403 14C8.00403 13.7348 8.10939 13.4804 8.29692 13.2929C8.48446 13.1054 8.73881 13 9.00403 13Z" fill="#030303"/>
</g>
<defs>
<clipPath id="clip0_5035_2150">
<rect width="24" height="24" fill="white"/>
</clipPath>
</defs>
</svg>
