<svg width="44" height="43" viewBox="0 0 44 43" fill="none" xmlns="http://www.w3.org/2000/svg">
<g clip-path="url(#clip0_3835_7345)">
<path d="M28.8967 8.69566C28.5186 8.53255 28.158 8.615 27.7766 8.96192L27.5425 9.1748L27.8579 9.52159L28.1732 9.86838L28.6934 9.3953C29.27 8.87098 29.2703 8.8627 28.8967 8.69566Z" fill="#8B3E00"/>
<path d="M29.3239 10.0889L28.8037 10.562L29.1191 10.9088L29.4345 11.2556L29.9547 10.7825L30.4748 10.3094L30.1594 9.96265L29.8441 9.61586L29.3239 10.0889Z" fill="#8B3E00"/>
<path d="M30.5856 11.4761L30.0654 11.9492L30.3808 12.296L30.6962 12.6428L31.2164 12.1697L31.7365 11.6966L31.4212 11.3499L31.1058 11.0031L30.5856 11.4761Z" fill="#8B3E00"/>
<path d="M31.8468 12.8634L31.3267 13.3364L31.642 13.6832L31.9574 14.03L32.4776 13.5569L32.9978 13.0838L32.6824 12.7371L32.367 12.3903L31.8468 12.8634Z" fill="#8B3E00"/>
<path d="M33.1086 14.2506L32.5884 14.7236L32.9038 15.0704L33.2191 15.4172L33.7393 14.9441L34.2595 14.4711L33.9441 14.1243L33.6287 13.7775L33.1086 14.2506Z" fill="#8B3E00"/>
<path d="M34.3746 15.6338L33.8501 16.1108L34.1694 16.462L34.4887 16.8131L34.7764 16.5198C35.1642 16.1275 35.2417 15.7164 35.0032 15.3235L34.9035 15.1529L34.3746 15.6338Z" fill="#8B3E00"/>
<path d="M24.859 11.6152C22.6049 13.6652 22.4473 13.8402 21.8835 14.8836C20.9099 16.6957 20.6885 17.0792 20.3666 17.4829C20.0671 17.8503 19.394 18.4862 16.1342 21.4508C11.7908 25.4009 11.9129 25.274 11.5592 26.1739C11.0636 27.4404 11.3548 28.9972 12.2851 30.0202C13.3732 31.2166 15.1237 31.5651 16.6694 30.8959C17.0126 30.7421 17.0903 30.6795 21.2237 26.9599L25.4265 23.1773L25.9286 22.9107C26.2053 22.7621 26.917 22.4474 27.5046 22.214C29.3227 21.4872 29.1083 21.6347 31.6209 19.3813L33.7911 17.4393L33.4757 17.0925L33.1564 16.7414L32.9136 16.9622C32.7793 17.0844 32.5688 17.2361 32.4415 17.2965C32.14 17.4439 31.453 17.4114 31.1668 17.236C30.8606 17.0473 26.9577 12.7558 26.7988 12.4331C26.6513 12.1316 26.6839 11.4446 26.8592 11.1584C26.9313 11.0374 27.1024 10.8422 27.2367 10.72L27.4795 10.4992L27.1641 10.1525L26.8487 9.80568L24.859 11.6152ZM27.3319 17.6349C27.5086 18.1949 27.4858 18.675 27.2731 19.2248L27.0895 19.6848L25.2906 21.3209L23.4873 22.9609L23.0707 23.0863C22.4941 23.2622 22.0219 23.2481 21.4681 23.031C21.0325 22.8569 20.9884 22.8258 20.6296 22.4313C20.2709 22.0368 20.2441 21.9899 20.112 21.5399C19.9483 20.968 19.9789 20.4966 20.2086 19.9392L20.3729 19.5364L22.1718 17.9003L23.9708 16.2643L24.3874 16.1389C24.9135 15.9772 25.407 15.9798 25.8717 16.1512C26.3613 16.3237 26.5781 16.475 26.9195 16.8853C27.147 17.1615 27.2345 17.3274 27.3319 17.6349ZM20.5138 24.4375L20.167 24.7529L19.2208 23.7126L18.2747 22.6722L18.6215 22.3568L18.9682 22.0414L19.9144 23.0818L20.8605 24.1221L20.5138 24.4375ZM19.1266 25.6991L18.7798 26.0144L17.8337 24.9741L16.8875 23.9337L17.2343 23.6183L17.5811 23.303L18.5273 24.3433L19.4734 25.3837L19.1266 25.6991Z" fill="#8B3E00"/>
<path d="M25.7847 17.1092C25.5221 16.9599 24.8182 16.9348 24.538 17.0708C24.3807 17.1505 23.8578 17.5944 22.7827 18.5721C21.7077 19.5498 21.2163 20.0284 21.1221 20.1774C20.9468 20.4635 20.9142 21.1505 21.0617 21.452C21.3188 21.9786 21.7618 22.2567 22.3302 22.2547C22.5375 22.2562 22.8095 22.2069 22.9285 22.1462C23.0771 22.0744 23.6174 21.6147 24.675 20.6528C25.7327 19.6909 26.2415 19.1965 26.327 19.0554C26.5157 18.7491 26.5566 18.1496 26.4142 17.8276C26.2833 17.5269 26.0551 17.2672 25.7847 17.1092ZM23.3507 20.59L23.0039 20.9054L22.6885 20.5586L22.3732 20.2118L22.7199 19.8964L23.0667 19.581L23.3821 19.9278L23.6975 20.2746L23.3507 20.59Z" fill="#8B3E00"/>
<path d="M27.8717 11.4098C27.6723 11.5911 27.6273 11.6637 27.6234 11.8335L27.6097 12.0361L29.6242 14.2512L31.6387 16.4663L31.8417 16.4718C32.0112 16.484 32.0876 16.4461 32.287 16.2648L32.5254 16.048L30.3178 13.6205L28.1101 11.193L27.8717 11.4098Z" fill="#8B3E00"/>
</g>
<defs>
<clipPath id="clip0_3835_7345">
<rect width="30" height="29.9999" fill="white" transform="translate(23) rotate(47.7151)"/>
</clipPath>
</defs>
</svg>
