<svg width="24" height="24" viewBox="0 0 24 24" fill="none" xmlns="http://www.w3.org/2000/svg">
<g clip-path="url(#clip0_5224_2897)">
<path opacity="0.921" fill-rule="evenodd" clip-rule="evenodd" d="M9.02327 -0.0234375C9.52329 -0.0234375 10.0233 -0.0234375 10.5233 -0.0234375C10.9987 0.0419357 11.4753 0.135686 11.953 0.257812C12.4477 0.141616 12.9399 0.0478664 13.4295 -0.0234375C13.9295 -0.0234375 14.4295 -0.0234375 14.9295 -0.0234375C15.3033 0.0775898 15.6783 0.194777 16.0545 0.328125C16.2316 0.466627 16.2862 0.646313 16.2186 0.867188C16.1055 1.0215 15.9571 1.07619 15.7733 1.03125C14.8177 0.658664 13.8333 0.596166 12.8201 0.84375C12.6534 0.871762 12.4894 0.910828 12.328 0.960938C12.2837 0.979941 12.2524 1.01119 12.2342 1.05469C12.1677 1.28571 12.1521 1.52009 12.1873 1.75781C12.3466 2.09186 12.5184 2.41998 12.703 2.74219C12.9524 3.52727 12.8821 4.28508 12.492 5.01562C13.8677 5.51222 15.0317 6.31688 15.9842 7.42969C16.3194 7.81903 16.6319 8.2253 16.9217 8.64844C17.1097 8.27217 17.3441 7.92844 17.6248 7.61719C18.1411 7.10873 18.649 6.59311 19.1483 6.07031C19.0089 5.86219 18.8527 5.66686 18.6795 5.48438C17.9396 4.94766 17.2131 4.39297 16.4998 3.82031C16.3983 3.35938 16.578 3.17969 17.0389 3.28125C17.6688 3.7408 18.286 4.21736 18.8905 4.71094C19.05 3.72118 18.7453 2.90086 17.9764 2.25C17.6757 2.04884 17.371 1.85353 17.0623 1.66406C16.8908 1.18689 17.0548 0.99158 17.5545 1.07812C19.2899 1.96304 19.9618 3.36148 19.5701 5.27344C19.5958 5.36981 19.6505 5.44795 19.7342 5.50781C20.9295 4.3125 22.1248 3.11719 23.3201 1.92188C23.5614 1.75307 23.7802 1.77651 23.9764 1.99219C23.9764 2.11719 23.9764 2.24219 23.9764 2.36719C21.9793 4.38774 19.9715 6.40336 17.953 8.41406C17.7317 8.73169 17.5598 9.07542 17.4373 9.44531C17.3576 10.0373 17.2951 10.631 17.2498 11.2266C17.0854 11.4194 16.89 11.4584 16.6639 11.3438C16.598 11.2511 16.5512 11.1495 16.5233 11.0391C16.5787 10.5247 16.6022 10.0091 16.5936 9.49219C15.7931 8.22291 14.7697 7.16822 13.5233 6.32812C13.0366 6.05644 12.5288 5.82989 11.9998 5.64844C10.6707 6.13331 9.53013 6.89892 8.57796 7.94531C8.13579 8.44987 7.72952 8.98111 7.35921 9.53906C7.43552 11.0221 7.4824 12.5065 7.49984 13.9922C7.36071 14.5291 7.04041 14.9119 6.5389 15.1406C6.81232 15.414 7.08579 15.6875 7.35921 15.9609C7.49201 16.4531 7.31234 16.6328 6.82015 16.5C6.31235 15.9922 5.80451 15.4844 5.29671 14.9766C5.24984 14.8828 5.20296 14.7891 5.15609 14.6953C5.03576 13.1968 4.95766 11.6968 4.92171 10.1953C5.0862 10.0025 5.28152 9.96347 5.50765 10.0781C5.57295 10.133 5.61204 10.2033 5.62484 10.2891C5.71535 11.6953 5.80132 13.1015 5.88265 14.5078C6.29806 14.4838 6.58713 14.2807 6.74984 13.8984C6.74402 12.6162 6.69715 11.3349 6.60921 10.0547C6.5726 9.4448 6.36949 8.89795 5.99984 8.41406C4.89045 7.30467 3.78109 6.19533 2.67171 5.08594C2.45569 4.61966 2.60413 4.40872 3.11702 4.45312C3.49842 4.78758 3.86561 5.13914 4.21859 5.50781C4.3023 5.44795 4.35698 5.36981 4.38265 5.27344C4.0154 3.75791 4.43728 2.51573 5.64827 1.54688C6.68749 0.831862 7.81249 0.308423 9.02327 -0.0234375ZM9.5389 0.679688C10.1858 0.70065 10.8264 0.778777 11.4608 0.914062C11.3564 1.43313 11.4111 1.93313 11.6248 2.41406C11.8934 2.76338 12.0575 3.154 12.117 3.58594C12.0648 4.04751 11.9319 4.48501 11.7186 4.89844C9.77487 5.66775 8.21234 6.91777 7.03109 8.64844C6.84307 8.27217 6.6087 7.92844 6.32796 7.61719C5.81168 7.10873 5.30384 6.59311 4.80452 6.07031C4.92134 5.84508 5.07757 5.64975 5.27327 5.48438C6.01315 4.94766 6.73971 4.39297 7.45296 3.82031C7.55454 3.35938 7.37482 3.17969 6.9139 3.28125C6.28404 3.7408 5.66684 4.21736 5.06234 4.71094C4.89279 3.57337 5.29123 2.69056 6.25765 2.0625C7.02813 1.54448 7.85623 1.13823 8.74202 0.84375C9.01057 0.770255 9.27621 0.715566 9.5389 0.679688Z" fill="#8B3E00"/>
<path opacity="0.883" fill-rule="evenodd" clip-rule="evenodd" d="M-0.0234375 2.36703C-0.0234375 2.24203 -0.0234375 2.11703 -0.0234375 1.99203C0.172792 1.77635 0.391542 1.75291 0.632812 1.92172C1.09375 2.38265 1.55469 2.84359 2.01562 3.30453C2.26365 3.7345 2.14646 3.96106 1.66406 3.98422C1.06258 3.48427 0.500081 2.9452 -0.0234375 2.36703Z" fill="#8B3E00"/>
<path opacity="0.928" fill-rule="evenodd" clip-rule="evenodd" d="M23.9766 8.08586C23.9766 8.21087 23.9766 8.33584 23.9766 8.46086C23.2139 9.24704 22.4404 10.0283 21.6562 10.8046C21.625 10.8671 21.5938 10.9296 21.5625 10.9921C21.3732 12.192 21.2014 13.3951 21.0469 14.6015C20.9557 14.9089 20.815 15.1901 20.625 15.4452C19.4141 16.6562 18.2031 17.8671 16.9922 19.078C16.423 19.4361 15.8761 19.4048 15.3516 18.9843C15.2078 18.8297 15.1063 18.65 15.0469 18.4452C14.8992 18.5815 14.7429 18.7065 14.5781 18.8202C14.5469 19.3046 14.5469 19.789 14.5781 20.2734C14.664 20.7343 14.9375 21.0077 15.3984 21.0937C16.5399 21.2761 17.6805 21.4636 18.8203 21.6562C19.8953 21.9345 20.6297 22.5907 21.0234 23.6249C20.9988 23.7638 20.9363 23.881 20.8359 23.9765C20.6953 23.9765 20.5547 23.9765 20.4141 23.9765C20.0522 23.1069 19.4116 22.5678 18.4922 22.3593C17.3522 22.1674 16.2116 21.9799 15.0703 21.7968C14.3557 21.5822 13.9417 21.1056 13.8281 20.3671C13.8125 20.0234 13.7969 19.6796 13.7812 19.3359C12.8622 19.9671 11.8856 20.0843 10.8516 19.6874C10.6213 19.5762 10.3948 19.459 10.1719 19.3359C10.1629 19.7597 10.1316 20.1816 10.0781 20.6015C9.89845 21.2187 9.50002 21.6171 8.88281 21.7968C7.74295 21.9887 6.60234 22.1762 5.46094 22.3593C4.54155 22.5678 3.90092 23.1069 3.53906 23.9765C3.39844 23.9765 3.25781 23.9765 3.11719 23.9765C3.01683 23.881 2.95433 23.7638 2.92969 23.6249C3.32341 22.5907 4.05778 21.9345 5.13281 21.6562C6.27258 21.4636 7.41319 21.2761 8.55469 21.0937C9.01561 21.0077 9.28908 20.7343 9.375 20.2734C9.40627 19.789 9.40627 19.3046 9.375 18.8202C9.21019 18.7065 9.05395 18.5815 8.90625 18.4452C8.70459 18.9976 8.30616 19.2945 7.71094 19.3359C7.49855 19.3137 7.29544 19.259 7.10156 19.1718C5.82942 17.9466 4.57162 16.7044 3.32812 15.4452C3.13808 15.1901 2.99745 14.9089 2.90625 14.6015C2.75177 13.3951 2.57989 12.192 2.39062 10.9921C2.35937 10.9296 2.32813 10.8671 2.29688 10.8046C1.5127 10.0283 0.739266 9.24704 -0.0234375 8.46086C-0.0234375 8.33584 -0.0234375 8.21087 -0.0234375 8.08586C0.133842 7.89972 0.321342 7.86067 0.539062 7.96867C1.32812 8.75772 2.11719 9.54681 2.90625 10.3359C3.03921 10.5549 3.13296 10.7892 3.1875 11.039C3.32812 12.1015 3.46875 13.164 3.60938 14.2265C3.6344 14.4265 3.6969 14.614 3.79688 14.789C5.0078 16.0624 6.24998 17.3046 7.52344 18.5155C7.89394 18.6154 8.12831 18.4748 8.22656 18.0937C8.19052 17.8887 8.08894 17.7246 7.92188 17.6015C7.76011 17.2716 7.85386 17.0684 8.20312 16.9921C8.29533 16.9941 8.3813 17.0175 8.46094 17.0624C9.34214 17.9748 10.3734 18.6623 11.5547 19.1249C11.9385 19.2173 12.3135 19.1861 12.6797 19.0312C13.1539 18.8175 13.6071 18.5675 14.0391 18.2812C14.4589 17.9708 14.8651 17.6427 15.2578 17.2968C15.9765 16.5781 16.6953 15.8593 17.4141 15.1405C16.9657 14.9578 16.6611 14.6375 16.5 14.1796C16.4062 13.6171 16.4062 13.0546 16.5 12.4921C16.721 12.2426 16.9397 12.2426 17.1562 12.4921C17.169 12.5672 17.1925 12.6375 17.2266 12.703C17.1727 13.0822 17.1649 13.465 17.2031 13.8515C17.3406 14.2681 17.6296 14.4869 18.0703 14.5077C18.1418 13.0512 18.2433 11.5981 18.375 10.1484C18.6072 9.95256 18.8259 9.96822 19.0312 10.1952C18.9953 11.6967 18.9172 13.1967 18.7969 14.6952C18.75 14.789 18.7031 14.8827 18.6562 14.9765C17.7188 15.914 16.7812 16.8515 15.8438 17.789C15.6525 18.1984 15.7774 18.4641 16.2188 18.5859C16.2891 18.5624 16.3594 18.539 16.4297 18.5155C17.7031 17.3046 18.9453 16.0624 20.1562 14.789C20.2562 14.614 20.3187 14.4265 20.3438 14.2265C20.4844 13.164 20.625 12.1015 20.7656 11.039C20.8201 10.7892 20.9139 10.5549 21.0469 10.3359C21.8359 9.54681 22.625 8.75772 23.4141 7.96867C23.6318 7.86067 23.8193 7.89972 23.9766 8.08586Z" fill="#8B3E00"/>
<path opacity="0.922" fill-rule="evenodd" clip-rule="evenodd" d="M9.02344 9.58576C9.61805 9.53505 10.1962 9.60536 10.7578 9.7967C11.1541 9.9415 11.2323 10.1837 10.9922 10.5233C10.9169 10.5503 10.8388 10.5659 10.7578 10.5701C10.3764 10.4396 9.98583 10.3459 9.58594 10.2889C9.18816 10.3375 8.7975 10.4235 8.41406 10.5467C8.08172 10.6609 7.87856 10.5515 7.80469 10.2186C7.81852 10.0816 7.88105 9.97216 7.99219 9.89045C8.33742 9.77317 8.68116 9.67159 9.02344 9.58576Z" fill="#8B3E00"/>
<path opacity="0.922" fill-rule="evenodd" clip-rule="evenodd" d="M13.8514 9.58617C14.5798 9.51557 15.2829 9.6171 15.9608 9.89085C16.2107 10.1096 16.2107 10.3283 15.9608 10.5471C15.8904 10.5549 15.8201 10.5627 15.7498 10.5705C15.2922 10.4581 14.8313 10.3643 14.367 10.2893C14.0259 10.3238 13.6978 10.4097 13.3826 10.5471C12.9609 10.6409 12.7813 10.4768 12.8436 10.0549C12.9298 9.92948 13.047 9.84356 13.1951 9.7971C13.418 9.72014 13.6367 9.64982 13.8514 9.58617Z" fill="#8B3E00"/>
<path opacity="0.918" fill-rule="evenodd" clip-rule="evenodd" d="M8.1799 11.8359C8.55363 11.898 8.92863 11.9605 9.3049 12.0234C9.57692 11.9989 9.84256 11.9443 10.1018 11.8594C10.5372 11.7833 10.7013 11.963 10.594 12.3984C10.4592 12.5373 10.2951 12.6233 10.1018 12.6562C9.43006 12.8262 8.77381 12.7793 8.13302 12.5156C7.91177 12.28 7.92738 12.0534 8.1799 11.8359Z" fill="#8B3E00"/>
<path opacity="0.921" fill-rule="evenodd" clip-rule="evenodd" d="M13.5236 11.8359C13.8974 11.898 14.2724 11.9605 14.6486 12.0234C14.9206 11.9989 15.1863 11.9443 15.4455 11.8594C15.881 11.7833 16.045 11.963 15.9377 12.3984C15.7287 12.5724 15.4866 12.674 15.2111 12.7031C14.6531 12.7995 14.1062 12.7526 13.5705 12.5625C13.3491 12.4484 13.2787 12.2686 13.3596 12.0234C13.3919 11.9367 13.4466 11.8742 13.5236 11.8359Z" fill="#8B3E00"/>
<path opacity="0.918" fill-rule="evenodd" clip-rule="evenodd" d="M10.8987 14.133C11.2374 14.1546 11.5733 14.2015 11.9065 14.2736C12.1067 14.2586 12.302 14.2195 12.4924 14.1564C12.9613 14.0627 13.1409 14.2424 13.0315 14.6955C12.9746 14.7681 12.9043 14.8227 12.8205 14.8595C12.1291 15.1041 11.4573 15.065 10.8049 14.7424C10.6618 14.5098 10.693 14.3066 10.8987 14.133Z" fill="#8B3E00"/>
<path opacity="0.922" fill-rule="evenodd" clip-rule="evenodd" d="M10.2888 16.0078C10.5377 16.0537 10.7876 16.1005 11.0388 16.1484C11.3206 16.1013 11.6019 16.0545 11.8826 16.0078C12.1633 16.0545 12.4446 16.1013 12.7263 16.1484C12.9365 16.1304 13.1397 16.0835 13.3357 16.0078C13.5701 16.0234 13.6951 16.1484 13.7107 16.3828C13.7081 16.5052 13.6612 16.6068 13.5701 16.6875C13.0191 16.9419 12.4566 16.9654 11.8826 16.7578C11.3841 16.9302 10.8841 16.938 10.3826 16.7812C10.102 16.6809 10.0004 16.4856 10.0779 16.1953C10.1434 16.1217 10.2137 16.0592 10.2888 16.0078Z" fill="#8B3E00"/>
</g>
<defs>
<clipPath id="clip0_5224_2897">
<rect width="24" height="24" fill="white"/>
</clipPath>
</defs>
</svg>
