<svg width="43" height="42" viewBox="0 0 43 42" fill="none" xmlns="http://www.w3.org/2000/svg">
<circle cx="21.3599" cy="21" r="21" fill="#8B3E00"/>
<g clip-path="url(#clip0_4567_2878)">
<path d="M30.2397 17.7198H12.9598C12.7051 17.7198 12.461 17.6187 12.2809 17.4386C12.1009 17.2586 11.9998 17.0144 11.9998 16.7598C11.9998 16.5052 12.1009 16.261 12.2809 16.081C12.461 15.9009 12.7051 15.7998 12.9598 15.7998H30.2397C30.4943 15.7998 30.7385 15.9009 30.9186 16.081C31.0986 16.261 31.1997 16.5052 31.1997 16.7598C31.1997 17.0144 31.0986 17.2586 30.9186 17.4386C30.7385 17.6187 30.4943 17.7198 30.2397 17.7198ZM27.0397 22.1998H16.1598C15.9051 22.1998 15.661 22.0987 15.4809 21.9186C15.3009 21.7386 15.1998 21.4944 15.1998 21.2398C15.1998 20.9852 15.3009 20.741 15.4809 20.561C15.661 20.3809 15.9051 20.2798 16.1598 20.2798H27.0397C27.2943 20.2798 27.5385 20.3809 27.7186 20.561C27.8986 20.741 27.9997 20.9852 27.9997 21.2398C27.9997 21.4944 27.8986 21.7386 27.7186 21.9186C27.5385 22.0987 27.2943 22.1998 27.0397 22.1998ZM23.1997 26.6798H19.9997C19.7451 26.6798 19.501 26.5787 19.3209 26.3986C19.1409 26.2186 19.0397 25.9744 19.0397 25.7198C19.0397 25.4652 19.1409 25.221 19.3209 25.041C19.501 24.8609 19.7451 24.7598 19.9997 24.7598H23.1997C23.4544 24.7598 23.6985 24.8609 23.8786 25.041C24.0586 25.221 24.1597 25.4652 24.1597 25.7198C24.1597 25.9744 24.0586 26.2186 23.8786 26.3986C23.6985 26.5787 23.4544 26.6798 23.1997 26.6798Z" fill="white"/>
</g>
<defs>
<clipPath id="clip0_4567_2878">
<rect width="20.48" height="20.48" fill="white" transform="translate(11.3599 11)"/>
</clipPath>
</defs>
</svg>
