<svg width="24" height="24" viewBox="0 0 24 24" fill="none" xmlns="http://www.w3.org/2000/svg">
<path d="M9.99985 20.5H9.99969C9.62126 20.5001 9.25677 20.3572 8.97928 20.0999C8.7998 19.9334 8.6653 19.7271 8.585 19.5H13.4143C13.3467 19.6915 13.2403 19.869 13.0997 20.0206C12.8446 20.2957 12.4957 20.4651 12.122 20.4956L11.9915 20.5H9.99985ZM17.4998 12.764V12.882L17.5526 12.9876L19.3746 16.6316L19.3747 16.6316C19.418 16.7184 19.4397 16.8143 19.4379 16.9113C19.4361 17.0082 19.4108 17.1033 19.3642 17.1883C19.3176 17.2734 19.2511 17.3458 19.1704 17.3996C19.0927 17.4512 19.0042 17.484 18.9117 17.4955L18.8248 17.5H3.16185H3.1617C3.0647 17.5 2.96914 17.4765 2.8832 17.4315C2.79727 17.3865 2.72353 17.3214 2.66829 17.2416C2.61306 17.1619 2.57798 17.07 2.56607 16.9737C2.55462 16.8812 2.56489 16.7873 2.59599 16.6996L2.63073 16.6203L4.44706 12.9876L4.49985 12.882V12.764V9C4.49985 7.27609 5.18467 5.62279 6.40365 4.40381C7.62264 3.18482 9.27594 2.5 10.9998 2.5C12.6852 2.49997 14.3047 3.15454 15.5166 4.32564C16.7276 5.49574 17.4372 7.09008 17.496 8.77284L17.4998 9.00415V12.764Z" fill="white" stroke="black"/>
</svg>
