<svg width="50" height="50" viewBox="0 0 50 50" fill="none" xmlns="http://www.w3.org/2000/svg">
<circle cx="25" cy="25" r="25" fill="#D9D9D9" fill-opacity="0.3"/>
<path fill-rule="evenodd" clip-rule="evenodd" d="M21 20C21 18.9391 21.4214 17.9217 22.1716 17.1716C22.9217 16.4214 23.9391 16 25 16C26.0609 16 27.0783 16.4214 27.8284 17.1716C28.5786 17.9217 29 18.9391 29 20C29 21.0609 28.5786 22.0783 27.8284 22.8284C27.0783 23.5786 26.0609 24 25 24C23.9391 24 22.9217 23.5786 22.1716 22.8284C21.4214 22.0783 21 21.0609 21 20ZM21 26C19.6739 26 18.4021 26.5268 17.4645 27.4645C16.5268 28.4021 16 29.6739 16 31C16 31.7956 16.3161 32.5587 16.8787 33.1213C17.4413 33.6839 18.2044 34 19 34H31C31.7956 34 32.5587 33.6839 33.1213 33.1213C33.6839 32.5587 34 31.7956 34 31C34 29.6739 33.4732 28.4021 32.5355 27.4645C31.5979 26.5268 30.3261 26 29 26H21Z" fill="#B9B9B9"/>
</svg>
