<svg width="26" height="24" viewBox="0 0 26 24" fill="none" xmlns="http://www.w3.org/2000/svg">
<path d="M19.296 0.192289C19.232 0.234956 19.0453 0.522956 18.88 0.832289L18.5813 1.38696L18.1173 1.63762C17.424 2.01095 17.3066 2.11229 17.3066 2.32029C17.3066 2.57095 17.4186 2.67762 18.0266 3.00829L18.56 3.29629L18.88 3.87229C19.2213 4.47495 19.328 4.59229 19.536 4.59229C19.7653 4.59229 19.856 4.49095 20.1653 3.92029C20.4853 3.32295 20.4906 3.31762 21.2213 2.91229C21.5786 2.71495 21.7173 2.60829 21.7546 2.49629C21.8506 2.23495 21.744 2.08029 21.3066 1.83495C20.4586 1.36029 20.5013 1.39762 20.1706 0.789622C20 0.474956 19.8186 0.197623 19.76 0.165623C19.616 0.0909562 19.4293 0.101623 19.296 0.192289ZM19.7386 1.76562C19.8453 1.96829 19.9466 2.05895 20.1653 2.17629C20.32 2.25629 20.432 2.34162 20.4213 2.36295C20.4053 2.38962 20.2773 2.46429 20.1333 2.53895C19.936 2.64029 19.84 2.73095 19.7066 2.97629L19.536 3.28029L19.4293 3.07229C19.2853 2.78429 19.0986 2.59762 18.848 2.48562C18.736 2.43229 18.64 2.37362 18.64 2.35762C18.6453 2.34162 18.768 2.25095 18.9226 2.16562C19.12 2.04829 19.2426 1.93095 19.36 1.73362C19.4506 1.57895 19.536 1.46695 19.5573 1.47762C19.5786 1.49362 19.6586 1.62162 19.7386 1.76562Z" fill="#8B3E00"/>
<path d="M14.7359 3.64847C14.2559 3.85113 13.7812 4.2778 13.3652 4.88046C13.0559 5.32313 13.0772 5.6378 13.4132 5.76046C13.6532 5.84046 13.8079 5.76046 14.0159 5.43513C14.4425 4.7738 14.9545 4.37913 15.3865 4.37913C16.2132 4.37913 16.9972 5.5898 17.3759 7.4458C17.4825 7.97913 17.4932 8.1818 17.4932 9.73913C17.4932 11.3871 17.4719 11.6911 17.3012 12.4805L17.2425 12.7471L16.9705 12.5445C16.2559 12.0111 15.4719 11.8405 14.6505 12.0325C14.2345 12.1338 13.9519 12.2725 13.5679 12.5711L13.2639 12.8058L13.2052 12.4698C13.0665 11.6538 13.0185 11.0565 13.0185 10.0858C13.0185 9.01913 13.0772 8.37913 13.2532 7.45113C13.3439 6.98713 13.3492 6.90713 13.2799 6.77913C13.1945 6.6138 13.1039 6.5658 12.8852 6.5658C12.6239 6.5658 12.5119 6.7578 12.3679 7.45113C12.2985 7.80313 12.2399 8.14446 12.2399 8.20846C12.2399 8.28313 12.0852 8.53913 11.8932 8.79513C11.4772 9.34979 11.0719 10.1125 10.8585 10.7578C10.5279 11.7445 10.5332 11.6111 10.5332 17.9845V23.7871L10.6719 23.8938C10.8585 24.0431 11.0292 24.0324 11.2105 23.8778L11.3599 23.7498L11.3919 17.8085C11.4132 13.3605 11.4345 11.8138 11.4825 11.6325C11.6319 11.0991 11.7865 10.6778 11.9679 10.3258L12.1599 9.95246L12.1919 10.8858C12.2292 11.9098 12.3039 12.4858 12.4639 13.0191C12.8959 14.4111 13.7865 15.0565 15.3065 15.0618C16.5439 15.0725 17.3119 14.6191 17.8132 13.5791C18.1705 12.8325 18.3732 11.7231 18.3732 10.4698C18.3732 9.85113 18.4319 9.86713 18.7145 10.5498C19.1199 11.5205 19.1305 11.5898 19.1679 13.8618L19.1999 15.9098L19.3492 16.0378C19.5359 16.1978 19.7012 16.2031 19.8879 16.0538L20.0319 15.9365L20.0159 13.8511C19.9945 11.7978 19.9892 11.7605 19.8559 11.2485C19.5892 10.2671 19.2052 9.47779 18.6345 8.72046C18.3892 8.39513 18.3625 8.33646 18.3145 7.93113C18.1172 6.27246 17.5625 4.94447 16.7359 4.15513C16.2879 3.7338 15.9412 3.56847 15.4399 3.5418C15.1092 3.5258 14.9865 3.5418 14.7359 3.64847ZM16.0905 12.9818C16.2559 13.0618 16.4905 13.2378 16.6185 13.3765L16.8479 13.6218L16.6612 13.7818C16.5599 13.8671 16.3465 14.0005 16.1865 14.0805C15.9199 14.2031 15.8345 14.2191 15.3065 14.2138C14.8905 14.2138 14.6505 14.1871 14.4799 14.1231C14.2239 14.0218 13.7332 13.7125 13.7332 13.6485C13.7332 13.5685 14.0852 13.2165 14.2932 13.0831C14.6292 12.8698 14.8905 12.8058 15.3652 12.8218C15.7065 12.8378 15.8612 12.8698 16.0905 12.9818Z" fill="#8B3E00"/>
<path d="M22.176 4.166C22.032 4.22467 21.9573 4.33667 21.5467 5.094L21.2267 5.686L20.5493 6.05933C19.7173 6.52333 19.6533 6.57667 19.6533 6.83267C19.6533 7.08333 19.6853 7.11 20.528 7.56866L21.2107 7.942L21.5947 8.63C22.032 9.43533 22.0693 9.478 22.2347 9.51C22.5227 9.56866 22.6453 9.44066 23.056 8.68333L23.4507 7.95266L24.144 7.574C24.9173 7.14733 25.04 7.04066 25.04 6.822C25.04 6.60333 24.8907 6.47533 24.128 6.06467L23.4507 5.69667L23.072 4.98733C22.8587 4.598 22.6613 4.25667 22.624 4.23C22.5227 4.14467 22.304 4.11267 22.176 4.166ZM23.2747 6.57133C23.7707 6.84867 23.776 6.822 23.1893 7.11533C22.8907 7.27 22.7307 7.45133 22.512 7.88866C22.432 8.04333 22.3467 8.15533 22.32 8.13933C22.2933 8.12333 22.1813 7.942 22.0747 7.734C21.8667 7.34466 21.7707 7.254 21.3227 7.02467C21.1733 6.95 21.0347 6.86467 21.0187 6.84333C21.0027 6.81667 21.1787 6.694 21.408 6.566C21.8187 6.34733 21.84 6.326 22.08 5.894L22.336 5.44067L22.5867 5.88333C22.8267 6.31 22.8533 6.33667 23.2747 6.57133Z" fill="#8B3E00"/>
<path d="M8.42134 4.68825C8.29867 4.74692 8.15467 4.86425 8.09067 4.94958C8.03201 5.03492 7.73334 5.68025 7.42401 6.38425L6.86934 7.65891L5.49334 9.68558C4.736 10.8002 4.10134 11.7336 4.08 11.7549C4.064 11.7762 3.94134 11.7496 3.808 11.6909C3.64267 11.6162 3.456 11.5789 3.19467 11.5789C2.864 11.5789 2.76267 11.6056 2.43734 11.7656C1.664 12.1549 1.17333 12.9922 1.52 13.3389C1.62667 13.4456 1.856 13.4776 2.02667 13.4136C2.07467 13.3922 2.16 13.2802 2.224 13.1576C2.352 12.8962 2.608 12.6136 2.81067 12.5069C2.89067 12.4642 3.06667 12.4322 3.2 12.4322C3.424 12.4322 3.53067 12.4909 4.60267 13.2109C5.23734 13.6429 5.824 14.0536 5.904 14.1282C6.176 14.3842 6.21867 14.7949 6.01067 15.1896C5.85067 15.4936 3.696 17.8829 3.50934 17.9576C3.12534 18.1229 2.976 18.0749 2.096 17.4936C1.216 16.9122 1.01867 16.7522 0.901334 16.5282C0.752001 16.2456 0.805334 15.9949 1.14667 15.3122C1.32267 14.9602 1.46667 14.6189 1.46667 14.5496C1.46667 14.4056 1.30667 14.2189 1.14667 14.1656C1.08267 14.1442 0.960001 14.1602 0.874667 14.1922C0.746667 14.2509 0.650667 14.3896 0.357334 14.9816L0 15.6962V16.1869C0 16.6189 0.016 16.6989 0.154667 16.9496C0.234667 17.0989 0.378667 17.2962 0.474667 17.3816C0.752001 17.6482 2.45334 18.7682 2.672 18.8269C2.97067 18.9122 3.43467 18.9016 3.712 18.8056C4.096 18.6722 4.336 18.4429 5.52534 17.0989C6.85867 15.5896 6.98134 15.3922 6.98134 14.6989C6.98134 14.1976 6.87467 13.9096 6.55467 13.5576L6.35734 13.3336L6.92267 12.4962C7.52001 11.6162 7.57867 11.4562 7.41334 11.2216C7.31734 11.0829 7.11467 11.0296 6.94401 11.0936C6.85867 11.1256 6.60267 11.4509 6.23467 11.9896C5.92 12.4536 5.65334 12.8429 5.648 12.8536C5.632 12.8696 5.08267 12.5229 4.85867 12.3522C4.768 12.2829 4.84267 12.1656 6.05334 10.3842C6.75734 9.33891 7.34934 8.48558 7.36534 8.48558C7.41334 8.48558 8.18667 9.04025 8.18667 9.07758C8.18667 9.09891 8.06401 9.29625 7.90934 9.52025C7.58401 9.99491 7.55734 10.1922 7.78134 10.3896C8.08534 10.6509 8.24534 10.5549 8.72534 9.82958C9.02401 9.38691 9.34401 9.01891 10.16 8.19225C10.7413 7.60558 11.2427 7.07225 11.2747 7.00825C11.3067 6.94425 11.3333 6.76291 11.3333 6.60825C11.3333 6.12292 11.216 5.99492 10.1493 5.26958C9.28001 4.67758 9.18401 4.62425 8.92267 4.60825C8.72001 4.59225 8.57601 4.61892 8.42134 4.68825ZM9.68534 5.98425C10.1813 6.32025 10.48 6.55491 10.48 6.60825C10.48 6.66158 10.096 7.08291 9.63201 7.54691L8.77867 8.39491L8.27734 8.06425L7.77067 7.73358L8.17067 6.81625C8.38934 6.30958 8.61334 5.79758 8.66667 5.66958C8.72001 5.54692 8.79467 5.44558 8.82667 5.44558C8.85867 5.44558 9.24267 5.68558 9.68534 5.98425Z" fill="#8B3E00"/>
<path d="M19.3495 17.1471L19.2002 17.2751V20.5125V23.7498L19.3495 23.8778C19.5309 24.0324 19.7015 24.0431 19.8882 23.8938L20.0269 23.7871V20.5125V17.2378L19.8882 17.1311C19.7015 16.9818 19.5309 16.9925 19.3495 17.1471Z" fill="#8B3E00"/>
<path d="M14.7413 18.1444C13.952 18.1977 13.7866 18.2777 13.7866 18.6244C13.7866 19.0137 13.8186 19.0191 15.28 19.0137C16.4 19.0137 16.576 19.0031 16.6666 18.9231C16.8053 18.8057 16.8106 18.4537 16.6773 18.3364C16.4906 18.1657 15.6586 18.0857 14.7413 18.1444Z" fill="#8B3E00"/>
<path d="M13.2802 19.8722C13.1149 20.0322 13.1096 20.2242 13.2696 20.4056C13.3602 20.5176 13.4936 20.5656 13.9202 20.6562C15.0562 20.9016 16.9922 20.7522 17.2962 20.4056C17.4456 20.2349 17.4456 20.0589 17.3016 19.8776C17.1682 19.7122 17.0242 19.7016 16.4536 19.8296C16.1816 19.8882 15.8029 19.9149 15.2802 19.9149C14.7576 19.9149 14.3789 19.8882 14.1069 19.8296C13.5682 19.7069 13.4349 19.7122 13.2802 19.8722Z" fill="#8B3E00"/>
</svg>
