<svg width="16" height="16" viewBox="0 0 16 16" fill="none" xmlns="http://www.w3.org/2000/svg">
<path d="M2 7.25V13.25C2 13.6478 2.15804 14.0294 2.43934 14.3107C2.72064 14.592 3.10218 14.75 3.5 14.75H12.5C12.8978 14.75 13.2794 14.592 13.5607 14.3107C13.842 14.0294 14 13.6478 14 13.25V7.25" stroke="black" stroke-linecap="round" stroke-linejoin="round"/>
<path d="M8 3.125C8 2.42881 7.72344 1.76113 7.23116 1.26884C6.73887 0.776562 6.07119 0.5 5.375 0.5C4.87772 0.5 4.40081 0.697544 4.04917 1.04917C3.69754 1.40081 3.5 1.87772 3.5 2.375C3.5 2.87228 3.69754 3.34919 4.04917 3.70083C4.40081 4.05246 4.87772 4.25 5.375 4.25H8M8 3.125V4.25M8 3.125C8 2.42881 8.27656 1.76113 8.76884 1.26884C9.26113 0.776562 9.92881 0.5 10.625 0.5C11.1223 0.5 11.5992 0.697544 11.9508 1.04917C12.3025 1.40081 12.5 1.87772 12.5 2.375C12.5 2.62123 12.4515 2.86505 12.3573 3.09253C12.263 3.32002 12.1249 3.52672 11.9508 3.70083C11.7767 3.87494 11.57 4.01305 11.3425 4.10727C11.115 4.2015 10.8712 4.25 10.625 4.25H8" stroke="black" stroke-linejoin="round"/>
<path d="M8 7.25V14.75M1.25 4.25H14.75V7.25H1.25V4.25Z" stroke="black" stroke-linecap="round" stroke-linejoin="round"/>
</svg>
