<svg width="24" height="24" viewBox="0 0 24 24" fill="none" xmlns="http://www.w3.org/2000/svg">
<path d="M5.97646 1.19513C3.34677 1.61231 1.20458 3.40763 0.37958 5.88263C-0.665732 9.00919 0.506143 12.5295 3.80614 16.1951C5.65771 18.2482 7.92177 20.1514 10.8983 22.1529L11.9999 22.8936L13.1015 22.1529C16.078 20.1514 18.3421 18.2482 20.1936 16.1951C23.4936 12.5295 24.6655 9.00919 23.6202 5.88263C22.678 3.06544 20.0015 1.1295 17.039 1.12481C15.2811 1.12481 13.6827 1.72481 12.3749 2.87794C12.1827 3.04669 12.014 3.18731 11.9999 3.18731C11.9858 3.18731 11.8171 3.04669 11.6249 2.87794C10.5655 1.94044 9.25302 1.34513 7.87489 1.17638C7.35927 1.11075 6.44989 1.12013 5.97646 1.19513Z" fill="white"/>
</svg>
