<svg width="25" height="24" viewBox="0 0 25 24" fill="none" xmlns="http://www.w3.org/2000/svg">
<path d="M6.87891 7C6.87891 6.07174 7.24765 5.1815 7.90403 4.52513C8.56041 3.86875 9.45065 3.5 10.3789 3.5C11.3072 3.5 12.1974 3.86875 12.8538 4.52513C13.5102 5.1815 13.8789 6.07174 13.8789 7C13.8789 7.92826 13.5102 8.8185 12.8538 9.47487C12.1974 10.1313 11.3072 10.5 10.3789 10.5C9.45065 10.5 8.56041 10.1313 7.90403 9.47487C7.24765 8.8185 6.87891 7.92826 6.87891 7ZM3.19693 14.818C4.04084 13.9741 5.18543 13.5 6.37891 13.5H14.3789C15.5724 13.5 16.717 13.9741 17.5609 14.818C18.4048 15.6619 18.8789 16.8065 18.8789 18C18.8789 18.663 18.6155 19.2989 18.1467 19.7678C17.6778 20.2366 17.0419 20.5 16.3789 20.5H4.37891C3.71586 20.5 3.07998 20.2366 2.61114 19.7678C2.1423 19.2989 1.87891 18.663 1.87891 18C1.87891 16.8065 2.35301 15.6619 3.19693 14.818Z" stroke="black"/>
</svg>
