<svg width="24" height="24" viewBox="0 0 24 24" fill="none" xmlns="http://www.w3.org/2000/svg">
<path d="M11.264 0.065451C10.7812 0.159201 10.3547 0.309201 9.83435 0.567013C9.29998 0.829513 8.96717 1.04983 8.3531 1.5467C7.49998 2.23108 7.30779 2.52639 7.54685 2.76545C7.72967 2.94826 7.89373 2.89201 8.33435 2.49358C9.37498 1.56076 10.125 1.0967 11.039 0.834201C11.6015 0.674826 12.4453 0.684201 12.9422 0.857638C13.139 0.923263 13.3781 1.02639 13.4812 1.08733L13.664 1.19514L13.3359 1.22326C12.7594 1.27014 12.1969 1.48576 11.6203 1.87483C11.2547 2.12326 10.8609 2.47014 10.7953 2.60139C10.7109 2.76076 10.7953 2.97639 10.9734 3.0467C11.1469 3.1217 11.2453 3.07951 11.5594 2.80764C11.9484 2.47014 12.45 2.17014 12.8484 2.03889C13.1859 1.92639 13.2797 1.91233 13.6781 1.93108C14.3344 1.96389 14.5172 2.05295 14.7 2.44201C14.8219 2.71389 14.8359 2.7842 14.8312 3.2342C14.8312 3.66545 14.8172 3.7592 14.7094 3.99358C14.5359 4.37326 14.3297 4.6592 13.95 5.05764C13.1297 5.91545 11.925 6.71701 10.0594 7.64983C9.5906 7.8842 9.02342 8.20295 8.79373 8.36233C8.06248 8.8592 7.3031 9.68889 6.95623 10.3686C6.89529 10.4951 6.82029 10.5936 6.79685 10.5936C6.75935 10.5936 6.24373 10.317 5.85935 10.0873C5.8031 10.0498 5.78435 9.8717 5.77029 9.07014C5.74685 7.70608 5.86404 6.86701 6.22029 5.78889C6.43123 5.15139 6.61873 4.73889 6.95623 4.1717C7.10154 3.92795 7.21873 3.67951 7.21873 3.61858C7.21873 3.4967 7.02654 3.28108 6.91873 3.28108C6.65623 3.28108 6.3656 3.67483 5.91091 4.65451C5.29685 5.96233 5.04373 7.27014 5.07185 9.0092L5.08591 10.0311H4.88904H4.68748V7.97795V5.92014L4.57966 5.8217C4.44373 5.69514 4.2656 5.69045 4.12029 5.80764L4.00779 5.8967L3.99373 8.09514C3.97966 10.3498 3.99373 10.5936 4.16248 10.6686C4.20466 10.692 4.56091 10.7201 4.94998 10.7342L5.6531 10.7576L6.03748 10.9873C6.47342 11.2545 7.44842 11.9623 7.53279 12.0795C7.68279 12.2764 7.53279 12.6092 7.29842 12.6092C7.24217 12.6092 6.73123 12.3983 6.16404 12.1405C5.59685 11.8826 5.08123 11.6717 5.0156 11.6717C4.8281 11.6717 4.58435 11.8311 4.4906 12.0045C4.38748 12.2108 4.29373 13.4717 4.36404 13.7858C4.52341 14.4842 5.5781 15.6467 7.0406 16.7295C7.40154 16.9967 7.49998 17.0905 7.49998 17.1795C7.49998 17.4983 6.89529 17.5498 6.1406 17.2967C4.04998 16.5889 2.62966 15.4405 2.1656 14.0764L2.03904 13.7108L2.0156 9.7217C1.99216 5.87795 1.98748 5.72326 1.9031 5.62951C1.78591 5.49826 1.53279 5.49826 1.40623 5.62483C1.31248 5.71858 1.30779 5.75139 1.32185 9.76389L1.33591 13.8045L1.44373 14.1514C1.67341 14.9061 2.06248 15.5108 2.70466 16.1295C3.76404 17.1514 5.83123 18.1405 6.9281 18.1545C7.39685 18.1592 7.64529 18.0842 7.88435 17.8686C8.36248 17.4373 8.30623 16.8139 7.7531 16.3967C6.64685 15.5623 5.98123 14.9623 5.53591 14.4186C5.06248 13.8326 5.04373 13.7811 5.0531 13.242C5.05779 12.9842 5.07185 12.6983 5.0906 12.6045L5.11404 12.4311L6.03748 12.8623C6.92342 13.2701 6.97498 13.2889 7.29373 13.2889C7.57498 13.2889 7.64998 13.2701 7.81873 13.1576C8.12342 12.9608 8.26873 12.703 8.28748 12.3326C8.31092 11.8639 8.1281 11.5826 7.50467 11.1467C7.40154 11.0717 7.39685 11.0576 7.4531 10.917C7.63592 10.4858 8.18435 9.77795 8.6906 9.33264C9.1406 8.94358 9.42654 8.76545 10.5 8.21701C11.5594 7.67795 12.1265 7.35451 12.689 6.97483C12.8765 6.85295 13.0547 6.74983 13.0922 6.74983C13.2 6.74983 14.0906 7.19983 14.4 7.41545C15.3562 8.06233 16.1297 9.13576 16.575 10.4342L16.7531 10.9405L16.5703 11.0811C16.0078 11.5311 15.9094 11.6201 15.8109 11.8123C15.7172 11.9858 15.6984 12.0748 15.7125 12.3326C15.7312 12.703 15.8765 12.9608 16.1812 13.1576C16.35 13.2701 16.425 13.2889 16.7062 13.2889C17.025 13.2889 17.0765 13.2701 17.9625 12.8623L18.8859 12.4311L18.9094 12.6045C18.9281 12.6983 18.9422 12.9842 18.9469 13.242C18.9562 13.7811 18.9375 13.8326 18.464 14.4186C18.0187 14.9623 17.3531 15.5623 16.2469 16.3967C15.6937 16.8139 15.6375 17.4373 16.1156 17.8686C16.575 18.2811 17.3719 18.253 18.5719 17.7842C19.6781 17.3483 20.6297 16.7717 21.2953 16.1295C21.9375 15.5108 22.3265 14.9061 22.5562 14.1514L22.664 13.8045L22.6781 9.76389C22.6922 5.75139 22.6875 5.71858 22.5937 5.62483C22.4672 5.49826 22.214 5.49826 22.0969 5.62951C22.0125 5.72326 22.0078 5.87795 21.9844 9.7217L21.9609 13.7108L21.8344 14.0764C21.3703 15.4405 19.9547 16.5889 17.8594 17.2967C17.1047 17.5498 16.5 17.4983 16.5 17.1795C16.5 17.0905 16.5984 16.9967 16.9594 16.7295C18.4219 15.6467 19.4765 14.4842 19.6359 13.7858C19.7062 13.4717 19.6125 12.2108 19.5094 12.0045C19.4156 11.8311 19.1719 11.6717 18.9844 11.6717C18.9187 11.6717 18.4031 11.8826 17.8359 12.1405C17.2687 12.3983 16.7578 12.6092 16.7015 12.6092C16.4484 12.6092 16.3078 12.2389 16.4906 12.0561C16.6172 11.9295 17.2734 11.4373 17.6859 11.1608C18.2859 10.7576 18.3562 10.7342 19.064 10.7342C19.7812 10.7342 19.9031 10.6967 19.9734 10.4576C20.0015 10.3451 20.0156 9.52483 20.0062 8.09514L19.9922 5.8967L19.8797 5.80764C19.7297 5.68576 19.5375 5.69514 19.4156 5.82639C19.3125 5.9342 19.3125 5.94358 19.3125 7.98264V10.0311H19.0312C18.8765 10.0311 18.75 10.017 18.75 9.99358C18.75 9.97483 18.7828 9.78264 18.8203 9.56233C19.0031 8.52639 18.825 7.60295 18.3375 7.06858C18.1594 6.8717 18.1547 6.85295 18.1265 6.44514C18.0609 5.49826 17.6578 4.44826 17.1281 3.84358C16.7953 3.4592 16.3265 3.10764 15.8812 2.89201L15.5344 2.72795L15.4453 2.44201C15.2906 1.93108 15.0234 1.51389 14.5547 1.04983C14.1984 0.698263 14.0531 0.590451 13.6828 0.412326C13.439 0.290451 13.1062 0.159201 12.9375 0.117013C12.5156 0.0138885 11.6812 -0.0142365 11.264 0.065451ZM16.3172 4.02639C16.8562 4.5092 17.1937 5.16076 17.3625 6.03264L17.4234 6.36545L17.2687 6.29045C17.0719 6.1967 16.8844 6.25295 16.7859 6.42639C16.6594 6.65139 16.739 6.76389 17.3156 7.1717C17.9015 7.5842 18.0094 7.71545 18.1265 8.17483C18.2156 8.52639 18.1875 9.26701 18.0656 9.80608L17.9859 10.1717L17.6859 10.3358C17.5219 10.4248 17.3812 10.4998 17.3672 10.4998C17.3578 10.4998 17.325 10.4201 17.2922 10.3217C16.739 8.61076 15.6187 7.22795 14.1422 6.44514L13.7344 6.22483L14.0062 5.98576C14.8359 5.23576 15.375 4.44358 15.5156 3.76858L15.5672 3.51545L15.8015 3.64201C15.9328 3.71701 16.1625 3.88576 16.3172 4.02639Z" fill="#8B3E00"/>
<path d="M16.4016 13.8844C16.3594 13.9172 16.2328 14.1047 16.1109 14.2969C15.0797 15.9891 13.0078 17.0391 11.3344 16.7156C10.0031 16.4578 8.7375 15.5906 7.94531 14.3906C7.64531 13.9359 7.57969 13.875 7.40156 13.875C7.275 13.875 7.07812 14.0813 7.07812 14.2125C7.07812 14.3672 7.47656 15 7.84687 15.4359C8.2125 15.8578 8.64375 16.2281 9.15469 16.5609L9.51562 16.7953L9.50625 17.5734L9.49219 18.3516L8.44687 18.6188C7.875 18.7641 7.28906 18.9375 7.14844 19.0031C6.13594 19.4672 5.39062 20.4141 5.20781 21.4688C5.15156 21.8063 5.0625 23.0438 5.0625 23.5078C5.0625 23.775 5.07656 23.8172 5.18437 23.9016L5.31094 24H12H18.6891L18.8203 23.8969L18.9516 23.7938L18.9187 23.0672C18.8531 21.5625 18.7687 21.1031 18.4359 20.475C18.2109 20.0438 18.0516 19.875 17.8641 19.875C17.6953 19.875 17.5312 20.0297 17.5312 20.1984C17.5312 20.2641 17.6156 20.4516 17.7187 20.625C18.0469 21.1734 18.1219 21.4969 18.2109 22.8656L18.2437 23.2969H12H5.76094L5.78906 22.8422C5.89687 21.1828 6.05156 20.7422 6.73125 20.1188C7.1625 19.7203 7.47656 19.5891 8.74687 19.2703C9.38906 19.1109 9.90937 18.9516 9.97969 18.9C10.1719 18.7594 10.2141 18.5578 10.2141 17.7984C10.2187 17.1281 10.2234 17.1094 10.3078 17.1563C10.3594 17.1797 10.5984 17.2594 10.8375 17.325C11.4797 17.4984 12.2016 17.5266 12.8344 17.3953C13.1016 17.3391 13.425 17.2547 13.5516 17.2078L13.7812 17.1188V17.85C13.7812 18.6375 13.8047 18.7453 14.0203 18.9C14.0859 18.9516 14.6484 19.1203 15.2859 19.2891C15.9141 19.4484 16.5187 19.6125 16.6266 19.6453C16.7953 19.6969 16.8328 19.6922 16.9406 19.6266C17.0953 19.5234 17.1469 19.3313 17.0578 19.1766C16.9641 19.0078 16.6453 18.8906 15.4828 18.6L14.4844 18.3516V17.5734V16.7953L14.85 16.5609C15.3797 16.2094 15.8016 15.8438 16.1672 15.4172C16.5047 15.0141 16.9687 14.2875 16.9687 14.1563C16.9687 14.1094 16.9266 14.0203 16.8703 13.95C16.7625 13.8141 16.5281 13.7813 16.4016 13.8844Z" fill="#8B3E00"/>
</svg>
