<svg width="24" height="24" viewBox="0 0 24 24" fill="none" xmlns="http://www.w3.org/2000/svg">
<g id="Group">
<path id="Vector" d="M11 20.5H10.9998C10.6214 20.5001 10.2569 20.3572 9.9794 20.0999C9.79992 19.9334 9.66542 19.7271 9.58512 19.5H14.4144C14.3468 19.6915 14.2404 19.869 14.0998 20.0206C13.8447 20.2957 13.4959 20.4651 13.1221 20.4956L12.9916 20.5H11ZM18.5 12.764V12.882L18.5528 12.9876L20.3748 16.6316L20.3748 16.6316C20.4181 16.7184 20.4399 16.8143 20.438 16.9113C20.4362 17.0082 20.4109 17.1033 20.3643 17.1883C20.3177 17.2734 20.2512 17.3458 20.1705 17.3996C20.0929 17.4512 20.0043 17.484 19.9119 17.4955L19.8249 17.5H4.16197H4.16182C4.06482 17.5 3.96926 17.4765 3.88332 17.4315C3.79739 17.3865 3.72365 17.3214 3.66841 17.2416C3.61318 17.1619 3.5781 17.07 3.56619 16.9737C3.55474 16.8812 3.56501 16.7873 3.59611 16.6996L3.63086 16.6203L5.44718 12.9876L5.49997 12.882V12.764V9C5.49997 7.27609 6.18479 5.62279 7.40378 4.40381C8.62276 3.18482 10.2761 2.5 12 2.5C13.6853 2.49997 15.3048 3.15454 16.5168 4.32564C17.7277 5.49574 18.4373 7.09008 18.4961 8.77284L18.5 9.00415V12.764Z" fill="white" stroke="black"/>
</g>
</svg>
