<svg width="18" height="18" viewBox="0 0 18 18" fill="none" xmlns="http://www.w3.org/2000/svg">
<path d="M9.98438 12.375C9.98438 12.4869 9.93993 12.5942 9.86081 12.6733C9.7817 12.7524 9.67439 12.7969 9.5625 12.7969C9.30143 12.7969 9.05105 12.6932 8.86644 12.5086C8.68184 12.324 8.57813 12.0736 8.57813 11.8125V9C8.57813 8.9627 8.56331 8.92694 8.53694 8.90056C8.51057 8.87419 8.4748 8.85938 8.4375 8.85938C8.32561 8.85938 8.21831 8.81493 8.13919 8.73581C8.06008 8.65669 8.01563 8.54939 8.01563 8.4375C8.01563 8.32561 8.06008 8.21831 8.13919 8.13919C8.21831 8.06007 8.32561 8.01562 8.4375 8.01562C8.69858 8.01562 8.94896 8.11934 9.13356 8.30394C9.31817 8.48855 9.42188 8.73893 9.42188 9V11.8125C9.42188 11.8498 9.43669 11.8856 9.46307 11.9119C9.48944 11.9383 9.52521 11.9531 9.5625 11.9531C9.67439 11.9531 9.7817 11.9976 9.86081 12.0767C9.93993 12.1558 9.98438 12.2631 9.98438 12.375ZM8.71875 6.60938C8.85782 6.60938 8.99376 6.56814 9.10939 6.49088C9.22502 6.41362 9.31514 6.3038 9.36836 6.17532C9.42157 6.04684 9.4355 5.90547 9.40837 5.76908C9.38124 5.63268 9.31427 5.5074 9.21594 5.40907C9.1176 5.31073 8.99232 5.24377 8.85593 5.21664C8.71953 5.18951 8.57816 5.20343 8.44968 5.25665C8.3212 5.30987 8.21139 5.39999 8.13413 5.51561C8.05687 5.63124 8.01563 5.76718 8.01563 5.90625C8.01563 6.09273 8.08971 6.27157 8.22157 6.40343C8.35343 6.5353 8.53227 6.60938 8.71875 6.60938ZM16.1719 9C16.1719 10.4185 15.7513 11.8051 14.9632 12.9845C14.1751 14.1639 13.055 15.0831 11.7446 15.6259C10.4341 16.1688 8.99205 16.3108 7.60084 16.0341C6.20963 15.7573 4.93173 15.0743 3.92872 14.0713C2.92572 13.0683 2.24266 11.7904 1.96593 10.3992C1.68921 9.00796 1.83123 7.56593 2.37405 6.25544C2.91688 4.94495 3.83611 3.82486 5.01552 3.0368C6.19493 2.24875 7.58154 1.82813 9 1.82812C10.9014 1.83036 12.7243 2.58668 14.0688 3.93119C15.4133 5.27569 16.1696 7.09859 16.1719 9ZM15.3281 9C15.3281 7.74841 14.957 6.52494 14.2616 5.48428C13.5663 4.44363 12.578 3.63254 11.4217 3.15357C10.2654 2.67461 8.99298 2.5493 7.76545 2.79347C6.53791 3.03764 5.41035 3.64034 4.52534 4.52534C3.64034 5.41034 3.03764 6.53791 2.79347 7.76544C2.5493 8.99298 2.67462 10.2654 3.15358 11.4217C3.63254 12.578 4.44363 13.5663 5.48429 14.2616C6.52494 14.957 7.74842 15.3281 9 15.3281C10.6778 15.3263 12.2863 14.659 13.4726 13.4726C14.659 12.2863 15.3263 10.6778 15.3281 9Z" fill="black"/>
</svg>
