<svg width="25" height="25" viewBox="0 0 25 25" fill="none" xmlns="http://www.w3.org/2000/svg">
<path d="M14.2336 1.05379C13.1795 1.32835 12.2724 2.2354 12.0028 3.27973C11.8949 3.69158 11.8949 4.3878 12.0028 4.79965C12.2479 5.75082 12.9932 6.55491 13.9493 6.89812C14.415 7.06482 15.2338 7.10404 15.7094 6.98637C16.2831 6.83928 16.7194 6.58923 17.1558 6.15287C17.5922 5.7116 17.8471 5.27033 17.9893 4.70649C18.107 4.23091 18.0677 3.46604 17.8961 2.98555C17.4598 1.75981 16.3076 0.970435 14.9691 0.980241C14.7141 0.980241 14.3807 1.01456 14.2336 1.05379ZM15.7192 2.15205C16.5331 2.46094 17.0822 3.31895 17.0136 4.18188C16.9989 4.37309 16.9499 4.62804 16.9057 4.75062C16.3909 6.2019 14.4003 6.5402 13.4491 5.33407C13.1403 4.94183 13.0373 4.61334 13.0324 4.03969C13.0324 3.58862 13.0471 3.52488 13.1893 3.2209C13.356 2.86788 13.6992 2.46094 13.9738 2.29424C14.4641 1.99025 15.1456 1.93632 15.7192 2.15205Z" fill="#8B3E00"/>
<path d="M12.689 7.56529C12.3163 7.66335 12.184 7.72709 11.8604 7.95753C11.4485 8.25171 11.1838 8.59491 10.9925 9.0754C10.9288 9.24701 10.7474 10.257 10.4777 11.9829C10.2522 13.439 10.0561 14.6942 10.0414 14.7775C10.0217 14.9001 9.97272 14.9442 9.74718 15.0423C9.56577 15.1208 9.38927 15.2531 9.21766 15.4394C8.97742 15.6944 8.87936 15.8954 7.88896 18.1165C7.2957 19.4354 6.78089 20.5827 6.74167 20.6709L6.66812 20.8278L4.16271 20.8425L1.6573 20.8572L1.3337 21.0141C0.946366 21.2053 0.647286 21.5142 0.465876 21.9016C0.348205 22.1467 0.333496 22.2448 0.333496 22.6713C0.333496 23.1077 0.348205 23.191 0.470779 23.4411C0.642383 23.7941 1.05423 24.1716 1.42686 24.3236L1.70633 24.4364L4.74616 24.4511C7.99192 24.4658 8.22236 24.456 8.65382 24.2354C9.14412 23.9853 9.26179 23.8088 9.91879 22.3183C10.2473 21.5682 10.5856 20.8082 10.6689 20.6219L10.816 20.2934H17.4301H24.0491L24.1913 20.1512L24.3335 20.009V17.6262C24.3335 16.0425 24.3139 15.209 24.2796 15.1306C24.1766 14.905 24.0687 14.8756 23.1764 14.8609L22.338 14.8413L22.289 14.6844C22.2252 14.4834 17.8812 8.237 17.6066 7.95263C17.4939 7.83986 17.2928 7.69767 17.1556 7.63393C16.9104 7.52116 16.881 7.52116 14.9198 7.51136C13.4244 7.50646 12.8753 7.51626 12.689 7.56529ZM16.832 8.59001C16.9349 8.64394 18.0969 10.2815 20.9014 14.3461L21.2495 14.8511H20.622H19.9895L18.8912 13.2478C18.2881 12.3653 17.7292 11.571 17.6508 11.4828C17.5331 11.3504 17.4743 11.321 17.3125 11.321C17.0526 11.321 16.8467 11.468 16.7829 11.7034C16.7584 11.8015 16.6457 12.4928 16.5378 13.2331C16.4299 13.9735 16.327 14.6403 16.3122 14.7138L16.2828 14.8511H13.7627C11.6642 14.8511 11.2426 14.8413 11.2426 14.7825C11.2426 14.7481 11.3946 13.5567 11.5809 12.1398C11.8309 10.2472 11.9486 9.50686 12.0173 9.34997C12.1545 9.05089 12.5076 8.72729 12.8213 8.61943C13.0567 8.53608 13.2626 8.53118 14.8953 8.52627C16.2534 8.52627 16.7388 8.54098 16.832 8.59001ZM18.0822 14.0421C18.3666 14.454 18.597 14.807 18.597 14.8217C18.597 14.8364 18.293 14.8511 17.9204 14.8511H17.2438L17.3664 14.047C17.435 13.6008 17.5037 13.2478 17.5233 13.2625C17.5478 13.2772 17.7978 13.6254 18.0822 14.0421ZM23.3039 17.5968V19.2638H16.832C12.0957 19.2638 10.3306 19.2785 10.2424 19.3177C10.1002 19.3814 10.1443 19.2981 9.19805 21.3916C8.81072 22.2497 8.4577 23.0047 8.41848 23.0636C8.24197 23.3381 8.2812 23.3332 4.93247 23.3332C1.96618 23.3332 1.84851 23.3283 1.69652 23.2352C1.24545 22.9606 1.22584 22.3575 1.6622 22.029L1.84361 21.8868L4.52063 21.8721C6.9574 21.8574 7.20745 21.8525 7.30061 21.7741C7.36434 21.725 7.85464 20.6758 8.54596 19.0922C9.17354 17.6605 9.72757 16.4102 9.7815 16.3073C9.83053 16.2043 9.9433 16.0768 10.0316 16.0278C10.1835 15.9297 10.3208 15.9297 16.7486 15.9297H23.3039V17.5968Z" fill="#8B3E00"/>
<path d="M3.75105 13.8949C2.90774 14.0862 2.07424 14.7432 1.71142 15.4982C1.47117 16.0032 1.37311 16.4837 1.40253 16.9936C1.5202 18.7342 3.1676 20.0335 4.86892 19.7344C6.58986 19.4304 7.69793 17.6947 7.23706 16.0277C6.987 15.106 6.22704 14.3068 5.30529 13.9832C4.86402 13.8312 4.19722 13.792 3.75105 13.8949ZM5.05524 15.0079C5.57005 15.1991 6.00641 15.66 6.20253 16.214C6.34472 16.621 6.3104 17.2192 6.11918 17.6212C5.93777 17.9938 5.54063 18.3959 5.17781 18.5675C4.92286 18.6851 4.8346 18.6998 4.37863 18.6998C3.89323 18.6998 3.8393 18.69 3.54022 18.543C2.36351 17.9595 2.08894 16.4494 2.98619 15.4884C3.51571 14.9246 4.31489 14.7383 5.05524 15.0079Z" fill="#8B3E00"/>
<path d="M12.3558 21.6513C12.2577 21.7101 11.9782 22.1367 11.4781 22.9898C11.0761 23.6762 10.7231 24.294 10.6986 24.3577C10.6348 24.5146 10.7231 24.7745 10.8849 24.9019C11.0075 25 11.0663 25 17.5284 25H24.0493L24.1915 24.8578L24.3337 24.7156V23.2889V21.867L24.216 21.7297L24.0984 21.5924L18.2933 21.5777C12.8412 21.5679 12.4832 21.5728 12.3558 21.6513ZM23.3041 23.284V23.9704H17.7147H12.1204L12.1793 23.8576C12.2479 23.7301 12.7431 22.8672 12.8461 22.7054L12.9098 22.5975H18.1069H23.3041V23.284Z" fill="#8B3E00"/>
</svg>
