<svg width="18" height="18" viewBox="0 0 18 18" fill="none" xmlns="http://www.w3.org/2000/svg">
<path d="M5.47166 0.465332C4.82175 0.641113 4.34802 1.1333 4.21099 1.76611C4.18359 1.90283 4.16793 2.66455 4.16793 4.06299C4.16793 5.69971 4.15618 6.15283 4.12095 6.16455C3.06778 6.48096 2.45703 6.82861 1.81886 7.47705C-0.0603863 9.37158 -0.0525561 12.4106 1.83453 14.2974C2.46877 14.9263 3.08344 15.2739 4.12095 15.5864C4.15227 15.5942 4.16793 15.6763 4.16793 15.813C4.16793 16.6528 4.68472 17.3286 5.48732 17.5356C5.67916 17.5864 6.42694 17.5942 10.8902 17.5942C14.5743 17.5942 16.1247 17.5825 16.2734 17.5513C16.7393 17.4497 17.217 17.0942 17.4206 16.6958C17.6437 16.2544 17.6359 16.5356 17.6359 10.5044C17.6359 4.52393 17.6437 4.75439 17.4362 4.34033C17.3227 4.11377 13.9714 0.762207 13.7208 0.625488C13.3097 0.402832 13.4037 0.406738 9.37502 0.410645C6.32124 0.410645 5.64001 0.422363 5.47166 0.465332ZM12.3113 2.75049C12.3113 3.64111 12.327 4.22705 12.3544 4.35986C12.4914 5.00049 13.0317 5.53955 13.6738 5.67627C13.8069 5.70361 14.3942 5.71924 15.2907 5.71924H16.6963L16.6884 10.9224L16.6767 16.1294L16.5827 16.2778C16.5318 16.3599 16.4183 16.4731 16.3322 16.5317L16.1716 16.6372H10.9019H5.63218L5.47166 16.5317C5.26024 16.395 5.14671 16.1997 5.1193 15.9341L5.09581 15.7192H5.34638C5.6635 15.7192 6.25468 15.6294 6.63445 15.5239C7.33916 15.3247 8.13393 14.8521 8.68988 14.2935C10.1424 12.8442 10.5261 10.6528 9.64908 8.81689C9.39068 8.27393 9.11271 7.87939 8.68988 7.45752C7.93426 6.70361 7.0377 6.25439 5.96888 6.09033C5.76529 6.05908 5.48732 6.03174 5.35421 6.03174H5.10755V4.02783C5.10755 2.74268 5.12321 1.97314 5.15062 1.87939C5.20152 1.6958 5.45208 1.43799 5.62435 1.38721C5.70265 1.36768 7.09251 1.34814 9.03441 1.34814L12.3113 1.34424V2.75049ZM14.9619 3.07471C15.8506 3.96143 16.5788 4.70752 16.5788 4.73486C16.5788 4.77393 16.2852 4.78174 15.1811 4.77393C13.7834 4.76221 13.7795 4.76221 13.6307 4.66846C13.5485 4.61768 13.435 4.50439 13.3763 4.41846L13.2706 4.26221L13.2588 2.85986C13.251 1.75439 13.2588 1.46143 13.298 1.46143C13.3254 1.46143 14.0731 2.18799 14.9619 3.07471ZM5.91015 7.02783C7.47619 7.30127 8.67813 8.42236 9.07356 9.97705C9.17143 10.3755 9.19101 11.2544 9.10488 11.6372C8.83865 12.8481 8.08303 13.8247 6.99855 14.3677C5.98454 14.8755 4.75519 14.9067 3.71769 14.4575C1.66226 13.563 0.765701 11.1294 1.76405 9.14502C2.53924 7.59814 4.22666 6.73486 5.91015 7.02783Z" fill="black" fill-opacity="0.8"/>
</svg>
