<svg width="21" height="20" viewBox="0 0 21 20" fill="none" xmlns="http://www.w3.org/2000/svg">
<path d="M19.5043 10.4875C19.3744 10.4886 19.2492 10.4391 19.1552 10.3496L18.8658 10.0602L18.0123 9.20668V10.4138V16.9998C18.0123 17.6628 17.7489 18.2987 17.2801 18.7676C16.8112 19.2364 16.1753 19.4998 15.5123 19.4998H5.51229C4.84925 19.4998 4.21336 19.2364 3.74452 18.7676C3.27568 18.2987 3.01229 17.6628 3.01229 16.9998V10.4138V9.20668L2.15873 10.0602L1.86573 10.3532L1.86568 10.3532L1.85964 10.3594C1.81352 10.4072 1.75835 10.4453 1.69735 10.4715C1.63634 10.4977 1.57073 10.5115 1.50434 10.5121C1.43796 10.5126 1.37212 10.5 1.31067 10.4748C1.24922 10.4497 1.19339 10.4126 1.14645 10.3656C1.0995 10.3187 1.06237 10.2629 1.03723 10.2014C1.01209 10.14 0.999442 10.0741 1.00002 10.0077C1.0006 9.94134 1.01439 9.87573 1.04059 9.81473C1.0668 9.75373 1.10489 9.69855 1.15264 9.65243L1.1527 9.65248L1.15884 9.64634L3.15884 7.64634L10.1588 0.646393C10.1588 0.646375 10.1588 0.646358 10.1588 0.64634C10.2526 0.552638 10.3797 0.5 10.5123 0.5C10.6448 0.5 10.772 0.552638 10.8657 0.64634C10.8658 0.646358 10.8658 0.646375 10.8658 0.646393L19.8622 9.64278C19.9517 9.73679 20.0011 9.86197 20 9.99184C19.9988 10.1229 19.9463 10.2483 19.8536 10.3411C19.7609 10.4338 19.6354 10.4863 19.5043 10.4875Z" fill="#030303" stroke="#030303"/>
</svg>
