<svg width="27" height="27" viewBox="0 0 27 27" fill="none" xmlns="http://www.w3.org/2000/svg">
<path d="M8.68367 0.575888C4.50768 1.11455 1.14768 4.15989 0.235681 8.23988C-0.286985 10.5705 0.0596809 12.3625 1.27568 13.6479L1.54235 13.9305L1.00368 15.0132C0.550347 15.9252 0.459681 16.1545 0.433014 16.4265C0.353014 17.2799 0.89168 17.9999 1.78768 18.2345C1.98501 18.2879 2.15568 18.3359 2.16635 18.3412C2.17701 18.3519 2.31035 19.0665 2.47035 19.9412C2.80635 21.7385 2.88101 21.9465 3.35034 22.4265C3.69168 22.7679 4.12901 22.9972 4.61968 23.0772C4.91834 23.1305 5.12101 23.1145 6.40101 22.9332C7.63301 22.7572 7.85167 22.7412 7.91567 22.8052C8.05434 22.9439 8.35834 23.7812 8.44367 24.2559C8.49701 24.5812 8.52367 25.0772 8.52367 25.8399V26.9545H8.95567H9.38767L9.36101 25.5785C9.33434 24.1012 9.29167 23.8025 8.97701 23.0505C8.89701 22.8639 8.82234 22.6772 8.81167 22.6345C8.79034 22.5652 8.92367 22.5225 9.51567 22.4105C9.91567 22.3305 10.257 22.2505 10.273 22.2345C10.2997 22.2079 10.1877 21.5305 10.145 21.4559C10.1343 21.4345 9.73434 21.5039 9.25967 21.5999C8.40101 21.7759 5.24368 22.2612 4.95568 22.2612C4.87568 22.2612 4.68368 22.2239 4.52368 22.1759C4.18234 22.0745 3.72368 21.6479 3.62234 21.3385C3.58501 21.2319 3.41434 20.3839 3.24901 19.4559C3.05168 18.3732 2.91301 17.7492 2.85968 17.6959C2.81701 17.6479 2.56101 17.5572 2.29968 17.4932C2.03301 17.4239 1.74501 17.3225 1.64901 17.2692C1.45701 17.1572 1.27035 16.8105 1.27035 16.5652C1.27035 16.4585 1.56901 15.8025 2.12901 14.6825C2.76368 13.4079 2.97701 12.9225 2.96101 12.8265C2.94501 12.7519 2.87568 12.4479 2.80101 12.1545C2.52901 11.0825 2.48635 9.98388 2.68901 9.22121C2.83301 8.67188 3.34501 7.71722 3.41968 7.85055C3.43568 7.87188 3.92101 9.23722 4.49701 10.8799C5.72901 14.3892 5.89434 14.8212 6.44368 15.9145C7.44101 17.9145 8.59301 19.5092 10.1717 21.0879C11.1477 22.0639 12.129 22.8745 13.1583 23.5625C13.8943 24.0532 15.0143 24.6932 15.5637 24.9439C15.7557 25.0292 15.9157 25.1039 15.921 25.1092C15.9317 25.1145 15.9957 25.5412 16.0703 26.0479C16.145 26.5545 16.2143 26.9812 16.225 26.9972C16.2463 27.0185 17.009 26.9119 17.041 26.8852C17.0463 26.8799 17.009 26.5705 16.9557 26.2079C16.9023 25.8399 16.8597 25.5359 16.865 25.5305C16.8703 25.5252 17.057 25.5892 17.2757 25.6799C17.8837 25.9305 19.2917 26.3412 20.1503 26.5172C21.729 26.8425 22.9077 26.9545 24.8543 26.9545H26.1823L26.3103 26.8212C26.4703 26.6665 26.4863 26.4265 26.353 26.2719C26.2997 26.2079 25.3663 25.7865 24.2037 25.3012C23.073 24.8265 21.937 24.3305 21.6703 24.2025C21.201 23.9679 20.5023 23.5412 20.5343 23.5092C20.545 23.4985 20.9023 23.6159 21.3237 23.7599C22.6517 24.2185 24.2837 24.6079 25.601 24.7679C26.065 24.8265 26.1397 24.8265 26.257 24.7465C26.3263 24.6985 26.4063 24.5972 26.4223 24.5172C26.4917 24.2399 26.3957 24.1225 25.8197 23.8025C24.7797 23.2265 23.649 22.3999 23.057 21.7812L22.7903 21.5039L23.009 21.6372C23.8357 22.1492 25.3983 22.6879 26.0437 22.6879C26.241 22.6879 26.4437 22.4639 26.4437 22.2559C26.4437 22.1119 26.3903 22.0372 26.113 21.7865C25.0623 20.8532 24.3157 19.8559 23.8197 18.7252C23.297 17.5252 22.2623 13.8399 21.6383 10.9279C21.2223 8.99722 21.0677 8.46388 20.6357 7.50388C19.025 3.85589 15.617 1.26389 11.617 0.634554C10.8597 0.517221 9.39301 0.485222 8.68367 0.575888ZM11.137 1.43989C15.473 1.94122 19.1583 5.05055 20.3637 9.22121C20.449 9.51455 20.625 10.2825 20.7637 10.9279C21.313 13.5145 22.4117 17.5359 22.9023 18.7412C23.233 19.5572 23.697 20.3625 24.2143 21.0239C24.3583 21.2105 24.4703 21.3759 24.4543 21.3865C24.4063 21.4345 23.4943 20.9439 23.089 20.6612C22.577 20.2985 21.8997 19.6159 21.5583 19.1145C21.409 18.8959 20.609 17.5359 19.777 16.1012C18.9503 14.6612 18.225 13.4452 18.1663 13.3919C17.9317 13.1892 17.4837 13.3865 17.4837 13.6905C17.4837 13.8399 19.3663 18.0532 19.809 18.9012C20.1557 19.5625 20.7477 20.4532 21.249 21.0879C21.7077 21.6639 22.8223 22.7732 23.393 23.2159C23.633 23.4079 23.8197 23.5679 23.809 23.5785C23.777 23.6159 22.5077 23.2639 21.7503 23.0079C20.3157 22.5279 19.0783 21.9519 17.729 21.1519C17.3503 20.9279 16.977 20.6772 16.9023 20.6025C16.7263 20.4319 15.873 18.9972 15.521 18.2825C14.9823 17.2105 14.513 15.9785 14.1877 14.8212C14.0543 14.3572 13.217 10.7625 13.217 10.6665C13.217 10.6452 12.9183 10.7039 12.5717 10.7945L12.3797 10.8479L12.7157 12.3519C13.4357 15.5359 13.793 16.6665 14.6517 18.4372C14.849 18.8372 14.993 19.1679 14.9663 19.1679C14.865 19.1679 12.8703 17.1092 12.385 16.5012C11.2437 15.0719 10.6943 14.1812 9.68101 12.1279C9.27034 11.2905 8.92367 10.5972 8.91301 10.5865C8.89167 10.5599 8.15034 10.9065 8.15034 10.9439C8.15034 11.0719 9.85167 14.3572 10.2197 14.9332C11.9957 17.7599 14.4223 20.1439 17.233 21.8452C17.841 22.2079 17.9903 22.3305 18.321 22.7092C18.8223 23.2852 19.4517 23.8292 20.177 24.3145C20.8703 24.7785 21.4783 25.0825 22.8277 25.6479C23.377 25.8825 23.8197 26.0799 23.8037 26.0905C23.793 26.1012 23.425 26.0852 22.9823 26.0532C20.401 25.8559 18.1503 25.2532 15.9103 24.1545C13.8943 23.1679 12.401 22.0959 10.785 20.4799C9.73434 19.4239 9.15834 18.7252 8.39034 17.5679C7.61167 16.3892 7.00901 15.2479 6.52368 14.0212C6.34234 13.5625 4.09701 7.17855 4.09701 7.11988C4.09701 7.08788 4.59834 6.65588 4.89168 6.44255C4.96101 6.38922 4.92901 6.33588 4.68901 6.05322L4.40634 5.72788L3.88901 6.14922C2.94501 6.92255 2.42235 7.56255 2.09701 8.34122C1.79301 9.06655 1.72368 9.44522 1.72901 10.3945C1.72901 11.2425 1.80368 11.7972 2.00101 12.5172C2.07035 12.7732 2.07568 12.8532 2.01701 12.9705L1.95301 13.1145L1.71835 12.8479C1.44101 12.5385 1.10501 11.8719 0.966347 11.3812C0.849014 10.9599 0.838347 9.65855 0.945013 9.03455C1.41968 6.23988 2.99301 3.94122 5.37701 2.57055C7.13167 1.56255 9.01434 1.18922 11.137 1.43989Z" fill="#8B3E00"/>
</svg>
