<svg width="7" height="7" viewBox="0 0 7 7" fill="none" xmlns="http://www.w3.org/2000/svg">
<path d="M6.60344 3.25L3.5 0.146565C3.45374 0.0999336 3.39867 0.062963 3.338 0.0378022C3.27732 0.0126415 3.21225 -0.000207325 3.14657 2.52967e-06H0.250003C0.183698 2.52967e-06 0.12011 0.0263418 0.0732259 0.0732259C0.0263418 0.12011 2.52967e-06 0.183698 2.52967e-06 0.250003V3.14657C-0.000207325 3.21225 0.0126415 3.27732 0.0378022 3.338C0.062963 3.39867 0.0999336 3.45374 0.146565 3.5L3.25 6.60344C3.29643 6.64988 3.35156 6.68672 3.41223 6.71186C3.4729 6.73699 3.53793 6.74993 3.6036 6.74993C3.66927 6.74993 3.73429 6.73699 3.79496 6.71186C3.85563 6.68672 3.91076 6.64988 3.95719 6.60344L6.60344 3.95719C6.64988 3.91076 6.68672 3.85563 6.71186 3.79496C6.73699 3.73429 6.74993 3.66927 6.74993 3.6036C6.74993 3.53793 6.73699 3.4729 6.71186 3.41223C6.68672 3.35156 6.64988 3.29643 6.60344 3.25ZM3.60344 6.25L0.500003 3.14657V0.500003H3.14657L6.25 3.60344L3.60344 6.25ZM2 1.625C2 1.69917 1.97801 1.77167 1.9368 1.83334C1.8956 1.89501 1.83703 1.94307 1.76851 1.97146C1.69999 1.99984 1.62459 2.00727 1.55184 1.9928C1.4791 1.97833 1.41228 1.94261 1.35984 1.89017C1.30739 1.83772 1.27168 1.7709 1.25721 1.69816C1.24274 1.62542 1.25016 1.55002 1.27855 1.4815C1.30693 1.41297 1.355 1.35441 1.41666 1.3132C1.47833 1.272 1.55083 1.25 1.625 1.25C1.72446 1.25 1.81984 1.28951 1.89017 1.35984C1.96049 1.43016 2 1.52555 2 1.625Z" fill="#8B3E00"/>
</svg>
