<svg width="19" height="16" viewBox="0 0 19 16" fill="none" xmlns="http://www.w3.org/2000/svg">
<path d="M10.3254 15.4238C10.2205 15.3193 10.1373 15.1951 10.0805 15.0584C10.0237 14.9216 9.99447 14.775 9.99447 14.627C9.99447 14.4789 10.0237 14.3323 10.0805 14.1955C10.1373 14.0588 10.2205 13.9346 10.3254 13.8301L15.1525 9.00289L1.3713 9.00289C1.07293 9.00289 0.786781 8.88436 0.575804 8.67338C0.364826 8.46241 0.2463 8.17626 0.2463 7.87789C0.2463 7.57952 0.364826 7.29337 0.575804 7.08239C0.786781 6.87142 1.07293 6.75289 1.3713 6.75289L15.1525 6.75289L12.739 4.33836L10.3254 1.92383C10.114 1.71248 9.99529 1.42584 9.99529 1.12695C9.99529 0.828065 10.114 0.541421 10.3254 0.330077C10.5367 0.118732 10.8234 3.14928e-09 11.1222 0C11.4211 -3.14928e-09 11.7078 0.118732 11.9191 0.330077L18.6691 7.08008C18.774 7.18459 18.8572 7.30878 18.914 7.44553C18.9708 7.58228 19 7.72889 19 7.87695C19 8.02502 18.9708 8.17163 18.914 8.30837C18.8572 8.44512 18.774 8.56931 18.6691 8.67383L11.9191 15.4238C11.8146 15.5287 11.6904 15.6119 11.5537 15.6687C11.4169 15.7255 11.2703 15.7547 11.1222 15.7547C10.9742 15.7547 10.8276 15.7255 10.6908 15.6687C10.5541 15.6119 10.4299 15.5287 10.3254 15.4238Z" fill="black"/>
</svg>
