<svg width="19" height="18" viewBox="0 0 19 18" fill="none" xmlns="http://www.w3.org/2000/svg">
<path d="M15.8331 3.65625H2.2619C2.03694 3.65625 1.8212 3.74514 1.66213 3.90338C1.50306 4.06161 1.4137 4.27622 1.4137 4.5V13.5C1.4137 13.7238 1.50306 13.9384 1.66213 14.0966C1.8212 14.2549 2.03694 14.3438 2.2619 14.3438H15.8331C16.0581 14.3438 16.2738 14.2549 16.4329 14.0966C16.592 13.9384 16.6813 13.7238 16.6813 13.5V4.5C16.6813 4.27622 16.592 4.06161 16.4329 3.90338C16.2738 3.74514 16.0581 3.65625 15.8331 3.65625ZM2.2619 4.21875H15.8331C15.9081 4.21875 15.98 4.24838 16.033 4.30113C16.0861 4.35387 16.1159 4.42541 16.1159 4.5V6.46875H1.97916V4.5C1.97916 4.42541 2.00895 4.35387 2.06197 4.30113C2.115 4.24838 2.18691 4.21875 2.2619 4.21875ZM15.8331 13.7812H2.2619C2.18691 13.7812 2.115 13.7516 2.06197 13.6989C2.00895 13.6461 1.97916 13.5746 1.97916 13.5V7.03125H16.1159V13.5C16.1159 13.5746 16.0861 13.6461 16.033 13.6989C15.98 13.7516 15.9081 13.7812 15.8331 13.7812ZM14.4194 11.8125C14.4194 11.8871 14.3897 11.9586 14.3366 12.0114C14.2836 12.0641 14.2117 12.0938 14.1367 12.0938H11.8748C11.7999 12.0938 11.7279 12.0641 11.6749 12.0114C11.6219 11.9586 11.5921 11.8871 11.5921 11.8125C11.5921 11.7379 11.6219 11.6664 11.6749 11.6136C11.7279 11.5609 11.7999 11.5312 11.8748 11.5312H14.1367C14.2117 11.5312 14.2836 11.5609 14.3366 11.6136C14.3897 11.6664 14.4194 11.7379 14.4194 11.8125ZM9.89571 11.8125C9.89571 11.8871 9.86592 11.9586 9.8129 12.0114C9.75988 12.0641 9.68796 12.0938 9.61298 12.0938H8.48204C8.40705 12.0938 8.33514 12.0641 8.28212 12.0114C8.22909 11.9586 8.19931 11.8871 8.19931 11.8125C8.19931 11.7379 8.22909 11.6664 8.28212 11.6136C8.33514 11.5609 8.40705 11.5312 8.48204 11.5312H9.61298C9.68796 11.5312 9.75988 11.5609 9.8129 11.6136C9.86592 11.6664 9.89571 11.7379 9.89571 11.8125Z" fill="black"/>
</svg>
